/* XPM */
static char *result[] = {
/* columns rows colors chars-per-pixel */
"50 50 96 2 ",
"   c #4A1B04",
".  c #4D1F09",
"X  c #4F240E",
"o  c #592004",
"O  c #51230C",
"+  c #5C2509",
"@  c #5E2A0D",
"#  c #532711",
"$  c #532914",
"%  c #5D2B12",
"&  c #542E1A",
"*  c #5E3118",
"=  c #60270B",
"-  c #64341B",
";  c #65381F",
":  c #5C3B27",
">  c #663720",
",  c #673A22",
"<  c #683B23",
"1  c #61412E",
"2  c #68452E",
"3  c #644432",
"4  c #6B4431",
"5  c #674836",
"6  c #6F4833",
"7  c #674B3A",
"8  c #6D4E3D",
"9  c #734A34",
"0  c #65503F",
"q  c #6F503F",
"w  c #5D5347",
"e  c #5E5448",
"r  c #6E5040",
"t  c #62594C",
"y  c #6D5949",
"u  c #715341",
"i  c #7A5543",
"p  c #715947",
"a  c #7A5947",
"s  c #715F4F",
"d  c #785D49",
"f  c #655F53",
"g  c #735F50",
"h  c #7A604F",
"j  c #666154",
"k  c #686156",
"l  c #6A655A",
"z  c #6C685D",
"x  c #756253",
"c  c #7C6453",
"v  c #7F6857",
"b  c #77685A",
"n  c #7A695B",
"m  c #6F6C63",
"M  c #746F63",
"N  c #796F61",
"B  c #757064",
"V  c #75756A",
"C  c #7C756C",
"Z  c #7E786D",
"A  c #7E7A72",
"S  c #80604F",
"D  c #816354",
"F  c #806856",
"G  c #816B5B",
"H  c #856F60",
"J  c #897366",
"K  c #82796D",
"L  c #817D73",
"P  c #7E8479",
"I  c #868377",
"U  c #888577",
"Y  c #85827A",
"T  c #898679",
"R  c #8C8A7D",
"E  c #928075",
"W  c #8E8B80",
"Q  c #918E82",
"!  c #948F88",
"~  c #8F9084",
"^  c #939186",
"/  c #95928A",
"(  c #9A958D",
")  c #9B988F",
"_  c #9B9690",
"`  c #949B91",
"'  c #9C9992",
"]  c #9B9E99",
"[  c #A19E96",
"{  c #A29F98",
"}  c #9FA099",
"|  c #A4A19B",
" . c #A6A5A0",
".. c #AAACA7",
"X. c #A9AEA9",
"o. c None",
/* pixels */
"o.o.o.o.o.o.# $ $ $ & $ & & & & & & & & & & & & & & & & & & & & & & & & & & & & $ $ X # O X o.o.o.o.",
"o.o.o.o.o.i J v c c v v c c x b c c c c b b c c c v b b c c c c v v v v v v v v v c c h G H 9 o.o.o.",
"o.o.o.o.< E X.` ^ / / Q R R W R R R R R R R R R R R R R R R R R ^ / ^ / ^ ^ / / / ^ / ~ [ ..H @ o.o.",
"o.o.= < n _ | / W Q W R T R Y R R T T R R R P R R T R R R R P R R ^ ^ ^ ^ ~ ~ ~ ~ ^ ~ ~ _  .Y w - o.",
"o.o.6 x Y ` { ! Q Q T I T U T T T T T T T T T T T T T T U U U R R R R R R Q Q Q ~ R Q R ( | W k r * ",
"O > b Y A / ' ! R Q T T T T T T T T T T T T T T T U T T R U T U T U R U R R Q R R ^ Q R ( [ I l m 7 ",
"O ; b Y L ^ ' R T R T T T T T T T T T T T T T T T T T T T T T T T T R U R R ^ Q R T R U ^ [ Y z m r ",
"X ; b Y Z ! [ R I U T T T T T T T T T T T T T T T T T T T T T T T U U E R R R R T U U U R ' U l z 5 ",
"O > v P B W [ R U T T T T T T T T T T T T T T T T T T T T T T T T T T T T T T T T T U I Q ' I l j 1 ",
"O > x C M R ( R U T T T T T T T T T T T T T T T T T T T T T T T T T T T T T U T T T U U Q ) Y l j 1 ",
"# < y V M W ( R U T T T T T T T T T T T T T T T T T T T T T T T T T T T T T T T T T T U Q ' L k j 3 ",
"# > x V M W _ R L T T T T T T T T T T T T U T T T T T T T T T T T T T T T T T T T T U I Q ' Z t j 3 ",
"# < s V B W ) R T T T T T T T T T T T T T T T T T T T T T T T T T T T T T T T T T T T U Q ) Z t f 3 ",
"# < s V M W ) R U T T T T T T T T T T T T T T T T T T T T T T T T T T T T T T T T T T U Q ) K t f 3 ",
"# < x V M W ) R U T T T T T T T T T T T T T T T T T T T T T T T T T T T T T T T T T T I Q ) K t f 3 ",
"$ < s V B W ) R U T T T T T T T T T T T T T T T T T T T T T T T T T T T T T T T T T T U Q ) C t f 3 ",
"$ < g V M W ) R U T T T T T T T T T T T T T T T T T T T T T T T T T T T T T T T T T T U Q ) Z t f 3 ",
"$ < g V M R ) R U T T T T T T T T T T T T T T T T T T T T T T T T T T T T T T T T T T U Q ) Z t f 3 ",
"# < g V B W ) R U T T T T T T T T T T T T T T T U U T T T T T T T T T T T T T T T T T I Q ) Z t f 3 ",
"$ < g V M W ) R U T T T T T T T T T T T T T T T R U T T T T T T T T T T T T T T T T T U W ) K t j 3 ",
"# < g C B W ) R U U U U T T T T T T T T T T T T T T T T T T T T T T T T T T T T T T T I Q ( K t j 3 ",
"# < g V B W ) R U U U U T T T T T T T T T T T T T T T T T T T T T T T T T T T T T T T I Q ' C t f 3 ",
"$ < g V B R ) R U U R U T T T T T T T T T T T T T T T T T T T T T T T T T T T T T T T U R ( K t f 5 ",
"$ > g V B R ) R U U R U T T T T T T T T T T T T T T T T T T T T T T T T T T T T T T T I Q [ K t f 3 ",
"$ < g V M W ( Q R T T T T T T T T T T T T T T T T T T T T T T T T T T T T T T U T T T U Q ) K t f 3 ",
"$ < x V B R ) ! R R T T T T T T T T T T T T T T T T T T T T T T T T T T T T T T T T T I Q ) Z t j 3 ",
"$ < x V N R ) ^ R R R R T T T T T T T T T T T T T T T T T T T T T T T U T T T T T T T I Q ) Z t j 3 ",
"$ > g V B R ) ^ R R ^ ~ T T T T T T T T T T T T T T T T T T T T T T T R R U T T T T T I W ) Z t f 3 ",
"$ < g V B W ' ! R ^ ^ R T T T T T T T T T T T T T T T T T T T T T T R R R T I T T T T I W ) K t f 3 ",
"$ < g V B R ' Q R ~ R R U T T T T T T T T T T T T T T T T T U T T R Q ! Q T T T T T T U Q _ Z t f 5 ",
"$ < g V N R [ ^ R R R R T T T T T T T T T T T T T T T T T T R U T T R Q R T T T T T T I Q ) Z t f 3 ",
"$ < g V M Q | ^ R R R R T T T T T T T T T T T T T T T T T T T U T T R R R T T T T T T U W ) Z t f 5 ",
"# < g V M ! | / T U T U T T T T T T T T T T T T T T T T T T T T T T U U U T T T T T T I Q ' K t f 3 ",
"# < g V M ! | ^ T U T T T T T T T T T T T T T T T T T T T T T T T T T T T T T T T T T I Q ( K t f 3 ",
"$ < g V M ! | / T U U U T T T T T T T T T T T T T T T T T T T T T T T T T T T T T T T I W ) Z t f 3 ",
"# > s V B ! | ^ R T R T T T T T T T T T T T T T T T T T T T T T T T T T T T T T T T T T ! ' K t f 1 ",
"# > x V M W | ^ R R Q R T T T T T T T T T T T T T T T T T T T T T T T T T T T T R U U R / | L t f 3 ",
"O > x V M ^ | ^ Q Q Q Q R R R T T T T T U U T T T T T T T T T T T T T T T T T T U T R R ) | L t f 3 ",
"O > x V M ! { ^ R Q Q R Q Q Q T T T T T T T T T T T T T T T T T T T T T T T T T U R ^ R ) | K t f 1 ",
"O > y V B / | ! R Q Q Q Q Q R T I T U T Q Q R T U T T T T T T T T T T T T T T Q Q R R R ( | L t f 3 ",
"X ; x V M R [ ) / R R R Q Q R E L W T R Q Q R U I T U U U U U U U L U U U U Y Q Q R Q ( [ / M t f : ",
"O ; y V B L / | [ R Q R Q Q Q ^ ! W ! Q Q Q Q E T R E T T R Y Y R R U T Y U Q ! / R Q [ ( K l t f : ",
"O - y A I R Q ! ' [ { [ { { | | { { [ [ [ [ ) ' ) [ [ ( _ [ { { [ [ [ [ { { [ [ | | { Q Z Z B M f : ",
". - x Y W Q ! / ) [ ) [ _ ' ' ( _ ( ! ! ! ! / ! / ! / ( _ _ ' [ [ _ _ _ _ _ _ _ ( ) ) W A V Z Z m 1 ",
"  - n / W W / | ( L L Y I L L L C C C K K C C C K A C L Y L U U L L L K C C C C K C K [ ' A V Z A q ",
"  - K ` W _ [ / R Y L L L L K C C C C C C C C C Z C C C L L L L L L C C C C C C C B C L / _ I V P p ",
". - d U ( ] _ W L L L Y L L Z A A A A A A A A A A A A A A L Y I Y L A A A A A C A A A V Y ' ( Y N 2 ",
"o.o.= a { ] Y Y L L A A L A A L A A L A L L L A L L A A A A A L L A A A L L L A L A L A A A ] ( 9 o ",
"o.o.o.> D h q u u u 8 q q q u r r r r r r r r r q r r q q q r q r r r r r r r r r r r u 8 8 c S - o.",
"o.o.o.o.+ + @ = @ @ @ % @ = @ @ @ @ @ @ @ @ @ @ @ @ @ @ @ @ @ @ @ @ @ @ @ @ @ @ @ @ = @ @ @ + + o.o."
};
