/* XPM */
static char *result[] = {
/* columns rows colors chars-per-pixel */
"50 50 164 2 ",
"   c #3D0A00",
".  c #400600",
"X  c #430D00",
"o  c #461200",
"O  c #491300",
"+  c #4C1A03",
"@  c #4F1E08",
"#  c #511D04",
"$  c #551F0A",
"%  c #542106",
"&  c #592207",
"*  c #502803",
"=  c #55240B",
"-  c #5A260A",
";  c #56280C",
":  c #5B2A0D",
">  c #5C320D",
",  c #5B2413",
"<  c #572B13",
"1  c #5B2B12",
"2  c #572F19",
"3  c #582F19",
"4  c #5D3115",
"5  c #5C331B",
"6  c #612D0E",
"7  c #612F13",
"8  c #643314",
"9  c #693616",
"0  c #633916",
"q  c #6A3817",
"w  c #63351A",
"e  c #653A1C",
"r  c #6B3C1D",
"t  c #5E3621",
"y  c #5F3A22",
"u  c #613220",
"i  c #653B23",
"p  c #6A3D23",
"a  c #633F29",
"s  c #6B3E2C",
"d  c #6E401E",
"f  c #72411F",
"g  c #6D4323",
"h  c #6F4926",
"j  c #65432C",
"k  c #6C442B",
"l  c #6F492A",
"z  c #724424",
"x  c #744927",
"c  c #784A27",
"v  c #72462B",
"b  c #744B2C",
"n  c #7A4E2C",
"m  c #76512F",
"M  c #7C512E",
"N  c #6D4C34",
"B  c #6D4E38",
"V  c #724630",
"C  c #734C33",
"Z  c #7A4F30",
"A  c #764B38",
"S  c #765134",
"D  c #7C5333",
"F  c #7E5836",
"G  c #74543C",
"H  c #7A553B",
"J  c #7D593B",
"K  c #725641",
"L  c #755B44",
"P  c #7B5C44",
"I  c #775F48",
"U  c #7D5F49",
"Y  c #7D6147",
"T  c #7B624C",
"R  c #7D6751",
"E  c #7F6852",
"W  c #80552F",
"Q  c #815634",
"!  c #825A36",
"~  c #8A5E37",
"^  c #845C3A",
"/  c #885F3D",
"(  c #86613C",
")  c #8A633E",
"_  c #805340",
"`  c #825C44",
"'  c #885E4C",
"]  c #836244",
"[  c #8B6641",
"{  c #8E6943",
"}  c #83644C",
"|  c #8E6648",
" . c #8F694C",
".. c #906642",
"X. c #926C45",
"o. c #956E49",
"O. c #95724B",
"+. c #99744D",
"@. c #9A784F",
"#. c #806652",
"$. c #8A6755",
"%. c #846A53",
"&. c #8F6F50",
"*. c #826E59",
"=. c #8B6E5A",
"-. c #85725C",
";. c #8B735C",
":. c #9A7751",
">. c #9A7A51",
",. c #91705D",
"<. c #9E7E58",
"1. c #877560",
"2. c #897660",
"3. c #877861",
"4. c #8D7A65",
"5. c #8E7E68",
"6. c #927361",
"7. c #927C65",
"8. c #987768",
"9. c #977F68",
"0. c #9C7E6F",
"q. c #9F8156",
"w. c #A18159",
"e. c #8F826C",
"r. c #93826C",
"t. c #98826C",
"y. c #958672",
"u. c #9B8770",
"i. c #968874",
"p. c #9B8974",
"a. c #9D8D7A",
"s. c #A18E77",
"d. c #A48578",
"f. c #A28F79",
"g. c #A88C7E",
"h. c #A6907A",
"j. c #AB9186",
"k. c #AA9883",
"l. c #AD9D88",
"z. c #B1998E",
"x. c #B59E93",
"c. c #BCA99D",
"v. c #BFB1A4",
"b. c #C6B2AA",
"n. c #C5B8AC",
"m. c #CABAB1",
"M. c #D0C2BB",
"N. c #D6CAC5",
"B. c #D8CCC7",
"V. c #D7CCC8",
"C. c #DCD3CC",
"Z. c #DED7D1",
"A. c #E2D9D4",
"S. c #E6DFDC",
"D. c #E7E2DE",
"F. c #E9E2DF",
"G. c #EAE4E1",
"H. c #F3EFEE",
"J. c #F4F0EF",
"K. c #F6F3F2",
"L. c #F8F7F6",
"P. c #FBF9F7",
"I. c #FBFAF9",
"U. c None",
/* pixels */
"U.U.U.U.U.U.U.U.U.U.U.U.U.U.U.U.U.U.U.U.U.U.U.U.U.U.U.U.U.U.U.U.U.U.U.U.U.U.U.U.U.U.U.U.U.U.U.U.U.U.",
"U.U.U.U.U.U.U.U.U.U.U.U.U.U.U.U.U.U.U.U.U.U.U.U.U.U.U.U.U.U.U.U.U.U.U.U.U.U.U.U.U.U.U.U.U.U.U.U.U.U.",
"U.U.U.U.U.U.U.U.U.U.U.U.U.U.U.U.U.U.U.U.U.U.U.U.U.U.U.U.U.U.U.U.U.U.U.U.U.U.U.U.U.U.U.U.U.U.U.U.U.U.",
"U.U.U.U.U.U.U.U.U.U.U.U.U.U.U.U.U.U.U.U.U.H.F.G.G.G.G.G.G.F.K.U.U.U.U.U.U.U.U.U.U.U.U.U.U.U.U.U.U.U.",
"U.U.U.U.U.U.U.U.U.U.U.U.U.U.U.U.U.U.U.U.U.0.; p p i p k k : l.U.U.U.U.U.U.U.U.U.U.U.U.U.U.U.U.U.U.U.",
"U.U.U.U.U.U.U.U.U.U.U.U.U.U.U.b., p C C V %.4.;.3.2.2.2.4.r.} k C v r , N.U.U.U.U.U.U.U.U.U.U.U.U.U.",
"U.U.U.U.U.U.U.U.U.U.U.U.U.U.U.m.X 1 T T %.C p g g p p r p e ` p.t.7.- . M.U.U.U.U.U.U.U.U.U.U.U.U.U.",
"U.U.U.U.U.U.U.U.U.U.U.U.U.U.A.,.w U C b C 9 p Q m n c n n 8 p H H H ;.# Z.U.U.U.U.U.U.U.U.U.U.U.U.U.",
"U.U.U.U.U.U.U.U.U.U.U.U.U.P.g.e P H n n Q r D O.{ { [ [ { x q f q d P } 6.A.U.U.U.U.U.U.U.U.U.U.U.U.",
"U.U.U.U.U.U.U.U.U.U.U.U.U.b.H N ` W ..X.<.D M o.) ) ( ) [ g c { ( ^ 9 } w 6.A.U.U.U.U.U.U.U.U.U.U.U.",
"U.U.U.U.U.U.U.U.U.U.U.U.A.} N ] W X.[ ..:.! ! X.[ ) ) ( [ x n ) ^ ^ ^ 8 %.0 $.S.U.U.U.U.U.U.U.U.U.U.",
"U.U.U.U.U.U.U.U.U.U.U.U.v G ] M o.....| :.^ ! X.[ ) [ ) ) m D ) ^ ! ^ [ 6 N 5 _ U.U.U.U.U.U.U.U.U.U.",
"U.U.U.U.U.U.U.U.U.U.U.U.H L ] M o.X.) X.:.! ! X.[ ) [ [ ) M Q ) ! ^ ! / 7 N t ' U.U.U.U.U.U.U.U.U.U.",
"U.U.U.U.U.U.U.U.U.U.L.` G 9.} M O.X.X.X.>.! ^ X.[ [ [ [ { m Q X.) ^ / ) 6 j L t ` U.U.U.U.U.U.U.U.U.",
"U.U.U.U.U.U.U.U.U.U.K.r G i.} M @.o.o.X.q.^ ^ { ) [ [ [ [ Z ! O.[ / ^ | 6 s R < p U.U.U.U.U.U.U.U.U.",
"U.U.U.U.U.U.U.U.U.U.K.k L -.7.&.~ @.o.o.q.( ^ { { { [ [ { Z F o.) [ ) q k G K 5 V U.U.U.U.U.U.U.U.U.",
"U.U.U.U.U.U.U.U.U.U.K.v g Y 2.r.X.~ >.>.w.! ! o.{ { ) { { m ^ X.{ { x s I I k % C U.U.U.U.U.U.U.U.U.",
"U.U.U.U.U.U.U.U.U.U.K.k 8 S ] 4.t.| ) ) q.^ ( <.{ { { { X.D ( X.M Q v #.I N w + V U.U.U.U.U.U.U.U.U.",
"U.U.U.U.U.U.U.U.U.U.K.g m r H ;.r.s./ ! O.D ! X.( ( ( ( [ n D ( p V -.L I 5 6 0 v U.U.U.U.U.U.U.U.U.",
"U.U.U.U.U.U.U.U.U.U.K.g n g H ;.;.7.k.z.^ n m b z z z z h h d S 4.1.T L L w 8 8 V U.U.U.U.U.U.U.U.U.",
"U.U.U.U.U.U.U.U.U.U.U.p x J x J 9.4.p.p.f.g.h.s.h.p.p.p.u.9.4.1.E R T I 4 0 b 7 V U.U.U.U.U.U.U.U.U.",
"U.U.U.U.U.U.U.U.U.G.P ] b D x r g D a.f.s.p.p.i.t.4.4.4.4.;.-.-.E R 4 1 7 d 0 1 j A K.U.U.U.U.U.U.U.",
"U.U.U.U.U.U.U.U.U.F.7 %.b Q z r ^ ! D b x ;.f.p.y.4.4.4.5.4.G 1 w w r r w h 0 : j $ J.U.U.U.U.U.U.U.",
"U.U.U.U.U.U.U.U.U.F.r *.} D q c X...Q W Q J H S S C C C C C v p e q n n r 1 4 j j 1 J.U.U.U.U.U.U.U.",
"U.U.U.U.U.U.U.U.U.F.8 b -.%.p z X...+.+.<.c 9 c f f f f f 8 x ) F S b m 7 : j N : 3 J.U.U.U.U.U.U.U.",
"U.U.U.U.U.U.U.U.U.D.4 8 C 4.} c ~ ~ O.o.:.n W +.X.o.) ) X.c x J S C r e 4 N L 5 % 1 J.U.U.U.U.U.U.U.",
"U.U.U.U.U.U.U.U.U.D.6 Q r C 4.;.b F ) ..:.D n X.....) ( ) x n F v h 1 = N I t : r 1 J.U.U.U.U.U.U.U.",
"U.U.U.U.U.U.U.U.U.F.6 D ( r C 2.a.9.b b ..b n ..) ) ( ( ( g x S , w K K L 4 : x 0 1 J.U.U.U.U.U.U.U.",
"U.U.U.U.U.U.U.U.U.F.: W ^ n 9 C 3.=.p.f.F f z x z f q 8 8 : 6 k R I K L 4 = e h 0 1 H.U.U.U.U.U.U.U.",
"U.U.U.U.U.U.U.U.U.F.: M Q c D Z p k a.a.r.r.t.9.2.2.;.;.=.%.} T E R 1 = e e 0 g 0 < H.U.U.U.U.U.U.U.",
"U.U.U.U.U.U.U.U.U.S.& Q ` n ! ~ M F G C r.a.a.i.r.y.y.r.e.4.4.L 1 4 e 8 z p e l e < H.U.U.U.U.U.U.U.",
"U.U.U.U.U.U.U.U.U.S.# f r z Q ( ) ..D M H H G S k k j k j i i i 0 w b v z p 4 : = < H.U.U.U.U.U.U.U.",
"U.U.U.U.U.U.U.U.U.S.$ 6 p r n / ( [ { O.g r z r q q 8 8 4 8 & 8 ^ m h g x 0 < = o < J.U.U.U.U.U.U.U.",
"U.U.U.U.U.U.U.U.U.S.O 7 *.L c ! { [ { O.z Q { [ ) ) ^ ^ J ^ z e F l z k e < 5 j o $ J.U.U.U.U.U.U.U.",
"U.U.U.U.U.U.U.U.U.G.p 7 K 4.U v ) { { O.n D ) ( ^ ^ Q D D F g e D v k z = t N 5 + A K.U.U.U.U.U.U.U.",
"U.U.U.U.U.U.U.U.U.U.U.e $ G 4.} x ] [ O.D F ) ^ ^ ^ F D F F z p F l h # y N 2   s I.U.U.U.U.U.U.U.U.",
"U.U.U.U.U.U.U.U.U.U.U.p r 8 A 4.%.r z O.Z F ) ( ! ^ F D F ! l g v + + j B 2 ; 4 O s K.U.U.U.U.U.U.U.",
"U.U.U.U.U.U.U.U.U.G.9 - 7 p r L r.2.6.n r d g d r r r 8 7 7 1 : w B j G 2 = : @ o = H.U.U.U.U.U.U.U.",
"U.U.U.U.U.U.U.U.U.L.x.O + v v p P p.y.-.=.=.=.%.U U U L H G G C B I L 5 ; 0 = + w X H.U.U.U.U.U.U.U.",
"U.U.U.U.U.U.U.U.U.U.U.x.e - v v p C N i.a.p.a.r.4.4.2.-.-.E E E L 3 2 = e 4 ; 5 k x.L.U.U.U.U.U.U.U.",
"U.U.U.U.U.U.U.U.U.U.U.U.V X 1 k v 8 8 L L H G B N N N j j a j a 5 = * d 4 ; e - u U.U.U.U.U.U.U.U.U.",
"U.U.U.U.U.U.U.U.U.U.U.U.8.& # w v ^ J 8 # - : - : = : % # @ + O < b h 5 = 4 } #.=.U.U.U.U.U.U.U.U.U.",
"U.U.U.U.U.U.U.U.U.U.U.U.U.0.8 i 1 S b F e D { ( F F D m C S 4 ; S g e @ e k c.U.U.U.U.U.U.U.U.U.U.U.",
"U.U.U.U.U.U.U.U.U.U.U.U.U.U.d.# l # = D w n ] J F D m b n m 3 ; g + + j > v.U.U.U.U.U.U.U.U.U.U.U.U.",
"U.U.U.U.U.U.U.U.U.U.U.U.U.U.K.j.X h g + X O O O o o X o X o     o 5 > * n.I.U.U.U.U.U.U.U.U.U.U.U.U.",
"U.U.U.U.U.U.U.U.U.U.U.U.U.U.U.K.N.A.A.B.B.N.N.N.N.N.N.N.N.N.N.N.V.Z.Z.C.I.U.U.U.U.U.U.U.U.U.U.U.U.U.",
"U.U.U.U.U.U.U.U.U.U.U.U.U.U.U.U.U.U.U.U.U.U.U.U.U.U.U.U.U.U.U.U.U.U.U.U.U.U.U.U.U.U.U.U.U.U.U.U.U.U.",
"U.U.U.U.U.U.U.U.U.U.U.U.U.U.U.U.U.U.U.U.U.U.U.U.U.U.U.U.U.U.U.U.U.U.U.U.U.U.U.U.U.U.U.U.U.U.U.U.U.U.",
"U.U.U.U.U.U.U.U.U.U.U.U.U.U.U.U.U.U.U.U.U.U.U.U.U.U.U.U.U.U.U.U.U.U.U.U.U.U.U.U.U.U.U.U.U.U.U.U.U.U.",
"U.U.U.U.U.U.U.U.U.U.U.U.U.U.U.U.U.U.U.U.U.U.U.U.U.U.U.U.U.U.U.U.U.U.U.U.U.U.U.U.U.U.U.U.U.U.U.U.U.U."
};
