/* XPM */
static char *result[] = {
/* columns rows colors chars-per-pixel */
"50 50 57 1 ",
"  c #5C260B",
". c #5E2A0E",
"X c #5F2C12",
"o c #602A0F",
"O c #602D13",
"+ c #623017",
"@ c #63341A",
"# c #673921",
"$ c #6B3D26",
"% c #6B3F28",
"& c #6B422B",
"* c #6A4633",
"= c #6B4836",
"- c #624B3C",
"; c #6D4D3A",
": c #714E3B",
"> c #6E5544",
", c #745443",
"< c #715947",
"1 c #735B4A",
"2 c #635F53",
"3 c #77604F",
"4 c #646359",
"5 c #6B6559",
"6 c #6F6A5E",
"7 c #7C6353",
"8 c #7E6858",
"9 c #6E6B60",
"0 c #736E62",
"q c #767267",
"w c #767469",
"e c #7D756C",
"r c #7D7A6E",
"t c #7F7C72",
"y c #84786A",
"u c #817C73",
"i c #827F78",
"p c #868477",
"a c #888577",
"s c #85847A",
"d c #898679",
"f c #8D8A7D",
"g c #918378",
"h c #908A7F",
"j c #8F8C81",
"k c #918D83",
"l c #949186",
"z c #959188",
"x c #99958C",
"c c #9C988F",
"v c #959A91",
"b c #9E9B92",
"n c #A19D94",
"m c #A6A197",
"M c #A5A29A",
"N c #A8A39A",
"B c None",
/* pixels */
"-42qiwqqqqqqqqqqqqqqqqqqqqqqqqqqqqqqqqqqqqqqqqqqqq",
"1w0dxjpddddddddddddddddddddddddddddddddddddddddddd",
"1w0sxfdddddddddddddddddddddddddddddddddddddddddddd",
"1w0sxfaddddddddddddddddddddddddddddddddddddddddddd",
"1w0sxfpddddddddddddddddddddddddddddddddddddddddddd",
"<w0jbjaddddddddddddddddddddddddddddddddddddddddddd",
"1w0jMjapdddddddddddddddddddddddddddddddddddddddddd",
"<w0jMjaddddddddddddddddddddddddddddddddddddddddddd",
"1w0jnjdddddddddddddddddddddddddddddddddddddddddddd",
"<q0sxfaddddddddddddddddddddddddddddddddddddddddddd",
"1w0sxfaddddddddddddddddddddddddddddddddddddddddddd",
"1q0sxfaddddddddddddddddddddddddddddddddddddddddddd",
"<q0sxjsddddddddddddddddddddddddddddddddddddddddddd",
"1tejxfpddddddddddddddddddddddddddddddddddddddddddd",
"7stkxfdddddddddddddddddddddddddddddddddddddddddddd",
"3itjvfpddddddddddddddddddddddddddddddddddddddddddd",
"1ptjvfadddddddddddddddddddddaafaddddddddddddddddds",
"3ptjvfaaddddddddddddddddddddaafadddddddddddddddddf",
"3stlcfaadddddddddddddddddddddddddddadddddddddddddd",
"3irfbfaadddddddddddddddddddddddddddddddddddddddddd",
"3tqavjffdaddddddddddddddddddddddddddddddddddddaddd",
"<wqpnjfffaddddddddddddddddddddddddddddddddddddafdd",
">q0dnljjfadddddddddddddddddddddddddddddddddddddadd",
">q0fnljjddddaddddddddddddddddddddddddddddddddddddd",
">w0sbzkkffhfaadddddddddddddddddddddddddddddddddddd",
"<w0fnkfhhllfaadddadddddddddddddddddddddddddddddddd",
">w0fbzhlkhffaddddddddddddaaddddddddddddddddddddddd",
">w0jnzffkffdfadddddddddddafddddddddddddddddddddddd",
">w0fnlffkfdddddddddddddddddddfaddddddddddddddddddd",
">q0fmlfkkfddddddddddddddddddaadddddddddddddddddddd",
">w0fmlfffdddddddddddddafaadddddddddddddddddddddddd",
">wqfmzfaadddddddddddddaaafdddddddddddddddddddddddd",
">w0hmzfaaddddddddddddaddddddddddddddddddddddddddig",
">w0hNzfaaaddddddddddffffddddddddddddddddddddddddfi",
">w0fmzfddddddddddddafkkfadddddddddddddddddddddddsj",
">wqhNzffhfddddddddddfkkfadddddddddddddddddddddddsg",
">q6fmzflflffaddaaaaafghhddddddddddddddddddddddddss",
">w5fNzfkhflfddddfdddsddiddddddddddddddddddddddddhs",
">q5dNzfklfhfhhhfhkhdddijdddpdddpddddddddddddddddsg",
">95unckhffflhkhhkhhsppisaaaaaaaapddpdpdddpadadaasi",
">99rknbkvhlhlhlhzzhhghhsffsjffsfshshhshsdfsffdfdsh",
"-9ijkkcMNNmmmmmNnnnnnnbbnnnnnnnbbxbxxxxxxxxxxxxxxx",
">tjlkzzcvllzzzxlzzzzzzzzzzkzzzzkzkkkkkhhjjjjhjjjhh",
"7lkjzblupryrywrreeeeeeeeeeeeeeeeeeeeeeeeeeeeeeeeee",
"8vjlcjstupuyeeeeeeqeeeeeeeeeeeeeeeeeeeeeeeeeeeeeee",
";ylvzssssssuruttuuuutttieuttutttttuuuuuuuuuuuuuuuu",
" %gzupupsuuueeeeeueueeteeyeeyeeeeeeeeeeeeeueeeyete",
"BB>,;;:;:;:;=;===>%===%>%==================-%>%%=%",
"BBX          X.XXXXXXXOOXOOXOOXOOOOOOOOO+OOO ooooo",
"BBBBXX+++X++@@@@@#######$$$$$$$$$$%%$%$$$$$$$$$$$$"
};
