/* XPM */
static char *result[] = {
/* columns rows colors chars-per-pixel */
"50 50 74 1 ",
"  c #5E2A0F",
". c #5F2A0F",
"X c #522610",
"o c #602D13",
"O c #612D13",
"+ c #602D14",
"@ c #5E4234",
"# c #6C4C3A",
"$ c #6D4C3A",
"% c #6D4E3D",
"& c #6E4E3D",
"* c #636058",
"= c #69635C",
"- c #6C665E",
"; c #6C675F",
": c #6D6760",
"> c #727165",
", c #767267",
"< c #767369",
"1 c #7C756C",
"2 c #7D756C",
"3 c #7E776E",
"4 c #7F776E",
"5 c #7E776F",
"6 c #7F786E",
"7 c #7E786F",
"8 c #7F7970",
"9 c #807A71",
"0 c #827D76",
"q c #878577",
"w c #888577",
"e c #86827B",
"r c #888578",
"t c #898679",
"y c #89867A",
"u c #89877A",
"i c #8A877A",
"p c #8A877B",
"a c #8E8881",
"s c #8F8B81",
"d c #8F8882",
"f c #8F8982",
"g c #8F8B83",
"h c #8F8C84",
"j c #908A82",
"k c #908C84",
"l c #908C85",
"z c #918C85",
"x c #928C85",
"c c #908D86",
"v c #938F86",
"b c #948E87",
"n c #958F87",
"m c #948E88",
"M c #949087",
"N c #959087",
"B c #939088",
"V c #949188",
"C c #969089",
"Z c #979089",
"A c #949288",
"S c #949289",
"D c #959289",
"F c #959389",
"G c #97938A",
"H c #97948C",
"J c #98928A",
"K c #98938A",
"L c #98938B",
"P c #99958C",
"I c #9A978D",
"U c #9C978D",
"Y c #9C9890",
"T c #9D9990",
/* pixels */
"*,,,,,,,,,,,,,,,,,,,,,,,,,,,,,,,,,,,,,,,,,,,,,,,,,",
",ttttttttttttttttttttttttttttttttttttttttttttttttt",
",ttttttttttttttttttttttttttttttttttttttttttttttttt",
",ttttttttttttttttttttttttttttttttttttttttttttttttt",
",ttttttttttttttttttttttttttttttttttttttttttttttttt",
",ttttttttttttttttttttttttttttttttttttttttttttttttt",
",ttttttttttttttttttttttttttttttttttttttttttttttttt",
",ttttttttttttttttttttttttttttttttttttttttttttttttt",
",ttttttttttttttttttttttttttttttttttttttttttttttttt",
",ttttttttttttttttttttttttttttttttttttttttttttttttt",
",ttttttttttttttttttttttttttttttttttttttttttttttttt",
",ttttttttttttttttttttttttttttttttttttttttttttttttt",
",ttttttttttttttttttttttttttttttttttttttttttttttttt",
",ttttttttttttttttttttttttttttttttttttttttttttttttt",
",ttttttttttttttttttttttttttttttttttttttttttttttttt",
",ttttttttttttttttttttttttttttttttttttttttttttttttt",
",ttttttttttttttttttttttttttttttttttttttttttttttttt",
",ttttttttttttttttttttttttttttttttttttttttttttttttt",
",ttttttttttttttttttttttttttttttttttttttttttttttttt",
",ttttttttttttttttttttttttttttttttttttttttttttttttt",
",ttttttttttttttttttttttttttttttttttttttttttttttttt",
",ttttttttttttttttttttttttttttttttttttttttttttttttt",
",ttttttttttttttttttttttttttttttttttttttttttttttttt",
",ttttttttttttttttttttttttttttttttttttttttttttttttt",
",ttttttttttttttttttttttttttttttttttttttttttttttttt",
",ttttttttttttttttttttttttttttttttttttttttttttttttt",
",ttttttttttttttttttttttttttttttttttttttttttttttttt",
",ttttttttttttttttttttttttttttttttttttttttttttttttt",
",ttttttttttttttttttttttttttttttttttttttttttttttttt",
",ttttttttttttttttttttttttttttttttttttttttttttttttt",
",ttttttttttttttttttttttttttttttttttttttttttttttttt",
",ttttttttttttttttttttttttttttttttttttttttttttttttt",
",ttttttttttttttttttttttttttttttttttttttttttttttttt",
",ttttttttttttttttttttttttttttttttttttttttttttttttt",
",ttttttttttttttttttttttttttttttttttttttttttttttttt",
",ttttttttttttttttttttttttttttttttttttttttttttttttt",
",ttttttttttttttttttttttttttttttttttttttttttttttttt",
",ttttttttttttttttttttttttttttttttttttttttttttttttt",
",ttttttttttttttttttttttttttttttttttttttttttttttttt",
",ttttttttttttttttttttttttttttttttttttttttttttttttt",
">qwwrrrrrrrrrrrrrrrrrrrrrrrrrrrrrrrrrrrrrrrrrrrrrr",
"<ppiiiiiiiiiiiiiiiiiiiiiiiiiiiiiuyuuuiiiiiiiiiiiii",
"eTYUIIIPLLLLLLLLLLLLLKGGGDGGDVVVMvnnNVVVVVADDSDFGH",
"0JZCBmmbxxxxxxxxxxxxxzkkkgkkgjjjfadddjjjjjsgggghlc",
"-7733333333333333333333333333444456664444443344333",
"=1111111111111111111111111111111121111111111111111",
":9999999999999999999999999999999999999999999999999",
";8888888888888888888888888888888888888888888888888",
"@%%%%%%%%%%%%&$###################################",
"X+++++++++++oO   ................................."
};
