/* XPM */
static char *result[] = {
/* columns rows colors chars-per-pixel */
"50 50 71 1 ",
"  c #571F03",
". c #5A2206",
"X c #5D250A",
"o c #5E290D",
"O c #5B2C12",
"+ c #612A0F",
"@ c #632D12",
"# c #653116",
"$ c #65351C",
"% c #6A351C",
"& c #67381F",
"* c #5E3925",
"= c #5F3B28",
"- c #663B24",
"; c #693C25",
": c #613D29",
"> c #6C3F29",
", c #64422E",
"< c #6C412A",
"1 c #6D4732",
"2 c #664834",
"3 c #6B4D3A",
"4 c #774F3C",
"5 c #5E5347",
"6 c #5E5648",
"7 c #60574A",
"8 c #61584B",
"9 c #6F5D4D",
"0 c #725E4D",
"q c #655E53",
"w c #705F50",
"e c #6E675C",
"r c #736252",
"t c #796A5D",
"y c #796C60",
"u c #767367",
"i c #7E7266",
"p c #76766B",
"a c #7C756B",
"s c #7C796D",
"d c #7E7C73",
"f c #817467",
"g c #807569",
"h c #80796F",
"j c #88796B",
"k c #827E75",
"l c #7D8075",
"z c #878477",
"x c #888577",
"c c #85847C",
"v c #898679",
"b c #8D8A7D",
"n c #948075",
"m c #878780",
"M c #8E8780",
"N c #8E8B81",
"B c #918D82",
"V c #9B8F87",
"C c #949086",
"Z c #969389",
"A c #99958D",
"S c #93988F",
"D c #9B988F",
"F c #9D9A92",
"G c #A19D95",
"H c #A29F98",
"J c #9EA29D",
"K c #A5A096",
"L c #A5A29A",
"P c #AAA59D",
"I c None",
/* pixels */
"%<rppNANbbbxvvvvvvvvvvvvvvvvvvvvvvvvvvvvvvzBAs7q3@",
"%<rpiNDBCbvvvvvvvvvvvvvvvvvvvvvvvvvvvvvvvvzBFa8q2;",
"%<rpuNABbbvxvvvvvvvvvvvvvvvvvvvvvvvvvvvvbzzBAh8q:<",
"%<rauNFBCbbbvvvvvvvvvvvvvvvvvvvvvvvvvvvvzbzbFh8q,<",
"%<rpiNANbCCbvvvvvvvvvvvvvvvvvvvvvvvvvvvvxbxBAh8q2<",
"%>rpuNFBBbbbvvvvvvvvvvvvvvvvvvvvvvvvvvvvvzzBFa8q,<",
"%<rpuNABBBBbxvvvvvvvvvvvvvvvvvvvvvvvvvvvvvzbAa7q,<",
"%>rppNFNbBbbvvvvvvvvvvvvvvvvvvvvvvvvvvvvvvzBFh7q,<",
"%>rssNAbcvvvvvvvvvvvvvvvvvvvvvvvzxbbzxvvvvzBFs8q,<",
"%>wsaNAczvvvvvvvvvvvvvvvvvvvvvvvbzzxzbvvvvzBDs8q,<",
";>rpaNZbvvvvvvvvvvvvvvvvvvvvvvvvbzzbzvvvvvvBDa8q,<",
"%>rpaBZvzvvvvvvvvvvvvvvvvvvvvvvvxzbxvvvvvvkBFa8q,<",
"%>rsaNZbzvvvvvvvvvvvvvvvvvvvvvvvxbzzbbbbvzzBFs8q,<",
"%>wpsNAvvvvvvvvvvvvvvvvvvvvvvvvvzbzbbBbbzbzBAs8q,<",
"%>wpsBAbzvvvvvvvvvvvvvvvvvvvvvvvbzzbbBbbxzzBAs6q,<",
"%>rspBAbzvvvvvvvvvvvvvvvvvvvvvvvxxzbbbbbvbzbFs8q,<",
"%<rppBDvxvvvvvvvvvvvvvvvvvvvvvvvvvvvvvvvvvxCFp78,<",
"%<rppCDvxvvvvvvvvvvvvvvvvvvvvvvvvvvvvvvxvxzbFs8e,>",
"%<rspCDbxvvvvvvvvvvvvvvvvvvvvvvvvvvvvvvbbbvCFp6q,<",
"#<rpsbKbbbvvvvvvvvvvvvvvvvvvvvvvvvvvvxvbCbbZFs6q,<",
"%<ruiCFCbZbvvvvvvvvvvvvvvvvvvvvvvvvvvxvNbCbADs6r<<",
"%;rpaCFbbbbxvvvvvvvvvvvvvvvvvvvvvvvvvvvbCbbZDa6r,<",
"$;rpaCKbbxxxvvvvvvvvvvvvvvvvvvvvvvvvvvvNbbbADa8q,<",
"$<rpaCKbvxvvvvvvvvvvvvvvvvvvvvvvvvvvvvvvbbbADs8q:>",
"#>wsaBGBvxvvvvvvvvvvvvvvvvvvvvvvvvvvvvvxvzbZAs6q,>",
"#>rpaBGBvxvvvvvvvvvvvvvvvvvvvvvvvvvvvvvvvvbAFs6q,;",
"#>rpaCGBbxvbvvvvvvvvvvvvvvvvvvvvvvvvvvvvvvvCFk6e,>",
"#>rppCGBbvbbvvvvvvvvvvvvvvvvvvvvvvvvvvvvvvzBFd6q,:",
"#;rpaCGBbbZbvvvvvvvvvvvvvvvvvvvvvvvvvvvvvvzBGd7r:;",
"#-rpaCFBbZbbvvvvvvvvvvvvvvvvvvvvvvvvvvvvvvzCGs7q:&",
"#<rpaCFCbbbbvvvvvvvvvvvvvvvvvvvvvvvvvvvvvvzBGk6q:;",
"#&rpaCDCbCbbxvvvvvvvvvvvvvvvvvvvvvvvvvvvvvzBGd6r:;",
"#-ruaCFBbBCbbbvvvvvvvvvvvvvvvvvvvvvvxbzvvvxAGh7q:-",
"#-rpaCGCbbbCbCbvvvvvvvvvvvvvvvvvvvvvzbxvvvbALk7q:-",
"#&wppALNCCbbCbbvvvvzvvvvvvvvvvvvvvvvzxbzbbbALh7q--",
"+&rppALCbbCbbCbvvvvbvvvvvvvvvvvvvvvvbxzzbbbALk7q:-",
"@&rpaALNbbbCbCbvbzxxbzvvvvvvvvvvvvxbzxbzbBbALh78*-",
"+&rpaALCCbCbCbbvzzbzzzbvvvvvvvvvvvzbbzzzbbbALk7q--",
"@&wpsALNbbCbbCbbbbbzvvvvvvvvvvvvvvvzvbbbbbbALk6q:-",
"o&wpsALNbCbCbbCbBbzxvvzbvvvvvvvvvvzbbbbBbBbALd58*-",
"o*wpsMFGDbbbCbbbBMbbzzzzzckcvkvkzzkvbNMNbbFGme5q=-",
"o$wdkvCHDZZZZZAAVDAAVBBBBVBVBCCBBVBBCZAAAAFBseq8*%",
"o$9dMCMCKPLLKKKKHHHHGGGGLLLHPHLLLLHPLLPHPPbussuq:-",
"X$tNNNCGAbNNbbbbMMMMBbbMBBBBBBBBBBBMBBNMBBAbupsu:-",
".$fANCFGBhaagaaaaaaaaaaaaaiaaaaaaaiaiaaaakSFcssd3$",
".-fSNHFmkkkkkhaaadaaaaadgaaassaagsaaadkkkkkCGbpd3-",
"I#1jHJCccmmmmkkkkkdkkkkkkkkklkdzkkkkkmmmNmlNFJN0OI",
"II.4VvygggggiyyyyyyyyyyyyyyyyytyyyyyfggggaiiiCn$II",
"IIII<<::;;:;:;:;----------------::---;:;:;>:;1>III",
"IIIII...X.XXXXXoX+X++XX+++X+ooooX+XXXXXXX     IIII"
};
