/* XPM */
static char *result[] = {
/* columns rows colors chars-per-pixel */
"50 50 56 1 ",
"  c #5A2206",
". c #5C2409",
"X c #5F2A0E",
"o c #612A0E",
"O c #632C11",
"+ c #663116",
"@ c #65341C",
"# c #6A351B",
"$ c #643721",
"% c #663B24",
"& c #693E27",
"* c #663F29",
"= c #6A3F28",
"- c #6B4027",
"; c #67412C",
": c #6A412B",
"> c #6D4631",
", c #6D4935",
"< c #604B3C",
"1 c #76533F",
"2 c #665546",
"3 c #615A4E",
"4 c #6C5B4C",
"5 c #635E52",
"6 c #636053",
"7 c #6A6356",
"8 c #6C6558",
"9 c #746B5D",
"0 c #7A6F64",
"q c #767467",
"w c #7B7066",
"e c #76776B",
"r c #7C756C",
"t c #7D796E",
"y c #7E7C72",
"u c #81796D",
"i c #827D75",
"p c #7D8176",
"a c #878376",
"s c #888577",
"d c #85847C",
"f c #898679",
"g c #8D8A7D",
"h c #908D7F",
"j c #8E8A81",
"k c #918D82",
"l c #959286",
"z c #96928A",
"x c #99978E",
"c c #9B988F",
"v c #9D9992",
"b c #A19D94",
"n c #A4A196",
"m c #A6A299",
"M c #A8A59F",
"N c None",
/* pixels */
"ffffffffffffffffffffffffffffffffffffffffasxj752-#,",
"fffffffffffffffffffffffffffffffffffffffffgxj752-#>",
"ffffffffffffffffffffffffffffffffffffffffsdxj754:#>",
"ffffffffffffffffffffffffffffffffffffffffssxj862-#,",
"ffffffffffffffffffffffffffffffffffffffffsdxj762-#>",
"ffffffffffffffffffffffffffffffffffffffffagxj762:#>",
"ffffffffffffffffffffffffffffffffffffffasaaxj763;#>",
"fffffffffffffffffffffffffffffffffffsagggghxk862-#>",
"ffffffffffffffffffffffffffffffffffffsgkkkkxj852:#>",
"ffffffffffffffffffffffffssffffffffffsghkjkxj852-#,",
"ffffffffffffffffffffffffffffffffffffsgjkklvj854=#>",
"ffffffffffffffffffffffffffffffffffffsgkjgjvk862-#>",
"ffffffffffffffffffffffffffffffffffffffgfgjcj862-#>",
"ffffffffffffffffffffffffffffffffffffffsagjcj862-#>",
"fffffffffffffffffffffffffffffffffffffffsgkvj862-#>",
"fffffffffffffffffffffffffffffffffffffffagkxg862-#>",
"ffffffssfffffffffffffffffffffffffffffffffjxg862:#>",
"ffffffggfffffffffffffffffffffffffffffffagkvj862:#>",
"sggfffssffffffffffffffffffffffffffffffffgkvj862-#:",
"hgsfffgsfffffffffffffffffffffffffffffffffjxg862-#>",
"hgssssssffffffffffffffffffffffffffffffffsfxj862-#>",
"shgggsgsffffffffffffffffffffffffffffffffsfvj862-#:",
"gggggggfffffffffffffffffffffffffffffffffsfvj862-#>",
"gggggggfffffffffffffffffffffffffffghhkhfafzj862:@>",
"sggggggsfffffffffffffffffffffffffffkkkhgffxj852=@:",
"ssghgggsfffffffffffffffffffffffffffhghgfdfxj852=#:",
"ssssgsssfffffffffffffffffffffffffffgghgfafxk862=#:",
"sgsgsgssffffffffffffffffffffffffffffgggfafxk862=+>",
"sssssssgfffffffffffffffffffffffffffffiffafxk862=+>",
"ggsgsgssffffffffffffffffffffffffffffffffffzj862*+>",
"ssssssgsffffffffffffffffffffffffffffffffffxk862*+;",
"sgsgsgssffffffffffffffffffffffffffffffffffxj852%+>",
"ssgsfffffffffffffffffffffffffffffffffffghkbz862&+>",
"gsfsfffffffffffffffffffffffffffffffffafgkkbz862&+:",
"fffffffffffffffffffffffffffffffffffffffghkbz752$O;",
"ffffffffffffffffffffffffffffffffffffffjhgkMz752%O:",
"ffffffffffffffsgfffffffffffffffffffffgkkjkbz752$o:",
"ffffffffffffffssffffffffffffffffffffffkkjkMz752$O*",
"ffffffffffffffffffffffffffffffffhhffffgkjkbz552$O%",
"fffffffffffffffffffffffffffffffhkkhffgfgjkMz452$O&",
"fffffffdffsffsffjiggigfffffffffgkkhljkjkgjMz732@o&",
"aafaaaaissssssasidififsisaasfgggggghgjjflnzy33<@o%",
"ggggggjjghghgjghjjjjkhhghhkhkzzlllllllzzxva866<%o&",
"vvvvbvvvcvvvvvvvvvvbbbbbbbbbmmMbmmmmmmmMzyete8<$o%",
"kkzkzkzzzzjjjjjjjjjjjjjjgjkkkzkklkkkjzzxlhteye4@ &",
"iiiiiiyiyirrtrrrrrrrrrrrwrrrrrrrrrrurtyrknheep9$o:",
"iiifyyiyrrrrrrrrrrrrurrrrrurrrurrruiyaiaafvzepw$ :",
"ddiddjjjiiiiiiiiiiiiiiiiiiiiiiiiiiifdjddddxvjw,@o&",
"wwwruiuur00r00rwwwwwwwwwwwwwwwwwrwruuuuuiuril2oNNN",
"**===**=>*******==>**=>***;;;;;;=**>*>>=>**>>#NNNN"
};
