/* XPM */
static char *result[] = {
/* columns rows colors chars-per-pixel */
"50 50 111 2 ",
"   c #380300",
".  c #410600",
"X  c #450B00",
"o  c #480E00",
"O  c #4A1400",
"+  c #511E01",
"@  c #501F0B",
"#  c #532202",
"$  c #5D2506",
"%  c #5B2B05",
"&  c #572409",
"*  c #5A2509",
"=  c #5D2B0D",
"-  c #5D2D11",
";  c #5D3214",
":  c #5D3618",
">  c #612C0D",
",  c #61310A",
"<  c #632E10",
"1  c #643214",
"2  c #693516",
"3  c #6C3817",
"4  c #643619",
"5  c #6A3719",
"6  c #66391C",
"7  c #6B3B1C",
"8  c #713D1D",
"9  c #6B3E21",
"0  c #703E20",
"q  c #6B401F",
"w  c #72411F",
"e  c #6D4324",
"r  c #6F4925",
"t  c #6C432D",
"y  c #724425",
"u  c #744A26",
"i  c #7A4E26",
"p  c #73462C",
"a  c #744C2B",
"s  c #7A4D2B",
"d  c #7A5027",
"f  c #75512D",
"g  c #7B522C",
"h  c #6E4A30",
"j  c #734C34",
"k  c #794D33",
"l  c #755131",
"z  c #7B5532",
"x  c #7D5A35",
"c  c #74563E",
"v  c #7D5339",
"b  c #7F5D39",
"n  c #765D46",
"m  c #7B5E44",
"M  c #775D49",
"N  c #795C49",
"B  c #7B664E",
"V  c #7E6753",
"C  c #7F6E5A",
"Z  c #815634",
"A  c #815B36",
"S  c #80563B",
"D  c #835E3A",
"F  c #895F3B",
"G  c #85623D",
"H  c #89633E",
"J  c #856441",
"K  c #8C6641",
"L  c #8D6943",
"P  c #8D6D49",
"I  c #906742",
"U  c #916A46",
"Y  c #926D49",
"T  c #8F704A",
"R  c #95734C",
"E  c #99754E",
"W  c #99794F",
"Q  c #816C57",
"!  c #977651",
"~  c #987750",
"^  c #967850",
"/  c #9C7C54",
"(  c #91775F",
")  c #9E7F59",
"_  c #A07F55",
"`  c #8F7661",
"'  c #967C64",
"]  c #9F8056",
"[  c #9F825A",
"{  c #A18157",
"}  c #A1845C",
"|  c #A2885F",
" . c #9C856D",
".. c #9D8770",
"X. c #9D8D7D",
"o. c #A48861",
"O. c #A68879",
"+. c #A2917D",
"@. c #9F9483",
"#. c #AD8F83",
"$. c #AD9186",
"%. c #AF9489",
"&. c #A39C8C",
"*. c #B09084",
"=. c #B19589",
"-. c #B39A8D",
";. c #B59C94",
":. c #BAA197",
">. c #BBA49B",
",. c #E0D4CF",
"<. c None",
/* pixels */
"<.<.<.<.<.<.<.<.<.<.<.<.<.<.<.<.<.<.<.<.<.<.<.<.<.<.<.<.<.<.<.<.<.<.<.<.<.<.<.<.<.<.<.<.<.<.<.<.<.<.",
"<.<.<.<.<.<.<.<.<.<.<.<.<.<.<.<.<.<.<.<.<.<.<.<.<.<.<.<.<.<.<.<.<.<.<.<.<.<.<.<.<.<.<.<.<.<.<.<.<.<.",
"<.<.<.<.<.<.<.<.>.4 p a k k k k v v S S S S S S v v v v v v v v v k k k p a p v <.<.<.<.<.<.<.<.<.<.",
"<.<.<.<.<.<.<.<.#.u O. .j u L J G H J F G H G H H H H G G G G G D J H 4 ' ' ' 5 <.<.<.<.<.<.<.<.<.<.",
"<.<.<.<.<.<.<.<.*.J ( t J ! / / / / / / / _ _ _ _ / / _ / / / / _ / / ! p y $.2 <.<.<.<.<.<.<.<.<.<.",
"<.<.<.<.<.<.<.<.-.= v L y < < 1 < u Z A D D F H H D F F D Z z 2 < < < 2 J J f 2 <.<.<.<.<.<.<.<.<.<.",
"<.<.<.<.<.<.<.<.=.u E U 0 y D D J 8 < 1 < < 1 < 1 > < < < 1 > A A D Z < J L R 4 <.<.<.<.<.<.<.<.<.<.",
"<.<.<.<.<.<.<.<.-.i / Y 0 z U F K K 8 s H F F F F H F F H 5 F H K G Y > K L / 2 <.<.<.<.<.<.<.<.<.<.",
"<.<.<.<.<.<.<.<.-.d / R i > Z R L L U y A U U I I I I L y L Y L Y ! 5 < U L W 5 <.<.<.<.<.<.<.<.<.<.",
"<.<.<.<.<.<.<.<.-.g / R y 8 8 > F ! L R y 2 z D F H s y L Y L ) 5 < Z 5 I L / 3 <.<.<.<.<.<.<.<.<.<.",
"<.<.<.<.<.<.<.<.-.g ^ R i y A H 5 L R L R E u A K y L R R L ) 2 z A F 2 U L / 7 <.<.<.<.<.<.<.<.<.<.",
"<.<.<.<.<.<.<.<.-.d ] R i i G H L 5 U ! Y E / i 2 K Y R Y } 2 A F D A 8 R R / 7 <.<.<.<.<.<.<.<.<.<.",
"<.<.<.<.<.<.<.<.-.d / W g s U U U E 8 Y / R R R / s L Y o.5 L U U Y Y 8 R R / 7 <.<.<.<.<.<.<.<.<.<.",
"<.<.<.<.<.<.<.<.-.d / W Z g U U U Y E 3 U | / R R ! s { 5 I U U U Y Y 0 R R { e <.<.<.<.<.<.<.<.<.<.",
"<.<.<.<.<.<.<.<.-.Z ] W i i I Y U Y Y E w $ Y / R E / 2 I R Y U U U U 8 R R { 7 <.<.<.<.<.<.<.<.<.<.",
"<.<.<.<.<.<.<.<.;.d ] W s s U U Y U R s L / 3 R } ! R ! s U Y U U U Y y R R o.7 <.<.<.<.<.<.<.<.<.<.",
"<.<.<.<.<.<.<.<.-.g _ / s y Z A F s y I E Y } y > E W Y R d e G J D J 3 R ! } 8 <.<.<.<.<.<.<.<.<.<.",
"<.<.<.<.<.<.<.<.-.i _ / s w A F p H R R R o.8 Z U < E E U Y R u A D D 5 R R o.7 <.<.<.<.<.<.<.<.<.<.",
"<.<.<.<.<.<.<.<.-.d / / i 8 Z s F R R R { 0 Z I H U 2 E Y Y L L u A A 1 R E } 5 <.<.<.<.<.<.<.<.<.<.",
"<.<.<.<.<.<.<.<.-.i _ _ s 1 2 F Y U / | 8 Z I H H H H 2 Y Y L J K 0 8 1 R R } 5 <.<.<.<.<.<.<.<.<.<.",
"<.<.<.<.<.<.<.<.=.d { / y y Y U U R y > A U U U U U U E 7 > L K H H K < R R [ 2 <.<.<.<.<.<.<.<.<.<.",
"<.<.<.<.<.<.<.<.=.w / _ y 9 F F Y 8 i G F F H F H F F H F F > L F A A < R R ! 1 <.<.<.<.<.<.<.<.<.<.",
"<.<.<.<.<.<.<.<.-.& D ! s < 2 5 2 8 7 8 8 0 0 y 0 0 y 8 8 8 8 2 2 1 1 2 L P a = <.<.<.<.<.<.<.<.<.<.",
"<.<.<.<.<.<.<.<.*.m ` t G R / / _ { { { _ { { { { { { { { _ _ / / W E Y j j +.= <.<.<.<.<.<.<.<.<.<.",
"<.<.<.<.<.<.<.<.#.j @.&.c A { ] ) { [ { } } { } | } } } { } [ } [ / / 9 X.#.X.& <.<.<.<.<.<.<.<.<.<.",
"<.<.<.<.<.<.<.<.%.: V n 4 y A A H G G H H H H H H H K H K G H H H G K < c B B * <.<.<.<.<.<.<.<.<.<.",
"<.<.<.<.<.<.<.<.%.: m 4 i H H L L K H L K L L L U I U L L L L L K L H U = c n * <.<.<.<.<.<.<.<.<.<.",
"<.<.<.<.<.<.<.<.$.# 4 a D a z Z Z z A Z x x A b A A A A A A A Z A Z Z z L , h * <.<.<.<.<.<.<.<.<.<.",
"<.<.<.<.<.<.<.<.%.o g U 4 & = = = 1 $ $ = > < > < - 1 = > & 1 > - = = + G L > * <.<.<.<.<.<.<.<.<.<.",
"<.<.<.<.<.<.<.<.$., G G 5 1 z z z J y 4 e f f k z z z a e 1 G f f f y $ A G G * <.<.<.<.<.<.<.<.<.<.",
"<.<.<.<.<.<.<.<.$., G G 5 & 7 y g z J e 4 7 a k a z y q - D g z y 7 = & A G A * <.<.<.<.<.<.<.<.<.<.",
"<.<.<.<.<.<.<.<.$., G G 4 9 9 * 6 z z J e 1 7 l z y 4 < b z z r - = a % A b A = <.<.<.<.<.<.<.<.<.<.",
"<.<.<.<.<.<.<.<.$.> G G 4 6 x f : 7 z x J P e 7 e 4 A J z x r = e l l * x x x * <.<.<.<.<.<.<.<.<.<.",
"<.<.<.<.<.<.<.<.$.% b G 1 6 l u a ; 7 e A z P y 1 b a z u y = r e a f * x x z * <.<.<.<.<.<.<.<.<.<.",
"<.<.<.<.<.<.<.<.$., D G 4 9 z u h f 4 = 7 z z L T j a e ; - r r e j l & z l x * <.<.<.<.<.<.<.<.<.<.",
"<.<.<.<.<.<.<.<.$.= A A 4 6 l a r r e e 4 u a x z K Y 9 6 9 u t r a l & g z g * <.<.<.<.<.<.<.<.<.<.",
"<.<.<.<.<.<.<.<.$., x A 1 6 f u a 6 6 1 D j r e q z z L e 6 4 r r a f * g z g * <.<.<.<.<.<.<.<.<.<.",
"<.<.<.<.<.<.<.<.$.% x x 4 6 l a 6 1 z J x b u 1 - 7 z x J P 9 ; r j j * l z g & <.<.<.<.<.<.<.<.<.<.",
"<.<.<.<.<.<.<.<.$.% x x 4 4 l 7 ; z x z e e - h x 1 9 e z z J 9 1 a j * z z f & <.<.<.<.<.<.<.<.<.<.",
"<.<.<.<.<.<.<.<.$.% x b 4 - 4 4 l z z y - - a f u l 4 = 6 z z G e 4 4 & f z f & <.<.<.<.<.<.<.<.<.<.",
"<.<.<.<.<.<.<.<.$.# f b 4 - 1 a k z y = 9 a a u h a a r = 6 z f J 9 9 & f f f & <.<.<.<.<.<.<.<.<.<.",
"<.<.<.<.<.<.<.<.%.% f f , e b z z e ; 9 r u a u u a a e r ; 5 j a D J * f f f & <.<.<.<.<.<.<.<.<.<.",
"<.<.<.<.<.<.<.<.%.O r x ; * 4 4 4 + - : - 1 < 1 1 ; 1 - - - + < 1 < 1 + a f 1 & <.<.<.<.<.<.<.<.<.<.",
"<.<.<.<.<.<.<.<.$.@ 6 r u 9 9 e 9 e r r t y t y t y t y y y r y y t y r g 4 h & <.<.<.<.<.<.<.<.<.<.",
"<.<.<.<.<.<.<.<.$.: M : u b b b b b b b B b b b G G G G G b D b D b G b 1 h V & <.<.<.<.<.<.<.<.<.<.",
"<.<.<.<.<.<.<.<.$.- C n 6 e f f r f f f u f f a f f f f f f f f f f f 4 j Q n & <.<.<.<.<.<.<.<.<.<.",
"<.<.<.<.<.<.<.<.O.  # ; O O # + + + + + # # + # # # # + + # + # # # #   : # # X <.<.<.<.<.<.<.<.<.<.",
"<.<.<.<.<.<.<.<.,.;.>.:.>.>.>.>.>.>.>.>.>.>.>.>.:.>.>.:.>.>.>.>.>.>.>.>.:.>.>.>.<.<.<.<.<.<.<.<.<.<.",
"<.<.<.<.<.<.<.<.<.<.<.<.<.<.<.<.<.<.<.<.<.<.<.<.<.<.<.<.<.<.<.<.<.<.<.<.<.<.<.<.<.<.<.<.<.<.<.<.<.<.",
"<.<.<.<.<.<.<.<.<.<.<.<.<.<.<.<.<.<.<.<.<.<.<.<.<.<.<.<.<.<.<.<.<.<.<.<.<.<.<.<.<.<.<.<.<.<.<.<.<.<."
};
