/* XPM */
static char *result[] = {
/* columns rows colors chars-per-pixel */
"50 50 170 2 ",
"   c #2F2F2F",
".  c #2F2F30",
"X  c gray19",
"o  c #303031",
"O  c #303032",
"+  c #303033",
"@  c #313133",
"#  c #313135",
"$  c #313136",
"%  c #323237",
"&  c #323238",
"*  c #333339",
"=  c #33333A",
"-  c #33333B",
";  c #34343C",
":  c #34343E",
">  c #35353E",
",  c #35353F",
"<  c #363642",
"1  c #373744",
"2  c #373745",
"3  c #373746",
"4  c #383847",
"5  c #383849",
"6  c #393949",
"7  c #39394A",
"8  c #3A3A4B",
"9  c #39394C",
"0  c #3A3A4C",
"q  c #3A3A4E",
"w  c #3A3A4F",
"e  c #3B3B4F",
"r  c #3B3B51",
"t  c #3C3C52",
"y  c #3C3C53",
"u  c #3C3C54",
"i  c #3D3D55",
"p  c #3D3D56",
"a  c #3D3D57",
"s  c #3E3E57",
"d  c #3E3E59",
"f  c #3F3F5A",
"g  c #3F3F5B",
"h  c #3F3F5C",
"j  c #40405D",
"k  c #404060",
"l  c #424263",
"z  c #424264",
"x  c #434366",
"c  c #444469",
"v  c #44446B",
"b  c #45456C",
"n  c #46466E",
"m  c #464670",
"M  c #474770",
"N  c #464671",
"B  c #474773",
"V  c #484873",
"C  c #484875",
"Z  c #494977",
"A  c #494978",
"S  c #4A4A7A",
"D  c #4B4B7C",
"F  c #4F4B7C",
"G  c #4C4C7C",
"H  c #4C4C7D",
"J  c #4D4D7D",
"K  c #4F4C7C",
"L  c #4E4E7D",
"P  c #4F4F7E",
"I  c #524B7B",
"U  c #50507E",
"Y  c #51517E",
"T  c #51517F",
"R  c #52527F",
"E  c #53537F",
"W  c #54547F",
"Q  c #55547F",
"!  c #58527E",
"~  c #545480",
"^  c #555680",
"/  c #565680",
"(  c #575780",
")  c #575781",
"_  c #585781",
"`  c #585880",
"'  c #585881",
"]  c #595981",
"[  c #5A5A81",
"{  c #5A5A82",
"}  c #5B5B82",
"|  c #5C5C82",
" . c #5D5C82",
".. c #5D5D83",
"X. c #5E5D82",
"o. c #5D5E83",
"O. c #5E5E83",
"+. c #5F5F83",
"@. c #606084",
"#. c #616184",
"$. c #626284",
"%. c #636385",
"&. c #646485",
"*. c #656585",
"=. c #666585",
"-. c #656486",
";. c #656586",
":. c #666686",
">. c #676786",
",. c #686986",
"<. c #686887",
"1. c #686987",
"2. c #696987",
"3. c #6A6A86",
"4. c #6B6A87",
"5. c #6B6B87",
"6. c #6F6A87",
"7. c #6C6C87",
"8. c #6B6B88",
"9. c #6D6D88",
"0. c #6D6E89",
"q. c #6F6E88",
"w. c #6E6E89",
"e. c #6F6F89",
"r. c #707088",
"t. c #717189",
"y. c #727289",
"u. c #70708A",
"i. c #71718A",
"p. c #73738A",
"a. c #74748B",
"s. c #74758B",
"d. c #76758B",
"f. c #77778B",
"g. c #76768C",
"h. c #76778C",
"j. c #78788C",
"k. c #78798D",
"l. c #79798D",
"z. c #7A7A8C",
"x. c #7A7A8D",
"c. c #7A7B8D",
"v. c #7B7B8D",
"b. c #7B7B8E",
"n. c #7C7B8E",
"m. c #7A7C8E",
"M. c #7B7C8E",
"N. c #7E7E8D",
"B. c #7D7D8E",
"V. c #7C7C8F",
"C. c #7E7D8F",
"Z. c #7F7F8E",
"A. c #7E7E8F",
"S. c #7E7F90",
"D. c #80808F",
"F. c #80828F",
"G. c #81828F",
"H. c #82828F",
"J. c #818190",
"K. c #828390",
"L. c #838390",
"P. c #828491",
"I. c #838491",
"U. c #848590",
"Y. c #848491",
"T. c #868591",
"R. c #858691",
"E. c #868691",
"W. c #878792",
"Q. c None",
/* pixels */
"Q.Q.Q.Q.Q.Q.Q.Q.Q.Q.Q.Q.Q.Q.Q.Q.Q.Q.Q.Q.Q.Q.Q.Q.Q.Q.Q.Q.Q.Q.Q.Q.Q.Q.Q.Q.Q.Q.Q.Q.Q.Q.Q.Q.Q.Q.Q.Q.Q.Q.",
"Q.Q.Q.Q.Q.Q.Q.Q.Q.Q.Q.Q.Q.Q.Q.Q.Q.Q.Q.Q.Q.Q.Q.Q.Q.Q.Q.Q.Q.Q.Q.Q.Q.Q.Q.Q.Q.Q.Q.Q.Q.Q.Q.Q.Q.Q.Q.Q.Q.Q.",
"Q.Q.Q.Q.Q.Q.Q.Q.Q.Q.Q.Q.Q.Q.Q.Q.Q.Q.Q.Q.Q.Q.Q.Q.Q.Q.Q.Q.Q.Q.Q.Q.Q.Q.Q.Q.Q.Q.Q.Q.Q.Q.Q.Q.Q.Q.Q.Q.Q.Q.",
"Q.Q.Q.Q.Q.Q.Q.Q.Q.Q.Q.Q.Q.Q.Q.Q.Q.Q.Q.Q.Q.Q.Q.Q.Q.Q.Q.Q.Q.Q.Q.Q.Q.Q.Q.Q.Q.Q.Q.Q.Q.Q.Q.Q.Q.Q.Q.Q.Q.Q.",
"Q.Q.Q.Q.Q.Q.Q.Q.Q.Q.Q.Q.Q.Q.Q.Q.Q.Q.Q.Q.Q.Q.Q.Q.Q.Q.Q.Q.Q.Q.Q.Q.Q.Q.1 I ; + 1 Q.Q.Q.Q.Q.Q.Q.Q.Q.Q.Q.",
"Q.Q.Q.Q.Q.Q.Q.Q.Q.Q.Q.Q.Q.Q.Q.Q.Q.Q.Q.Q.Q.Q.Q.Q.Q.Q.Q.Q.Q.Q.Q.Q.Q.h , O     & Q.Q.Q.Q.Q.Q.Q.Q.Q.Q.Q.",
"Q.Q.Q.Q.Q.Q.Q.Q.Q.Q.Q.Q.Q.Q.Q.Q.Q.Q.Q.Q.Q.Q.Q.Q.Q.Q.Q.Q.Q.Q.Q.Q.q 5 +       * 8 Q.Q.Q.Q.Q.Q.Q.Q.Q.Q.",
"Q.Q.Q.Q.Q.Q.Q.Q.Q.Q.Q.Q.Q.Q.Q.Q.Q.Q.Q.Q.Q.Q.Q.Q.Q.Q.Q.Q.Q.Q.Q.N 4         = * F Q.Q.Q.Q.Q.Q.Q.Q.Q.Q.",
"Q.Q.Q.Q.Q.Q.Q.Q.Q.Q.Q.Q.Q.Q.Q.Q.Q.Q.Q.Q.Q.Q.Q.Q.Q.Q.Q.Q.Q.Q.Q.w     D ..  - = $ Q.Q.Q.Q.Q.Q.Q.Q.Q.Q.",
"Q.Q.Q.Q.Q.Q.Q.Q.Q.Q.Q.Q.Q.Q.Q.Q.Q.Q.Q.Q.Q.Q.r * & Q.Q.Q.Q.Q.u @     D %.. M.= = Q.Q.Q.Q.Q.Q.Q.Q.Q.Q.",
"Q.Q.Q.Q.Q.Q.Q.Q.Q.Q.Q.Q.Q.Q.Q.Q.Q.Q.Q.Q.Q.r < #   < Q.Q.Q.3 -     n D w.9.M.q = Q.Q.Q.Q.Q.Q.Q.Q.Q.Q.",
"Q.Q.Q.Q.Q.Q.Q.Q.Q.Q.Q.Q.Q.Q.Q.Q.Q.Q.Q.Q.t 7       = Q.Q.Q.o     D L / g.b.M.D p Q.Q.Q.Q.Q.Q.Q.Q.Q.Q.",
"Q.Q.Q.Q.Q.Q.Q.Q.Q.Q.Q.Q.Q.Q.Q.Q.Q.Q.Q.Q.1     D   r = s     0 D E *.9.y.V.+.B.J Q.Q.Q.Q.Q.Q.Q.Q.Q.Q.",
"Q.Q.Q.Q.Q.Q.Q.Q.Q.Q.Q.Q.Q.Q.Q.Q.Q.Q.Q.q %   : A -.A %     & Z D ] >.9.y.a.B.j.t.Q.Q.Q.Q.Q.Q.Q.Q.Q.Q.",
"Q.Q.Q.Q.Q.Q.Q.Q.Q.Q.Q.Q.Q.Q.Q.Q.Q.Q.9 .   3 G D $.d.    T T C D +.<.n.V.f.s.v.z.Q.Q.Q.Q.Q.Q.Q.Q.Q.Q.",
"Q.Q.Q.Q.Q.Q.Q.Q.Q.Q.Q.Q.Q.Q.Q.Q.Q.*     B Z L >.w.  1 = * P &.+.3.i.f.z.z.4.N.r.Q.Q.Q.Q.Q.Q.Q.Q.Q.Q.",
"Q.Q.Q.Q.Q.Q.Q.Q.Q.Q.Q.Q.Q.Q.Q.Q.Q.    r L J ( :.  o 6 g _ ' 3.y.9.V.V.b.D.r.Z.} Q.Q.Q.Q.Q.Q.Q.Q.Q.Q.",
"Q.Q.Q.Q.Q.Q.Q.Q.Q.Q.Q.Q.Q.Q.Q.Q.  6 e E #.3.r.  i j u z D { :.y.f.v.V. .D.V.D.j.Q.Q.Q.Q.Q.Q.Q.Q.Q.Q.",
"Q.Q.Q.Q.Q.Q.Q.Q.Q.Q.Q.Q.Q.Q.Q.  u c w D $.+.t.; a b G > 6 { u.y.j.x.D.b.D.p.9.v.Q.Q.Q.Q.Q.Q.Q.Q.Q.Q.",
"Q.Q.Q.Q.Q.Q.Q.Q.Q.Q.Q.Q.Q.Q.Q.* G x n V D #.r 2 D n D B | >.9.O.V.x.L.Z.D.g.Z.D.Q.Q.Q.Q.Q.Q.Q.Q.Q.Q.",
"Q.Q.Q.Q.Q.Q.Q.Q.Q.Q.Q.Q.Q.Q.Q.y D L [ U ( D D x D T E D #.Y { f.p.U.L.L.L.V.l.g.Q.Q.Q.Q.Q.Q.Q.Q.Q.Q.",
"Q.Q.Q.Q.Q.Q.Q.Q.Q.Q.Q.Q.Q.Q.3 D 9 D L ..<.t.Y D d E { 8.8.e.w.x.N.H.J.U.Z.N.K.Y Q.Q.Q.Q.Q.Q.Q.Q.Q.Q.",
"Q.Q.Q.Q.Q.Q.Q.Q.Q.Q.Q.Q.Q.Q.- Y G D D ' @.*.P U G j ( ,.r.e.y.x.N.N.j.J.L.J.L.Q.Q.Q.Q.Q.Q.Q.Q.Q.Q.Q.",
"Q.Q.Q.Q.Q.Q.Q.Q.Q.Q.Q.Q.Q.Q.Q.Q ~ D / D | r.) / G ' | *.>.{ a.j.b.D.D K.U.D.K.Q.Q.Q.Q.Q.Q.Q.Q.Q.Q.Q.",
"Q.Q.Q.Q.Q.Q.Q.Q.Q.Q.Q.Q.Q.Q.Q.W / O.O.H %.( e.O.o.{ D | g.>.{ x.B.J.M z.K.I.U.Q.Q.Q.Q.Q.Q.Q.Q.Q.Q.Q.",
"Q.Q.Q.Q.Q.Q.Q.Q.Q.Q.Q.Q.Q.Q.Q.Q.( | | :.>.X.9...;.O.>.G *.<.g.s.N.D.m D.L.U.1.Q.Q.Q.Q.Q.Q.Q.Q.Q.Q.Q.",
"Q.Q.Q.Q.Q.Q.Q.Q.Q.Q.Q.Q.Q.Q.# 3.z.+.>.:.| 9.8.y.:.$.^ 8.+.2.*.i.s.D.B q.U.K.Q.Q.Q.Q.Q.Q.Q.Q.Q.Q.Q.Q.",
"Q.Q.Q.Q.Q.Q.Q.Q.Q.Q.Q.Q.6.b 9.f.9.z.S *.O #.9.y.f.8.i.G s.9.9.j.v.D.  N.L.I.Q.Q.Q.Q.Q.Q.Q.Q.Q.Q.Q.Q.",
"Q.Q.Q.Q.Q.Q.Q.Q.Q.Q.Q.Q.S 7.e.y.e.+.> z.s.D.L.B.A.[ k 7.D s.y.s.l.v.r D.J.O Q.Q.Q.Q.Q.Q.Q.Q.Q.Q.Q.Q.",
"Q.Q.Q.Q.Q.Q.Q.Q.Q.Q.Q.f L :.~ D p.= #.f.V.f.L.J.Z.Z.    >.D g.g.j.b.3 z.C.Q.Q.  Q.Q.Q.Q.Q.Q.Q.Q.Q.Q.",
"Q.Q.Q.Q.Q.Q.Q.Q.Q.Q.v 3.j.s.M.Z.< $.g.j.j.J.D.j.x.D.Z.    t.G j.z.z.u =.; Q.Q.Q.Q.Q.Q.Q.Q.Q.Q.Q.Q.Q.",
"Q.Q.Q.Q.Q.Q.Q.Q.Q.Q.D >.$.c 0.  >.a.v.D H.D.R.Z.H.J.L.K.  R 3.w.j.j.j D Q.Q.Q.Q.Q.Q.Q.Q.Q.Q.Q.Q.Q.Q.",
"Q.Q.Q.Q.Q.Q.Q.Q.Q.Q.` 5.g.D J.#...| 0.j.j.D.U.D.Z.H.D.K.f.  9.9.' a.Z   Q.Q.Q.Q.Q.Q.Q.Q.Q.Q.Q.Q.Q.Q.",
"Q.Q.Q.Q.Q.Q.Q.Q.Q.f f.9.z.z.D._ O.y j.H.L.E.E.R.E.E.L.L.L.U.@ $.[ Q     Q.Q.Q.Q.Q.Q.Q.Q.Q.Q.Q.Q.Q.Q.",
"Q.Q.Q.Q.Q.Q.Q.Q.Q.  y.b.D F.m y.u.k.A.H.E.Y.E.E.R.R.R.E.P.H.I.N.  %   Q.Q.Q.Q.Q.Q.Q.Q.Q.Q.Q.Q.Q.Q.Q.",
"Q.Q.Q.Q.Q.Q.Q.Q.Q.K l.h.f.D.  y.b.i.D.U.i.L.R.R.E.L.L.T.} +.1.p f   Q.  Q.Q.Q.Q.Q.Q.Q.Q.Q.Q.Q.Q.Q.Q.",
"Q.Q.Q.Q.Q.Q.Q.Q.Q.D.f.r.g.B.y.p.m.f.D.Y.H.W.E.U.R.E.U.K.f.: |     Q.Q.Q.Q.  Q.Q.Q.Q.Q.Q.Q.Q.Q.Q.Q.Q.",
"Q.Q.Q.Q.Q.Q.Q.Q.Q.U j.g.z.j.s.g.W g.Z.J.L.R.L.E.I.L.M.D G.+       Q.Q.Q.Q.Q.Q.Q.Q.Q.Q.Q.Q.Q.Q.Q.Q.Q.",
"Q.Q.Q.Q.Q.Q.Q.Q.Q.Q.z.z.b.g.' g.g.l.f.D.U.P.U.S.H.c.I.          Q.Q.Q.Q.  Q.Q.Q.Q.Q.Q.Q.Q.Q.Q.Q.Q.Q.",
"Q.Q.Q.Q.Q.Q.Q.Q.Q.Q.j.k.z.v.Z.p.z.3.m.N.A.V.U.R.l             Q.Q.Q.Q.Q.Q.Q.Q.Q.Q.Q.Q.Q.Q.Q.Q.Q.Q.Q.",
"Q.Q.Q.Q.Q.Q.Q.Q.Q.Q.Q.j.y.j.:.l.w.g.l.j.B.r.                Q.Q.Q.Q.X Q.Q.Q.Q.Q.Q.Q.Q.Q.Q.Q.Q.Q.Q.Q.",
"Q.Q.Q.Q.Q.Q.Q.Q.Q.Q.Q.e = D $ # 9 B 5.D O             Q.Q.Q.Q.Q.Q.Q.Q.Q.Q.Q.Q.Q.Q.Q.Q.Q.Q.Q.Q.Q.Q.Q.",
"Q.Q.Q.Q.Q.Q.Q.Q.Q.Q.Q.Q.Q.@ !     @ # $ $     Q.Q.Q.Q.Q.Q.Q.Q.Q.Q.Q.Q.Q.Q.Q.Q.Q.Q.Q.Q.Q.Q.Q.Q.Q.Q.Q.",
"Q.Q.Q.Q.Q.Q.Q.Q.Q.Q.Q.Q.Q.Q.Q.Q.Q.Q.Q.Q.Q.Q.Q.Q.Q.Q.Q.Q.Q.Q.Q.Q.Q.Q.Q.Q.Q.Q.Q.Q.Q.Q.Q.Q.Q.Q.Q.Q.Q.Q.",
"Q.Q.Q.Q.Q.Q.Q.Q.Q.Q.Q.Q.Q.Q.Q.Q.Q.Q.Q.Q.Q.Q.Q.Q.Q.Q.Q.Q.Q.Q.Q.Q.Q.Q.Q.Q.Q.Q.Q.Q.Q.Q.Q.Q.Q.Q.Q.Q.Q.Q.",
"Q.Q.Q.Q.Q.Q.Q.Q.Q.Q.Q.Q.Q.Q.Q.Q.Q.Q.Q.Q.Q.Q.Q.Q.Q.Q.Q.Q.Q.Q.Q.Q.Q.Q.Q.Q.Q.Q.Q.Q.Q.Q.Q.Q.Q.Q.Q.Q.Q.Q.",
"Q.Q.Q.Q.Q.Q.Q.Q.Q.Q.Q.Q.Q.Q.Q.Q.Q.Q.Q.Q.Q.Q.Q.Q.Q.Q.Q.Q.Q.Q.Q.Q.Q.Q.Q.Q.Q.Q.Q.Q.Q.Q.Q.Q.Q.Q.Q.Q.Q.Q.",
"Q.Q.Q.Q.Q.Q.Q.Q.Q.Q.Q.Q.Q.Q.Q.Q.Q.Q.Q.Q.Q.Q.Q.Q.Q.Q.Q.Q.Q.Q.Q.Q.Q.Q.Q.Q.Q.Q.Q.Q.Q.Q.Q.Q.Q.Q.Q.Q.Q.Q.",
"Q.Q.Q.Q.Q.Q.Q.Q.Q.Q.Q.Q.Q.Q.Q.Q.Q.Q.Q.Q.Q.Q.Q.Q.Q.Q.Q.Q.Q.Q.Q.Q.Q.Q.Q.Q.Q.Q.Q.Q.Q.Q.Q.Q.Q.Q.Q.Q.Q.Q.",
"Q.Q.Q.Q.Q.Q.Q.Q.Q.Q.Q.Q.Q.Q.Q.Q.Q.Q.Q.Q.Q.Q.Q.Q.Q.Q.Q.Q.Q.Q.Q.Q.Q.Q.Q.Q.Q.Q.Q.Q.Q.Q.Q.Q.Q.Q.Q.Q.Q.Q."
};
