/* XPM */
static char *result[] = {
/* columns rows colors chars-per-pixel */
"50 50 231 2 ",
"   c #0A0B0B",
".  c #040305",
"X  c #130C0A",
"o  c #0F1B0E",
"O  c #13190B",
"+  c #0E0F15",
"@  c #060D12",
"#  c #110F13",
"$  c #0C1515",
"%  c #131115",
"&  c #131319",
"*  c #1A1A1B",
"=  c #191718",
"-  c #22131C",
";  c #1A250B",
":  c #1A270D",
">  c #153C1F",
",  c #2E2C16",
"<  c #383C18",
"1  c #2D3011",
"2  c #050A2C",
"3  c #050A22",
"4  c #1C1B26",
"5  c #1C1D2A",
"6  c #181728",
"7  c #050C37",
"8  c #0A183D",
"9  c #14133A",
"0  c #231B2A",
"q  c #211922",
"w  c #301A20",
"e  c #1D302B",
"r  c #24252B",
"t  c #372228",
"y  c #2C2235",
"u  c #2D263E",
"i  c #38253A",
"p  c #2E3926",
"a  c #4B3013",
"s  c #422A3B",
"d  c #4C3535",
"f  c #3F4617",
"g  c #18482B",
"h  c #164D38",
"j  c #2A4427",
"k  c #3A4525",
"l  c #494719",
"z  c #595019",
"x  c #645816",
"c  c #686316",
"v  c #464727",
"b  c #050E4A",
"n  c #0E1442",
"m  c #051448",
"M  c #061957",
"N  c #121C5C",
"B  c #111443",
"V  c #083947",
"C  c #0C3256",
"Z  c #3E3344",
"A  c #262E56",
"S  c #121C65",
"D  c #131C6B",
"F  c #142165",
"G  c #09277A",
"H  c #102475",
"J  c #11287E",
"K  c #10356B",
"L  c #262C67",
"P  c #2E3160",
"I  c #483545",
"U  c #412B41",
"Y  c #1D485D",
"T  c #154B51",
"R  c #3D4B45",
"E  c #255946",
"W  c #0C4D6F",
"Q  c #19697A",
"!  c #207262",
"~  c #5F4D5F",
"^  c #82687B",
"/  c #60875B",
"(  c #0C1D8D",
")  c #072688",
"_  c #152C88",
"`  c #05358B",
"'  c #12358C",
"]  c #193489",
"[  c #092897",
"{  c #083997",
"}  c #143697",
"|  c #102798",
" . c #212E85",
".. c #243D95",
"X. c #0636A6",
"o. c #153AA9",
"O. c #112EB5",
"+. c #0F30A9",
"@. c #09479A",
"#. c #12529A",
"$. c #115493",
"%. c #295992",
"&. c #167B9C",
"*. c #0D689B",
"=. c #206588",
"-. c #0848A6",
";. c #144BA8",
":. c #0A54A8",
">. c #1959AB",
",. c #0847B7",
"<. c #0659BA",
"1. c #1456B8",
"2. c #154BB1",
"3. c #285BB6",
"4. c #0866A8",
"5. c #1963A9",
"6. c #1B76A8",
"7. c #0666B8",
"8. c #196EB5",
"9. c #0977B7",
"0. c #1C75B5",
"q. c #0F71A9",
"w. c #296BBB",
"e. c #3363BC",
"r. c #696780",
"t. c #085CC5",
"y. c #1C5CC3",
"u. c #1450C0",
"i. c #174CC7",
"p. c #0668C8",
"a. c #116CC5",
"s. c #1F66C9",
"d. c #147ACC",
"f. c #1878C8",
"g. c #067BD2",
"h. c #177AD6",
"j. c #1363D6",
"k. c #2977C6",
"l. c #2075DD",
"z. c #237BE7",
"x. c #168595",
"c. c #258C9D",
"v. c #1A86AA",
"b. c #0983B8",
"n. c #1B8CBB",
"m. c #1599B0",
"M. c #16A8B6",
"N. c #20A9BE",
"B. c #538689",
"V. c #0688C5",
"C. c #1786CB",
"Z. c #0693C9",
"A. c #1A94CC",
"S. c #178AD8",
"D. c #0798D5",
"F. c #1493DC",
"G. c #1799DA",
"H. c #0E8FD6",
"J. c #2789CA",
"K. c #3883CC",
"L. c #2196C5",
"P. c #228BD5",
"I. c #2699DA",
"U. c #309DD2",
"Y. c #1BAAC8",
"T. c #1AA1DB",
"R. c #18A8DA",
"E. c #1DBCD4",
"W. c #1BB5DA",
"Q. c #1BBEDB",
"!. c #1CB6D5",
"~. c #0EAED1",
"^. c #24AADB",
"/. c #2AB4D7",
"(. c #1F8EEE",
"). c #1C9BE3",
"_. c #1A97E5",
"`. c #1F9AF1",
"'. c #2283E8",
"]. c #229DEE",
"[. c #229AF4",
"{. c #218CF1",
"}. c #1AADEA",
"|. c #19A6E4",
" X c #1BB4EA",
".X c #19B7E3",
"XX c #1FAAF3",
"oX c #24A7E9",
"OX c #23BAEC",
"+X c #27B4E4",
"@X c #23A3F2",
"#X c #57ACDE",
"$X c #64BCE5",
"%X c #1BC8CE",
"&X c #1BCBD6",
"*X c #1ECBDA",
"=X c #1BC3D9",
"-X c #1DD3DC",
";X c #1CDDDD",
":X c #22C5D9",
">X c #1EE1DC",
",X c #20E2DF",
"<X c #1BC3EB",
"1X c #16CBEC",
"2X c #1CCBEB",
"3X c #19C8E6",
"4X c #1AD5E7",
"5X c #1CDCE3",
"6X c #1BD4EC",
"7X c #1BDAEC",
"8X c #16D8ED",
"9X c #17CBF3",
"0X c #1AD5F4",
"qX c #1BDDF2",
"wX c #16DBF2",
"eX c #22C8E8",
"rX c #24D6E8",
"tX c #36CDEF",
"yX c #19E7EC",
"uX c #1AE3F3",
"iX c #16ECF4",
"pX c #1AECF4",
"aX c #12E1F6",
"sX c #17F2F4",
"dX c #19F4F4",
"fX c #46CBEA",
"gX c #44D7EF",
"hX c #BFBCAD",
"jX c #899289",
"kX c #98BADD",
"lX c None",
/* pixels */
"lXlXlXlXlXlXlXlXlXlXlXlXlXlXlXlXlXlXlXlXlXlXlXlXlXlXlXlXlXlXlXlXlXlXlXlXlXlXlXlXlXlXlXlXlXlXlXlXlXlX",
"lXlXlXlXlXlXlXlXlXlXlXlXlXlXlXlXlXlXlXlXlXlXlXlXlXlXlXlXlXlXlXlXlXlXlXlXlXlXlXlXlXlXlXlXlXlXlXlXlXlX",
"lXlXlXlXlXlXlXlXlXlXlXlXlXlXlXlXlXlXlXlXlXlXlXlXlXlXlXlXlXlXlXlXlXlXlXlXlXlXlXlXlXlXlXlXlXlXlXlXlXlX",
"lXlXlXlXlXlXlXlXlXlXlXlXlXlXlXlXlXlXlXlXlXlXlXlXlXlXlXlXlXlXlXlXlXlXlXlXlXlXlXlXlXlXlXlXlXlXlXlXlXlX",
"lXlXlXlXlXlXlXlXlXlXlXlXlXlXlXlXlXlXlXlXlXlXlXlXlXlXlXlXlXlXlXlXlXlXs ^ r 6 y lXlXlXlXlXlXlXlXlXlXlX",
"lXlXlXlXlXlXlXlXlXlXlXlXlXlXlXlXlXlXlXlXlXlXlXlXlXlXlXlXlXlXlXlXlXI r 0 - # 5 lXlXlXlXlXlXlXlXlXlXlX",
"lXlXlXlXlXlXlXlXlXlXlXlXlXlXlXlXlXlXlXlXlXlXlXlXlXlXlXlXlXlXlXlXu i 4 % % + 5 I lXlXlXlXlXlXlXlXlXlX",
"lXlXlXlXlXlXlXlXlXlXlXlXlXlXlXlXlXlXlXlXlXlXlXlXlXlXlXlXlXlXlX~ y & # % % 5 5 r.lXlXlXlXlXlXlXlXlXlX",
"lXlXlXlXlXlXlXlXlXlXlXlXlXlXlXlXlXlXlXlXlXlXlXlXlXlXlXlXlXlXlXi & # ) | = t 5 5 lXlXlXlXlXlXlXlXlXlX",
"lXlXlXlXlXlXlXlXlXlXlXlXlXlXlXlXlXlXlXlXlXlXI 5 0 lXlXlXlXlXI 5 # & D O.q {.5 0 lXlXlXlXlXlXlXlXlXlX",
"lXlXlXlXlXlXlXlXlXlXlXlXlXlXlXlXlXlXlXlXlXU y 4 & y lXlXlXy 0 + # S _ i.y..Xu 0 lXlXlXlXlXlXlXlXlXlX",
"lXlXlXlXlXlXlXlXlXlXlXlXlXlXlXlXlXlXlXlXI i * # % 5 lXlXlX4 + % J } ..h._.).K I lXlXlXlXlXlXlXlXlXlX",
"lXlXlXlXlXlXlXlXlXlXlXlXlXlXlXlXlXlXlXlXy & # D $ I 5 I * % 9 D } 3.k.K.).5.oX| lXlXlXlXlXlXlXlXlXlX",
"lXlXlXlXlXlXlXlXlXlXlXlXlXlXlXlXlXlXlXs 6 # 6 D O.L 5 # # 0 S _ #.w.k.f.P.G.I.s.lXlXlXlXlXlXlXlXlXlX",
"lXlXlXlXlXlXlXlXlXlXlXlXlXlXlXlXlXlXd q # 9 ] ] 2.h.  . ( } F ] 3.w.#XoXU.S.#XI.lXlXlXlXlXlXlXlXlXlX",
"lXlXlXlXlXlXlXlXlXlXlXlXlXlXlXlXlX0 & + S D ' w.k.@ 7 2 2 [ >.>.k.J.U.I.I.y.+XK.lXlXlXlXlXlXlXlXlXlX",
"lXlXlXlXlXlXlXlXlXlXlXlXlXlXlXlXlX# + B ' ..#.8.+ 3 7 b [ +.1.d.k.+X+X^.$Xf.+X>.lXlXlXlXlXlXlXlXlXlX",
"lXlXlXlXlXlXlXlXlXlXlXlXlXlXlXlX& 9 n | O.1.f.* b b m M ) X.1.d.T.^./.o.rX_.OX^.lXlXlXlXlXlXlXlXlXlX",
"lXlXlXlXlXlXlXlXlXlXlXlXlXlXlX* B N B H ,.;.d.2 m M [ 7 7 X.d.S.R./.fX+XrXP.J.G.lXlXlXlXlXlXlXlXlXlX",
"lXlXlXlXlXlXlXlXlXlXlXlXlXlXlX6 ' M N S _ o.b 7 ) M ) C X.,.a.5.+X+XtXOXOXI._.+XlXlXlXlXlXlXlXlXlXlX",
"lXlXlXlXlXlXlXlXlXlXlXlXlXlXlX9 H ' ;.| { ' G M G @.@.) ,.` -.H.K.gX6XeXOX).P.S.lXlXlXlXlXlXlXlXlXlX",
"lXlXlXlXlXlXlXlXlXlXlXlXlXlX9 ] 9 G ' ;.u.a.` ` 7 @.:.t.p.t.t.F.:XgXfX0X+XoX@X%.lXlXlXlXlXlXlXlXlXlX",
"lXlXlXlXlXlXlXlXlXlXlXlXlXlX6 @.' H H @.:.,.{ { ` m @.p.p.t.p._.}.3X^.OXXX].@XlXlXlXlXlXlXlXlXlXlXlX",
"lXlXlXlXlXlXlXlXlXlXlXlXlXlXlX#.@._ @.H ;.A.#.@.` X.-.<.t.X.g.S.|. XL OXXX(.].lXlXlXlXlXlXlXlXlXlXlX",
"lXlXlXlXlXlXlXlXlXlXlXlXlXlXlX#.$.q.4.` 1.| d.4.:.:.) -.D.<.-.S.). XP I.`.`.[.lXlXlXlXlXlXlXlXlXlXlX",
"lXlXlXlXlXlXlXlXlXlXlXlXlXlXlXlX*.q.:.b.8.-.p.6.9.:.9.) <.<.D.S.).}.L }.`.@Xk.lXlXlXlXlXlXlXlXlXlXlX",
"lXlXlXlXlXlXlXlXlXlXlXlXlXlXp y.G.v.b.9.:.Z.7.d.m.9.@.V.X.<.<.d.H.}.F k.[.{.lXlXlXlXlXlXlXlXlXlXlXlX",
"lXlXlXlXlXlXlXlXlXlXlXlXhX/ s.S.j.G.K M.g 2.g.C.H.Z.Z.` D.p.p.R.R.oXw '.{.@XlXlXlXlXlXlXlXlXlXlXlXlX",
"lXlXlXlXlXlXlXlXlXlXlXlXY f.n.A.L.m.g S.S.}.9X.X3X6.T V.( D.V.H.G.).Z '.(.t lXlXlXlXlXlXlXlXlXlXlXlX",
"lXlXlXlXlXlXlXlXlXlXlXV $.n.x.$.%Xj 0.G.|.j.<X1X3X4Xo O 9.) D.H.F.G.i h.z.lXlX* lXlXlXlXlXlXlXlXlXlX",
"lXlXlXlXlXlXlXlXlXlXY L.Q.G.|.+Xg 8.E.!.F.1X1XS.R.4XeXo ; Z.` |.F.F.I 3.d lXlXlXlXlXlXlXlXlXlXlXlXlX",
"lXlXlXlXlXlXlXlXlXlXW 0.0.C C.> n.G.=XW OX.XwX<X1X6XyX7XO *.p.p.F.S.A  .lXlXlXlXlXlXlXlXlXlXlXlXlXlX",
"lXlXlXlXlXlXlXlXlXlX&.L.R.W 6X5.6.5.C.R.R.).9X}.}.1X<X7X:Xo V.a.o.j.S X lXlXlXlXlXlXlXlXlXlXlXlXlXlX",
"lXlXlXlXlXlXlXlXlXV !.Y.:XQ.2X5.6.V !.7XwXiXsXsXsXwX6XuXuXuXp q.| } X   lXlXlXlXlXlXlXlXlXlXlXlXlXlX",
"lXlXlXlXlXlXlXlXlX$ ^.;XW pXY Y.Y.!.3X8XaXsXsXsXdXpXqXpXyX7XyXrX, r   lXlXlXlXlXlXlXlXlXlXlXlXlXlXlX",
"lXlXlXlXlXlXlXlXlXB.*X&X&X6X$ Y.-XE.yXiXE.wXsXsXpX0X8X0Xv.v.N.E R   lX. lXlXlXlXlXlXlXlXlXlXlXlXlXlX",
"lXlXlXlXlXlXlXlXlXkX-XY.=X4X%XE.rX:X3XyXwXiXpXwXuXuX8X1XR.g v.1 X lXlXlXlX  lXlXlXlXlXlXlXlXlXlXlXlX",
"lXlXlXlXlXlXlXlXlXx.*X=X=XW.~.E.x.!.4XyXwXwXwXiX0X8X.X! 9Xj x = * lXlXlXlXlXlXlXlXlXlXlXlXlXlXlXlXlX",
"lXlXlXlXlXlXlXlXlXlX:X:X,X!.c.E.E..XW.4XdXpXiX4X9X|.9Xj < x   X lXlXlXlX  lXlXlXlXlXlXlXlXlXlXlXlXlX",
"lXlXlXlXlXlXlXlXlXlX&X;X>X5X4XY.-XM.5X5X4X*X0X0XT : ; a x a X lXlXlXlXlXlXlXlXlXlXlXlXlXlXlXlXlXlXlX",
"lXlXlXlXlXlXlXlXlXlXlX-X%X:XM.,XY.&X-X&X4Xf.f < ; < z l a   lXlXlXlX* lXlXlXlXlXlXlXlXlXlXlXlXlXlXlX",
"lXlXlXlXlXlXlXlXlXlXlXR j Q j v h ! Y.=.k l o ; f z z lXlXlXlXlXlXlXlXlXlXlXlXlXlXlXlXlXlXlXlXlXlXlX",
"lXlXlXlXlXlXlXlXlXlXlXlXlXp jX< : j j k v o : lXlXlXlXlXlXlXlXlXlXlXlXlXlXlXlXlXlXlXlXlXlXlXlXlXlXlX",
"lXlXlXlXlXlXlXlXlXlXlXlXlXlXlXlXlXlXlXlXlXlXlXlXlXlXlXlXlXlXlXlXlXlXlXlXlXlXlXlXlXlXlXlXlXlXlXlXlXlX",
"lXlXlXlXlXlXlXlXlXlXlXlXlXlXlXlXlXlXlXlXlXlXlXlXlXlXlXlXlXlXlXlXlXlXlXlXlXlXlXlXlXlXlXlXlXlXlXlXlXlX",
"lXlXlXlXlXlXlXlXlXlXlXlXlXlXlXlXlXlXlXlXlXlXlXlXlXlXlXlXlXlXlXlXlXlXlXlXlXlXlXlXlXlXlXlXlXlXlXlXlXlX",
"lXlXlXlXlXlXlXlXlXlXlXlXlXlXlXlXlXlXlXlXlXlXlXlXlXlXlXlXlXlXlXlXlXlXlXlXlXlXlXlXlXlXlXlXlXlXlXlXlXlX",
"lXlXlXlXlXlXlXlXlXlXlXlXlXlXlXlXlXlXlXlXlXlXlXlXlXlXlXlXlXlXlXlXlXlXlXlXlXlXlXlXlXlXlXlXlXlXlXlXlXlX",
"lXlXlXlXlXlXlXlXlXlXlXlXlXlXlXlXlXlXlXlXlXlXlXlXlXlXlXlXlXlXlXlXlXlXlXlXlXlXlXlXlXlXlXlXlXlXlXlXlXlX",
"lXlXlXlXlXlXlXlXlXlXlXlXlXlXlXlXlXlXlXlXlXlXlXlXlXlXlXlXlXlXlXlXlXlXlXlXlXlXlXlXlXlXlXlXlXlXlXlXlXlX"
};
