/* XPM */
static char *_1b88140496d43e78128ba3f1a6b12bdmImLuib77Ekzc5tY[] = {
/* columns rows colors chars-per-pixel */
"50 50 7 1 ",
"  c None",
". c #FFC400",
"X c #CDDC39",
"o c #FFB74D",
"O c #8BC34A",
"+ c #FFD740",
"@ c #AED581",
/* pixels */
"                                                  ",
"                                                  ",
"                                                  ",
"                                                  ",
"                                                  ",
"                       ++++                       ",
"                    ++++..++++                    ",
"                 ++++...oo...++++                 ",
"               +++...oooooooo...+++               ",
"             +++..oooooooooooooo..+++             ",
"            ++..oooooooooooooooooo..++            ",
"           ++.ooooooooooooo@oooooooo.++           ",
"          ++.ooooooooooooo@@ooooooooo.++          ",
"          +.ooooooooooooo@@@oooooooooo.+          ",
"          +.oooooooooooo@@@@oooooooooo.+          ",
"         ++.ooooooooooo@@@@@oooooooooo.++         ",
"         +.ooooooooooo@@@@@@ooooooooooo.+         ",
"         +.oooooooooo@@@o@@@ooooooooooo.+         ",
"         +.ooooooooo@@@oo@@@ooooooooooo.+         ",
"        ++.oooooooo@@@ooo@@@ooooooooooo.++        ",
"        +.oooooooo@@@oooo@@@oooooooooooo.+        ",
"        +.ooooooo@@@ooooo@@@oooooooooooo.+        ",
"        +.ooooooo@@oooooo@@@oooooooooooo.+        ",
"       ++.ooooooooooooooo@@@oooooooooooo.++       ",
"       +.oooooooooooooooo@@@ooooooooooooo.+       ",
"       +.oooooooooooooooo@@@ooooooooooooo.+       ",
"       ++.ooooooooooooooo@@@oooooooooooo.++       ",
"        +.ooooooooooooooo@@@oooooooooooo.+        ",
"        +.ooooooooooooooo@@@oooooooooooo.+        ",
"        +.ooooooooooooooo@@@oooooooooooo.+        ",
"        ++.ooooo@@@@@@@@@@@@@@@@@@ooooo.++        ",
"         +.ooooo@@@@@@@@@@@@@@@@@@ooooo.+         ",
"         +.oooooOOOOOOOOOOOOOOOOOOooooo.+         ",
"         +.oooooooooooooooooooooooooooo.+         ",
"         ++.oooooooooooooooooooooooooo.++         ",
"          +.oooXXXXXooooooooooXXXXXooo.+          ",
"          +.oooXXXXXXXooooooXXXXXXXooo.+          ",
"          ++.ooooXXXXXXXXXXXXXXXXoooo.++          ",
"           ++.oooooXXXXXXXXXXXXooooo.++           ",
"            ++..oooooXXXXXXXXooooo..++            ",
"             +++..oooooooooooooo..+++             ",
"               +++...oooooooo...+++               ",
"                 ++++...oo...++++                 ",
"                    ++++..++++                    ",
"                       ++++                       ",
"                                                  ",
"                                                  ",
"                                                  ",
"                                                  ",
"                                                  "
};
