/* XPM */
static char *result[] = {
/* columns rows colors chars-per-pixel */
"25 25 24 1 ",
"  c #FE7A16",
". c #FF7B17",
"X c #FC7C17",
"o c #FE7F16",
"O c #FE7A18",
"+ c #FD7D18",
"@ c #FF7C18",
"# c #FE7E19",
"$ c #FF7F1A",
"% c #FF8217",
"& c #FA8517",
"* c #FB8318",
"= c #FC8218",
"- c #FD8218",
"; c #FF8218",
": c #FE8319",
"> c #FF8319",
", c #FE801A",
"< c #FF811B",
"1 c #FD821B",
"2 c #FA8519",
"3 c #FC871B",
"4 c #FF821C",
"5 c #FE831C",
/* pixels */
" @X####,,,,,,$$<<<,,,,,,*",
"@+++#$$,$,,<$,$<<<,,,,,,=",
"@@@##,,,$$,<$,,<<<<,<,,$*",
"@@++$#,$$,,,,<,<<<,,<,,,*",
" @+##$,,,,,<<,<<<<<<<<<,*",
"@@@o#,,,,$<;,<<<<<<<;;,,*",
" @+#$$$$,,<<,<<<<<<<<,,,*",
" +X##,,,,,<<<<,<<<<<<,,,*",
"@++##,,,$,<<,<<<><<<<<,,*",
"@@@,,,,,,<<<<<<;<<<<<<<,*",
" @X#$,,,,<<<<<<><<<<<<<<*",
" @+#$,,,,<<<<<<<4<%;<<<,*",
"@@X$#,$$,<<<<<<<<<<<<<<,2",
" @###$$$,<<<<<<;<<11<<;;*",
" .##,,,,,<<<<<;<<<<<;<<,*",
" @+#$,$,,<<<<<<<<<<<<<<<2",
" @##,,,,,,<<<<<<<<<<<<<,*",
"@@.##$,,,<<<<<<<<<<<<<<$*",
" @X##,,,,<<<<<<<<1<<;<<,2",
" ++##,,,<<<<<<<<1<<<<;<<*",
"O@###$$$,<;<<<<<-54;<<<,2",
" @.##$$,,;<<<<<<:5<;<<,<&",
" @+##,$,,<<<<<<<<<<1<<<<3",
" .##$$$$,<<<<<<<1<<<<<1<3",
" @X#$$$$,<<<<;<41:;1<<512"
};
