/* XPM */
static char *result[] = {
/* columns rows colors chars-per-pixel */
"25 25 10 1 ",
"  c #F5EF00",
". c #F9ED01",
"X c #F9EE00",
"o c #F8F200",
"O c #FBF201",
"+ c #F8F102",
"@ c #FBF102",
"# c #FCF101",
"$ c #F8F007",
"% c #F8EE13",
/* pixels */
"++++++++++++++++++++++++o",
"oooooooooooooooooooooooo#",
"oooooooooooooooooooooooo#",
"oooooooooooooooooooooooo#",
"oooooooooooooooooooooooo#",
"oooooooooooooooooooooooo#",
"oooooooooooooooooooooooo#",
"oooooooooooooooooooooooo#",
"oooooooooooooooooooooooo#",
"oooooooooooooooooooooooo#",
"oooooooooooooooooooooooo#",
"oooooooooooooooooooooooo#",
"oooooooooooooooooooooooo#",
"oooooooooooooooooooooooo#",
"oooooooooooooooooooooooo#",
"oooooooooooooooooooooooo#",
"oooooooooooooooooooooooo#",
"oooooooooooooooooooooooo#",
"oooooooooooooooooooooooo#",
"oooooooooooooooooooooooo#",
"oooooooooooooooooooooooo#",
"oooooooooooooooooooooooo#",
"oooooooooooooooooooooooo#",
"ooooooooooooooooooooooooO",
"..#.......@X.###..... $%$"
};
