/* XPM */
static char *result[] = {
/* columns rows colors chars-per-pixel */
"50 50 104 2 ",
"   c #576200",
".  c #5C6501",
"X  c #646C00",
"o  c #6A6E01",
"O  c #616B0B",
"+  c #667000",
"@  c #6D7300",
"#  c #6F7800",
"$  c #67710A",
"%  c #6D740B",
"&  c #717600",
"*  c #7D7306",
"=  c #757903",
"-  c #797C06",
";  c #747A0B",
":  c #7A7E0B",
">  c #656E11",
",  c #6C761C",
"<  c #737914",
"1  c #737B1B",
"2  c #797E1F",
"3  c #757D21",
"4  c #787E20",
"5  c #737C2A",
"6  c #6B7A39",
"7  c #767D35",
"8  c #897D28",
"9  c #937424",
"0  c #7E8101",
"q  c #7E810C",
"w  c #7E8111",
"e  c #7D8019",
"r  c #7D8022",
"t  c #7C822E",
"y  c #7C8531",
"u  c #7A843D",
"i  c #7C8744",
"p  c #7D884D",
"a  c #778658",
"s  c #7B8B64",
"d  c #7D8D6A",
"f  c #81820F",
"g  c #818312",
"h  c #808323",
"j  c #82852B",
"k  c #818531",
"l  c #848944",
"z  c #838B49",
"x  c #828952",
"c  c #8A8F50",
"v  c #828B5C",
"b  c #8D8E59",
"n  c #B18046",
"m  c #B48555",
"M  c #B2895B",
"N  c #8E8964",
"B  c #83936A",
"V  c #979361",
"C  c #949A6D",
"Z  c #869674",
"A  c #999B74",
"S  c #94977D",
"D  c #949979",
"F  c #9C9B7D",
"G  c #B58C61",
"H  c #B88F66",
"J  c #B28F6C",
"K  c #B7916A",
"L  c #A29674",
"P  c #B59370",
"I  c #B59877",
"U  c #B2997B",
"Y  c #9A9582",
"T  c #9E9D85",
"R  c #A79782",
"E  c #A19E87",
"W  c #AE9D86",
"Q  c #A89A89",
"!  c #B29985",
"~  c #8AA090",
"^  c #93A29A",
"/  c #A7A283",
"(  c #A2A488",
")  c #B2A08A",
"_  c #A2A592",
"`  c #ACA891",
"'  c #B1AB98",
"]  c #94A6A3",
"[  c #93A8A9",
"{  c #9DA8AE",
"}  c #94ABB4",
"|  c #97ADB9",
" . c #AEACA1",
".. c #A5A7AE",
"X. c #BCB2AF",
"o. c #A7A8B2",
"O. c #B2ACBB",
"+. c #B6B4B0",
"@. c #BBB2B0",
"#. c #C7B2B3",
"$. c #C3BABF",
"%. c #A4B5D1",
"&. c #C2BCC4",
"*. c #C8BFCB",
/* pixels */
"& @ & & & & @ & @ & & @ & & @ & @ & @ @ & & & & @ & & & o & @ @ & # & @ & & & @ & & & & @ & & @ @ & ",
"& & & & & & & & & & & & & & & & & & & & & & & & & & & & * & & & & & & & & & & & & & & & & & & & & & ",
"& & & & & & & & & & & = & & & & & & & & & & & & & & & & & & & & & & & & & & & & & & & & & & & & & & ",
"& & & & & & & & & & - q - & & & & & & & & & & & & & & & & & & & & & & & & & & & & & & & & & & & & & ",
"& & & & & & & & & @ = - q - & & & & & & & & & & & & & & & & & & & & & & & & & & & & & & & & & & & & ",
"& & & & & & & & & & & & : w = & & & & & & & & & & & & & & & & & & & & & & & & & & & & & & & & & & & ",
"& & & & & & & & & & & & = : ; & & & & & & & & & & & & & & & & & & & & & & & & & & & & & & & & & & & ",
"& & & & & & & & & & @ @ = : w - & & & & & & & & & & & & & & & & & & & & & = & & & & & & & & & & & & ",
"& & & & & & & & & & @ + # : < & & & & & & & & & & & & & & & & & & & & & & & & & & & & & & & & & & & ",
"& & & & & & & & & - : = # + @ @ & = & & & & & & & & & & & & & & & & & & & & & & & & & & & & & & & & ",
"& & & & & & & & & q g : # X + # & & & & & & & & & & & & & & & = & & & & & & & & & & & & & & & & & & ",
"& & & & & & & & & ; : : = @ # & & & & & & & & & & & & & & & & & & & & & & & & & & & & & & & & & & & ",
"& & & & & & & & & @ @ @ & & & & & & & & & & & & & & & & & & & & & & & & & & & & & & & & & & & & & & ",
"& & & & & & & & & @ X X @ & & & & & & & & & & & & & & & & & & & & & & & & & & & & & & & & & & & & & ",
"& & & & & & & & & & @ & & & & & & & & & & & & & & & & & & & & & & & & & & & & & & & & & & & & & & & ",
"& & & & & & & & & & = & & & & & & & & & & & & & & & & & & & & & & & & & & & & & & & & & & & & & & & ",
"& & & & & & & & & & & & & & & & & & & & & & & & & & & & & & & & & & & & & & & & & & & & & & & & & & ",
"& & & & & & & & & & & & & & & & & & & & & & & & & & & & & & & & & & & & & & & & & & & & & & & & & & ",
"& & & & & & & & & & & & & & & & & & & & & & & & & & & & & & & & & & & & & & & & & & & = & & & & & & ",
"& & & & & & & & & & & & & & & & & & & & & & & & & & & & & & & & & & & & & & & & & & = ; & & & & & & ",
"& & & & & & & & & & & & & & & & & & & & & & & & & & & & & & & & & & & & & & & & @ @ @ & = = & & & & ",
"& & & & & & & & & & & & & & & & & & & & & & & & & & & & & & & & & & & & & & & & & 2 k j e = & & & & ",
"& & & & & & & & & & & & & & & & & & & & & & & & & & & & & & & & & & & & & & & o ; F +.` l = & & & & ",
"& & & & & & & & & & & & & & & & & & & & & & & & & & & & & & & & & & & & & & & t V U #.&.c o & & & & ",
"& & = # & & & & & & & & & & & & & & & & & & & & & & & & & & & & & & & & & @ @ A @.G P  .u X # & & & ",
"& & & & & & & & & @ & & & & & & & & & & & & & & & & & & & & & & & & & & & @ @ L *.#.L 7 % @ & & & & ",
"& & & & & & & & - - & & @ & & & & & & = = & & & & & & & & & & & & & & & & & @ z T _ p . X = & & & & ",
"& & & & & & @ - w q q & & & & & & & = f = & & & & & & & & & & & & & & & & & & + O O o & & & & & & & ",
"& & & & & & @ & - f f = = ; & & = : : - = & & & & & & & & & & & & & & & & & & @ X X X & = # & & & & ",
"& & & & & = = = & = - - ; = & ; : : - & & & & & & & & & & & & & & & & & & & & = & = & & & & & & & & ",
"& & & & = : q f q + + # @ @ ; : ; @ @ @ & & @ & & & & & & & & & & & & & & & & & & & & & & & & & & & ",
"& & & & & - g 0 0 i C C 3 . = w : + X @ - - - = & & & & = - & & & & & & & & & & & & & & & & & & & & ",
"& & & & & & : : h / $.X.b $ = : = @ X & : g g - & & & & : : = & & & & & & & & & & & & & & & & & & & ",
"& & & & & @ o z ' I m M ) ( t @ @ @ & @ & - f f q = = : - & & & & & & & & & & & & & & & & & & & & & ",
"& & & & & & X i E U H K W A r @ o @ & = @ & = q q & = f = & & & & & & & & & & & & & & & & & & & & & ",
"& & & & & & & X > F $.X.x . @ & & & & & = % ; q ; + @ - = & & & & & & & & & & & & & & & & & & & & & ",
"& & & & & & & @ X 7 v x , o @ & & & o o p ~ ~ i & X X @ @ & & & & & & & & & & & & & & & & & & & & & ",
"& & & & & & & & & X   . o = & & & & < y S o...D y % X X @ & & & & & & & & & & & & & & & & & & & & & ",
"& & & & & & & & & @ @ @ & & & & & o i ] R n n Q ] u o o @ & & & & & & & & & & & & & & & & & & & & & ",
"& & & & & & & & & & & = & & & & & & 5 d Y ! ! Y s < 4 B Z x ; & & & & & & & & & & & & & & & & & & & ",
"& & & & & & & & & & & & & & & & & = o X s | } a . X z { %.^ 1 & & & & & & & & & & & & & & & & & & & ",
"& & & & & & & & & & & & & & & & & & @ o , 6 6 , o o 8 J O.[ 3 o & & & & & & & & & & & & & & & & & & ",
"& & & & & & & & & & & & & & & & & & & & o . . o = & * 9 N d < & = & & & & & & & & & & & & & & & & & ",
"& & & & & & & & & & & & & & & & & & & & & & & & & = o X . X & & & & & & & & & & & & & & & & & & & & ",
"& & & & & & & & & & & & & = & & & & & & & = = & & & @ o X o & & & & & & & & & & & & & & & & & & & & ",
"& & & & & & & & & & & & & & & & & & & & & & & & & & & & = = & & & & & & & & & & & & & & & & & & & # ",
"& & & & & & & & & & & & & & & & & & & & & & & & & & & & & & & & & & & & & & & & & & & & & & & & & = ",
"& & & & & & & & & & & & & & & & & & & & & & & & & & & & & & & & & & & & & & & & & & & & & & & & & & ",
"& & & & & & & & & & & & & & & & & & & & & & & & & & & & & & & & & & & & & & & & & & & & & & & & & & ",
"& & & & & & & & & & & & & & & & & & & & & & & & & & & & & & & & & & & & & & & & & & & & & & & & & & "
};
