/* XPM */
static char *result[] = {
/* columns rows colors chars-per-pixel */
"50 50 84 1 ",
"  c #576200",
". c #5C6500",
"X c #5F6A02",
"o c #636C00",
"O c #6B6E00",
"+ c #677000",
"@ c #6D7301",
"# c #6C7408",
"$ c #717600",
"% c #747904",
"& c #787B06",
"* c #74770B",
"= c #767B0A",
"- c #7A7D0B",
"; c #627010",
": c #66701F",
"> c #6C751D",
", c #737710",
"< c #777C1A",
"1 c #617228",
"2 c #747C23",
"3 c #737A2D",
"4 c #737B35",
"5 c #757C3B",
"6 c #8A720F",
"7 c #917F49",
"8 c #7C800F",
"9 c #7F8312",
"0 c #788234",
"q c #7E833A",
"w c #7B8542",
"e c #7D8947",
"r c #7F854A",
"t c #7D8949",
"y c #828615",
"u c #888842",
"i c #828A4D",
"p c #8C8D4C",
"a c #908F4A",
"s c #8E9147",
"d c #888E57",
"f c #8F9357",
"g c #85915D",
"h c #A4854C",
"j c #B38653",
"k c #818F60",
"l c #808E6E",
"z c #949562",
"x c #979A6B",
"c c #989B6D",
"v c #839173",
"b c #8C977A",
"n c #959772",
"m c #9C9B7C",
"M c #A58E6D",
"N c #B28C61",
"B c #BB936F",
"V c #AF9678",
"C c #B69574",
"Z c #BC9470",
"A c #B19A7D",
"S c #8C9B87",
"D c #919A82",
"F c #A79D87",
"G c #B09580",
"H c #A6A284",
"J c #A4A68A",
"K c #AFAB96",
"L c #AEAD9E",
"P c #B7A997",
"I c #B0A19E",
"U c #95A3A1",
"Y c #9AAAB3",
"T c #9BADBA",
"R c #AFADA2",
"E c #B9A3A3",
"W c #B5B1A9",
"Q c #BAB1AC",
"! c #BDB9BC",
"~ c #C7B4B6",
"^ c #C9B7BC",
"/ c #9EB1C5",
"( c #A4B3CB",
") c #C4BBC4",
/* pixels */
"@$$$$$$$$$$$$$$$$$$$$$$$$$$$$$$$$$$$$$$$$$$$$$$$$$",
"$$$$$$$$$$$$$$$$$$$$$$$$$$$$%$$$$$$$$$$$$$$$$$$$$$",
"$$$$$$$$$$$$$$$$$$%$$$$$$$$$$$$$$$$$$$$$$$$%$$$$$$",
"$$$$$$$$$$$$$$$$$$$$$$$$$$$$$$$$$%$$$$$$$$$$$$$$$$",
"$$$$$$$$$$$$$$$$$$$$$$$$$$$$$$$$$$$$$$$$$$$$$$$$$$",
"$$$$$$$$$$$$$$$$$$$$$$$%$$$$$$$$$$$$$$$$$$$$$$%$$$",
"$$$$$$$$$$$$$$$$$$$$$$$$$$$$$$$$$$$$$$$$$$$$$$$$$$",
"$$$$$$$$$$$$$$$$$$$$$$$$$$$$$$$$$$$$$$$$$$$$$$$$$@",
"$$$$$$$$$$$$$$$$$$$$$$$$$$$$$$$$$$$$$$$$$$$$$$$$$@",
"$$$$$$$$$$$$$$$$$&$@$$$$$$$$$$$$$$$$$$$$$$$$$$$$$$",
"$$$$$$$$$$$$$$@$&9%$$$$$$$$$$$$$$$$$$$$$$$$$$$$$$$",
"$$$$$$$$$8988$$$%8-%$$$O@@$$$$$$$$$$$$$$$$$$$$$$$@",
"$$$$$$$$$89y9%$$@$==@$2ik0@@$$$$$$$$$$$$$$$$%$$$$$",
"$%$$$$$$$@%988=%@o$&$@iT/b%@$$$$%$$$$$$$$$$$$$$$$$",
"$$$$$$$$$@@+%8==@X+@@@g(GMS0@$$$$$$$$$$$$$$$$$$$$$",
"$$$$$$$$$&%++%88$+qzf82vMI/e@$$$$$$$$$$$$$$$$$$$$@",
"$$$$$$$$@89=++=-%<H)WaooSTU0@$$$$$$$$$$$$$$$$$$$$O",
"$$$$$$$$$@@9-@o$sKCjNPxO;1:#$$$$$$$$$$$%$$$$$$$$$$",
"$$$$$$$$$+o@-%XoqmABCFp@2r5*$$$$$$$$$$$$$$$$$$$$$$",
"$$$$$$$$$$@o%%ooXXm!R3 ,H)WuO$$$$$$$$$$$$$$$$$$$$$",
"$$$$$$$$$$$@@@O@+@342 7JCjNPc@@$$$$$$$$$$$$$%$$$$O",
"$$$$$$$$$$@%wki<$@.owuzDVZCFd%$$$$$$$$$$$$$$$$$$$$",
"$$$$$$$$$$@,b(YqO$#pQ)n.n^R3.$$$$%$$$$$$$$$$$$$$$$",
"$$$$$$$$$$@=hE(tO*xAN~JO>54#O$$$$$$$$$$$$$$$$$$$$$",
"$%$$$$$$$$$$6pl3O*L^CMi%X X@%$$$$$$$$$$$$$$$$$$$$$",
"$$$$$$$$$$$$o.o@@*m!R3.$$$$$$$$$$$$$$$$$$$$$$$$$$$",
"$$$$$$$$$$$$OOO$$$254#@$$$%$$$$$$$$$$$$$$$$$$$$$$$",
"$$$$$$$$$$$$$%$%$$o X@%$$$$$$$$$$$$$$$$$$$$$$$$$$O",
"$$$$$$$$$$$$$$$$$$$$$$$$$$$$$$$$$$$$$$$$$$$$$$$$$$",
"$$$$$$$%$$$$%$$$$$$$$%$$$$$$$$$$$$$&$$$$$$$$$$$$$$",
"$$$$$$$$$$$$$$$$$$$$$$$$$$$$$$$$$$$$$$$$$$$$$$$$$O",
"$$$$$$$$$$$$$$$$$$$$$$$$$$$$$$$$$$$$$$$$$$$$$$$$$$",
"$$$$$$$$$$$$$$$$$$$$$$$$$%$$$$$$$$$$$$$$$$$$$$$$$$",
"$$$$$$$$$$$$$$$$$$$$$$$$$$$$$$$$$$$$$$$$$$$$$$$$$@",
"$$$$$$$$$%$$$$$$$$$$$$$$$$$$$$$$$$$$$$$$$$$$$$$$$$",
"$$%$$$$$$$$$$$$$$$$$$$$$$$$$$$$$$$$$$$$$$$$$$$$$$$",
"$$$$$$$$$$$$$$$$$$$$$$$$$$$$$$$$$$$$$$$$$$$$%$$$$$",
"$$$$$$$$$$$$$$$$$$%$$$$$$$$$$$$$$%$$$$$$$$$$$$$$$@",
"$$$$$$$$$$$$$$$$$$$$$$$$$$$$$$$$$$$$$$$$$$$$$$$$$$",
"$$$$$$$$$$$$$$$$$$$$$$$$$$$$$$$$$$$$$$$$$$$$$$$$$@",
"$$$$$$$$$$$$$$$$$$$$$$$$$$$$$$$$$$$$$$$$$$$$$$$$$$",
"$$$$$$$$$$$$$$$%$$$$$$$$$$$$$$$$$$$$$$$$$$$$$$$$$@",
"$$$$$$$$$$$$$$$$$$$$$$%$$$$$$$$$$$$$$$$$$$$$$$$$$$",
"$$$$$$$$$$$$$$$$$$$$$$$$$$$$$$$$$$$$$$$$%$$$$$$$$@",
"$$$$$$$@$$$$$$$$$$$$$$$$$$$$$$$$$%$$$$$$$$$$$$$$$$",
"$$$$$$$8$$$$$$$$$$$$$$$$$$$$$$$$$$$$$$$%$$$$$$$$$$",
"$$$$$$$$$$$$$$$$$$$$$$$$$$$$$$$$$$$$$$$$$$$$$$$$$$",
"$$$$$$$$$$$$$$$$$$$$$$$$$$$$$$$$$$$$$$$$$$$$$$$%$O",
"$$$$$$$$$$$$$$$$$$$$$$$$$$$$$$$$$$$$$$$$$$$$$$$$$$",
"$$$@$@$$@$$@@$@$@$$$$@$$@$$$@$@$$$@@$@$$@$$$@$$$$$"
};
