/* XPM */
static char *result[] = {
/* columns rows colors chars-per-pixel */
"50 50 109 2 ",
"   c #405B00",
".  c #556400",
"X  c #5A6600",
"o  c #5D6A01",
"O  c #646D00",
"+  c #6A6E01",
"@  c #796D0C",
"#  c #667100",
"$  c #6D7300",
"%  c #6D7803",
"&  c #717600",
"*  c #747903",
"=  c #797C05",
"-  c #73750D",
";  c #7A750E",
":  c #767C09",
">  c #7A7D0B",
",  c #686F18",
"<  c #687311",
"1  c #6F761D",
"2  c #747A13",
"3  c #737B1C",
"4  c #777F28",
"5  c #767634",
"6  c #757E31",
"7  c #707E3E",
"8  c #817B0D",
"9  c #807810",
"0  c #8A7E13",
"q  c #867D18",
"w  c #AA7F3F",
"e  c #B17736",
"r  c #B47C37",
"t  c #B97D38",
"y  c #7E810D",
"u  c #7E8110",
"i  c #7B801C",
"p  c #78802D",
"a  c #7F8735",
"s  c #858209",
"d  c #91870F",
"f  c #828411",
"g  c #8B8413",
"h  c #928513",
"j  c #988B13",
"k  c #94831C",
"l  c #9C871D",
"z  c #96881A",
"x  c #9E8C1B",
"c  c #A08F1C",
"v  c #A3921B",
"b  c #808425",
"n  c #868635",
"m  c #A08324",
"M  c #AA8B28",
"N  c #B08E2A",
"B  c #B09524",
"V  c #B19821",
"C  c #B2922A",
"Z  c #BA9B2A",
"A  c #BB8436",
"S  c #B48930",
"D  c #BB8C33",
"F  c #C58B3A",
"G  c #C9883E",
"H  c #C49633",
"J  c #C59D31",
"K  c #CB9439",
"L  c #CE983C",
"P  c #D39E3C",
"I  c #C3A12C",
"U  c #C9A42E",
"Y  c #C9A130",
"T  c #D4A536",
"R  c #DEA53D",
"E  c #DFB038",
"W  c #E4B13A",
"Q  c #EBB43F",
"!  c #868A43",
"~  c #868854",
"^  c #8B915B",
"/  c #939356",
"(  c #919459",
")  c #B6885B",
"_  c #889065",
"`  c #869476",
"'  c #9B9C7C",
"]  c #B58C62",
"[  c #B48F68",
"{  c #A09F7A",
"}  c #B29778",
"|  c #B49B7B",
" . c #D99A43",
".. c #EAAC42",
"X. c #B09F8B",
"o. c #A69D92",
"O. c #AB9B93",
"+. c #8CA08B",
"@. c #AAA68A",
"#. c #B5A28B",
"$. c #A6A391",
"%. c #8FA4A0",
"&. c #90A4A3",
"*. c #98AEB6",
"=. c #B7B2AD",
"-. c #BBB2AE",
";. c #BFB8C0",
":. c #AFB4D2",
">. c #C5BBC1",
/* pixels */
"& & & & & & & & & & & & & & & & & & & & & & & & & & & & & & & & & & & & & & & & & & & & & & & & & & ",
"& & & & & & & & & & * & & & & & & & & & & & & & & & & & & & & & & & & & & & & & & & & & & & & & & & ",
"& & & & & & & & & & & & & & & & & * & & & & & & & & & & & & & & & & & & & * & & & & & & & & & & & & ",
"& & & & & & & & & & & & & & & & & & & & & & & & & & & & & & & & & & & & & & & & & & & & & & & & & $ ",
"& & & & & & & & & & & & & & & & & & & & & & % & & & & & & & & & & & & & & & & & & & & & & & & & & & ",
"& & & & & & $ & & & & & & & & & & & & & & & * & & & & & & * & & & & & & & & & & & & & & & & & & & & ",
"& & & & & $ * = & & & & & & & & & & & & & & & & & & & & & & & & & * & & & & & & & * % & & & & & & & ",
"& & & & & & y y & & & & * & & & & & & & & & & & & & & & & & & & & & & & & & & & & & & & & & & & & $ ",
"& & & & & : y : * & & > y y : * & & & & & & & & & & & & & & & & & & & & & & & & & & & & & & & & & & ",
"* & & & & > * % % & * y f f y & & & & & & % * & % * & & & & & & & & & & * & & & & & & & & & & & & & ",
"* : & & & : $ O $ * : : > y * & & & & & & & & & & & & & & & & & & & & & & & & & & & & & & & & & & $ ",
"& * y > % o o # $ * > > : $ $ & & & & & & & & & & & & & & & & & & & & & & & & & & & & & & & & & & & ",
"& * y : : s j d * * : * $ # & * & & & & & & & & & & & & & & & & & & & & & & & & & & & & & & & & & & ",
"& * : % g U W Y f % y # $ * f y & & & & & & & & & & * & & & & & & & & & & & & & & & & & & & & & & & ",
"& $ * v Y F A F J x # $ : y % $ & & & & & & & & & & & & & & & & & & & & & & & & & & & & & & & & & $ ",
"& $ $ v Z A t A J j o % : % # # & & & & & & & & & & & & & & & & & & & & & & & & & & & & & & & & & & ",
"& & $ O 8 U Q J > X # % $ O $ & & & & & & & & & & & & & & & & & & & & $ & & & & & & & & & & & & & @ ",
"& & & O + h c g # . $ z N c * # & & & & & & & & & & & & & & & & & > > = & & & & & % & * - * & & & & ",
"& & & * & X . O $ * 0 D  .L m * & % & & & & & & & & & & & & & & & > f f * & & & & & > > : * & & & & ",
"& & & & & $ # $ $ l K A e r K C * $ & & & & & & & & & & & & & & & & > f y : > & * > f u * & & & & & ",
"& & & & & & & & # > m A G F S k * $ & & & & & & & & & & & & * * = * * * > : * & * = * $ & & & & & $ ",
"& & & & & & & & = # + M P H 9 X & * & & & & & & & & & & & & : y f f * # % % # $ y i 3 < & & & & & & ",
"& & & & & & O & V U B 0 - ; & $ & & & & & & & & & & & & & & & y f u & $ O o O $ a +.&.` 3 & & & & & ",
"& & & & & & 8 c H ..E >   X + * & & & & & & & & & & & & & & & & * & b ( ^ 6 + # n o.:.*.p $ & & & & ",
"& & & & & & v T t F U 8 X & & & * & & & & & & & & & & & & & & $ O & / =.;.{ 2 $ q w O.%.q + & & & + ",
"& & & & $ # V ..R N 8 $ $ & & & & & & & & & & & & & % * & & & # ; { #.[ ] | @.! + @ 5 7 2 & & & & & ",
"& & & & & & h Z I g . # * & & & & & & & & & & & & & & & & & & & 4 ' X.] ) } $.! + X X O + - & & & & ",
"& & & & & & $ + O + & & & & & & & & & & & & & & & & & & & & & & + X ~ -.>.' , + & & & & & & & & & & ",
"& & & & & & + O O # * & & & & & & & & & & & & & & & & & & & & & & O 1 ~ _ 5 O $ & * & & & & & & & & ",
"& & & & & & & & & & & & & & & & & & & & & & & & & & & & & & & & & * + X X O & * & & & & & & & & & + ",
"& & & & & & & & & & & & & & & & & $ & & & & & & & & * & & & & & & & & $ & + & & & & & & & & & & & & ",
"& & & & & & & & & & & & & & & & & * = > * & & & & & & & & & & & & & & * & * & & & & & & & & & & & & ",
"& & & & & & & & & & & & & & & & & > f f = & & & & & & & & & & & & & & & & & & & & & & & & & & & & & ",
"& & & & & & & & & * * $ & * * * * u f * & & & & & & & & & & & & & & & & * & & & & & & & & & & & & & ",
"& & & & & & & & & * 9 y & $ : > > : & & & & & & & & & & & & & & & & & & & & & & & & & & & & & * & + ",
"& & & & & & & & & * f f : # % > > $ # & & & & & & & & & & & & & & & & & & & & & & & & & & & & % & & ",
"& & & & & & & & $ y f u : * $ # + $ $ & & & & & & & & & & & & & & & & & & & & & & & & & & & & & & & ",
"& & & & & & & & & & = : > > % O + & & & & & & & & & & & & & & & & & & & & & & & & & & & & & & & & & ",
"& & & & & & & & & $ # * > > * $ & & & & & & & & & & & & & & & & & & & & & & & & & & & & & & & & & + ",
"& & & & & & & & & $ # & * * * & * & & & & & & & & & & & & & & & & & * & & & & & & & & & & & & & & & ",
"& & & & & & & & & & & & & & & & & & & & & & * & & & & & & & & & & & & & & & & & & & * & & & & & & & ",
"& & & * & & & & & & & & & & & & & & & & & & & & & & & & & & & & & & & & & & & & & & & & & & & & & & ",
"& & & & & & & & & & & & & & & & & & & & & & & & & & & & & & & & & & & * & & & & & & & & & & & & & + ",
"& & & & & & & & & & & & & & & & & & & & & & & & & & & & & & & & & & & & & & & & & & & & & & & & & & ",
"& & & & & & & & & & & & & & & & & & & & & & & & & & & & & & & & & & & & & & & & & & & & & & & & & & ",
"& & & & & & & & & & & & & & & & * & & & & & & & & & & & & & & & & & & & & & & & & & & & & & & & & $ ",
"& & & & & & & & & & & & & & & & & & & & & & & & & & & & & & & & & & & & & & & & & & & & * & & & & & ",
"& & & & & * & & & & & & & & & & & & & & & & & & & & & & & & & & & & & & & & & & & & & & % & & & & & ",
"& & & & & & & & & & & & & & & & & & & & & & & & & & & & & & & * & & & & & & & & & & & & & & & & & & ",
"% & & & & $ & & $ & & & $ & $ $ & & & & $ & + & & & & + & & + & % & & & & $ & & $ & & & $ & $ $ & & "
};
