/* XPM */
static char *result[] = {
/* columns rows colors chars-per-pixel */
"50 50 76 1 ",
"  c #445C00",
". c #4D6000",
"X c #556400",
"o c #5A6700",
"O c #5E6A00",
"+ c #636D00",
"@ c #6A6F01",
"# c #736F0C",
"$ c #667100",
"% c #6C7400",
"& c #6E7906",
"* c #717600",
"= c #747903",
"- c #797C06",
"; c #767B09",
": c #7A7E0B",
"> c #7D6F10",
", c #837D0D",
"< c #856D1B",
"1 c #8B6F1E",
"2 c #957E1E",
"3 c #987623",
"4 c #957B23",
"5 c #AF7535",
"6 c #B17635",
"7 c #B47A36",
"8 c #7D810D",
"9 c #7F8310",
"0 c #83820D",
"q c #8A840D",
"w c #828411",
"e c #8C8311",
"r c #8F8813",
"t c #938614",
"y c #968917",
"u c #988C14",
"i c #95821B",
"p c #9B861B",
"a c #9D8A1C",
"s c #A4931A",
"d c #AB961E",
"f c #A58526",
"g c #A48C21",
"h c #AA8E24",
"j c #AC9522",
"k c #B59426",
"l c #B29C23",
"z c #BA9E26",
"x c #B7942B",
"c c #B89A28",
"v c #BC8436",
"b c #BE8D33",
"n c #BF8838",
"m c #BB9231",
"M c #B9A128",
"N c #C49C2F",
"B c #C5853C",
"V c #C58B3A",
"C c #C59236",
"Z c #C59935",
"A c #CD9F33",
"S c #CC933A",
"D c #CE9C39",
"F c #D39A3E",
"G c #C9A52E",
"H c #D3A536",
"J c #D2AA32",
"K c #DBA63B",
"L c #DEAB3A",
"P c #E4A73F",
"I c #E2AB3D",
"U c #E6B33B",
"Y c #E8B33E",
"T c #CC8740",
"R c #D79D40",
"E c #DC9E41",
/* pixels */
"****%*%%****%***%*****%**%*%%*****%****%****%*****",
"%*************************************************",
"**************************************************",
"********%*****************************************",
"*****=-=******************************************",
"*****=;>;*****************************************",
"%**==$$898****************************************",
"%***=%%8w8;***%*=*********************************",
"******=::::=%**=:=********************************",
"*****=*@*::**;;%*=********************************",
"%*****%+%::%-dMa%@****************-=**%***********",
"*******@%;=:aAKZq*%%*************=8;***=*=********",
"********%+OsHv5vHu+$*=**********=::;**;888=%******",
"********&@@,hCRmgagg,*******-*%*::%%**:9w8********",
"@*********=o$cLjO2EEp$******:=****@$*8;;8=%*******",
"****=********@%%$3TRa$*******:,:$O$**;8;%%********",
"%****%*****=*Oo$*>12,********:8&qdd0$;=%%=:*******",
"**=**=********%*=@XX$*********;wxIKj9=$%;9-*******",
"**************=***%%%********@qGC67DM%$;8%%%******",
"**%=*************************%-ymSSbe@$;$$%*******",
"*****************************=@XyHG,.+:w**%%******",
"%*********=************%*******$%%%%$$aDZe@*******",
"**********************88-=*****=$+o@,hnBVba=%***=*",
"************=*********8ww:=********$,mn77Vx*%*****",
"**************%********8w;;;*****=**@+fRF4@***=***",
"%*************=*********=::;*****%@qdyiii=O***%***",
"***********************$$=;;=***=*-kIUt X$=*******",
"************************%$$$%***$0NbvLtX%****=*%**",
"**********=**************%%%****@qIPbp-$*******=**",
"********************************@,zJj++=**********",
"**********************************@@@@************",
"@*****%*%************************@+O+=************",
"***********%%%**=*****************==*********%****",
"*****:w0-**%%$=:;=*****************%**************",
"*****=:08=$tjdr;=************=**************=88=**",
"%****%*:8=%jYKg&****************************8w0=%*",
"*******@&;=lIB4**********************8***=;;80=***",
"%******+&::wi<#%********************%88*$&9:=%%***",
"*******@%;;$oOO%********************=8w8$%;=%%****",
"********$$$%%%%%********************=88:;*+$%***=*",
"******==*$$*==**********************%%=::=$%%*****",
"*********=*=*************************$%8;=**=*****",
"****************=*******************************%*",
"%***********************************************=*",
"**************************************************",
"%***************************=*********************",
"**************************************************",
"%*************************************************",
"**************************************=***********",
"**************************************************"
};
