/* XPM */
static char *result[] = {
/* columns rows colors chars-per-pixel */
"50 50 224 2 ",
"   c #636D00",
".  c #636E00",
"X  c #636F00",
"o  c #646E00",
"O  c #646F00",
"+  c #656F00",
"@  c #666E00",
"#  c #666F00",
"$  c #676F00",
"%  c #686F00",
"&  c #647000",
"*  c #657000",
"=  c #667000",
"-  c #677000",
";  c #667100",
":  c #677100",
">  c #677200",
",  c #697000",
"<  c #687100",
"1  c #697100",
"2  c #6A7100",
"3  c #6B7100",
"4  c #687200",
"5  c #697200",
"6  c #6A7200",
"7  c #6B7200",
"8  c #6A7300",
"9  c #6B7300",
"0  c #6C7200",
"q  c #6C7300",
"w  c #6D7300",
"e  c #6B7400",
"r  c #6C7400",
"t  c #6D7400",
"y  c #6C7500",
"u  c #6D7500",
"i  c #6C7401",
"p  c #6E7400",
"a  c #6F7400",
"s  c #6E7500",
"d  c #6F7500",
"f  c #6D7601",
"g  c #6F7700",
"h  c #6E7601",
"j  c #6D7502",
"k  c #6D7602",
"l  c #6E7602",
"z  c #6F7602",
"x  c #6F7801",
"c  c #6F7802",
"v  c #707400",
"b  c #707500",
"n  c #717500",
"m  c #707401",
"M  c #707501",
"N  c #727500",
"B  c #707600",
"V  c #717600",
"C  c #707700",
"Z  c #717700",
"A  c #717601",
"S  c #707701",
"D  c #717701",
"F  c #727600",
"G  c #737600",
"H  c #727700",
"J  c #727601",
"K  c #737601",
"L  c #727701",
"P  c #737701",
"I  c #707602",
"U  c #707603",
"Y  c #717703",
"T  c #727702",
"R  c #737702",
"E  c #727703",
"W  c #747700",
"Q  c #747601",
"!  c #747701",
"~  c #717704",
"^  c #707800",
"/  c #737800",
"(  c #727801",
")  c #737901",
"_  c #707803",
"`  c #717903",
"'  c #727802",
"]  c #737802",
"[  c #727803",
"{  c #737803",
"}  c #747901",
"|  c #747902",
" . c #757902",
".. c #747803",
"X. c #757803",
"o. c #747903",
"O. c #757903",
"+. c #757A02",
"@. c #747A03",
"#. c #757A03",
"$. c #767A03",
"%. c #767B03",
"&. c #737804",
"*. c #737905",
"=. c #747904",
"-. c #747905",
";. c #767904",
":. c #767905",
">. c #757A04",
",. c #757A05",
"<. c #747B05",
"1. c #767A05",
"2. c #767B05",
"3. c #757A06",
"4. c #747B06",
"5. c #757B06",
"6. c #757A07",
"7. c #767B06",
"8. c #777B06",
"9. c #767A07",
"0. c #767B07",
"q. c #767C06",
"w. c #777C06",
"e. c #787B04",
"r. c #787B05",
"t. c #797C06",
"y. c #797C07",
"u. c #7A7D07",
"i. c #737908",
"p. c #757A08",
"a. c #757B08",
"s. c #777A08",
"d. c #767B08",
"f. c #777B08",
"g. c #767B09",
"h. c #777B09",
"j. c #767B0A",
"k. c #767B0B",
"l. c #767C08",
"z. c #777D09",
"x. c #777C0A",
"c. c #777C0B",
"v. c #757B0C",
"b. c #777C0C",
"n. c #787B09",
"m. c #787C09",
"M. c #787D09",
"N. c #797D09",
"B. c #7A7D08",
"V. c #7A7C09",
"C. c #787F09",
"Z. c #7A7E09",
"A. c #7B7E09",
"S. c #7B7F09",
"D. c #797C0A",
"F. c #787C0B",
"G. c #787D0B",
"H. c #7A7D0B",
"J. c #797E0B",
"K. c #7B7F0A",
"L. c #7A7E0B",
"P. c #7B7E0B",
"I. c #7C7F0A",
"U. c #7D7F0A",
"Y. c #7D7F0B",
"T. c #787C0C",
"R. c #787D0C",
"E. c #797D0C",
"W. c #797D0D",
"Q. c #7A7D0D",
"!. c #7B7D0D",
"~. c #797E0C",
"^. c #797E0D",
"/. c #7A7E0C",
"(. c #7B7F0C",
"). c #7A7E0D",
"_. c #7B7E0D",
"`. c #797D0E",
"'. c #7A7E0E",
"]. c #7B7E0E",
"[. c #7A7F0E",
"{. c #7C7E0D",
"}. c #7C7E0E",
"|. c #707411",
" X c #727414",
".X c #727519",
"XX c #707619",
"oX c #717520",
"OX c #717521",
"+X c #737522",
"@X c #737523",
"#X c #717524",
"$X c #727524",
"%X c #747626",
"&X c #7D8009",
"*X c #7D800A",
"=X c #7C800B",
"-X c #7D800B",
";X c #7D800D",
":X c #7F800D",
">X c #7E810D",
",X c #7D800E",
"<X c #7D810F",
"1X c #7F800E",
"2X c #7E810E",
"3X c #7F810F",
"4X c #7F820E",
"5X c #7F820F",
"6X c #7F830F",
"7X c #7D8010",
"8X c #7D8111",
"9X c #7E8110",
"0X c #80820C",
"qX c #80830E",
"wX c #80830F",
"eX c #80840F",
"rX c #808310",
"tX c #818310",
"yX c #818410",
"uX c #808411",
"iX c #838510",
"pX c #838411",
"aX c #828412",
"sX c #838412",
/* pixels */
"V V V V V V V V V V V V V V V V V V V V V V V V V V V V V V V V V V V V V V V V V V V V V V V V V V ",
"v V V V V V V V V V V V V V V V V V V V V V V V V V V V V V V V V V V V V V V V V V V V V V V V V V ",
"v V V V V V V V V V V V V V V V V V V V V V V V V V V V V V V V V V V V V V V V V V V V V V V V V V ",
"v V V V V V V V V V V V V V V V V V V V V V V V V V V V V V V V V V V V V V V V V V V V V V V V V V ",
"v V V V V V V V V V V V V V V V V V V V V V V V V V V V V V V V V V V V V V V V V V V V V V V V V V ",
"v V V V V V V V V V V V V V V V V V V V V V V V V V V V V V V V V V V V V V V V V V V V V V V V V V ",
"v V V V V V V V V V V V V V V V V V V V V V V V V V V V V V V V V V V V V V V V V V V V V V V V V V ",
"v V V V V V V V V V V V V V V V V V V V V V V V V V V V V V V V V V V V V V V V V V V V V V V V V V ",
"v V V V V V V V V V V V V V V V V V V V V V V V V V V V V V V V V V V V V V V V V V V V V V V V V V ",
"v V V V V ] d.0.T b V V V V V V V V V V V V V V V V V V V V V V V V V V V V V V V V V V V V V V V V ",
"v V V V V V ` L./.+.Z b V V V V V V V V V V V V V V V V V V V V V V V V V V V V V V V V V V V V V V ",
"v V V V G 0 - C.sX=Xo.V V V b V A L V V V V V V V V V V V V V V V V V V V V V V V V V V V V V V V V ",
"v V V V V a d >XuXJ.g.] V b b ] d.] b V V V V V V V V V V V V V V V V V V V V V V V V V V V V V V V ",
"v V V V V F L @.5.n.`.| b r.>.{ 3.L b V V V V V V V V V V V V V V b b V V V V V V V V V V V V V V V ",
"v V V V V V B X 9 ).R.&.} 0X9Xg.V b V V V V V V V V V V V V V V V L J V V V b b b V V V V V V V V V ",
"v V V V V V B X i [.H.g.m.4XiXU.V b V V V V V V V V V V V V V b V (.S.V V b M b V V V V V V V V V V ",
"v V V V V V V q e u r i.}.:Xq.D N b V V V V V V V V V V b V b V >.8XK.V a | u.y.7.=.A V V V V V V V ",
"v V V V V V V Q y * o p p.4.6 % B V V V V V V V V V V L L b a L D.v.E V b w.wXpX;X,.A V V V V V V V ",
"v V V V V V V F V b B 9 # $ q V V V V V V V V V V V b -.d.b a ] R.e : J 9.x.J.rXZ.V V V V V V V V V ",
"v V V V V V V V V H W p 6 7 d L V V V V V V V V V V b L >.B.t.' r 6 w A d.).b.^ p b b V V V V V V V ",
"v V V V V V V V V V V F L L F V V V V V V V V V V V V b ..>X3X*.- p ! ] x.x.~ = u ;.A b V V V V V V ",
"v V V V V V V V V V V V V V V V V V V V V V V V V V V b ( D.^.d.B b ] g.'.z = { 7X*XL b V V V V V V ",
"v V V V V V V V V V V V V V V V V V V V V V V V V V V V F ! r e G V X.W.l 9 [ !.6.f V V V V V V V V ",
"v V V V V V V V V V V V V V V V V V V V V V V V V V V V F V , < V V ] _   t ].<.6 $ b G V V V V V V ",
"v V V V V V V V V V V V V V V V V V V V V V V V V V V V V V A V V H p &   l g.> 5 J V V V V V V V V ",
"v V V V V V V V V V V V V V V V V V V V V V b d b V V V V V F F V V b t t V L p d F V V V V V V V V ",
"v V V V V V V V V V V V V V V V V V V V V ) e.%. .] V V V V V V V V V L L V b L G V V V V V V V V V ",
"v V V V V V V V V V V V V V V V V V V V b 2.5XyX,Xd.L V V V V V V V V V V V V V V V V V V V V V V V ",
"v V V V V V V V V V V V V V V V V V V V V V #.qX3Xj.d.] V V V V V V V V V V V V V V V V V V V V V V ",
"v V V V V V V V V V V V V V V V V V V V V b d c 7.Q.}...V V V V V V V V V V V V V V V V V V V V V V ",
"v V V V V V V V V V V V V V V V V V V V V L b * e l.k.R V V V V V V V V V V V V V V V V V V V V V V ",
"v V V V V V V V V V V V V V V V V V V V V V V g 9 ; * r V V V V V V V V V V V V V V V V V V V V V V ",
"v V V V V V V V V V V V V V V V V V V V V V V P s 1 2 u V V V V V V V V V V V V V V V V V V V V V V ",
"v V V V V V V V V V V V V V V V V V V V V V V V F L L V V V V V V V V V V V V V V V V V V V V V V V ",
"v V V V V V V V V V V V V V V V V V V V V V V V V V V V V V V V V V V V V V V V V V V V V V V V V V ",
"v V V V V V b b b V V V V V V b V V V V V V V V V V V V V V V V V V V V V V V V V V V V V V V V V V ",
"v V V V V ! >.$.] V V V V V L ] L L V V V V V V V V V V V V V V V V V V V V V V V V V V d d V V V V ",
"v V V V b 1.rXeXV.V V V V A =.F.G.{ b V V V V V V V V V V V V V V V V V V V V V V V V A V V Z V V V ",
"v V V V b P 8.tX2X] V b L a.x.x.=.L V V V V V V V V V V V V V V V V V V V V V V V b b %.=X&XO.b V V ",
"v V V V V V d >.M.c.o.V G E.'.h.b b V V V V V V V V V V V V V V V V V V T L b G L ] ] *XaX-X .b V V ",
"v V V V V V B + r ~.E.,.n f.T.6.G V V V V V V V V V V V V V V V V V V K x.s.b b =.z.G.<XY.A b V V V ",
"v V V V V V B . i _./.1.d 9 ; 9 F V V V V V V V V V V V V V V V V V V H P.6XN.4 j {.]._ 8 b F V V V ",
"v V V V V V g 9 e I U C b 1 : 7 V V V V V V V V V V V V V V V V V V b L 1XpX(.h y S Y 3 5 B F V V V ",
"v V V V V V V ! r @ @ 9 H L L H V V V V V V V V V V V V V V V V V V b D A.I.F._.x   O r / V V V V V ",
"v V V V V V V V B p p b F V V V V V V V V V V V V V V V V V V V V V F B 2 k E.Q.=.p s B V V V V V V ",
"v V V V V V V V F L L F V V V V V V V V V V V V V V V V V V V V V V F B 2 q ,.:.] F L V V V V V V V ",
"v V V V V V V V V V V V V V V V V V V V V V V V V V V V V V V V V V V V L V n b V V V V V V V V V V ",
"v V V V V V V V V V V V V V V V V V V V V V V V V V V V V V V V V V V V V V V V V V V V V V V V V V ",
"v V V A b b b b b b b b b b b b b b b b b B A V V V A B b b b b b b b b b b b b b b b b B V V V V V ",
"V v v v XX%X+X+X+X+X+X+X+X+X+X+X+X+X+X@X%X Xv v m v v |.#XOXoXoXoXoXoXoXoXoXoXoXoXoXoX$X.Xv v v v v "
};
