/* XPM */
static char *result[] = {
/* columns rows colors chars-per-pixel */
"50 50 171 2 ",
"   c #546500",
".  c #576600",
"X  c #586600",
"o  c #5A6900",
"O  c #5D6800",
"+  c #5E6900",
"@  c #5F6A00",
"#  c #5F6B00",
"$  c #5E6C00",
"%  c #5F6C00",
"&  c #616801",
"*  c #626B00",
"=  c #626C00",
"-  c #636D00",
";  c #646D00",
":  c #646E00",
">  c #656F00",
",  c #676F00",
"<  c #6B6F02",
"1  c #627100",
"2  c #657000",
"3  c #657100",
"4  c #667000",
"5  c #667100",
"6  c #677100",
"7  c #667200",
"8  c #677200",
"9  c #687000",
"0  c #687100",
"q  c #6A7000",
"w  c #6B7000",
"e  c #6A7100",
"r  c #6B7100",
"t  c #687300",
"y  c #697300",
"u  c #6B7200",
"i  c #6A7300",
"p  c #6B7300",
"a  c #6C7300",
"s  c #6D7300",
"d  c #6E7300",
"f  c #6F7300",
"g  c #6D7202",
"h  c #6C7400",
"j  c #6D7400",
"k  c #6C7500",
"l  c #6D7500",
"z  c #6E7400",
"x  c #6F7400",
"c  c #6F7500",
"v  c #6D7600",
"b  c #6E7600",
"n  c #6F7600",
"m  c #6F7601",
"M  c #6F7602",
"N  c #707300",
"B  c #707400",
"V  c #707500",
"C  c #717500",
"Z  c #727500",
"A  c #707600",
"S  c #717600",
"D  c #707700",
"F  c #727600",
"G  c #737600",
"H  c #727700",
"J  c #737700",
"K  c #727601",
"L  c #727701",
"P  c #707602",
"I  c #747700",
"U  c #757700",
"Y  c #747701",
"T  c #707704",
"R  c #777705",
"E  c #737800",
"W  c #727802",
"Q  c #747900",
"!  c #747802",
"~  c #757802",
"^  c #747902",
"/  c #757803",
"(  c #757903",
")  c #717805",
"_  c #737906",
"`  c #737A06",
"'  c #747904",
"]  c #757A05",
"[  c #767B04",
"{  c #777C06",
"}  c #787803",
"|  c #7B7A07",
" . c #797D04",
".. c #797C06",
"X. c #727009",
"o. c #727109",
"O. c #767B08",
"+. c #777C08",
"@. c #7D7B09",
"#. c #7E7B08",
"$. c #7B7E0A",
"%. c #7C7F0B",
"&. c #7C780E",
"*. c #797D0C",
"=. c #797E0C",
"-. c #7A7E0C",
";. c #7B7E0C",
":. c #7B7F0D",
">. c #7C7F0D",
",. c #857D0E",
"<. c #867E0E",
"1. c #857A13",
"2. c #877B15",
"3. c #937D1D",
"4. c #AD7334",
"5. c #B17835",
"6. c #7F810D",
"7. c #7C800E",
"8. c #7F820F",
"9. c #7E8111",
"0. c #86800A",
"q. c #88830A",
"w. c #8A8010",
"e. c #8C8210",
"r. c #908415",
"t. c #918812",
"y. c #948915",
"u. c #948816",
"i. c #9A8D15",
"p. c #948519",
"a. c #9B8C18",
"s. c #9C881D",
"d. c #A08F1A",
"f. c #A2901B",
"g. c #A6911E",
"h. c #9E8520",
"j. c #A38923",
"k. c #A98E26",
"l. c #AE862D",
"z. c #B68C2E",
"x. c #A89021",
"c. c #AF9522",
"v. c #AF9622",
"b. c #B29A21",
"n. c #B49824",
"m. c #BE972D",
"M. c #B78335",
"N. c #BB8237",
"B. c #B88A30",
"V. c #BB8A34",
"C. c #BE9532",
"Z. c #C09A2F",
"A. c #C08D37",
"S. c #C98D3B",
"D. c #CA8E3D",
"F. c #C29833",
"G. c #C39833",
"H. c #C99B36",
"J. c #CB9B36",
"K. c #C9903A",
"L. c #CD903C",
"P. c #CE983B",
"I. c #D1953D",
"U. c #DAAC35",
"Y. c #DFAE3B",
"T. c #E0B03A",
"R. c #E3B13A",
"E. c #E7B13E",
"W. c #CE8E40",
"Q. c #D39340",
"!. c #E9B240",
/* pixels */
"S S S S S S S S S S S S S S S S S S S S S S S S S S S S S S S S S S S S S S S S S S I G 9 # % w Z E ",
"S S S S S S S S S S S S S S S S S S S S S S S S S S S S S S S S S S S S S S S S S S S F x z z c S B ",
"S S S S S S S S S S S S S S S S S S S S S S S S S S S S S S S S S S S S S S S S S S S S H Y H H S B ",
"S S S S S S S S S S S S S S S S S S S S S S S S S S S S S S S S S S S S S S S S S S S S S S S S S B ",
"S S S S S S S S S S S S S S S S S S S S S S S S S S S S S S S S S S S S S S S S S S S S S S S S S B ",
"S S S S S S S S S S S S S S S S S S S S S S S S S S S S S S S S S S S S S S S S S S S S S S S S S B ",
"S S S S S S S S S S S S S S S S S S S S S S S S S S S S S S S S S S S S S S S S S S S S S S S S S B ",
"S S S S S S S S S S S S S S S S S S S S S S S S S S S S S S S S S S S S S S S S S S S S S S S S S B ",
"S S S S S S S S S S S S S S S S S S S S S S S S S S S S S S S S S S S S S S S S S S S S S S S S S B ",
"S S S S S S S S S S S S S S S S S S S S F F j 7 4 y A G S S S S S S S S S S S S S S S S S S S S S B ",
"S S S S S S S S S S S S S S S S S S S S A l } ,.<.@.S c S n z z b S S S S S S S S S S S S S S S S B ",
"S S S S S S S S S S S S S S S S S S S F h 1 r.F.J.k.D 3 S a 6 0 j S S S S S S S S S S S S S S S S B ",
"S S S S S S S S S S S S S S S S S S S k | p.z.D.W.A.j.#.p q.d.a.0.V c S S S S S S S S S S S S S S B ",
"S S S S S S S S S S S S S S S S S S A 8 w.G.S.5.4.N.P.s.I v.T.U.g.a a S S S S S S S S S S S S S S B ",
"S S S S S S S S S S S S S S S S S S S v R 2.l.L.Q.V.3.u.c.B.I.E.b.p a S S S S S S S S S S S S S S B ",
"S S S S S S S S S S S S S S S S S S S I 5   1.C.H.h.X t.Y.K.M.Z.i.z j S S S S S S S S S S S S S S B ",
"S S S S S S S S S S S S S S S S S S S H c a g o.X.< : f.R.!.m.&., S S S S S S S S S S S S S S S S B ",
"S S S S S S S S S S S S S S S S S S S S G U 0 o . $ l e.x.n.y.= + G F S S S S S S S S S S S S S S B ",
"S S S S S S S S S S S S S S S S S S S S S S C A A D J q & O ; B J S S S S S S S S S S S S S S S S B ",
"S S S S S S S S S S S S S S S S S S S S S S S I E J H r * @ 4 S I S S S S S S S S S S S S S S S S B ",
"S S S S S S S S S S S S S S S S S S S S S S S S S S S H J E H S S S S S S S S S S S S S S S S S S B ",
"S S S S S S S S S S S S S S S S S S S S S S S S S S S F S S S S S S S S S S S S S S S S S S S S S B ",
"S S S S S S S S S S S S S S S S S S S S S S S S S S S S S S S S S S S S S S S S S S S S S S S S S B ",
"S S S S S S S S S S S S S S S S S S S S S S S S S S S S S S S S S S S S S S S S S S S S S S S S S B ",
"S S S S S S S S S S S S S S S S S S S S S S S S S S S S S S S S S S S S S S S S S S S S S S S S S B ",
"S S S S S S S S S S S S S S S S S S S S S S S S S S S S S S S S S S S S S S S S S S S S S S S S S B ",
"S S S S S S S S S S S S S S S S S S S S S S S S S S S S S S S S S S S S S S S S S S S S S S S S S B ",
"S S S S S S S S S S S S S S S S S S S S S S S S S S S S S S S S S S S S S S S S S S S S S S S S S B ",
"S S S S S S S S S S S S S S S S S S S S S S S S S S S S S S S S S S S S S S S S S S S S S S S S S B ",
"S S S S S S S S S S S S S S S S S S S S S S S S S S S S S S S S S S S S S S S S S S S S S S S S S B ",
"S S S S S S S S S S S S S S S S S S S S S S S S S S S S S S S S S S S S S S S S S S S S S S S S S B ",
"S S S S S S S S S S S S S S S S S S S S S S S S S S S S S S S S S S S S S S S S S S S S S S S S S B ",
"S S S S S S S S S S S S S S S S S S S S S S S S S S S S S S S S S S S S S S S S S S S S S S S S S B ",
"S S S S S S S S S S S S S S S S S S S S S S S S S S S S S S S S S S S S S S S S S S S S S S S S S B ",
"S S S S S S S S S S S S S S S S S S S V V S S S S S S S S S S S S S S S S S S S S S S S S S S S S B ",
"S S S S S S S S S S S S S S S S S S S Q / S S S S S S S S S S S S S S S S S S S S S S S S S S S S B ",
"S S S S S S S S S S S S S S S S S V L %.>.K x S S S S S S S S S S S S S S S S S S S S S S S S S S B ",
"S S S S S S S S S S S S S S S S S V H ..%. .~ V A S S S S S S S S S S S S S S S S S S S S S S S S B ",
"S S S S S S S S S S S S S S S S S S S V ' 6.$.S A S S S S S S S S S S S S S S S S S S S S S S S S B ",
"S S S S S S S S S S S S S S S S S S S x ~ ;.=.] L S S S S S S S S S S S S S S S S S S S S S S S S B ",
"S S S S S S S S S S S S S S S S S S V d S O.-.*.( V S S S S S S S S S S S S S S S S S S S S S S S B ",
"S S S S S S S S S S S S S S S S S F c 2 t +.:.*.! V S S S S S S S S S S S S S S S S S S S S S S S B ",
"S S S S S S S S S S S S S S S S S ^ [ m k M T M P S S S S S S S S S S S S S S S S S S S S S S S S B ",
"S S S S S S S S S S S S S S S S V ..8.7.) 5 - 2 h L S S S S S S S S S S S S S S S S S S S S S S S B ",
"S S S S S S S S S S S S S S S S V { 9.9.+.j e a c S S S S S S S S S S S S S S S S S S S S S S S S B ",
"S S S S S S S S S S S S S S S S V W _ ` _ H K G F S S S S S S S S S S S S S S S S S S S S S S S S B ",
"S S S S S S S S S S S S S S S S L s 9 2 u A L S S S S S S S S S S S S S S S S S S S S S S S S S S B ",
"S S S S S S S S S S S S S S S S L d 0 > i S L S S S S S S S S S S S S S S S S S S S S S S S S S S B ",
"S S S S S S S S S S S S S S S S S F S S F S S S S S S S S S S S S S S S S S S S S S S S S S S S S B ",
"c f N B B B B B B B B B B B B B B B B V B B B B B B B B B B B B B B B B B B B B B B B B B B B B B S "
};
