/* XPM */
static char *result[] = {
/* columns rows colors chars-per-pixel */
"50 50 124 2 ",
"   c #5D260A",
".  c #5E280D",
"X  c #5F2C11",
"o  c #5F2D13",
"O  c #5E2E13",
"+  c #5F2D14",
"@  c #602D12",
"#  c #602D13",
"$  c #694E3A",
"%  c #6C5240",
"&  c #6C5241",
"*  c #6D5241",
"=  c #6C5341",
"-  c #6D5341",
";  c #6E5342",
":  c #6E5442",
">  c #705645",
",  c #705746",
"<  c #725746",
"1  c #6C6657",
"2  c #6D6659",
"3  c #726B5F",
"4  c #726D61",
"5  c #736D61",
"6  c #736D62",
"7  c #736E62",
"8  c #736F63",
"9  c #746F63",
"0  c #726F64",
"q  c #757164",
"w  c #767064",
"e  c #767368",
"r  c #767569",
"t  c #77756A",
"y  c #77766A",
"u  c #77766B",
"i  c #787468",
"p  c #79756A",
"a  c #78776B",
"s  c #7B786C",
"d  c #7B786D",
"f  c #7B796D",
"g  c #7A786E",
"h  c #7B786E",
"j  c #7B796E",
"k  c #7D7C72",
"l  c #7E7D74",
"z  c #7F7F74",
"x  c #7F7E75",
"c  c #837E73",
"v  c #807F75",
"b  c #848075",
"n  c #868376",
"m  c #878476",
"M  c #878477",
"N  c #888577",
"B  c #858178",
"V  c #878178",
"C  c #868278",
"Z  c #868279",
"A  c #868379",
"S  c #878379",
"D  c #878478",
"F  c #898379",
"G  c #888578",
"H  c #898679",
"J  c #89847A",
"K  c #89857B",
"L  c #89867A",
"P  c #8A877A",
"I  c #8A877B",
"U  c #8B877E",
"Y  c #8B887A",
"T  c #8B887B",
"R  c #8B887C",
"E  c #8C897C",
"W  c #8C897D",
"Q  c #8D8A7D",
"!  c #8D8A7E",
"~  c #8E8B7E",
"^  c #8E8B7F",
"/  c #8F8C7F",
"(  c #8C8880",
")  c #8C8980",
"_  c #8D8980",
"`  c #8E8B80",
"'  c #8E8A83",
"]  c #8F8C80",
"[  c #8F8C81",
"{  c #908D81",
"}  c #918D81",
"|  c #918E81",
" . c #918E82",
".. c #918E83",
"X. c #928E82",
"o. c #928F83",
"O. c #928F84",
"+. c #929084",
"@. c #939084",
"#. c #939085",
"$. c #939086",
"%. c #949185",
"&. c #949186",
"*. c #949187",
"=. c #969389",
"-. c #969489",
";. c #97948C",
":. c #98958D",
">. c #9A958D",
",. c #99968E",
"<. c #99978F",
"1. c #9B968E",
"2. c #9A978E",
"3. c #9B968F",
"4. c #9A978F",
"5. c #9C9991",
"6. c #9C9992",
"7. c #9D9A92",
"8. c #9F9B93",
"9. c #9E9B94",
"0. c #A29F98",
"q. c #A5A29C",
"w. c #A6A39D",
"e. c None",
/* pixels */
".   $ 0 1 F 0.[ n G H H H H H H H H H H H H H H H H H H H H H H H H H H H H H H H H H H H H H H H H ",
"e.X - e 2 c <.^ N H H H H H H H H H H H H H H H H H H H H H H H H H H H H H H H H H H H H H H H H H ",
"e.@ ; y 3 b ;.! N H H H H H H H H H H H H H H H H H H H H H H H H H H H H H H H H H H H H H H H H H ",
"e.o & y q A :.! N H H H H H H H H H H H H H H H H H H H H H H H H H H H H H H H H H H H H H H H H H ",
"e.o & y 9 Z :.! N H H H H H H H H H H H H H H H H H H H H H H H H H H H H H H H H H H H H H H H H H ",
"e.o & y 9 Z :.! N H H H H H H H H H H H H H H H H H H H H H H H H H H H H H H H H H H H H H H H H H ",
"e.o & y 9 Z :.! N H H H H H H H H H H H H H H H H H H H H H H H H H H H H H H H H H H H H H H H H H ",
"e.o & y 9 Z :.! N H H H H H H H H H H H H H H H H H H H H H H H H H H H H H H H H H H H H H H H H H ",
"e.o & y 9 Z :.! N H H H H H H H H H H H H H H H H H H H H H H H H H H H H H H H H H H H H H H H H H ",
"e.o & y 9 Z :.! N H H H H H H H H H H H H H H H H H H H H H H H H H H H H H H H H H H H H H H H H H ",
"e.o & y 9 Z :.Q m G H H H H H H H H H H H H H H H H H H H H H H H H H H H H H H H H H H H H H H H H ",
"e.o & y 9 Z :.[ T E P H H H H H H H H H H H H H H H H H H H H H H H H H H H H H H H H H H H H H H H ",
"e.o & y 9 C >.O.[ ] T G H H H H H H H H H H H H H H H H H H H H H H H H H H H H H H H H H H H H H H ",
"e.o & y 9 C >.+.|  .T G H H H H H H H H H H H H H H H H H H H H H H H H H H H H H H H H H H H H H H ",
"e.o & y 9 C >.+./ ~ I G H H H H H H H H H H H H H H H H H H H H H H H H H H H H H H H H H H H H H H ",
"e.o & y 7 C >.$.Q H H H H H H H H H H H H H H H H H H H H H H H H H H H H H H H H H H H H H H H H H ",
"e.o % y i U 6.*.E D H H H H H H H H H H H H H H H H H H H H H H H H H H H H H H H H H H H H H H H H ",
"e.o = g s ' 9.*.E H H H H H H H H H H H H H H H H H H H H H H H H H H H H H H H H H H H H H H H H H ",
"e.# > l f ( 6.*.E H H H H H H H H H H H H H H H H H H H H H H H H H H H H H H H H H H H H H H H H H ",
"e.# , v d ) 7.*.E H H H H H H H H H H H H H H H H H H H H H H H H H H H H H H H H H H H H H H H H H ",
"e.# , z h ) 5.*.E H H H H H H H H H H H H H H H H H H H H H H H H H H H H H H H H H H H H H H H H H ",
"e.# , z j U 4.&.W H H H H H H H H H H H H H H H H H H H H H H H H H H H H H H H H H H H H H H H H H ",
"e.# < x p J ,. .Y H H H H H H H H H H H H H H H H H H H H H H H H H H H H H H H H H H H H H H H H H ",
"e.# < k w V :.! N H H H H H H H H H H H H H H H H H H H H H H H H H H H H H H H H H H H H H H H H H ",
"e.o : a 9 Z :.! N H H H H H H H H H H H H H H H H H H H H H H H H H H H H H H H H H H H H H H H H H ",
"e.o * r 9 Z :.! N H H H H H H H H H H H H H H H H H H H H H H H H H H H H H H H H H H H H H H H H H ",
"e.o & y 9 Z :.! N H H H H H H H H H H H H H H H H H H H H H H H H H H H H H H H H H H H H H H H H H ",
"e.o & y 9 S ,.! M H H H H H H H H H H H H H H H H H H H H H H H H H H H H H H H H H H H H H H H H H ",
"e.o & y 9 S ,.! M H H H H H H H H H H H H H H H H H H H H H H H H H H H H H H H H H H H H H H H H H ",
"e.o & y 9 S ,.! M H H H H H H H H H H H H H H H H H H H H H H H H H H H H H H H H H H H H H H H H H ",
"e.o & y 8 S 2.! M H H H H H H H H H H H H H H H H H H H H H H H H H H H H H H H H H H H H H H H H H ",
"e.o & y 8 S 2.! M H H H H H H H H H H H H H H H H H H H H H H H H H H H H H H H H H H H H H H H H H ",
"e.o & y 8 S 2.! M H H H H H H H H H H H H H H H H H H H H H H H H H H H H H H H H H H H H H H H H H ",
"e.o & y 9 S ,.! M H H H H H H H H H H H H H H H H H H H H H H H H H H H H H H H H H H H H H H H H H ",
"e.o & y 9 S ,.! M H H H H H H H H H H H H H H H H H H H H H H H H H H H H H H H H H H H H H H H H H ",
"e.o & y 9 S ,.! M G H H H H H H H H H H H H H H H H H H H H H H H H H H H H H H H H H H H H H H H H ",
"e.o & y 9 Z 3...W ! P G H H H H H H H H H H H H H H H H H H H H H H H H H H H H H H H H H H H H H H ",
"e.o & y 9 Z 1.%.{  .T G H H H H H H H H H H H H H H H H H H H H H H H H H H H H H H H H H H H H H H ",
"e.o & y 9 Z 1.#.{ { T G H H H H H H H H H H H H H H H H H H H H H H H H H H H H H H H H H H H H H H ",
"e.o & y 9 Z 1.#.~ R H G G H H H H H H H H H H H H H H H H H H H H H H H H H H H H H H H H H H H H H ",
"e.o & y 9 Z 1.%.W H P P P H H H H H H H H H H H H H H H H H H H H H H H H H H H H H H H H H H H H H ",
"e.o & y 9 Z 1.#./ ] ` ] ^ T G H H H H H H H H H H H H H H H H H H H H H H H H H H H H H H H H H H H ",
"e.o & y 9 Z 1.#.]  . .X. .T G H H H H H H H H H H H H H H H H H H H H H H H H H H H H H H H H H H H ",
"e.o & y 9 Z 1.#.] { { } ] T G H H H H H H H H H H H H H H H H H H H H H H H H H H H H H H H H H H H ",
"e.o & y 9 B >.@.] {  .^ P H H H H H H H H H H H H H H H H H H H H H H H H H H H H H H H H H H H H H ",
"e.o & t 7 K 8.&./ {  .! G H H H H H H H H H H H H H H H H H H H H H H H H H H H H H H H H H H H H H ",
"e.o & u 5 _ w.=.~ {  .~ H H H H H H H H H H H H H H H H H H H H H H H H H H H H H H H H H H H H H H ",
"e.o & u 5 _ q.=.~  .o.~ H H H H H H H H H H H H H H H H H H H H H H H H H H H H H H H H H H H H H H ",
"e.+ * u 6 _ q.=.Q ~ ^ W H H H H H H H H H H H H H H H H H H H H H H H H H H H H H H H H H H H H H H ",
"e.O % t 4 ( q.-.T L L H H H H H H H H H H H H H H H H H H H H H H H H H H H H H H H H H H H H H H H "
};
