/* XPM */
static char *result[] = {
/* columns rows colors chars-per-pixel */
"50 50 65 1 ",
"  c #5B2307",
". c #5D2609",
"X c #5E290D",
"o c #612E15",
"O c #623016",
"+ c #65341C",
"@ c #67381E",
"# c #68381E",
"$ c #653720",
"% c #663B24",
"& c #683922",
"* c #6B3F28",
"= c #6D452E",
"- c #6C4531",
"; c #644835",
": c #6F4833",
"> c #6E4F3D",
", c #704631",
"< c #714933",
"1 c #714F3A",
"2 c #6E503F",
"3 c #6F5442",
"4 c #715543",
"5 c #725847",
"6 c #755B4A",
"7 c #7A5C4B",
"8 c #686256",
"9 c #6D675B",
"0 c #6E695D",
"q c #726253",
"w c #7D6453",
"e c #716759",
"r c #6E6C61",
"t c #716F64",
"y c #777266",
"u c #767469",
"i c #7C756C",
"p c #7D786E",
"a c #7E7A71",
"s c #837667",
"d c #837768",
"f c #86796B",
"g c #897D6E",
"h c #807C73",
"j c #8A7E71",
"k c #868377",
"l c #8A8377",
"z c #858279",
"x c #898679",
"c c #8C897D",
"v c #93877C",
"b c #8E8C81",
"n c #918D82",
"m c #949186",
"M c #94948A",
"N c #9A968D",
"B c #9B988F",
"V c #969790",
"C c #959A91",
"Z c #9D9A92",
"A c #A29E94",
"S c #A4A096",
"D c #A5A29B",
"F c #ADB0AC",
"G c None",
/* pixels */
"GGGG$*&&&%&***===========<==<<<<<<<<<<:<<<<<==<=,,",
"GGG 7njffgfffdffsfggfkldflkkssssspsssffklgggkllsdd",
"GGG%jFZMCMMVMVMBMmmmCMCMNMmcccccnbbbcmMMMCMMCMMccc",
"Go%eMDMbcnnbncmccxxcnncnvccxcxxcxxxxxxxkccmccckxcc",
"$*qyMDMbmxxccnnncxxxcxxccxxxcxxxxxxxxxxxxcxcxxxxxx",
"$5iubDmbcxxxcmcncxxxxxkxxxxxxxxxxxxxxxxxxxxxxxxxxx",
"$3uynAmcxxxxxcbncxxxxxxxxxxxxxxxxxxxxxxxxxxxxxxxxx",
"$3uybAmclxxxxxcccxxxxxxxxxxxxxxxxxxxxxxxxxxxxxxxxx",
"$4uyxNmcxxxxxxxxxxxxxxxxxxxxxxxxxxxxxxxxxxxxxxxxxx",
"$4uycBmcxxxxxxxxxxxxxxxxxxxxxxxxxxxxxxxxxxxxxxxxxx",
"&4uycNnxlxxxxxxxxxxxxxxxxxxxxxxxxxxxxxxxxxxxxxxxxx",
"&4uycZckxxxxxxxxxxxxxxxxxxxxxxxxxxxxxxxxxxxxxxxxxx",
"&4uybBcxxxxxxxxxxxxxxxxxxxxxxxxxxxxxxxxxxxxxxxxxxx",
"&3uycBckxxxxxxxxxxxxxxxxxxxxxxxxxxxxxxxxxxxxxxxxxx",
"&4yycBbxxxxxxxxxxxxxxxxxxxxxxxxxxxxxxxxxxxxxxxxxxx",
"&3yycNchxxxxxxxxxxxxxxxxxxxxxxxxxxxxxxxxxxxxxxxxxx",
"@4uycBxkxxxxxxxxxxxxxxxxxxxxxxxxxxxxxxxxxxxxxxxxxk",
"%4uycBcxxxxxxxxxxxxxxxxxxxxxxxxxxxxxxxxxxxxxxxxxxc",
"#4uycZckxxxxxxxxxxxxxxxxxxxxxxxxxxxxxxxxxxxxxxxxxx",
"%5uyxCcxxxxxxxxxxxxxxxxxxxxxxxxxxxxxxxxxlxxxxxxxxx",
"#6kycZckxxxxxxxxxxxxxxxxxxxxxxxxxxxxxxxxcxxxxxxxxx",
"&7kpcZcxxxxxxxxxxxxxxxxxxxxxxxxxxxxxxxxxxxxxxxxxxx",
"%6kacAxxxxxxxxxxxxxxxxxxxxxxxxxxxxxxxxxxxxxxxxxxxx",
"@6khcBcxxxxxxxxxxxxxxxxxxxxxxxxxxxxxxxxxxxxxxxxxxx",
"%5khbCcxxxxxxxxxxxxxxxxxxxxxxxxxxxxxxxxxxxxxxxxxxx",
"@6khbCcxxxxxxxxxxxxxxxxxxxxxxxxxxxxxxxxxxxxxxxxxxx",
"@6khmBcxxxxxxxxxxxxxxxxxxxxxxxxxxxxxxxxxxxxxxxxxxx",
"@6khnMcxxxxxxxxxxxxxxxxxxxxxxxxxxxxxxxxxxxxxxxxxxx",
"$6khnVxlxxxxxxxxxxxxxxxxxxxxxxxxxxxxxxxxxxxxxxxxxx",
"&5pibZnxxxxxxxxxxxxxxxxxxxxxxxxxxxxxxxxxxxxxxxxxxx",
"&3uycZMcxxxxxxxxxxxxxxxxxxxxxxxxxxxxxxxxxxxxxxxxxx",
"$3uybZMxxxxxxxxxxxxxxxxxxxxxxxxxxxxxxxxxxxxxclxxxx",
"&4uycAmcxlxxxxxxxxxxxxxxxxxxxxxxxxxxxxxxxxxxxxxxcz",
"&4uynSmcxlxxxxxxxxxxxxxxxxxxxxxxxxxxxxxxxxxxxxxxzz",
"@4uyvSmcxxxxxxxxxxlxxxxxxxxxxxxxxxxxxxxxxxxxxxxxjb",
"@4uynSmcxcxxxxxxxxxxxxxxxxxxxxxxxxxxxxxxxxxxxxxxbh",
"@3uubSmcnncxxxxxlxcbnckxxxxxxxxxxxxxxxxxxcxxxxxxjb",
"O2uunSmccncxxxxxlxnmvckkxxxxxxxxxxxxxxxlccccccxxvz",
"O2uynAMnnncxxxxxxccnbcjcxxxxxxxxxxxxxxxxxmmcccxxvz",
"O2u9kAnncnnbxxxcncnnnbnvmcxxxxxxxxxxxxxxccmcmxxxzz",
"X3t8hBBncmcccxccnnvbbnnnbbhvzhzhzjzzbzzzxcnncxxkzv",
"o3r0hMABmcmvmmmvnnnnnnnnnnbjbvbvbvvzjjbjcmnnmcxxzz",
"o*rhbnmBSASSSASSZAAAAAAAAAAZAAZZZNBBZVMVBBBNBNNNVM",
"o3anmnMMNNNmmNmMMmmMNNANNNNNMmmMnMmnmmnnnnbnnmnbnn",
"o6mnbmZniiiiddpiiaiazhzahhjbhiiiidaiiidahiiiiipiis",
"+eVnnMbziiiiiuiiiiiiaiaahjhhhiiiiiiiiiiiiiiiiiiiii",
"o3hmVVbhhhahhppaaaaaaiaazzzzhhadaaaaaahiihaahihahh",
"Go*vVbhbzhphhhahhhahaaaaaaaaihhhhahhhhhhhhhhhhhhhh",
"GGO5734444>33333>333>>3>3>>>3>333333333>3>>3>>>3>>",
"GGGX.XX.XXX...XX. .o oX  o.o.  o  XX .X.XXXXXXXXXX"
};
