/* XPM */
static char *result[] = {
/* columns rows colors chars-per-pixel */
"50 50 121 2 ",
"   c #581D02",
".  c #622C10",
"X  c #663319",
"o  c #66331A",
"O  c #65371F",
"+  c #66381F",
"@  c #623C27",
"#  c #623D27",
"$  c #633C28",
"%  c #633D28",
"&  c #633E28",
"*  c #633F28",
"=  c #633F29",
"-  c #653F29",
";  c #64402B",
":  c #65402B",
">  c #65402C",
",  c #66422D",
"<  c #6C402A",
"1  c #6D412C",
"2  c #6D422C",
"3  c #6C422D",
"4  c #6E422C",
"5  c #6D432E",
"6  c #6E422E",
"7  c #6F432E",
"8  c #6D442D",
"9  c #6F452D",
"0  c #6E452E",
"q  c #6E462E",
"w  c #6E472E",
"e  c #6E462F",
"r  c #6E472F",
"t  c #70422E",
"y  c #70432E",
"u  c #70442F",
"i  c #70452F",
"p  c #674632",
"a  c #684633",
"s  c #6E4531",
"d  c #6E4730",
"f  c #6F4730",
"g  c #6F4731",
"h  c #694936",
"j  c #704530",
"k  c #714530",
"l  c #704730",
"z  c #714731",
"x  c #704832",
"c  c #714832",
"v  c #714932",
"b  c #714933",
"n  c #714934",
"m  c #734B35",
"M  c #744A36",
"N  c #61594C",
"B  c #665F51",
"V  c #665E52",
"C  c #665F52",
"Z  c #665F53",
"A  c #756658",
"S  c #766658",
"D  c #79665A",
"F  c #796D64",
"G  c #7B6F66",
"H  c #797266",
"J  c #747468",
"K  c #757468",
"L  c #747469",
"P  c #757469",
"I  c #767469",
"U  c #76746A",
"Y  c #797569",
"T  c #7A7569",
"R  c #79756A",
"E  c #7A766A",
"W  c #7A766B",
"Q  c #7B766C",
"!  c #7F7870",
"~  c #847566",
"^  c #847D6F",
"/  c #857E70",
"(  c #867E70",
")  c #867F70",
"_  c #867F71",
"`  c #887E74",
"'  c #878073",
"]  c #878477",
"[  c #888577",
"{  c #888578",
"}  c #898579",
"|  c #898678",
" . c #898679",
".. c #8A877A",
"X. c #8C8578",
"o. c #8B887B",
"O. c #8C897C",
"+. c #8D8A7D",
"@. c #8E8B7F",
"#. c #8F8C80",
"$. c #908D81",
"%. c #908D82",
"&. c #908D83",
"*. c #918E82",
"=. c #918F83",
"-. c #908D84",
";. c #908D85",
":. c #918D85",
">. c #928E84",
",. c #928F84",
"<. c #978E84",
"1. c #959388",
"2. c #959289",
"3. c #959389",
"4. c #96938A",
"5. c #96938B",
"6. c #97948A",
"7. c #98958C",
"8. c #99968D",
"9. c #99968E",
"0. c #9A978F",
/* pixels */
"j S U Q :.2. .{  . . . . . . . . . . . . . . . . . . . . . . . . . . . . . . . . .] ,.0.H N B > n _ ",
"k S I Q :.2. .{  . . . . . . . . . . . . . . . . . . . . . . . . . . . . . . . . .] ,.0.H N B > b _ ",
"i S U Q :.2. .{  . . . . . . . . . . . . . . . . . . . . . . . . . . . . . . . . .] ,.0.H N B > b _ ",
"i S U Q :.2. .{  . . . . . . . . . . . . . . . . . . . . . . . . . . . . . . . . .] ,.0.H N B > b _ ",
"i S U Q :.2. .{  . . . . . . . . . . . . . . . . . . . . . . . . . . . . . . . . .] ,.0.H N B > b _ ",
"i S U Q :.2. .{  . . . . . . . . . . . . . . . . . . . . . . . . . . . . . . . . .] ,.0.H N B > b _ ",
"i S U Q :.2. .{  . . . . . . . . . . . . . . . . . . . . . . . . . . . . . . . . .] ,.0.H N B ; x _ ",
"i S U Q :.2. .{  . . . . . . . . . . . . . . . . . . . . . . . . . . . . . . . . .] ,.0.H N B ; x _ ",
"i S P W ;.2. .{  . . . . . . . . . . . . . . . . . . . . . . . . . . . . . . . . .] ,.0.H N B ; x _ ",
"i S P W ;.2. .{  . . . . . . . . . . . . . . . . . . . . . . . . . . . . . . . . .] ,.0.H N B ; x _ ",
"u S P E ;.2. .{  . . . . . . . . . . . . . . . . . . . . . . . . . . . . . . . . .] ,.0.H N B = g _ ",
"u S L R ;.3. .{  . . . . . . . . . . . . . . . . . . . . . . . . . . . . . . . . .] ,.0.H N C & d ) ",
"u S L R ;.3. .{  . . . . . . . . . . . . . . . . . . . . . . . . . . . . . . . . .] ,.0.H N C & w ) ",
"u S J Y -.3. .{  . . . . . . . . . . . . . . . . . . . . . . . . . . . . . . . . .] ,.0.H N C @ q ( ",
"u S J Y -.3. .{  . . . . . . . . . . . . . . . . . . . . . . . . . . . . . . . . .] ,.0.H N C @ 0 ( ",
"u S J Y -.3. .{  . . . . . . . . . . . . . . . . . . . . . . . . . . . . . . . . .] ,.0.H N C @ 0 ( ",
"u S J Y -.3. .{  . . . . . . . . . . . . . . . . . . . . . . . . . . . . . . . . .] ,.0.H N C @ 0 ( ",
"u S J Y -.3. .{  . . . . . . . . . . . . . . . . . . . . . . . . . . . . . . . . .] ,.0.H N C @ 0 ( ",
"u S J Y -.3. .{  . . . . . . . . . . . . . . . . . . . . . . . . . . . . . . . . .] ,.0.H N C @ 0 ( ",
"u S J Y -.3. .{  . . . . . . . . . . . . . . . . . . . . . . . . . . . . . . . . .] ,.0.H N C @ q ( ",
"u S J Y -.3. .{  . . . . . . . . . . . . . . . . . . . . . . . . . . . . . . . . .] ,.0.H N C @ q ( ",
"u S J Y -.3. .{  . . . . . . . . . . . . . . . . . . . . . . . . . . . . . . . . .] ,.0.H N C @ q ( ",
"u S J Y &.1. .{  . . . . . . . . . . . . . . . . . . . . . . . . . . . . . . . . .] ,.0.H N C $ e ( ",
"u S J Y &.1. .{  . . . . . . . . . . . . . . . . . . . . . . . . . . . . . . . . .] ,.0.H N C $ e ( ",
"u S J Y -.3. .{  . . . . . . . . . . . . . . . . . . . . . . . . . . . . . . . . .] ,.0.H N C $ e ( ",
"u S J Y -.3. .{  . . . . . . . . . . . . . . . . . . . . . . . . . . . . . . . . .] ,.0.H N C $ e ( ",
"u S J Y -.3. .{  . . . . . . . . . . . . . . . . . . . . . . . . . . . . . . . . .] ,.0.H N C $ e ( ",
"u S J Y -.3. .{  . . . . . . . . . . . . . . . . . . . . . . . . . . . . . . . . .] ,.0.H N C $ e ( ",
"y S L Y -.3. .{  . . . . . . . . . . . . . . . . . . . . . . . . . . . . . . . . .] ,.0.H N C & r ) ",
"y S L Y -.3. .{  . . . . . . . . . . . . . . . . . . . . . . . . . . . . . . . . .] ,.0.H N C & r ) ",
"t S L Y -.3. .{  . . . . . . . . . . . . . . . . . . . . . . . . . . . . . . . . .] ,.0.H N C & r ) ",
"t S L Y -.3. .{  . . . . . . . . . . . . . . . . . . . . . . . . . . . . . . . . .] ,.0.H N C & r ) ",
"7 S P Y -.3. .{  . . . . . . . . . . . . . . . . . . . . . . . . . . . . . . . . .] ,.0.H N C & r _ ",
"8 S P Y -.3. .{  . . . . . . . . . . . . . . . . . . . . . . . . . . . . . . . . .] ,.0.H N C & d _ ",
"8 S P Y -.3. .{  . . . . . . . . . . . . . . . . . . . . . . . . . . . . . . . . .] ,.0.H N C & e ^ ",
"8 S P Y -.3. .{  . . . . . . . . . . . . . . . . . . . . . . . . . . . . . . . . .] ,.0.H N C % c X.",
"4 S P Y :.4. .{  . . . . . . . . . . . . . . . . . . . . . . . . . . . . . . . . .] ,.0.H N V @ M <.",
"6 S K Y :.4. .{  . . . . . . . . . . . . . . . . . . . . . . . . . . . . . . . . .] ,.0.H N C % z ` ",
"6 S K Y :.4. .{  . . . . . . . . . . . . . . . . . . . . . . . . . . . . . . . . .] ,.0.H N C : 3 F ",
"4 S L T >.6. .{  . . . . . . . . . . . . . . . . . . . . . . . . . . . . . . . . .] ,.0.H N C : 5 G ",
"4 S L T >.6. .{  . . . . . . . . . . . . . . . . . . . . . . . . . . . . . . . . .] ,.0.H N C - s ! ",
"4 S L T >.6. .{  . . . . . . . . . . . . . . . . . . . . . . . . . . . . . . . . .] ,.0.H N C , < D ",
"6 S K Y :.5.{ [ }  . . . . . . . . . . . . . . . . . . . . . . . . . . . . . . . .] ,.0.H N C a o O ",
"6 S K Y -.7.O.+.o...{  . . . . . . . . . . . . . . . . . . . . . . . . . . . . . .] ,.0.H N Z h .   ",
"4 S P Y -.9.$.$.@...{  . . . . . . . . . . . . . . . . . . . . . . . . . . . . . .] ,.0.H N C p X + ",
"4 S P Y -.8.%.$.@.| {  . . . . . . . . . . . . . . . . . . . . . . . . . . . . . .] ,.0.H N C ; 9 ~ ",
"4 S P Y -.8.$.$.#.+. . . . . . . . . . . . . . . . . . . . . . . . . . . . . . . .] ,.0.H N C # m =.",
"4 S P Y -.8.$.$.$.$.O.{  . . . . . . . . . . . . . . . . . . . . . . . . . . . . .] ,.0.H N C & v X.",
"1 A P Y -.8.$.$.$.*.O.{  . . . . . . . . . . . . . . . . . . . . . . . . . . . . .] ,.0.H N C * l ' ",
"2 A P Y -.8.%.$.*.*.O.{  . . . . . . . . . . . . . . . . . . . . . . . . . . . . .] ,.0.H N C * f / "
};
