/* XPM */
static char *_afdd297136446dad47d4f3bcf9c8b0624rqHuAD0ciIbmOk[] = {
/* columns rows colors chars-per-pixel */
"50 50 5 1 ",
"  c gray46",
". c gray62",
"X c gray74",
"o c #EEEEEE",
"O c white",
/* pixels */
"ooooooO.Ooooooo XoOXoooo.oooooo..ooOoo.oooooo X Oo",
"o.oo...oooooooooo.ooXooXoooooo.o.ooooooooooo.oXooo",
"ooo..o.ooXo.oo.oooooooooooo ..o.Xooooooooo..oo ooo",
"oooo..oooooooooooooooooooo..oooooooooooooooooooooo",
"oooooooooooooooooooooooo..oooo.ooooooooooooooooooo",
"oooooooooo..oooooo.o.ooooooooooo.ooooooooooooooooo",
"ooooo.....ooooooo...ooooooooo...o.ooooo.oooooo.o.X",
"oooooooooo.oooo...o.ooooooo..oooooooooooo...ooooXX",
"ooo.ooooooooo...ooo.oooo...oooooooooooo..ooooo.ooo",
"oooooooooooooooooooooooooooooooooo.oo..ooooooooooo",
"ooooooooooooooooooooooooooooooooooooooo.oooooooooo",
"oo.oooo..ooooooo.oooooooooooooooo..oooooooo.oooooo",
"oooooo.ooooooooooooooo.ooooooooo.ooooooo.o.o.ooo.o",
".ooo.oooo.X.oooooooo.oooooooooooo ooo oooo.ooooooo",
"o.oooooooooooooooo..oooooooooooooooooooooo..oooooo",
"oooooooooooooooo..oooo.oooooooooooo.ooooo.oooooooo",
"ooooooooooooooo.ooooooooooooooo..ooooo....oooooooo",
".ooooooooooooo.oooooooo.oooooo..ooo.oooooooooo.ooo",
"oooooooooooo..ooooooooooooooo..oooooooo.o..ooooooo",
"oooooooooo..oooooooooooooooo..oooo.ooo...o.ooooooo",
"o.ooooo...oooooooo.oooooooo..oooooooooo.oooooooo.o",
".ooooooooooooooooooooooooo..oooooooooo.ooooooo.oo ",
"ooo..ooooooooooooooooooo...ooooo oooooooo.ooo.oooo",
"oooooooo.oo.oooooooo.....oooooooooooooooooo..ooooo",
"ooooooooooooooo.ooooooX.oooooooooo.oooooo..ooooooo",
"oXoooooooooooo.ooooooo.oooooooooooooo.oooo.ooooooo",
"oooooooooooo..ooooooooooooo. ooooXooo.oooooooooooo",
"o .oooooooo.ooooooooooooo.ooooooooooOooooooooooooo",
"ooooooooooooooooo o ooooooooooooooo..ooooooooooooo",
"ooooooooooooooooooooooooooooooooo...oooooo.ooooooo",
"oooooooo..oooooooooooooooooo.....oooooooo.o.oo.ooo",
" oooo...ooooo.ooooo.ooooooooooooooooooo..oooo.oooo",
"ooo..oooooooo.ooo..ooooooooooooooooooo.oooooo.ooo.",
"oooooooooooooo...ooo..oooooooooo.oooooooooo..oooo.",
"oooooooooooooooooooooooo..oooooooooooooooooooooooo",
"ooo.ooooooooooooo.ooooooooooo.oooooo.ooooooooooooo",
"oooooooo.oooooooooooooooooooooooooo.oooooooooooo.o",
"ooooooooooooo.o.oooo.oo.o.oooooo...oo.oo ooooooooo",
"oo oooooooooo.o.....ooooooooooo.oooooooo oooo oooX",
".ooooo..ooooo..o.oooooooooooooooooooooooo..ooooooo",
"oooooo.oooooooooooooooooooo.ooooooo.ooo..oooooooXo",
"oooooooooooooooooooooooooooooooooooo...oooooo.oooo",
"oooooooooooooooooooo.ooooooooooooooooooooooooo ooo",
"o.ooo.oooooooooooooooooooooooooooooooooooooooooooo",
"ooooo.ooooooooo.oooo.ooXooooooooooo.oooooooooooooo",
"oo....oooooo...oooooo.....o.oooooooooooooooooooo.o",
"o.ooo.o.oooooo.oooooooooooooXoooooo..ooooo ooooooO",
"oooooooooooooo.oooooooooo.oooooOo..ooooooo.o.o.ooO",
"Xoo.oooooooooooooooooooooo.oooooooooooooooo.o.oooo",
"ooooo.oooooooooo.o o.ooooooooooo.oooo ooo...ooooo."
};
