/* XPM */
static char *_02a2f764db4418c81f8652bdd8eb06fmJeiTWA7JQOgf7XD[] = {
/* columns rows colors chars-per-pixel */
"50 50 8 1 ",
"  c None",
". c black",
"X c gray13",
"o c #263238",
"O c gray62",
"+ c #FFAB91",
"@ c #FFCCBC",
"# c gray96",
/* pixels */
"     ........................................     ",
"     ........................................     ",
"     ........................................     ",
"    ......oooooooooooooooooooooooooooooo......    ",
"    ......oooooooooooooooooooooooooooooo......    ",
"    ......oooooooooooooooooooooooooooooo......    ",
"    ......oooooooooooooooooooooooooooooo......    ",
"    ......oooooooooooooooooooooooooooooo......    ",
"    oooooooooo@@@@@@@@@@@@@@@@@@@@@@oooooooooo    ",
"    oooooooooo@@@@@@@@@@@@@@@@@@@@@@oooooooooo    ",
"    oooooooooo@@@@@@@@@@@@@@@@@@@@@@oooooooooo    ",
"    oooooo@@@@@@@@@@@@@@@@@@@@@@@@@@@@@@oooooo    ",
"    oooooo@@@@@XXX@@@@@@@@@@@@@@XXX@@@@@oooooo    ",
"    oooooo@@@@@XXX@@@@@@@@@@@@@@XXX@@@@@oooooo    ",
"          @@@@@XXX@@@@@@@@@@@@@@XXX@@@@@          ",
"          @@@@@@@@@@@@@@@@@@@@@@@@@@@@@@          ",
"          @@@@@@@@@@@@@@@@@@@@@@@@@@@@@@          ",
"          @@@@@@@@@@@@@@@@@@@@@@@@@@@@@@          ",
"          ##############################          ",
"          ##############################          ",
"          ##############################          ",
"          ##############################          ",
"          ##############################          ",
"    @@@@@@++++++##################++++++@@@@@@    ",
"    @@@@@@++++++##################++++++@@@@@@    ",
"    @@@@@@++++++##################++++++@@@@@@    ",
"    @@@@@@++++++##################++++++@@@@@@    ",
"    @@@@@@++++++##################++++++@@@@@@    ",
"    @@@@@@++++++##################++++++@@@@@@    ",
"    @@@@@@++++++##################++++++@@@@@@    ",
"    @@@@@@++++++##################++++++@@@@@@    ",
"    @@@@@@++++++##################++++++@@@@@@    ",
"    @@@@@@++++++##################++++++@@@@@@    ",
"    @@@@@@++++++##################++++++@@@@@@    ",
"    @@@@@@++++++##################++++++@@@@@@    ",
"    OOOOOOOOOOOO......OOOOOO......OOOOOOOOOOOO    ",
"    OOOOOOOOOOOO......OOOOOO......OOOOOOOOOOOO    ",
"    OOOOOOOOOOOO......OOOOOO......OOOOOOOOOOOO    ",
"    OOOOOOOOOOOO......OOOOOO......OOOOOOOOOOOO    ",
"    OOOOOOOOOOOO......OOOOOO......OOOOOOOOOOOO    ",
"    OOOOOOOOOOOO......OOOOOO......OOOOOOOOOOOO    ",
"    OOOOOOOOOOOO......OOOOOO......OOOOOOOOOOOO    ",
"    OOOOOOOOOOOO......OOOOOO......OOOOOOOOOOOO    ",
"    OOOOOOOOOOOO......OOOOOO......OOOOOOOOOOOO    ",
"    OOOOOOOOOOOO......OOOOOO......OOOOOOOOOOOO    ",
"    OOOOOOOOOOOO......OOOOOO......OOOOOOOOOOOO    ",
"          OOOOOOOOOOOOOOOOOOOOOOOOOOOOOO          ",
"          OOOOOOOOOOOOOOOOOOOOOOOOOOOOOO          ",
"          OOOOOOOOOOOOOOOOOOOOOOOOOOOOOO          ",
"          OOOOOOOOOOOOOOOOOOOOOOOOOOOOOO          "
};
