/* XPM */
static char *_1b589c072ba4eeebcf017a95ae888bdKImKNa7NUv2cZKwp[] = {
/* columns rows colors chars-per-pixel */
"50 54 53 1 ",
"  c None",
". c #573227",
"X c #6A3534",
"o c #364115",
"O c #435522",
"+ c #4D6026",
"@ c #54692B",
"# c #5C722E",
"$ c #5F742F",
"% c #5F752F",
"& c #60752F",
"* c #62782F",
"= c #64792F",
"- c #607730",
"; c #627831",
": c #637A31",
"> c #667C31",
", c #637E35",
"< c #667E35",
"1 c #607638",
"2 c #5A5452",
"3 c #983039",
"4 c #6A8133",
"5 c #6A8134",
"6 c #698235",
"7 c #6F8937",
"8 c #6D8838",
"9 c #738D38",
"0 c #768F39",
"q c #728A3D",
"w c #738B3D",
"e c #779038",
"r c #7D963B",
"t c #7F963A",
"y c #7E963B",
"u c #8CA747",
"i c #8FA841",
"p c #8EAA42",
"a c #8FAB43",
"s c #91A942",
"d c #96AF44",
"f c #9CB14B",
"g c #95AE50",
"h c #93A467",
"j c #9AAC63",
"k c #9CAB75",
"l c #9AA87B",
"z c #AABA76",
"x c #B3C961",
"c c #BECE67",
"v c #BFCF6C",
"b c #C4D272",
"n c white",
/* pixels */
"                                                  ",
"                                                  ",
"                                                  ",
"                                                  ",
"                                 ;                ",
"                                 ;                ",
"                                ;;                ",
"                               ;sss               ",
"                              ;sssss              ",
"                            ;;ssoosoo             ",
"                            ;usssosos             ",
"                            ;9ssn2on2             ",
"                             7sssssss             ",
"                             qsi..ss              ",
"                      dddre8q6sss..      ;;;d     ",
"                     ddr;;dd,sssss      dddd;;    ",
"                   ddd   dddsssg;      d;;;;j;;   ",
"                  dd    @ddi;;;;;;     d;  ;df;;  ",
"                 ddd  #&$:-;    ;;;;ddd;;   ;;d;  ",
"                 dddddd46h:   ;;   ;;;;;    X;;   ",
"                  ;;ddddd   yd;;;;         XX ;   ",
"                  :-;*ddd dddd;;           X      ",
"                 ;;cb&&*ddd;;;;;;          33     ",
"                 ;:cccccccc               3333    ",
"                 ;&cccccccc;;              33     ",
"                 ;cccccccccx;;                    ",
"                 ;ccccccccccb;                    ",
"                 ;ccccccccccb;                    ",
"                 ;,bcccccccc*;;;;                 ",
"                 ;&cccccccc;*;;;;;                ",
"                  **ccccccc;;;;;;;                ",
"                   *;ccccc;;k  l;;                ",
"                    ;;;cc>;z   ;;;                ",
"                     ;;;O+;    ;;                 ",
"                       ;;e;   ;;                  ",
"                        1;;   ;;                  ",
"                         ;;  ;;                   ",
"                         ;;  ;;;;;                ",
"                         ;;  ;;;;;;;              ",
"                         ;;  -;ddd;;              ",
"                        ;;   dd   d;;             ",
"                       ;;;         dd             ",
"                      ;;;                         ",
"                     ;;;                          ",
"                     ;;                           ",
"                     ;;                           ",
"                     ;;                           ",
"                     ;;;                          ",
"                     ;;;d                         ",
"                      ddd                         ",
"                                                  ",
"                                                  ",
"                                                  ",
"                                                  "
};
