/* XPM */
static char *_a70b5bd3e424cbf8200e53ae081225300egg83mb4XXfBwy[] = {
/* columns rows colors chars-per-pixel */
"50 50 190 2 ",
"   c #0A142D",
".  c #15182D",
"X  c #000F35",
"o  c #021535",
"O  c #071A37",
"+  c #191E36",
"@  c #221D2E",
"#  c #281F2A",
"$  c #1C233C",
"%  c #29212D",
"&  c #27273A",
"*  c #362A32",
"=  c #3C3038",
"-  c #473536",
";  c #523E3A",
":  c #5A4137",
">  c #55403F",
",  c #5D4438",
"<  c #63483C",
"1  c #64493C",
"2  c #1F2740",
"3  c #262B44",
"4  c #292A40",
"5  c #2C3147",
"6  c #3C3340",
"7  c #444657",
"8  c #575559",
"9  c #6F5142",
"0  c #7D5B44",
"q  c #675D5C",
"w  c #6D615E",
"e  c #656468",
"r  c #686568",
"t  c #6E696A",
"y  c #796761",
"u  c #726B6A",
"i  c #757073",
"p  c red",
"a  c #845F47",
"s  c #896349",
"d  c #8A6449",
"f  c #956C4E",
"g  c #996F4F",
"h  c #9D7252",
"j  c #A47755",
"k  c #A97B57",
"l  c #AD7E59",
"z  c #987967",
"x  c #BD7E68",
"c  c #C17E5F",
"v  c #B5835C",
"b  c #B9865E",
"n  c #BC885F",
"m  c #9A8172",
"M  c #BF8065",
"N  c #BE8A60",
"B  c #BD8D7D",
"V  c #BC9476",
"C  c #CB865A",
"Z  c #CE8A5B",
"A  c #C38E62",
"S  c #CB8B65",
"D  c #C79164",
"F  c #CB9366",
"G  c #CF9668",
"H  c #D89765",
"J  c #D19768",
"K  c #D49B6B",
"L  c #D99D6C",
"P  c #CA9477",
"I  c #D49C76",
"U  c #DDA16F",
"Y  c #DFA370",
"T  c #DCA37C",
"R  c #E4A46D",
"E  c #E3A572",
"W  c #E6A874",
"Q  c #E4A778",
"!  c #E4AA7C",
"~  c #7C7D84",
"^  c #7A9ACF",
"/  c #629FDE",
"(  c #7EA1D9",
")  c #5FA0E0",
"_  c #6CAAEB",
"`  c #72A8E6",
"'  c #85868C",
"]  c #8C8D92",
"[  c #97979A",
"{  c #97989A",
"}  c #99989A",
"|  c #B88983",
" . c #B2878C",
".. c #AA8994",
"X. c #BA9F9A",
"o. c #B1A49E",
"O. c #9C97AA",
"+. c #9493B6",
"@. c #AF9FA5",
"#. c #9FA1B9",
"$. c #A7A7A7",
"%. c #A6A6A8",
"&. c #B9AFAE",
"*. c #BCB1AD",
"=. c #ACA8B7",
"-. c #B3AEB5",
";. c #ABB0BF",
":. c #B4B4B6",
">. c #B6B7BA",
",. c #B7B8BC",
"<. c #B8B8BB",
"1. c #C59487",
"2. c #D49F83",
"3. c #C19894",
"4. c #DAA584",
"5. c #D6A689",
"6. c #C6A597",
"7. c #DDB499",
"8. c #E4AD82",
"9. c #E3AF89",
"0. c #E7B186",
"q. c #E6B18A",
"w. c #E8B58F",
"e. c #E4B492",
"r. c #E8B590",
"t. c #E2B69B",
"y. c #EABC9B",
"u. c #D1B7AD",
"i. c #D5BAAC",
"p. c #C7B7B9",
"a. c #E5BCA3",
"s. c #E1C2AE",
"d. c #ECC5AC",
"f. c #E5C7B6",
"g. c #EDCAB4",
"h. c #EDCEBB",
"j. c #F0CDB7",
"k. c #F0CEB8",
"l. c #F1D1BB",
"z. c #839ED3",
"x. c #92A4C7",
"c. c #89A6D2",
"v. c #A7B1C4",
"b. c #AAB1C1",
"n. c #BFBFC2",
"m. c #ABB8DB",
"M. c #AABCE2",
"N. c #C9BAC4",
"B. c #BFC0C2",
"V. c #A7C9F5",
"C. c #C1C1C4",
"Z. c #C6C7C9",
"A. c #CCCCCE",
"S. c #DDC9C2",
"D. c #D7D0CD",
"F. c #CFD0D2",
"G. c #D2D2D3",
"H. c #DBD5D3",
"J. c #D7D7D8",
"K. c #DADADA",
"L. c #EDD2C2",
"P. c #E8D5CA",
"I. c #F2DACC",
"U. c #E8DDD8",
"Y. c #F3DED1",
"T. c #F5E1D6",
"R. c #F5E5DC",
"E. c #F7E8DF",
"W. c #D1D3E4",
"Q. c #DFDFE0",
"!. c #D7E2F7",
"~. c #D8E6FB",
"^. c #E4E4E5",
"/. c #EBE4E3",
"(. c #E7E7E8",
"). c #EAEAEB",
"_. c #F6ECE6",
"`. c #F8EAE2",
"'. c #FBF2EC",
"]. c #EFEFF0",
"[. c #F1EEF1",
"{. c #F0F0F0",
"}. c #F5F5F5",
"|. c #F6F6F6",
" X c #FBF6F3",
".X c #FDF9F7",
"XX c #FAFAFA",
"oX c gray99",
"OX c #FDFDFD",
"+X c white",
/* pixels */
"+X+X+X+X+X+X+X+X+X+X+X+X+XoX+XoXXX+XoXoX+X+XoXoX+XoX+XXXoX+XXXoX+XoX+X+X+X+X+X+X+X+X+X+X+X+X+X+X+X+X",
"+X+X+X+X+X+X+X+X+X+X+X+X+XXX}.].).(.(.(.).).(.).(.(.).).).(.(.).).{.XXXX+X+X+X+X+X+X+X+X+X+X+X+X+X+X",
"+X+X+X+X+X+X+X+X+X+X+X+X+X}.^.A.C.B.n.B.C.C.C.C.B.C.C.C.C.C.n.C.Z.Q.{.+X+X+X+X+X+X+X+X+X+X+X+X+X+X+X",
"+X+X+X+X+X+X+X+X+X+X+X+XXX^.Z.$.] ' ' 3 3 3 3 3 3 3 3 3 3 3 3 ' %.B.Q.XX+X+X+X+X+X+X+X+X+X+X+X+X+X+X",
"+X+X+X+X+X+X+X+X+X+XXXXX).J.-.3 3 3 3 3 3 3 3 3 3 3 7 3 3 3 3 3 i %.A.^.}.+X+X+X+X+X+X+X+X+X+X+X+X+X",
"+X+X+X+X+X+X+X+XoXXX{.^.F.>.] 3 3 3 3 3 3 3 3 3 3 3 3 3 3 3 3 3 3 ' =.Z.K.).XX+X+X+X+X+X+X+X+X+X+X+X",
"+X+X+X+X+X+X+X+X+XXX(.Z.%.' 3 3 3 3 3 3 3 3 3 3 3 3 3 3 3 3 3 3 3 3 3 3 3 ^.}.+X+X+X+X+X+X+X+X+X+X+X",
"+X+X+X+X+X+X+X+X+X}.K.:.~ 3 3 5 3 3 3 3 3 3 3 3 3 3 3 5 3 3 3 3 5 3 3 3 3 G.{.+X+X+X+X+X+X+X+X+X+X+X",
"+X+X+X+X+X+X3 3 3 3 3 3 3 & 3 3 3 3 3 3 3 3 3 3 3 3 3 3 3 3 3 3 3 3 3 3 3 A.].+X+X+X+X+X+X+X+X+X+X+X",
"+X+X+X+X+X3 3 3 3 3 3 3 3 & 3 3 3 3 3 3 3 3 3 3 3 3 3 3 3 3 3 3 3 3 3 3 3 3 3 3 3 +X+X+X+X+X+X+X+X+X",
"+X+X+X+X3 3 3 3 3 3 3 3 3 $ & & 3 3 3 3 3 3 3 3 3 3 3 3 3 3 3 3 3 3 & 3 3 3 3 3 3 3 3 +X+X+X+X+X+X+X",
"+X+X+X+X3 3 3 3 +X}.K.$.e 3 $ $ 2 3 3 3 3 3 3 3 3 3 3 3 3 3 3 2 3 3 3 & { A.3 3 3 3 3 3 3 +X+X+X+X+X",
"+X+X+X+X3 3 3 +X+X}.J.$.e .     O & 3 3 3 3 3 3 3 3 3 3 3 3 $ 3 &   . 8 } A.{.+X+X3 3 3 3 +X+X+X+X+X",
"+X+X+X+X3 3 3 +X+X}.J.%.e % # * & & 4 3 3 3 3 3 3 3 3 3 3 3 3 3 % % . 8 } A.].+X+X+X3 3 3 +X+X+X+X+X",
"+X+X+X+X3 3 +X+X+X}.K.%.r = ; 1 9 > 6 4 3 3 3 3 3 3 3 3 3 6 > 9 < : - 8 } A.{.+X+X+X3 3 3 +X+X+X+X+X",
"+X+X+X3 3 3 +X+X+X}.J.%.t , 1 h d 0 ; $ o O O O o o o X O 6 9 s f a < q } A.{.+X+X+X3 3 3 +X+X+X+X+X",
"p +X+X3 3 3 +X+X+X}.J.$.i 1 h v M h 9 = . . @ % + @ . . * , f M n j 1 w } A.{.+X+X+X+X3 3 +X+X+X+X+X",
"p p p 3 3 3 +X+X+X}.J.$.u 1 v D F v d 1 : , , , , , , : < a k D G v f w } A.).+X+X+X+X3 3 +X+X+X+X+X",
"p p p p 3 3 +X+X+X}.H.$.u d v F K F v h f f f f g f f f f v N U K n d w } A.{.+X+X+X+X3 3 +X+X+X+X+X",
"p p p p p p +X+X+X}.H.%.u a v J U L G D A A A A A A A A N F K U K b d w [ A.{.+X+X+X+X3 3 +X+X+X+X+X",
"p p p p p p +X+X+X}.J.$.u s v J R U L K K L L U U U U U U K Y Y K b d w [ A.{.+X+X+X+X+X3 +Xp p +X+X",
"+X+Xp p p p p +X+X}.J.%.u s k F U K F D G U E W Y Y U J D D J U K v s w [ A.{.+X+X+X+Xp p p p p +X+X",
"+X+Xp p p p +X+X+X}.J.%.t < v G K D l k b G Y W W Y K N j v N K K b s w [ A.{.+X+X+Xp p p p p p +X+X",
"+X+X+X+X+X+X+X+X+X{.J.$.i 0 v G J b f d j D Y W W Y F v d d v F J b f y } A.{.+X+X+Xp p p p p p +X+X",
"+X+X+X+X+X+X+X+X+X}.U.&.m h n U J n h f l F U W W E G v g g v G K D k z o.D.{.+X+X+X+X+Xp +X+X+X+X+X",
"+X+X+X+X+X+X+X+X+X}.U.u.V N G U U F n b F K U W E E L D b b D U U J A V u.P.{.+X+X+X+X+X+X+X+X+X+X+X",
"+X+X+X+X+X+X+X+X+X.XR.f.7.U U R E U K K K U E E W E Y U K K U U E U U 4.s.T.}.+X+X+X+X+X+X+X+X+X+X+X",
"+X+X+X+X+X+X+X+X+X.X_.I.d.e.4.! E E R E E R E E E E E R E E Y E Q 8.q.y.h./. X+X+X+X+X+X+X+X+X+X+X+X",
"+X+X+X+X+X+X+X+X+X+X'.E.I.g.y.0.Q E R E R R R R R R R R R E E E 8.y.g.I.R.'..X+X+X+X+X+X+X+X+X+X+X+X",
"+X+X+X+X+X+X+X+X+XoX X X'.T.g.w.Q E W W W E E E E E E W E E W W q.d.I.E.'.}.+X+X+X+X+X+X+X+X+X+X+X+X",
"+X+X+X+X+X+X+X+X+X+X+X.X'.T.h.e.T 8.0.w.e.w.w.w.w.w.w.w.w.0.! Q 9.d.I.'..X.X+X+X+X+X+X+X+X+X+X+X+X+X",
"+X+X+X+X+X+X+X+X+XoX X_.R.L.a.4.T e.d.g.l.l.l.l.l.l.l.l.l.g.t.4.4.t.h.T.`..XoX+X+X+X+X+X+X+X+X+X+X+X",
"+X+X+X+X+X+X+X+X+X.X'.T.h.a.2.P 2.i.I.R.`.`.`.`.`.`.`.`.`.Y.i.5.P 2.t.a.I._..X+X+X+X+X+X+X+X+X+X+X+X",
"+X+X+X+X+X+X+X+X+X.X_.l.y.Y S S 1.u.U.[.}.[.}.}.[.[.}.}.}./.S.6.x H T y.k.T..X+X+X+X+X+X+X+X+X+X+X+X",
"+X+X+X+X+X+X+X+X+X.XR.k.q.L Z c 1.p.W.!.~.~.~.~.~.~.~.~.~.W.N.3.c c H 8.d.T. X+X+X+X+X+X+X+X+X+X+X+X",
"+X+X+X+X+X+X+X+X+X.XE.j.0.H Z c | =.m.M.M.V.V.V.V.V.V.V.M.M.b...c c H 8.g.Y.'.+X+X+X+X+X+X+X+X+X+X+X",
"+X+X+X+X+X+X+X+X+X.X`.h.r.L C x  .O.^ ` _ _ _ _ _ _ _ _ _ z.+...x Z J 9.d.Y. X+X+X+X+X+X+X+X+X+X+X+X",
"+X+X+X+X+X+X+X+X+X.X`.h.t.5.P B  .+.^ ) ) ) / / / ) ) ) ) z.+...1.P I 7.f.`. X+X+X+X+X+X+X+X+X+X+X+X",
"+X+X+X+X+X+X+X+X+X.X_.D.i.6.6.X.@.=.x.c.c.c.c.c.z.c.c.c.z.x.#.@.3.3.6.u.S./..X+X+X+X+X+X+X+X+X+X+X+X",
"+X+X+X+X+X+X+X+X+XXX_.H.Z.*.&.&.-.-.b.v.v.v.v.v.b.b.v.v.v.v.b.-.&.&.p.p.G./..XOX+X+X+X+X+X+X+X+X+X+X",
"+X+X+X+X+X+X+X+X+XXX).K.C.<.:.>.:.<.,.,.,.,.<.<.<.<.,.<.,.,.,.,.<.:.:.n.G.^.}.+X+X+X+X+X+X+X+X+X+X+X",
"+X+X+X+X+X+X+X+X+XXX).J.C.,.:.,.<.<.<.<.<.<.<.<.>.>.>.<.>.<.,.<.,.<.,.n.F.(.XX+X+X+X+X+X+X+X+X+X+X+X",
"+X+X+X+X+X+X+X+X+XXX).J.C.,.,.,.<.,.<.<.>.>.>.>.>.>.>.>.<.<.,.<.,.:.,.B.G.(.}.+X+X+X+X+X+X+X+X+X+X+X",
"+X+X+X+X+X+X+X+X+XXX].K.A.n.n.<.<.,.<.<.<.<.<.<.<.<.<.<.<.<.:.<.,.n.B.Z.J.).XX+X+X+X+X+X+X+X+X+X+X+X",
"+X+X+X+X+X+X+X+X+XXX}.).K.F.Z.n.,.:.,.,.>.<.<.<.>.>.>.>.<.:.:.<.<.C.F.J.^.{.XX+X+X+X+X+X+X+X+X+X+X+X",
"+X+X+X+X+X+X+X+X+X+XXX{.).^.F.B.,.:.,.:.<.:.<.:.>.>.<.>.<.:.,.,.B.A.Q.).]. X+X+X+X+X+X+X+X+X+X+X+X+X",
"+X+X+X+X+X+X+X+X+X+X+X+X}.].K.A.C.n.n.B.n.B.B.n.B.B.N.B.B.B.n.B.Z.J.).}.+X+X+X+X+X+X+X+X+X+X+X+X+X+X",
"+X+X+X+X+X+X+X+X+X+X+X+X+X}.).K.G.F.F.G.F.F.G.G.F.G.G.F.F.G.F.F.J.^.}.+X+X+X+X+X+X+X+X+X+X+X+X+X+X+X",
"+X+X+X+X+X+X+X+X+X+X+X+X+XXX}.).^.(.^.).(.^.(.(.).(.(.(.(.(.(.(.).].XXoX+X+X+X+X+X+X+X+X+X+X+X+X+X+X",
"+X+X+X+X+X+X+X+X+X+X+X+X+X+XXX}.XX}.XX}.}.XX}.XX|.}.XX}.}.}.oX|.XXXX+X+X+X+X+X+X+X+X+X+X+X+X+X+X+X+X"
};
