/* XPM */
static char *_3ee49c86dc34623d80febf96587aa91JzbjCZaEjjUzRaMd[] = {
/* columns rows colors chars-per-pixel */
"50 50 8 1 ",
"  c None",
". c black",
"X c #263238",
"o c #EDB53D",
"O c gray62",
"+ c #FFAB91",
"@ c #FFCCBC",
"# c gray96",
/* pixels */
"     ........................................     ",
"     ........................................     ",
"     ........................................     ",
"    ......XXXXXXXXXXXXXXXXXXXXXXXXXXXXXX......    ",
"    ......XXXXXXXXXXXXXXXXXXXXXXXXXXXXXX......    ",
"    ......XXXXXXXXXXXXXXXXXXXXXXXXXXXXXX......    ",
"    ......XXXXXXXXXXXXXXXXXXXXXXXXXXXXXX......    ",
"    ......XXXXXXXXXXXXXXXXXXXXXXXXXXXXXX......    ",
"    XXXXXXXXXX@@@@@@@@@@@@@@@@@@@@@@XXXXXXXXXX    ",
"    XXXXXXXXXX@@@@@@@@@@@@@@@@@@@@@@XXXXXXXXXX    ",
"    XXXXXXXXXX@@@@@@@@@@@@@@@@@@@@@@XXXXXXXXXX    ",
"    XXXXXX@@@@@@@@@@@@@@@@@@@@@@@@@@@@@@XXXXXX    ",
"    XXXXXX@@@@@@@@@@@@@@@@@@@@@@@@@@@@@@XXXXXX    ",
"    XXXXXX@@@@@@@@@@@@@@@@@@@@@@@@@@@@@@XXXXXX    ",
"          @@@@@@@@@@@@@@@@@@@@@@@@@@@@@@          ",
"          @@@@@@@@@@@@@@@@@@@@@@@@@@@@@@          ",
"          @@@@@@@@@@@@@@@@@@@@@@@@@@@@@@          ",
"          @@@@@@@@@@@@@@@@@@@@@@@@@@@@@@          ",
"          ##############################          ",
"          ##############################          ",
"          ##############################          ",
"          ##############################          ",
"          ##############################          ",
"    ++++++@@@@@@#####ooo##ooooooo#@@@@@@++++++    ",
"    ++++++@@@@@@####oooo##ooooooo#@@@@@@++++++    ",
"    ++++++@@@@@@###oooo###oo##ooo#@@@@@@++++++    ",
"    ++++++@@@@@@##oooo####o###ooo#@@@@@@++++++    ",
"    ++++++@@@@@@#oooo########ooo##@@@@@@++++++    ",
"    ++++++@@@@@@#ooooooo####ooo###@@@@@@++++++    ",
"    ++++++@@@@@@#ooooooo###ooo####@@@@@@++++++    ",
"    ++++++@@@@@@#####ooo##ooo#####@@@@@@++++++    ",
"    ++++++@@@@@@#####ooo##ooooooo#@@@@@@++++++    ",
"    ++++++@@@@@@#####ooo##ooooooo#@@@@@@++++++    ",
"    ++++++@@@@@@##################@@@@@@++++++    ",
"    ++++++@@@@@@##################@@@@@@++++++    ",
"    OOOOOOOOOOOO......OOOOOO......OOOOOOOOOOOO    ",
"    OOOOOOOOOOOO......OOOOOO......OOOOOOOOOOOO    ",
"    OOOOOOOOOOOO......OOOOOO......OOOOOOOOOOOO    ",
"    OOOOOOOOOOOO......OOOOOO......OOOOOOOOOOOO    ",
"    OOOOOOOOOOOO......OOOOOO......OOOOOOOOOOOO    ",
"    OOOOOOOOOOOO......OOOOOO......OOOOOOOOOOOO    ",
"    OOOOOOOOOOOO......OOOOOO......OOOOOOOOOOOO    ",
"    OOOOOOOOOOOO......OOOOOO......OOOOOOOOOOOO    ",
"    OOOOOOOOOOOO......OOOOOO......OOOOOOOOOOOO    ",
"    OOOOOOOOOOOO......OOOOOO......OOOOOOOOOOOO    ",
"    OOOOOOOOOOOO......OOOOOO......OOOOOOOOOOOO    ",
"          OOOOOOOOOOOOOOOOOOOOOOOOOOOOOO          ",
"          OOOOOOOOOOOOOOOOOOOOOOOOOOOOOO          ",
"          OOOOOOOOOOOOOOOOOOOOOOOOOOOOOO          ",
"          OOOOOOOOOOOOOOOOOOOOOOOOOOOOOO          "
};
