/* XPM */
static char *_072d37dd559461b84d7232e8467921bpXTOYhwLXafj1u5x[] = {
/* columns rows colors chars-per-pixel */
"50 50 8 1 ",
"  c None",
". c black",
"X c gray13",
"o c #263238",
"O c gray62",
"+ c #FFAB91",
"@ c #FFCCBC",
"# c gray96",
/* pixels */
"     ........................................     ",
"     ........................................     ",
"     ........................................     ",
"    ......oooooooooooooooooooooooooooooo......    ",
"    ......oooooooooooooooooooooooooooooo......    ",
"    ......oooooooooooooooooooooooooooooo......    ",
"    ......oooooooooooooooooooooooooooooo......    ",
"    ......oooooooooooooooooooooooooooooo......    ",
"    oooooooooo@@@@@@@@@@@@@@@@@@@@@@oooooooooo    ",
"    oooooooooo@@@@@@@@@@@@@@@@@@@@@@oooooooooo    ",
"    oooooooooo@@@@@@@@@@@@@@@@@@@@@@oooooooooo    ",
"    oooooo@@@@@@@@@@@@@@@@@@@@@@@@@@@@@@oooooo    ",
"    oooooo@@@@@XXX@@@@@@XXX@@@@@@@@@@@@@oooooo    ",
"    oooooo@@@@@XXX@@@@@@XXX@@@@@@@@@@@@@oooooo    ",
"          @@@@@XXX@@@@@@XXX@@@@@@@@@@@@@          ",
"          @@@@@@@@@@@@@@@@@@@@@@@@@@@@@@          ",
"          @@@@@@@@@@@@@@@@@@@@@@@@@@@@@@          ",
"          @@@@@@@@@@@@@@@@@@@@@@@@@@@@@@          ",
"          ##############################          ",
"          ##############################          ",
"          ##############################          ",
"          ##############################          ",
"          ##############################          ",
"    @@@@@@++++++##################++++++@@@@@@    ",
"    @@@@@@++++++##################++++++@@@@@@    ",
"    @@@@@@++++++##################++++++@@@@@@    ",
"    @@@@@@++++++##################++++++@@@@@@    ",
"    @@@@@@++++++##################++++++@@@@@@    ",
"    @@@@@@++++++##################++++++@@@@@@    ",
"    @@@@@@++++++##################++++++@@@@@@    ",
"    @@@@@@++++++##################++++++@@@@@@    ",
"    @@@@@@++++++##################++++++@@@@@@    ",
"    @@@@@@++++++##################++++++@@@@@@    ",
"    @@@@@@++++++##################++++++@@@@@@    ",
"    @@@@@@++++++##################++++++@@@@@@    ",
"    OOOOOOOOOOOO......OOOOOO......OOOOOOOOOOOO    ",
"    OOOOOOOOOOOO......OOOOOO......OOOOOOOOOOOO    ",
"    OOOOOOOOOOOO......OOOOOO......OOOOOOOOOOOO    ",
"    OOOOOOOOOOOO......OOOOOO......OOOOOOOOOOOO    ",
"    OOOOOOOOOOOO......OOOOOO......OOOOOOOOOOOO    ",
"    OOOOOOOOO......OOOOOOOOOOOO......OOOOOOOOO    ",
"    OOOOOOOOO......OOOOOOOOOOOO......OOOOOOOOO    ",
"    OOOOOOOOO......OOOOOOOOOOOO......OOOOOOOOO    ",
"    OOOOOOOOO......OOOOOOOOOOOO......OOOOOOOOO    ",
"    OOOOOOOOO......OOOOOOOOOOOO......OOOOOOOOO    ",
"    OOOOOOOOO......OOOOOOOOOOOO......OOOOOOOOO    ",
"          OOOOOOOOOOOOOOOOOOOOOOOOOOOOOO          ",
"          OOOOOOOOOOOOOOOOOOOOOOOOOOOOOO          ",
"          OOOOOOOOOOOOOOOOOOOOOOOOOOOOOO          ",
"          OOOOOOOOOOOOOOOOOOOOOOOOOOOOOO          "
};
