/* XPM */
static char *result[] = {
/* columns rows colors chars-per-pixel */
"50 50 166 2 ",
"   c #531B02",
".  c #562207",
"X  c #562309",
"o  c #59250A",
"O  c #572D17",
"+  c #5B2D14",
"@  c #5F3217",
"#  c #5D331C",
"$  c #623116",
"%  c #64351C",
"&  c #673A1F",
"*  c #683C1F",
"=  c #68361B",
"-  c #5E3723",
";  c #5D3A26",
":  c #5C3D2B",
">  c #603722",
",  c #633B25",
"<  c #693D24",
"1  c #623E2A",
"2  c #683F29",
"3  c #5E402F",
"4  c #5E4433",
"5  c #5E4936",
"6  c #5E4C3E",
"7  c #554C3E",
"8  c #694025",
"9  c #63422D",
"0  c #6B432B",
"q  c #634532",
"w  c #6A4531",
"e  c #634934",
"r  c #6C4935",
"t  c #654738",
"y  c #664E3D",
"u  c #6B4E3D",
"i  c #734E38",
"p  c #744E37",
"a  c #66503C",
"s  c #6D513E",
"d  c #73523C",
"f  c #305F56",
"g  c #21625D",
"h  c #076F6E",
"j  c #1E7979",
"k  c #297D7C",
"l  c #2C7672",
"z  c #387170",
"x  c #397C7A",
"c  c #5A5447",
"v  c #505E53",
"b  c #6A4E41",
"n  c #655242",
"m  c #6B5444",
"M  c #6C5942",
"N  c #645649",
"B  c #685648",
"V  c #655A4C",
"C  c #6A5C4D",
"Z  c #745643",
"A  c #755945",
"S  c #755C4B",
"D  c #795E4B",
"F  c #675E54",
"G  c #6A5F52",
"H  c #5F665A",
"J  c #5F6A5C",
"K  c #546055",
"L  c #72604E",
"P  c #7B614E",
"I  c #676054",
"U  c #6C6255",
"Y  c #6D645A",
"T  c #696B5D",
"R  c #736454",
"E  c #7B6353",
"W  c #7C6856",
"Q  c #726659",
"!  c #756A5C",
"~  c #7B6B5B",
"^  c #746856",
"/  c #446760",
"(  c #5C7166",
")  c #51756E",
"_  c #4D7977",
"`  c #616E61",
"'  c #6E6960",
"]  c #746D62",
"[  c #7A6E61",
"{  c #777263",
"}  c #7A7365",
"|  c #737369",
" . c #7B766A",
".. c #7D796B",
"X. c #71796B",
"o. c #7E7D70",
"O. c #816755",
"+. c #816956",
"@. c #826D5B",
"#. c #827364",
"$. c #877967",
"%. c #837669",
"&. c #817B6D",
"*. c #887B6A",
"=. c #827E71",
"-. c #897E71",
";. c #40807D",
":. c #74867E",
">. c #86806F",
",. c #858275",
"<. c #898476",
"1. c #868579",
"2. c #8A8679",
"3. c #878B7F",
"4. c #8D897C",
"5. c #918B7D",
"6. c #0E7F82",
"7. c #1F8081",
"8. c #018D94",
"9. c #148D93",
"0. c #00949E",
"q. c #1B949B",
"w. c #2B8383",
"e. c #2D8987",
"r. c #368788",
"t. c #3D8989",
"y. c #0097A2",
"u. c #0099A1",
"i. c #0F9EA7",
"p. c #009DA9",
"a. c #299EA4",
"s. c #00A0AD",
"d. c #00A4B1",
"f. c #00A9BA",
"g. c #30A0A6",
"h. c #418382",
"j. c #558580",
"k. c #50908F",
"l. c #529392",
"z. c #6A8D86",
"x. c #778E88",
"c. c #75938B",
"v. c #00B4C8",
"b. c #42BAC3",
"n. c #8D8D82",
"m. c #928E82",
"M. c #8D9085",
"N. c #8E958C",
"B. c #949285",
"V. c #989387",
"C. c #95948A",
"Z. c #99958A",
"A. c #96998F",
"S. c #99988E",
"D. c #929B94",
"F. c #9B9C93",
"G. c #A1A198",
"H. c #9EB2AD",
"J. c #A0B3B0",
"K. c #A1B8B5",
"L. c #A6C1BF",
"P. c #ACCCCC",
"I. c #AAC6C6",
"U. c #B5DCDF",
"Y. c #B6DEE2",
"T. c None",
/* pixels */
"T.T.T.T.T.T.T.T.T.T.T.T.T.T.T.T.T.T.T.T.T.T.T.T.T.T.T.T.T.T.T.T.T.T.T.T.T.T.T.T.T.T.T.T.T.T.T.T.T.T.",
"T.T.T.T.T.T.T.T.T.T.T.T.T.T.T.T.T.T.T.T.T.T.T.T.T.T.T.T.T.T.T.T.T.T.T.T.T.T.T.T.T.T.T.T.T.T.T.T.T.T.",
"T.T.T.T.T.T.T.T.T.T.T.T.T.T.T.T.T.T.T.T.T.T.T.T.T.T.T.T.T.T.T.T.T.T.T.T.T.T.T.T.T.T.T.T.T.T.T.T.T.T.",
"T.T.T.T.T.T.T.T.T.T.T.T.T.T.T.T.T.T.T.T.T.T.T.T.T.T.T.T.T.T.T.T.T.T.T.T.T.T.T.T.T.T.T.T.T.T.T.T.T.T.",
"T.T.T.T.T.T.T.T.T.T.T.T.T.T.T.T.T.T.T.T.T.T.T.T.T.T.T.T.T.T.T.T.T.T.T.T.T.T.T.T.T.T.T.T.T.T.T.T.T.T.",
"T.T.T.T.T.T.T.T.T.T.T.T.T.T.T.T.T.T.T.T.T.T.T.T.T.T.T.T.T.T.T.T.T.T.T.T.T.T.T.T.T.T.T.T.T.T.T.T.T.T.",
"T.T.T.T.T.T.T.T.T.T.T.T.T.T.T.T.T.T.T.T.D #.} #.&.&.*.*.*.} 8 T.T.T.T.T.T.T.T.T.T.T.T.T.T.T.T.T.T.T.",
"T.T.T.T.T.T.T.T.T.T.T.T.T.T.T.T.T.T.T.T.O.,.2.2.*.b.s.5.<.2.%.T.T.T.T.T.T.T.T.T.T.T.T.T.T.T.T.T.T.T.",
"T.T.T.T.T.T.T.T.T.T.T.T.T.T.T.T.T.T.$ * +.<.2.2.<.d.d.5.5.2.5.. $ $ T.T.T.T.T.T.T.T.T.T.T.T.T.T.T.T.",
"T.T.T.T.T.T.T.T.T.T.T.T.T.T.T.< #.>.3.3.P <.2.2.%.5.;.4.5.2.5.^ 3.1.~ & = T.T.T.T.T.T.T.T.T.T.T.T.T.",
"T.T.T.T.T.T.T.T.T.T.T.T.T.< ,.n.E A +.+.P >.4.4.4.4.B.<.5.2.5.@.W W r M.n.T.T.T.T.T.T.T.T.T.T.T.T.T.",
"T.T.T.T.T.T.T.T.T.T.< E ,.C.D Z ..<.>.5.P 4.4.4.4.4.2.5.4.4.Z.4.2.<.M.W Z @.L 0 = T.T.T.T.T.T.T.T.T.",
"T.T.T.T.T.T.T.T.T.+ n.,.M.Z &.=.*.<.,.>.@.C.<.B.B.B.C.Z.2.4., >.,.,.2.2.M.D } ,.1.< T.T.T.T.T.T.T.T.",
"T.T.T.T.T.T.T.T.+ F.2.P Z 2.,.<.<.<.<.*.# <.k.w.Y Y _ 9.x.x.0 4.,.,.1.2.,.2.P 0 1.n.u T.T.T.T.T.T.T.",
"T.T.T.T.T.T.T.E m.R E <.=.<.=.<.,.B...I # Y Q , * 0 0 0 !  .9 { 2.n.,.....,.,.M.r ~ 2.A T.T.T.T.T.T.",
"T.T.T.T.T.T.P ,.=.D ,.,.,.1.2.m.%.6 U 1 1 @ @ ^ P R R R u , 9 L  .] ,.m...,.=.=.n.w 2.<.$.T.T.T.T.T.",
"T.T.T.T.T.T.1.=.~ 2.2.2.2.,.m.8.N : o ^ ^ ^ [ [ ^ { ~ ..} ..y ^ s m | F 4.=.=.=.=.n.r ,.2., T.T.T.T.",
"T.T.T.T.T.A =.=.Z n.2.2.m.Z.z 4 O T ! ! ! ] ! ! [ { } } } R &.{ ] =.r m F m.2.=.=.2.D =.<.@.T.T.T.T.",
"T.T.T.Z Z i u i r b %.-.,.8.5 e ^ ^ ^ ~ } } } } ........a }  . .] [ } =.b n =.%.} Z B i p p A d A T.",
"T.T.F.4.=.=.=.=.=.o.,.V.R 4 e Q ! ! ^ U 5 5 c j 8./ v 7.l V n n %.|  . .,.w n.m.m.=.-.1.<.<.<.<.m.0 ",
"T.T.C.,.,.,.,.=.=.=.,.=.g.+ ! ! Q ! } v ^ { { { } } } { j. .:.L 6.$.@.}  .2 =.=.=.1.-.<.<.<.<.<.5.0 ",
"T.T.C.,.-.r.h.,.,.=.=.o.u.9 ^ ! &.U } 0.{ { I.P.} } 2.:.} } } [ p.[ #. .} %.c x.-.-.5.-.#.p.<.<.m.0 ",
"T.T.C.2.=.1.1.<.1.=.,.n.g s | ] ] ,.4 s.} } P.} L.:.} } >.} } } f.[ } } } | g 4.,.1.2.2.| &.f.m.V.0 ",
"T.T.A.2.4.6.8.2.2.2.1.n.% s { { } } ] 0. .} &.P.H.@.H...>.} } } d.[ | } } } h n.2.2.2.2.t.y.C.2.m.0 ",
"T.T.F.2.2.2.2.2.2.2.2.1.= b  .| } } &.k ..} N...P.4.L.A.D.#.} } q. .| } } } + n.1.2.2.5.5.5.4.4.V.0 ",
"T.T.F.n.4.5.5.2.4.2.2.<.> y  . .......w... .....:.>.L.5.Y.:.} >.e. .{ { ] ! + m.2.4.4.4.4.5.,.n.B.0 ",
"T.T.G.S.F.C.V.V.u u S n.C.1 &.&.&.:. .( .. ...M.U.H.>.>.:.$.>.} ;. . .{ ]  .~ 2.S 2 Z b F.V.C.V.S.2 ",
"T.T. .U G U U Y 9 2.,.=.=.,.! &.&.%. .Y ,...} ..#.#.:.#.#.$.:.>.!  . . .o.~ &.=.=.=.D ] G F U I ! o ",
"T.T.| N m.%. .~ @ m.,.,.,.,.n.Q &.=. .^ R R ( ( ( ` ` T H H M ^ Q .. ...A [ ,.=.&.n.> %.=.<.m.- ! o ",
"T.T.+ + Q =.=.%.{ m 2.2.2.2.,.B.8 ,... .,.,.:.:.k.a.d.i.0.e.:.>... .w S =.1.1.=.=.} r =.,.2.,.  + T.",
"T.T.T.T.# m.,.&.&.- Y 2.1.2.2.2.2.A ~ ,.$.} ......$.%...>.>.:.$.o.2 2.,.2.,.n.=.[ O [ =.2.m.q T.T.T.",
"T.T.T.T.T.U ,.=.,.L Y } L n.4.2.<.<.%.} = >.:.&.>.:.*.:.......~ %.n.2.1.n.2.-.[ n X &.=.1. .X T.T.T.",
"T.T.T.T.T.> ] S -.-.> ' ~ m.2.2.2.,.<.,.<.p $.$.$.$.$.#.#.0 #.-.4.2.2.4.1.Z.^ N t } ~ t 2.: T.T.T.T.",
"T.T.T.T.T.T.' =.<.1.2.[ = ~ } S.<.<.<.,.@.M.<.5.<.<.<.<.<.2.9 <.<.4.2.Z.} N - A &.&.} &.t   T.T.T.T.",
"T.T.T.T.T.T.T. .} 1.=.=.M.2 L G ..4.Z.<.@.<.2.<.5.<.<.<.,.<.m.>.Z.Z.[ B V - #.=.&.%.%.n   T.T.T.T.T.",
"T.T.T.T.T.T.T.T.] } n.2.n.m.A i m ^ M %.+.<.<.5.5.f.v.<.<.<.B.W M m F - , =.%.&.<.Q 6 O T.T.T.T.T.T.",
"T.T.T.T.T.T.T.T.T.1 Y ..C.#.-.1.^ Z @ @ @.5.5.5.<.s.u.4.4.<.B.@ $ m d n.B.~ 1.} N 3 + T.T.T.T.T.T.T.",
"T.T.T.T.T.T.T.T.T.T.1 ' Y %.C.-.=.=.=.1.+.5.5.5.:.Z.c.4.4.4.B.^ 2.,.&.<.B.&.C V ; T.T.T.T.T.T.T.T.T.",
"T.T.T.T.T.T.T.T.T.T.T.T.1 [ F | o.2.2.2.@.Z.Z.V.V.5.V.V.5.V.Z.^ m.5. . .5 c 1   T.T.T.T.T.T.T.T.T.T.",
"T.T.T.T.T.T.T.T.T.T.T.T.T.T.> F U V V n 0 [ U U U U U C ^ Q ^ 9 a a M M ;   T.T.T.T.T.T.T.T.T.T.T.T.",
"T.T.T.T.T.T.T.T.T.T.T.T.T.T.T.T.  - q 9 w Y Y U G G F F G F ! - 9 9     T.T.T.T.T.T.T.T.T.T.T.T.T.T.",
"T.T.T.T.T.T.T.T.T.T.T.T.T.T.T.T.T.T.T.T.t U a C F I U U F F ] T.T.T.T.T.T.T.T.T.T.T.T.T.T.T.T.T.T.T.",
"T.T.T.T.T.T.T.T.T.T.T.T.T.T.T.T.T.T.T.T.T.X X X . . X .   X X T.T.T.T.T.T.T.T.T.T.T.T.T.T.T.T.T.T.T.",
"T.T.T.T.T.T.T.T.T.T.T.T.T.T.T.T.T.T.T.T.T.T.T.T.T.T.T.T.T.T.T.T.T.T.T.T.T.T.T.T.T.T.T.T.T.T.T.T.T.T.",
"T.T.T.T.T.T.T.T.T.T.T.T.T.T.T.T.T.T.T.T.T.T.T.T.T.T.T.T.T.T.T.T.T.T.T.T.T.T.T.T.T.T.T.T.T.T.T.T.T.T.",
"T.T.T.T.T.T.T.T.T.T.T.T.T.T.T.T.T.T.T.T.T.T.T.T.T.T.T.T.T.T.T.T.T.T.T.T.T.T.T.T.T.T.T.T.T.T.T.T.T.T.",
"T.T.T.T.T.T.T.T.T.T.T.T.T.T.T.T.T.T.T.T.T.T.T.T.T.T.T.T.T.T.T.T.T.T.T.T.T.T.T.T.T.T.T.T.T.T.T.T.T.T.",
"T.T.T.T.T.T.T.T.T.T.T.T.T.T.T.T.T.T.T.T.T.T.T.T.T.T.T.T.T.T.T.T.T.T.T.T.T.T.T.T.T.T.T.T.T.T.T.T.T.T.",
"T.T.T.T.T.T.T.T.T.T.T.T.T.T.T.T.T.T.T.T.T.T.T.T.T.T.T.T.T.T.T.T.T.T.T.T.T.T.T.T.T.T.T.T.T.T.T.T.T.T.",
"T.T.T.T.T.T.T.T.T.T.T.T.T.T.T.T.T.T.T.T.T.T.T.T.T.T.T.T.T.T.T.T.T.T.T.T.T.T.T.T.T.T.T.T.T.T.T.T.T.T."
};
