/* XPM */
static char *result[] = {
/* columns rows colors chars-per-pixel */
"50 50 109 2 ",
"   c #4F1800",
".  c #551C02",
"X  c #562307",
"o  c #582207",
"O  c #57260E",
"+  c #592409",
"@  c #56280F",
"#  c #5A290E",
"$  c #572C13",
"%  c #5A2A11",
"&  c #5B3016",
"*  c #57321D",
"=  c #5C321B",
"-  c #672F14",
";  c #623117",
":  c #64351C",
">  c #67391C",
",  c #5E3722",
"<  c #5F3823",
"1  c #5F3F2C",
"2  c #633B23",
"3  c #6B3E26",
"4  c #623D29",
"5  c #5C402F",
"6  c #5B4536",
"7  c #5E4837",
"8  c #5D493A",
"9  c #694027",
"0  c #65422A",
"q  c #6C432C",
"w  c #654432",
"e  c #6D4732",
"r  c #664B34",
"t  c #6E4A34",
"y  c #634C3C",
"u  c #6C4D3A",
"i  c #714C35",
"p  c #704D38",
"a  c #67513D",
"s  c #6B523E",
"d  c #715137",
"f  c #73543E",
"g  c #5E4E41",
"h  c #624E40",
"j  c #655344",
"k  c #6A5545",
"l  c #6B5946",
"z  c #64574A",
"x  c #6B5748",
"c  c #6C5C4C",
"v  c #735542",
"b  c #755945",
"n  c #745C4A",
"m  c #795C48",
"M  c #665E52",
"N  c #6A5F52",
"B  c #745E51",
"V  c #6F604F",
"C  c #74614E",
"Z  c #78604F",
"A  c #666155",
"S  c #6C6255",
"D  c #6C6459",
"F  c #746454",
"G  c #7A6555",
"H  c #756857",
"J  c #7D6957",
"K  c #72665A",
"L  c #756B5C",
"P  c #7B6B5C",
"I  c #77705F",
"U  c #6E6A61",
"Y  c #746D63",
"T  c #7A6E61",
"R  c #777162",
"E  c #7A7365",
"W  c #76726A",
"Q  c #7B7669",
"!  c #7D796B",
"~  c #7D7C70",
"^  c #826E5E",
"/  c #80705F",
"(  c #826F60",
")  c #827364",
"_  c #807867",
"`  c #817769",
"'  c #827B6D",
"]  c #887C6F",
"[  c #827E72",
"{  c #887E71",
"}  c #858174",
"|  c #8A8375",
" . c #868479",
".. c #8A8679",
"X. c #86887A",
"o. c #8C897C",
"O. c #918C7D",
"+. c #8D8C81",
"@. c #928E82",
"#. c #8C9186",
"$. c #949185",
"%. c #989286",
"&. c #94948A",
"*. c #99968A",
"=. c #97988D",
"-. c #9A998E",
";. c #9C9B91",
":. c #A3A59C",
">. c None",
/* pixels */
">.>.>.>.>.>.>.>.>.>.>.>.>.>.>.>.>.>.>.>.>.>.>.>.>.>.>.>.>.>.>.>.>.>.>.>.>.>.>.>.>.>.>.>.>.>.>.>.>.>.",
">.>.>.>.>.>.>.>.>.>.>.>.>.>.>.>.>.>.>.>.>.>.>.>.>.>.>.>.>.>.>.>.>.>.>.>.>.>.>.>.>.>.>.>.>.>.>.>.>.>.",
">.>.>.>.>.>.>.>.>.>.>.>.>.>.>.>.>.>.>.>.>.>.>.>.>.>.>.>.>.>.>.>.>.>.>.>.>.>.>.>.>.>.>.>.>.>.>.>.>.>.",
">.>.>.>.>.>.>.>.>.>.>.>.>.>.>.>.>.>.>.>.>.>.>.>.>.>.>.>.>.>.>.>.>.>.>.>.>.>.>.>.>.>.>.>.>.>.>.>.>.>.",
">.>.>.>.>.>.>.>.>.>.>.>.>.>.>.>.>.>.>.>.>.>.>.>.>.>.>.>.>.>.>.>.>.>.>.>.>.>.>.>.>.>.>.>.>.>.>.>.>.>.",
">.>.>.>.>.>.>.>.>.>.>.>.>.>.>.>.>.>.>.>.>.>.>.>.>.>.>.>.>.>.>.>.>.>.>.>.>.>.>.>.>.>.>.>.>.>.>.>.>.>.",
">.>.>.>.>.>.>.>.>.>.>.>.>.>.>.>.>.>.>.>.>.>.>.>.>.>.>.>.>.>.>.>.>.>.>.>.>.>.>.>.>.>.>.>.>.>.>.>.>.>.",
">.>.>.>.>.>.>.>.>.>.>.>.>.>.>.>.>.>.>.>.3 } } [ o.o.o...o.Q >.>.>.>.>.>.>.>.>.>.>.>.>.>.>.>.>.>.>.>.",
">.>.>.>.>.>.>.>.>.>.>.>.>.>.>.>.>.>.>.>.9 o.| ..` H v o.....9 >.>.>.>.>.>.>.>.>.>.>.>.>.>.>.>.>.>.>.",
">.>.>.>.>.>.>.>.>.>.>.>.>.>.>.>.>.>.f f 9 o.....) T ) ....o.2 e v >.>.>.>.>.>.>.>.>.>.>.>.>.>.>.>.>.",
">.>.>.>.>.>.>.>.>.>.>.>.>.>.>.G P #.d d 9 o...o.| ] E ..o.O.9 t t #.G C >.>.>.>.>.>.>.>.>.>.>.>.>.>.",
">.>.>.>.>.>.>.>.>.>.>.>.>.^ | +.q J o.o.i | ..o...o...O.o.o.v o.+.^ i ..> > >.>.>.>.>.>.>.>.>.>.>.>.",
">.>.>.>.>.>.>.>.>.>.>.b  . .q Q ! | | } ..O.o.o.o.o.o.o.o.o.] } ....o.' e _ E t >.>.>.>.>.>.>.>.>.>.",
">.>.>.>.>.>.>.>.>.>.&.o.+.; | } } ..| } b *.*.n L L K K -.O.X.} }  ...o.... } }  .>.>.>.>.>.>.>.>.>.",
">.>.>.>.>.>.>.>.>.b w o.J | { } ......H 0 c V l d f f f Y H Q } o.} ' ! [ ..f  .w 3 >.>.>.>.>.>.>.>.",
">.>.>.>.>.>.>.>.$.[ ' G }  .} ....P z j a % # C C C C F 2 < P P Y  .o.} [ [ [ u } } @.>.>.>.>.>.>.>.",
">.>.>.>.>.>.>.b [ ' G  .....X.$.8 y * s F H P L P I E E Q y k P k L N +.{ ~ [ [ u { [ e >.>.>.>.>.>.",
">.>.>.>.>.>.>. .} v +.+...@.*.6 $ a H H L L L Y I E E Q c ' Q R Q F w S &...[ ..+.b  .[ >.>.>.>.>.>.",
">.>.>.>.b ) ) T P P L B n B y @ l H H F ' ~ [ } } } } S  .} [ ! R Q ~ < G y v T ) ) ) ^ ) ) | >.>.>.",
">.>.>.>.$.| } { [ [ } [ [ $.O j L Y H c j k k l l z l c c c c c R Y Q Q $ =. .{ { | | | | | -.>.>.>.",
">.>.>.>.$.| { } { } { } ' Y y R L S R z L I I I E I E I R ! ! S K E Q Q G ! { { } | ..| | | -.>.>.>.",
">.>.>.>.$. .x o.x } } } } ; k L L Q c V I R I I I E ! E E E R V L T R E Q w { {  ...{ %.J ..;.>.>.>.",
">.>.>.>.&. .P ' G .. . .o.2 a R R E E c R Q Q Q ! ! E ! Q E E V T E E W W e [  .....{ ) { O.;.>.>.>.",
">.>.>.>.=.....$....... ...: a Q E E ! S R Q ! ! ! E Q ! Q E Q V ! W T E ! e  .......O.%...O.-.>.>.>.",
">.>.>.>.;.o.o.o...o.o. .+.2 a Q Q ! Q K E Q ! ! _ ! _ ! ! ! ! H ! E Y Y Y i o.....O.o.O...O.;.>.>.>.",
">.>.>.>.:.;.=.*.*.@.k b { | y ' ' ! Q L Q ! ! ! E } ! ! } _ ! H ! W E L c ..{ u n B ;.=.%.=.;.>.>.>.",
">.>.>.>.W N S S S 9 =.} { [ ] ~ ~ [ ! L [ Q ! ! ! Q _ _ _ ! } V ! Q Q T [ ' ' [ +.Q N N N S W >.>.>.",
">.>.>.>.W & +.} E F Y } | }  .o.! ' ! L H c c c C C C l l l V H ! ! W K E  .' ' Y T [ X.=.1 W >.>.>.",
">.>.>.>.. . ..{ ' [ O @.X.....X.o.n } Q } } }  .}  .| E H X.} ! ~ p T +. . .{ o.. [  .} } . . >.>.>.",
">.>.>.>.>.>.1  .[ [ T h o.+.......o.t C [ ! ! ! ' ! ' ! } Q Q C i +.{ +... ...1 E [ ....* >.>.>.>.>.",
">.>.>.>.>.>.. W { [ b 4 Y y O.o.o.} ..o.m m b b m m b b v Q G o.....o...o...h w v ....F . >.>.>.>.>.",
">.>.>.>.>.>.>., B { +.' q Q _ &...o.} } ..) o.@.o. .| X...^ ......+...-.N z 4 E ! H u O >.>.>.>.>.>.",
">.>.>.>.>.>.>.>.h Q [ } } [ P K ! *.{ X.v ..| | | | | | | ..m ....=.F j y E [ ' ` x = >.>.>.>.>.>.>.",
">.>.>.>.>.>.>.>.>.Y ! ......+.- L F C ..f ..| o.] O./ | | ..m ' l k l 4 Q ` ' | x y >.>.>.>.>.>.>.>.",
">.>.>.>.>.>.>.>.>.>.D D o.+...+.X.+ 0 k e O...O./ O.^ | O.o.9 s 2 X +.o.| [ | g y >.>.>.>.>.>.>.>.>.",
">.>.>.>.>.>.>.>.>.>.>.2 D D +...} } _ } i O.O.O.^ *.^ o.o.o.u ! X.[ ..o.| g h % >.>.>.>.>.>.>.>.>.>.",
">.>.>.>.>.>.>.>.>.>.>.>.>.w ! M } { .. .t *.*.$.%.O.@.$.@.%.t _ o.` _ r 8 , >.>.>.>.>.>.>.>.>.>.>.>.",
">.>.>.>.>.>.>.>.>.>.>.>.>.>.>.4 U D z j + T S D H H A c S Y O r a l z = >.>.>.>.>.>.>.>.>.>.>.>.>.>.",
">.>.>.>.>.>.>.>.>.>.>.>.>.>.>.>.>.>.* = . D D N S A M N S A . $ & >.>.>.>.>.>.>.>.>.>.>.>.>.>.>.>.>.",
">.>.>.>.>.>.>.>.>.>.>.>.>.>.>.>.>.>.>.>.. c j c c A M A c A   >.>.>.>.>.>.>.>.>.>.>.>.>.>.>.>.>.>.>.",
">.>.>.>.>.>.>.>.>.>.>.>.>.>.>.>.>.>.>.>.>.>.>.>.>.>.>.>.>.>.>.>.>.>.>.>.>.>.>.>.>.>.>.>.>.>.>.>.>.>.",
">.>.>.>.>.>.>.>.>.>.>.>.>.>.>.>.>.>.>.>.>.>.>.>.>.>.>.>.>.>.>.>.>.>.>.>.>.>.>.>.>.>.>.>.>.>.>.>.>.>.",
">.>.>.>.>.>.>.>.>.>.>.>.>.>.>.>.>.>.>.>.>.>.>.>.>.>.>.>.>.>.>.>.>.>.>.>.>.>.>.>.>.>.>.>.>.>.>.>.>.>.",
">.>.>.>.>.>.>.>.>.>.>.>.>.>.>.>.>.>.>.>.>.>.>.>.>.>.>.>.>.>.>.>.>.>.>.>.>.>.>.>.>.>.>.>.>.>.>.>.>.>.",
">.>.>.>.>.>.>.>.>.>.>.>.>.>.>.>.>.>.>.>.>.>.>.>.>.>.>.>.>.>.>.>.>.>.>.>.>.>.>.>.>.>.>.>.>.>.>.>.>.>.",
">.>.>.>.>.>.>.>.>.>.>.>.>.>.>.>.>.>.>.>.>.>.>.>.>.>.>.>.>.>.>.>.>.>.>.>.>.>.>.>.>.>.>.>.>.>.>.>.>.>.",
">.>.>.>.>.>.>.>.>.>.>.>.>.>.>.>.>.>.>.>.>.>.>.>.>.>.>.>.>.>.>.>.>.>.>.>.>.>.>.>.>.>.>.>.>.>.>.>.>.>.",
">.>.>.>.>.>.>.>.>.>.>.>.>.>.>.>.>.>.>.>.>.>.>.>.>.>.>.>.>.>.>.>.>.>.>.>.>.>.>.>.>.>.>.>.>.>.>.>.>.>.",
">.>.>.>.>.>.>.>.>.>.>.>.>.>.>.>.>.>.>.>.>.>.>.>.>.>.>.>.>.>.>.>.>.>.>.>.>.>.>.>.>.>.>.>.>.>.>.>.>.>.",
">.>.>.>.>.>.>.>.>.>.>.>.>.>.>.>.>.>.>.>.>.>.>.>.>.>.>.>.>.>.>.>.>.>.>.>.>.>.>.>.>.>.>.>.>.>.>.>.>.>."
};
