/* XPM */
static char *result[] = {
/* columns rows colors chars-per-pixel */
"50 50 132 2 ",
"   c #5E290E",
".  c #602C11",
"X  c #612D12",
"o  c #612E13",
"O  c #622E12",
"+  c #602E14",
"@  c #5C4F3F",
"#  c #60402C",
"$  c #624531",
"%  c #634531",
"&  c #634632",
"*  c #634633",
"=  c #634733",
"-  c #644633",
";  c #644734",
":  c #644835",
">  c #644836",
",  c #664937",
"<  c #684C3B",
"1  c #684D3C",
"2  c #684E3D",
"3  c #694E3D",
"4  c #694E3E",
"5  c #66503F",
"6  c #5C5142",
"7  c #5E5445",
"8  c #5F5446",
"9  c #615648",
"0  c #60574A",
"q  c #60594B",
"w  c #615A4C",
"e  c #625A4C",
"r  c #635B4D",
"t  c #635C4D",
"y  c #625C4E",
"u  c #635C4E",
"i  c #625D4F",
"p  c #645D4F",
"a  c #705343",
"s  c #645D50",
"d  c #666054",
"f  c #676054",
"g  c #676154",
"h  c #676255",
"j  c #676256",
"k  c #676357",
"l  c #686255",
"z  c #696357",
"x  c #676358",
"c  c #676458",
"v  c #686458",
"b  c #696459",
"n  c #6A6559",
"m  c #6A655A",
"M  c #6B655B",
"N  c #6B665B",
"B  c #6E6A60",
"V  c #6E6C62",
"C  c #6F6C63",
"Z  c #716C63",
"A  c #706D64",
"S  c #7B7468",
"D  c #7B7469",
"F  c #7C7469",
"G  c #7D766B",
"H  c #7E766B",
"J  c #7E766C",
"K  c #7E776C",
"L  c #7E796E",
"P  c #817A70",
"I  c #868376",
"U  c #878475",
"Y  c #878476",
"T  c #878477",
"R  c #888577",
"E  c #898677",
"W  c #858178",
"Q  c #868279",
"!  c #86827A",
"~  c #87837A",
"^  c #888478",
"/  c #888578",
"(  c #888579",
")  c #898579",
"_  c #898678",
"`  c #898679",
"'  c #8A8779",
"]  c #88847B",
"[  c #8A877A",
"{  c #8A877B",
"}  c #8B887A",
"|  c #8B887B",
" . c #8B887C",
".. c #8B887D",
"X. c #8C897C",
"o. c #8C897D",
"O. c #8D8A7D",
"+. c #8C897E",
"@. c #8D8A7E",
"#. c #8E8B7E",
"$. c #8E8B7F",
"%. c #8F8C80",
"&. c #8F8C81",
"*. c #908C80",
"=. c #908D80",
"-. c #908D81",
";. c #908D82",
":. c #918E82",
">. c #918E83",
",. c #928E82",
"<. c #928F83",
"1. c #928F84",
"2. c #928F85",
"3. c #959288",
"4. c #969389",
"5. c #959589",
"6. c #969489",
"7. c #97948A",
"8. c #97948B",
"9. c #99968C",
"0. c #99968D",
"q. c #9A978D",
"w. c #9A978F",
"e. c #9B9890",
"r. c #9D9A93",
"t. c #9E9B94",
"y. c #9F9C96",
"u. c #A4A19B",
"i. c #A4A19C",
"p. c #A5A29C",
"a. c #A5A29D",
"s. c #A6A39D",
/* pixels */
"` ` ` ` ` ` ` ` ` ` ` ` ` ` ` ` ` ` ` ` ` ` ` ` ` ` ` ` ` ` ` /  .-.2.*.[ / ` ` } o.| 3.y.K 6 @ 5 a ",
"` ` ` ` ` ` ` ` ` ` ` ` ` ` ` ` ` ` ` ` ` ` ` ` ` ` ` ` ` ` ` / | #.&.#.[ / ` ` ` / I ;.w.S 7 9 #   ",
"` ` ` ` ` ` ` ` ` ` ` ` ` ` ` ` ` ` ` ` ` ` ` ` ` ` ` ` ` ` ` ` ` [ [ [ ` ` ` ` ` ` T >.e.S 8 r $ . ",
"` ` ` ` ` ` ` ` ` ` ` ` ` ` ` ` ` ` ` ` ` ` ` ` ` ` ` ` ` ` ` ` ` / / / ` ` ` ` ` ` T >.e.S 8 i * + ",
"` ` ` ` ` ` ` ` ` ` ` ` ` ` ` ` ` ` ` ` ` ` ` ` ` ` ` ` ` ` ` ` ` ` ` ` ` ` ` ` ` ` T >.e.D 8 u & o ",
"` ` ` ` ` ` ` ` ` ` ` ` ` ` ` ` ` ` ` ` ` ` ` ` ` ` ` ` ` ` ` ` ` ` ` ` ` ` ` ` ` ` T :.e.G 0 t % o ",
"` ` ` ` ` ` ` ` ` ` ` ` ` ` ` ` ` ` ` ` ` ` ` ` ` ` ` ` ` ` ` ` ` ` ` ` ` ` ` ` ` ` T :.e.J e s = o ",
"` ` ` ` ` ` ` ` ` ` ` ` ` ` ` ` ` ` ` ` ` ` ` ` ` ` ` ` ` ` ` ` ` ` ` ` ` ` ` ` ` ` T :.e.H w d > o ",
"` ` ` ` ` ` ` ` ` ` ` ` ` ` ` ` ` ` ` ` ` ` ` ` ` ` ` ` ` ` ` ` ` ` ` ` ` ` ` ` ` ` T :.e.H w d > o ",
"` ` ` ` ` ` ` ` ` ` ` ` ` ` ` ` ` ` ` ` ` ` ` ` ` ` ` ` ` ` ` ` ` ` ` ` ` ` ` ` ` ` T :.e.H w d > o ",
"` ` ` ` ` ` ` ` ` ` ` ` ` ` ` ` ` ` ` ` ` ` ` ` ` ` ` ` ` ` ` ` ` ` ` ` ` ` ` ` ` ` T :.e.H w d > o ",
"` ` ` ` ` ` ` ` ` ` ` ` ` ` ` ` ` ` ` ` ` ` ` ` ` ` ` ` ` ` ` ` ` ` ` ` ` ` ` ` ` ` T :.e.H w d > o ",
"` ` ` ` ` ` ` ` ` ` ` ` ` ` ` ` ` ` ` ` ` ` ` ` ` ` ` ` ` ` ` ` ` ` ` ` ` ` ` ` ` ` T :.e.H w d > o ",
"` ` ` ` ` ` ` ` ` ` ` ` ` ` ` ` ` ` ` ` ` ` ` ` ` ` ` ` ` ` ` ` ` ` ` ` ` ` ` ` ` ` T :.e.H w d > o ",
"` ` ` ` ` ` ` ` ` ` ` ` ` ` ` ` ` ` ` ` ` ` ` ` ` ` ` ` ` ` ` ` ` ` ` ` ` ` ` ` ` ` T :.e.H w d > o ",
"` ` ` ` ` ` ` ` ` ` ` ` ` ` ` ` ` ` ` ` ` ` ` ` ` ` ` ` ` ` ` ` ` ` ` ` ` ` ` ` ` ` T :.e.H w d > o ",
"` ` ` ` ` ` ` ` ` ` ` ` ` ` ` ` ` ` ` ` ` ` ` ` ` ` ` ` ` ` ` ` ` ` ` ` ` ` ` ` ` ` T :.e.H w d > o ",
"` ` ` ` ` ` ` ` ` ` ` ` ` ` ` ` ` ` ` ` ` ` ` ` ` ` ` ` ` ` ` ` ` ` ` ` ` ` ` ` ` ` T :.e.H w d > o ",
"` ` ` ` ` ` ` ` ` ` ` ` ` ` ` ` ` ` ` ` ` ` ` ` ` ` ` ` ` ` ` ` ` ` ` ` ` ` ` ` ` ` T :.e.H w d > o ",
"` ` ` ` ` ` ` ` ` ` ` ` ` ` ` ` ` ` ` ` ` ` ` ` ` ` ` ` ` ` ` ` ` ` ` ` ` ` ` / / / T :.e.H w d > o ",
"` ` ` ` ` ` ` ` ` ` ` ` ` ` ` ` ` ` ` ` ` ` ` ` ` ` ` ` ` ` ` ` ` ` ` ` ` / [  .O.O./ ;.e.H w d > o ",
"` ` ` ` ` ` ` ` ` ` ` ` ` ` ` ` ` ` ` ` ` ` ` ` ` ` ` ` ` ` ` ` ` ` ` ` ` / [ %.,.-.[ >.e.H w d > o ",
"` ` ` ` ` ` ` ` ` ` ` ` ` ` ` ` ` ` ` ` ` ` ` ` ` ` ` ` ` ` ` ` ` ` ` ` ` / [ %.>.-.#.3.e.G w d > o ",
"` ` ` ` ` ` ` ` ` ` ` ` ` ` ` ` ` ` ` ` ` ` ` ` ` ` ` ` ` ` ` ` ` ` ` ` ` / [ O.%.-.-.7.e.G w d > o ",
"` ` ` ` ` ` ` ` ` ` ` ` ` ` ` ` ` ` ` ` ` ` ` ` ` ` ` ` ` ` ` ` ` ` ` ` ` ` ` _ X.-.%.4.e.G w d > o ",
"` ` ` ` ` ` ` ` ` ` ` ` ` ` ` ` ` ` ` ` ` ` ` ` ` ` ` ` ` ` ` ` ` ` ` ` ` ` ` E X.-.%.4.w.F q d > o ",
"` ` ` ` ` ` ` ` ` ` ` ` ` ` ` ` ` ` ` ` ` ` ` ` ` ` ` ` ` ` ` ` ` ` ` ` ` ` _ R X.-.%.8.t.P p g : o ",
"` ` ` ` ` ` ` ` ` ` ` ` ` ` ` ` ` ` ` ` ` ` ` ` ` ` ` ` ` ` ` ` ` ` ` ` ` ` ' _ X.-.$.9.i.~ x l ; o ",
"` ` ` ` ` ` ` ` ` ` ` ` ` ` ` ` ` ` ` ` ` ` ` ` ` ` ` ` ` ` ` ` ` ` ` ` `  .$.#.%.-.#.9.a.~ k g * o ",
"` ` ` ` ` ` ` ` ` ` ` ` ` ` ` ` ` ` ` ` ` ` ` ` ` ` ` ` ` ` ` ` ` ` ` ` ` +.<.:.-.-.#.9.p.! b n , o ",
"` ` ` ` ` ` ` ` ` ` ` ` ` ` ` ` ` ` ` ` ` ` ` ` ` ` ` ` ` ` ` ` ` ` ` ` ` o.:.-.-.-.#.9.p.Q m V 1 X ",
"` ` ` ` ` ` ` ` ` ` ` ` ` ` ` ` ` ` ` ` ` ` ` ` ` ` ` ` ` ` ` ` ` ` ` ` ` O.<.-.-.-.#.9.p.Q N Z 3 X ",
"` ` ` ` ` ` ` ` ` ` ` ` ` ` ` ` ` ` ` ` ` ` ` ` ` ` ` ` ` ` ` ` ` ` ` ` `  .%.-.-.-.#.9.p.Q M C 2 X ",
"` ` ` ` ` ` ` ` ` ` ` ` ` ` ` ` ` ` ` ` ` ` ` ` ` ` ` ` ` ` ` ` ` ` ` ` ` ( | =.<.:.#.9.p.Q M C 2 X ",
"` ` ` ` ` ` ` ` ` ` ` ` ` ` ` ` ` ` ` ` ` ` ` ` ` ` ` ` ` ` ` ` ` ` ` ` ` / ` | o.o.O.0.p.Q N A 4 X ",
"` ` ` ` ` ` ` ` ` ` ` ` ` ` ` ` ` ` ` ` ` ` ` ` ` ` ` ` ` ` ` ` ` ` ` ` ` ` ` _ ^ _ X.q.p.Q m B < X ",
"` ` ` ` ` ` ` ` ` ` ` ` ` ` ` ` ` ` ` ` ` ` ` ` ` ` ` ` ` ` ` ` ` ` ` ` ` ` ` ` ) ` X.q.p.~ c z : o ",
"` ` ` ` ` ` ` ` ` ` ` ` ` ` ` ` ` ` ` ` ` ` ` ` ` ` ` ` ` ` ` ` ` ` ` ` ` ` ` ` ) ` X.q.s.] v f - o ",
"` ` ` ` ` ` ` ` ` ` ` ` ` ` ` ` ` ` ` ` ` ` ` ` ` ` ` ` ` ` ` ` ` ` ` ` ` ` ` ` ) ` X.0.u.W j h ; o ",
"` ` ` ` ` ` ` ` ` ` ` ` ` ` ` ` ` ` ` ` ` ` ` ` ` ` ` ` ` ` ` ` ` ` ` ` ` ` ` ` ) ` O.7.r.L y d > o ",
"` ` ` ` ` ` ` ` ` ` ` ` ` ` ` ` ` ` ` ` ` ` ` ` ` ` ` ` ` ` ` ` ` ` ` ` ` ` ` ` ) ` @.5.w.F q d > o ",
"` ` ` ` ` ` ` ` ` ` ` ` ` ` ` ` ` ` ` ` ` ` ` ` ` ` ` ` ` ` ` ` ` ` ` ` ` ` ` ` ) ` o.6.e.G w d > o ",
"` ` ` ` ` ` ` ` ` ` ` ` ` ` ` ` ` ` ` ` ` ` ` ` ` ` ` ` ` ` ` ` ` ` ` ` ` ` ` ` ` ` ` 1.e.H w d > o ",
"` ` ` ` ` ` ` ` ` ` ` ` ` ` ` ` ` ` ` ` ` ` ` ` ` ` ` ` ` ` ` ` ` ` ` ` ` ` ` ` ` ` I ;.e.H w d > o ",
"` ` ` ` ` ` ` ` ` ` ` ` ` ` ` ` ` ` ` ` ` ` ` ` ` ` ` ` ` ` ` ` ` ` ` ` ` ` ` ` ` ` T :.e.H w d > o ",
"` ` ` ` ` ` ` ` ` ` ` ` ` ` ` ` ` ` ` ` ` ` ` ` ` ` ` ` ` ` ` ` ` ` ` ` ` ` / / _ ` T :.e.H w d > o ",
"` ` ` ` ` ` ` ` ` ` ` ` ` ` ` ` ` ` ` ` ` ` ` ` ` ` ` ` ` ` ` ` ` ` ` ` ` { | | | ` T :.e.H w d > o ",
"` ` ` ` ` ` ` ` ` ` ` ` ` ` ` ` ` ` ` ` ` ` ` ` ` ` ` ` ` ` ` ` ` ` ` ` ` o.-.-.@.` Y :.e.H w d > o ",
"` ` ` ` ` ` ` ` ` ` ` ` ` ` ` ` ` ` ` ` ` ` ` ` ` ` ` ` ` ` ` ` ` ` ` ` ` @.<.1.$.` U ;.e.H w d > o ",
"` ` ` ` ` ` ` ` ` ` ` ` ` ` ` ` ` ` ` ` ` ` ` ` ` ` ` ` ` ` ` ` ` ` ` ` ` X.%.%...` / 1.e.J e d > O "
};
