/* XPM */
static char *result[] = {
/* columns rows colors chars-per-pixel */
"50 50 77 1 ",
"  c #572004",
". c #592207",
"X c #51240D",
"o c #5C250A",
"O c #5E2A0E",
"+ c #5F2D14",
"@ c #5D311B",
"# c #60290E",
"$ c #622C12",
"% c #643116",
"& c #66341B",
"* c #683419",
"= c #653720",
"- c #673B24",
"; c #683B24",
": c #613D2B",
"> c #6A3F28",
", c #5E4538",
"< c #6D412C",
"1 c #70452F",
"2 c #654531",
"3 c #684734",
"4 c #684935",
"5 c #6B4D3A",
"6 c #734B37",
"7 c #5C5346",
"8 c #5F5649",
"9 c #5F5A4B",
"0 c #665344",
"q c #6F5241",
"w c #60574A",
"e c #615A4C",
"r c #6C5A4B",
"t c #725543",
"y c #655E51",
"u c #676053",
"i c #6B6257",
"p c #6A645A",
"a c #6B685D",
"s c #706356",
"d c #7D6352",
"f c #776B5D",
"g c #6B6760",
"h c #6E6B62",
"j c #756D62",
"k c #767267",
"l c #787367",
"z c #7B756B",
"x c #77796E",
"c c #7C796D",
"v c #7E7970",
"b c #806D60",
"n c #837364",
"m c #867768",
"M c #807A72",
"N c #8D7F72",
"B c #7E8277",
"V c #878477",
"C c #888477",
"Z c #85837A",
"A c #898679",
"S c #8C897D",
"D c #928277",
"F c #8D8D81",
"G c #908D82",
"H c #929084",
"J c #96948B",
"K c #99968D",
"L c #96988E",
"P c #9B998F",
"I c #979B94",
"U c #9D9992",
"Y c #A09E96",
"T c #A29F98",
"R c #A3A19B",
"E c #AAADA8",
"W c None",
/* pixels */
"X$##$###Oo##oOooooooOooOooOoooooooo........ ..WWWW",
":<13111111<<<<<<----------------;;;;;=======&WWWWW",
"snnnmmmncnnlbnlmbBnnVfnnnnnnnmmmnnnmmmmmmnnND6WWWW",
"xFFFSSFFFFFFSSSSSSSSSSSSSSSSSLLLLLLLJJJJLJFEEb@WWW",
"kAAAAAAAAAAAAAAACAAAAAAAAAAASSLSGGGGGGGGFFSURZ0&WW",
"kAAAAAAAAAAAAAAAAAAAAAAAAAAASSSSSSGGGGGGGGSJYMpr<%",
"kAAAAAAAAAAAAAAAAAAAAAAAAAAAACCCAGGGGGGSFSGJKMah5$",
"kAAAAAAAAAAAAAAAAAAAAAAAAAAAAAACAGGGGGSSZASJKMpu2$",
"kAAAAAAAAAAAAAAAAAAAAAAAAAAAAAAAAAGHGHGACCSJPlyy2@",
"kAAAAAAAAAAAAAAAAAAAAAAAAAAAAAAAACSGFSFACASKPk9y2%",
"kAAAAAAAAAAAAAAAAAAAAAAAAAAAAAAAAAAAAAAASSGKKley3%",
"kAAAAAAAAAAAAAAAAAAAAAAAAAAAAAAAAAAAACAASHSJPley4%",
"kAAAAAAAAAAAAAAAAAAAAAAAAAAAAAAAAAAAAAAASSSKKlwy4%",
"kAAAAAAAAAAAAAAAAAAAAAAAAAAAAAAAAAAAAAAACACHPley4*",
"kAAAAAAAAAAAAAAAAAAAAAAAAAAAAAAAAAAAAAAAACVHPkey3*",
"kAAAAAAAAAAAAAAAAAAAAAAAAAAAAAAAAAAAAAAAACVHPkey3*",
"xAAAAAAAAAAAAAAAAAAAAAAAAAAAAAAAAAAAAAAAAAVHPl9y3*",
"kAAAAAAAAAAAAAAAAAAAAAAAAAAAAAAAAAAAAAAAAAVHPkwy3*",
"kCAAAAAAAAAAAAAAAAAAAAAAAAAAAAAAAAAAAAAAAAVHPkee3*",
"kAAAAAAAAAAAAAAAAAAAAAAAAAAAAAAAAAAAAAAAAAVHPzeu3*",
"kAAAAAAAAAAAAAAAAAAAAAAAAAAAAAAAAAAAAAAAAAVHKleu3&",
"kAAAAAAAAAAAAAAAAAAAAAAAAAAAAAAAAAAAAAAAAACHPzee3&",
"kAAAAAAAAAAAAAAAAAAAAAAAAAAAAAAAAAAAAAAAAACHKlwu4*",
"kAAAAAAAAAAAAAAAAAAAAAAAAAAAAAAAAAAAAAAAAAVHIlwu4*",
"kAAAAAAAAAAAAAAAAAAAAAAAAAAAAAAAAAAAAAAAAAAHPl9y4&",
"kAAAAAAAAAAAAAAAAAAAAAAAAAAAAAAAAAAAAAAAAACGIzey4*",
"kAAAAAAAAAAAAAAAAAAAAAAAAAAAAAAAAAAAAAAAAACHKley4*",
"kAAAAAAAAAAAAAAAAAAAAAAAAAAAAAAAAAAAAAAAAAAGPlwy4*",
"kAAAAAAAAAAAAAAAAAAAAAAAAAAAAAAAAAAAAAAAAACGPley5*",
"xAAAAAAAAAAAAAAAAAAAAASAAAAAAAAAAAAAAAAAAAAHKley3*",
"kCCCAAAAAAAAAAAAAAAAAAAAAAAAAAAAAAAAAAAAAAVGKley4*",
"kASAAAAAAAAAAAAAAAAAAAAAAAAAAAAAAAAAAAAAASSHPley3*",
"kAAAAAAAAAAAAAAAAAAAAAAAAAAAAAAAAAAAAAAASGGKKlwe3*",
"kAAAAAAAAAAAAAAAAAAAAAAAAAAAAAAAAAAAAAAASGSKKlwu3*",
"kAAAAAAAAAAAAAAAAAAAAAAAAAAAAAAAAAAAAAAAASSKYlwu3*",
"kAAAAAAAAAAAAAAAAAAAAAAAAAAAAAAAAAAAAAAAACSPTcwu3*",
"kAAAAAAAAAAAAAACCAAAAAAAAAAAAAAAAAAAAAAACCSPRm8y3&",
"kAAAAAAAAAAAASASSAACAAAZAAAAAAAAAAAAAAAASSSURz8y3*",
"kAAAAAAAAAAASSSSGSAAAAFZAAAAAAAAAAAAAAAGGGSPRz7y3$",
"kAAAACASSSAASSHHGGGFAZMFAAAAAAAAAAAAAAASGGAJEz7e3%",
"lZZZZMZGSSSASSHHDGGGFNNNAAAMCCZZCZZMZZZFSGJUJj7e2$",
"kAANAFDGHHHSSSHSGGGGFZFNAAANAAAZAZSNCSGGSGTPMiee2$",
"MPKKKKKUPPPPPPUUKUYKUKKUPPYYYYUYYYYYYYYYRYGMzlae:$",
"MJJJKKJJJJKJJJJJJJJJJJKKKJKKYPUUYPYKYPUUYYSzzvzp2#",
"hMMMMMMMMMMMmMMMMMMMMMMMMMMMvMMMMMMMvMMvMAUJxkcx5O",
"pzzzzzzzzzzzmzzzzzzzzzzzzzzzzczzzkzzzzzvMMFKJVxBto",
"gvMMvvvvMvvvvMMzvvvvvvvvvvMmvvvvMMMzvvvZZZvFRHcf3O",
"gMMMMMMMMMMMMMMMMMMMMMMMMMvvvvvvMMMMMvvZAZZZSIC-WW",
"2qqqqqqqqqqqqqqqqqqqqqqqqqqqqqqqqqqqqqqttttttdt$WW",
"XOOOOOOOOOOOOO+OOOOOOOOO+Oo++oOOOOOOOOOOOO#OOoOWWW"
};
