/* XPM */
static char *result[] = {
/* columns rows colors chars-per-pixel */
"50 50 99 2 ",
"   c #5F6400",
".  c #5D6900",
"X  c #5D6313",
"o  c #606400",
"O  c #656E00",
"+  c #6A6E04",
"@  c #636C08",
"#  c #6A6C0E",
"$  c #667100",
"%  c #6D7301",
"&  c #6F730A",
"*  c #717600",
"=  c #747903",
"-  c #797D04",
";  c #72760B",
":  c #767B09",
">  c #7A7E0B",
",  c #666614",
"<  c #6C6E15",
"1  c #6C6C1B",
"2  c #6E7213",
"3  c #6E7118",
"4  c #737712",
"5  c #747814",
"6  c #76781A",
"7  c #605D30",
"8  c #625C3F",
"9  c #656324",
"0  c #676F23",
"q  c #6B6B25",
"w  c #68662E",
"e  c #6D7427",
"r  c #6B722E",
"t  c #737525",
"y  c #757923",
"u  c #77792E",
"i  c #787A2B",
"p  c #656234",
"a  c #6E6B3E",
"s  c #737334",
"d  c #767A31",
"f  c #7A7C36",
"g  c #747639",
"h  c #7B7C3B",
"j  c #5F5944",
"k  c #635E43",
"l  c #646042",
"z  c #6A6645",
"x  c #69644A",
"c  c #6F6A49",
"v  c #7D7E41",
"b  c #7C7E4A",
"n  c #726D51",
"m  c #706A5E",
"M  c #747750",
"N  c #7D7E53",
"B  c #777958",
"V  c #7E7E5B",
"C  c #6C6761",
"Z  c #736F62",
"A  c #756E6D",
"S  c #767265",
"D  c #77716D",
"F  c #7A756E",
"G  c #7D7C6E",
"H  c #7B7672",
"J  c #7E7C72",
"K  c #7E7B7A",
"L  c #807F58",
"P  c #807F71",
"I  c #817F7B",
"U  c #7E8201",
"Y  c #7D810E",
"T  c #7E8212",
"R  c #818705",
"E  c #80820F",
"W  c #818312",
"Q  c #80841F",
"!  c #898B3E",
"~  c #838447",
"^  c #80824D",
"/  c #81805C",
"(  c #828163",
")  c #85846E",
"_  c #88856F",
"`  c #818072",
"'  c #898671",
"]  c #8C8974",
"[  c #83827B",
"{  c #88857D",
"}  c #8B897D",
"|  c #908E78",
" . c #868381",
".. c #898582",
"X. c #8D8A83",
"o. c #89858A",
"O. c #8E898B",
"+. c #918F87",
"@. c #939089",
/* pixels */
"o * * % * * * % % * * % * % * * % * % * * * % * % * % % * % * * % * * % * * % * * % % % % * * % * * ",
"o * * * * * * * * * * * * * * * * * * * * * * * * * * * y d u u d u u u d u f u u u u u d d 5 * * % ",
"o * * * * * * * * * * * * * * * * * * * * * * = * * * ; V I P P P P P ` P P P ` P P P P P I h * * % ",
"o * * * * * * * = * * * * * * * * * * * * * * * * * i ( ` [ ` [ [ ` [ ` P I ` [ P { P I P I ) L 4 * ",
"o * * * * * * * * * * * * * = * * * * * * = * * * * b O.[ P ` ` ` ` ` P ` ` ` ` P [ ` ` ` P o.{ 6 % ",
"o * * * * * * * * * * * * * * * * * * * * * * * * * v X.[ P ` ` ` ` ) J ` ` ` ` P P ` P ` P .._ 6 % ",
"o * * * * * * * * * * * * * * * * * * * * * * * * % h ..[ ` ` ` ` ` ` ` P ` P ` ` ` ) P ` P .._ 6 * ",
"o * * * * * * * = * * * * * * * * * * * * * * * * * v } [ J ` ` P ` ` ` ` ` ` ` ` ` P P ` P .._ 6 + ",
"o * * * * * * * * * * * * * * * * * * * * * * * * * v ..[ P P P ` ` ` ` P ` ` ` ` ` ` ` P P { _ 6 % ",
"o * * * * * * * * * * * * * * * * * * * * * * * * * v ..[ P ` P ` ` ` ` ` ` ` ` ` ` ` P P P  ._ 6 * ",
"o * * * * * * % * * * * = * * * * * * * * * * * * * v X.' P ` ` ` P ` ` ` ` ` ` P ` [ P P P .._ 6 + ",
"o * * * * * * % = * * * * * * * * * = * * * * * * % v X.[ P ` ` ` ` ` ` ` ` P ` ` ` P P P P .._ 6 + ",
"o * * * - - Y - = * * * * * * * * * * * * * * = * * s D [ { P P ` ` ` ` ` P ` ` ` ` ` P P P .._ 6 % ",
"o * * = : T W Y - * * * * * * * * * * * * * * * * * < k G { P P ` ` P ` ` ` ` ` ` ` ` ` P P .._ 6 % ",
"o * * * = Y W Y : = * * * * * * * * * * * * * * * * * 2 z D X.I P ` P ` ` ` ` ` P P ` ` P P .._ 6 % ",
"o * * * * * * > Y : * * * * * * * * * * * * * * * * = - 1 g ~ ( ` ` ` ` ` ` ` ` P P ) ` P P .._ 6 + ",
"O * * * * $ $ = Y = * * * * * * * * * * * * * * * * : > E R Q L I P P P ` ` ` ` ` ` ` ` P P .._ 6 % ",
"  * * * * * * $ $ % * * * * * * * * * * * * * * = = - : U ! | [ P P [ P ` ` ` ` P ` ` ` P P .._ 6 + ",
"  % * * * * * $ $ $ * * = * * * * * * * * * * * * : > : * s I  .' P P P ` ` P ` ) ` ` ` P P .._ 6 % ",
"o * * * * * * * = * * * * * * * * = * = * * * * * : > : O X k P } P P P ` ` ` ` P ` ` P P P ..' 6 + ",
"o * * * * * * * * * * * * * = * * = > T - * * * = > = O + % 2 z A { P P P P P P P P P P P P X.] 6 + ",
"o * * * * * * * * * * * * * * * * % ; W > = * * * % $ % : - * , n +.+.} } } } } } } } } } } { S 5 * ",
"o * * * * * * * * * * * * * * * = O O > W : = * * O $ Y T : * * f X.O.} } +.X.} X.} X.X.} +.A 7 & * ",
"o * * * * * = * * * * * * * * * * % * > > : = * * % : Y % % * * t m m m m m C Z m m m m m Z a + * * ",
"o * * * * * * * * * * * * * % * * * * $ = : * * = > : % $ % * * + 9 9 9 9 9 9 9 9 9 9 9 9 9 # = * * ",
"o * * * * * * * * * * = * * ; ; ; ; ; @ % = $ $ > > % O $ * * ; ; * ; : ; ; : * - ; - * ; ; = * * * ",
"o * * * * * * * * * * * * % T G N N B B e $ . $ T > ; . % * * b ) N b L b L N N L N L L L L i * * * ",
"o * * * * * = * * * * * * i I o.K K K  .M 0 r y : = % $ $ = f ) o.[ I [ I I [ I I I I I I I L y * % ",
". * * * * * * * * * * % i ` [ G G G G G G G [ ^ = $ O * * f { [ ) P P P ` ` [ ` P P P P P P .._ 6 % ",
"  * * * * * * * * % * f ) K J G G G G G G I o.b * % + * b ' [ [ P P P [ ` P P ` P P P P P P O.P 6 + ",
"  * * * * y d i t 6 t (  .G G G G G G G G J ..b % * : f [ ..P ) ` ` ` ` ` ` ` ` P P P P P P I _ 6 % ",
"  * * * ; V [ G G G G G J G G P G G G G G J ..b % * h } [ P ` J ` ` ` ` P ` ` I P P ' P P P X.P 6 + ",
"o * % 6 L P I J K J P J G G G G G G G G G J  .b % % v X.[ ` ` ` ` ` ` ` ` ` ` ` ` P ` ` ` ` } ) 6 + ",
"o * 5 b  .K G G G G G G G G G G J G G G G P  .b * % v ..[ ` ` ` ` ` ` ` ` P ` ` ` ` ` ` G `  .) 6 % ",
"  ; / { G G G G G G G G G G G G G G G G G J { b * % v ..[ ` ` ` ` ` ` ` ` ` ` ` ` ` ` ` P P } ) 6 + ",
"  4 P ..G G J G G G G G G G J G G G G G G J  .b % % v ..[ P ` ` P ` ` P ` ` ` ` ` ` ` P ` P  .) 6 * ",
"  4 ( [ G G G G G G G G G G G G G J G G G P [ b U $ T o.o.K ` ` ` ` ` ` ` ` P ` ` ` ` ` ` `  .) 6 + ",
"  4 (  .G G G G G J G G G G G G G G G G G J ..b % $ v ..[ ` P ` P ` ` P ` ` ` ` ` ` ` ` ` ` } ) 6 % ",
"  4 (  .G G G G G G G G G G G G G G G G G J  .b % * v } [ P P P ` ` P ` ` ` ` ` ` ` ` ` ` P  .) 6 + ",
"  4 ( [ G G G G G G G G G G G J G G G G G J ..b % % v X.[ P P P ` ` ` ` P ` ` ` ` ` ` ` ` [  .) 6 % ",
". 4 (  .G G G G G G G G G G G G G G G G G J { b % % T ..[ P ` ` ` ` ` ` ` P ` ` ` ` ` ` ` `  .) 6 + ",
"  4 (  .G G G G G G G G G J G G G G G G G J O.b * & V ..[ P ` P P ` ` ` ` ` ` ` ` ` G ` ` `  .) 6 % ",
"  2 ( [ G G G G G G G G G G G G G G G G G I { b * % v X.[ ) P ` ` ` P ` ` ` ` ` ` ` ` ` ` `  .) 6 % ",
"  4 ( [ G G G G G P G G G G G G G G G G } { C w = % v X.[ G P ) ` ` ` ` ` ` P P ` ` ` ` ` ` ..) 6 % ",
"  4 )  .G G G G G G G G G G G G G G G [ I S p @ = * s H ..{ P P P ) P P P P P ) ` ` ) ` G P X.' 6 % ",
"  ; V [ P J J J G P G J P P P G P G ` } Z 7 = = * * , x P X.` [ ` [ ` ` ` [ ` ` ` ` ` ` ` [  .( 6 % ",
". & l A ..X.X.X.X.X.X.X.X.X.X.X.X.+.{ C p & * = * * % 3 z H +.+.+.+.+.+.+.+.+.O.@.@.O.+.@.@.K x 2 * ",
"o % , z G H F D G G F F F F F G F H S p + * * * * * * * , c J K P H P P J J J J J J J J K K M X * % ",
"o = = 1 k k 8 8 8 8 8 8 8 8 8 8 8 j 7 ; = * * * * * * * = 1 l x k k k k 8 k k l k k k k k k q = * * ",
"  * = % < < < < < < < < < < < < < , # * * * * * * * * * * * < 3 < 2 < < 2 2 2 2 < < 2 2 1 2 ; = * * "
};
