/* XPM */
static char *result[] = {
/* columns rows colors chars-per-pixel */
"50 50 107 2 ",
"   c #5D5F00",
".  c #566000",
"X  c #5E6201",
"o  c #5E6A00",
"O  c #5F610B",
"+  c #606400",
"@  c #646D00",
"#  c #6D6F00",
"$  c #676B0A",
"%  c #6C6D0D",
"&  c #677000",
"*  c #6D7300",
"=  c #6F720D",
"-  c #717600",
";  c #747902",
":  c #797C06",
">  c #71750D",
",  c #767B0A",
"<  c #7A7E0B",
"1  c #6C6E13",
"2  c #67671A",
"3  c #67681D",
"4  c #6B6B1D",
"5  c #6F7110",
"6  c #6F711C",
"7  c #737810",
"8  c #74771D",
"9  c #767A1C",
"0  c #615C2B",
"q  c #625E36",
"w  c #625E3B",
"e  c #656422",
"r  c #686724",
"t  c #6A6A23",
"y  c #676428",
"u  c #6D6C2B",
"i  c #6F7027",
"p  c #767923",
"a  c #797C25",
"s  c #72722C",
"d  c #797B2A",
"f  c #636033",
"g  c #6C6934",
"h  c #6A663A",
"j  c #6D693C",
"k  c #716F3D",
"l  c #757633",
"z  c #797D32",
"x  c #78773E",
"c  c #777939",
"v  c #7B7D3A",
"b  c #635F40",
"n  c #665E4C",
"m  c #685F55",
"M  c #656147",
"N  c #6F6B43",
"B  c #68644D",
"V  c #6F6A4C",
"C  c #706B4D",
"Z  c #7B7D41",
"A  c #7E7E48",
"S  c #6A6453",
"D  c #6F6956",
"F  c #6E695C",
"G  c #726D52",
"H  c #7C7C54",
"J  c #77725E",
"K  c #6E6762",
"L  c #746D64",
"P  c #757065",
"I  c #7A7564",
"U  c #76716C",
"Y  c #7B776D",
"T  c #7E7C6E",
"R  c #7B7672",
"E  c #7F7C72",
"W  c #807F6F",
"Q  c #807F71",
"!  c #7D8203",
"~  c #7D810D",
"^  c #7F8312",
"/  c #7E803B",
"(  c #7E8142",
")  c #82860D",
"_  c #818412",
"`  c #818527",
"'  c #818145",
"]  c #8A8B4F",
"[  c #83825C",
"{  c #858463",
"}  c #858469",
"|  c #818072",
" . c #8B8A72",
".. c #85837B",
"X. c #89877B",
"o. c #8A897D",
"O. c #868481",
"+. c #8A8781",
"@. c #8D8B83",
"#. c #8A8788",
"$. c #8D8A89",
"%. c #908D84",
"&. c #918F8B",
"*. c #939087",
"=. c #93918B",
"-. c #928F90",
";. c #96919B",
/* pixels */
"X + X O O O O   . . . . . . . . . . . . . . . . . . o o . X X X + + X X   X X   X     X . . o X O X ",
"- - ; ; - - ; a ( ( / / / / ( ( / / / / ( / o ~ o ~ * & d Z c v x v c z z z z z z z z z l N c p - * ",
"- - - - - * 7 { O.R O.( ( E E #.#.( ( R O.( o ! ! ! & 7 J R ( #.| Q | | Q Q Q Q | E Q Q O.O.O.P 7 = ",
"- - - - * a { ..O.O.O.O.E O.O.( O.O.E O.O.O.( / & & / ( ( O...O.| | ..| | ....| ....Q ..#.( ..O.( / ",
"- - * * 9 [ #...( O.O.E R O.O.R R R E E ( #.#.( * & ( #.;.( #.O.| | Q | | | | Q E | ..R ( #.( #.#.( ",
"- - * 8 } o.| E | | O.R E O.( O.( O.R O.O.#.O.( * & ( O.O.R ..R | | | | | | | | | | E O.R O.E O.O./ ",
"p ( G H ( #.( #.| Q O.R E O.( #.O.O.( R R O.O.( * * c O.O.O.( #.| | | | Q | | | ( E E #...#.O.O.X./ ",
"/ #.#.O.#.E E ..Q Q R O.O.( | R O.R O.O.E O.O.( * - / O.O.R R O.| Q | | | | | | #...E ( R ( R O.X.v ",
"/ O.O.( R O.( R R O.O.R O.( O.O.( R #.( ( ..O.Z - * / O.( R ( #.| | | Q | | | | Q Q Q Q Q Q Q #.o.v ",
"c X.#.#.R O.#.O.O.( ( O.E R O.R #.O.O.R #...O.( - * / +.-.O.R O.| | | | | | Q | Q ..Q Q Q Q Q Q o.v ",
"Z #.O.R ( O.O.( #.( O.O.O.O.E O.O.R O.R O...O.( * * / +.#.R ..R | Q W ..} Q Q | ..W Q Q Q Q Q #.X.c ",
"Z #.#.( O.R O.O.O.O.R R ( O.E #.O.E #.( R ..O.Z - * / @.-.#.#.( | Q Q Q Q Q | | Q Q X.Q Q Q Q Q +.v ",
"x O.O.R ( #.R R R E O.( O.O.E ( ( R R O.( #.#.Z * * H ( O.O.( #.Q Q Q Q | | | Q | | | | Q Q Q o.X.v ",
"v X.#.O.R O.O.#.O.E R R O.R | | O.O.#.( R O.#.H * ; j S m K #.-.W W Q Q | | | | | Q | | Q Q Q #.X.v ",
"v o...( O.#.O.( ( R O.O.( R O.E R O.O.R O.#.O.( ; ; 1 r e h R O.@.o.X.| W W Q Q W | | Q Q Q Q +.+.v ",
"v o...E R ( R ..O.O.( O.O.O.R E R O.( O.( ..+.( * & & ! * 1 w U %.*.o.| | Q | | | | | | Q Q Q Q X.v ",
"x O.#.O.| Q | | | | Q Q | W | | O.O.R R ( ;.#.( & * - ! * - 5 N L K Y %.*.%.%.&.%...W Q Q Q Q +.X.v ",
"v O.O.( | | | | | Q Q } | | | | ( O.( O.Y Y O.N * - - - * - ; 1 q 0 V | ......Q Q X...Q Q Q Q +.X.v ",
"v X...E | | Q | | | | | | | | | O.( #.O.F M B i - - - - - - - - = - t B m B B n D Q %.Q Q Q Q +.X.v ",
"v X.O.E } | | | | Q | Q | | | | O.O.R K g 3 r 1 - - - - - - - - - ; ; t y r r 2 y G Q X.Q Q Q O.+.v ",
"v o.o.E | | | | | | | | Q Q | | R O.P f = ! ! & - - - - - - - - - - - - ; ; - ; - 0 D X.o.Q Q Q X.v ",
"v @.o.T Q W W W Q Q Q Q Q Q Q ..( K b o & ! & ! - - - - - - - - - - - - * - * ; : # c o.+.W Q +.%.v ",
"l Y Q +.o.o...o.o.o.o.o.X.o.X.Q U w o ! & & ! * - - - - - - - - - - - - ; ; ; ~ ) ; 8 I Q o.+.Q Y l ",
"4 M E -.%.%.%.%.@.%.@.@.%.&.@.L n 3 ~ & ! & & * - - - - - - - - - - - - * ; ~ _ ~ : % b Q -.-.Q n t ",
"* t C U L P P P P P P P P U L k = - - - - - - - - - - - - - - - - - - - ; , _ , * - - 1 V U U G t - ",
"; ; r q f f f f f q q f f q f % - - - - - - - - - - - - - - - - - - - - ; < ^ ; # * - ; 4 w w y - - ",
"- - - * # # * # * * & % & & * = * - - - - - - - - - - - - - - - - - - - ; < < , * * - - - 5 > - - - ",
"* * p ( ' A ` v / / ( ( / / ` A / - * - - - - * * - - - - - - - - - - - ; * * ; ; - - - - - ; - - - ",
"- 7 ( @.X.o.X.X.O.o.o.;.o...o.$.( p * - - - - * - - - - - - - - - - - - * @ @ * - - - - - - - - - - ",
"d } $.O.+.+.o.+.@.O.o.( O.o.o.O.$.X./ - - - - ~ ~ ; * - - - - - - - - - * * * - - - - - - - - - - - ",
"( -.$.X.X.X.X.X.-.#.X.X.X.X.X. .@.;.[ - * - * ~ ^ ~ - - - - - - - - - - ; - - - - - - - - - - - - - ",
"/ %.+. .X.X.X.X.( X.X.X. .X.X.X.+.;.( * * - * ; ~ , ; - - - - - - - - - ; * - - - - - - - - - - - - ",
"/ %.@.X.O.O.( #.( ;.-.#.O.;.#.#.X.] ` : ; ; - * * , < - * - - - - - - - - - - - - - - - - - - - - - ",
"/ @.+.X.#.-.-.#.O.#.( O.O.( o.O.} ^ ! _ < ; ; @ @ ; ; * - ; - - - - - - - - - - - - - - - - - - - - ",
"/ %.@.X.O.( O.O.( O.O.#.O.#.#.( D C z ^ ~ , , & o @ & - < ^ ^ < , ; - - - - - - - - - - - - - * - - ",
"/ %.@.X.#.;.( #.-.#.( ;.O.#.( ( g j i ; : ~ , ; @ o # ; < _ ^ ^ ; - - - - - - - - - - - - - - - - - ",
"/ @.-.O.( -.( -.#.-.O.#.#.( ^ ^ ~ ; & @ ; < : ; * @ & , , ~ ^ < - - - - - - - - - - - - - - - - ; - ",
"/ %.;.( O.#.O.O.O.( @.#.( F & ~ ) ; ; * & * ~ , - ; > < < : ; ; - - - - - - - - - - - - - - - - * - ",
"/ o.@.X.O.#.O.#.( -.( O.C t ~ ! ~ , ~ , & @ > * - , < < , - - - - - - - - - - - - - - - - - - - - - ",
"/ @.@.X.( ;.( -.#.#.Y C 6 * & o & , ~ > ; * @ @ @ , ^ , * @ - - - - - - - - - - - - - - - - - - - - ",
"/ @.;.$. .X. .X.@.@.( u = ! * & @ & , ~ ; * # o @ & * * & & - - - - - - - - - - - - - - - - - - - - ",
"/ $.#.( X.X.X.X.@.&.( * * * - - * @ * , ; ; - & @ @ @ @ * ; - - - - - - - - - - - - - - - - - - - - ",
"/ @.@.X.X. .X.o.&.;.( * * - - - - * & & * ; : , > * * * - - - - - - - - - - - - - - - - - - - - - - ",
"/ @.@.X.X...o.| ( #.H & - - - - - - * @ & ; ~ < ; ; - - - - - - - - - - - - - - - - - - - - - - - - ",
"/ @.@.X.X.o.X.J D F s - - - - - - ; * * * , ^ - @ * ; - - - - - - - - - - - - - - - - - - - - - - - ",
"/ =.=.o.o.| I g 4 i 5 - - - - - - - ; ; ; - > & & * - - - - - - - - - - - - - - - : ~ : , ; ; - - - ",
"Z O.o.( ..I j 5 - - - - - - - - - - - - - * @ # ; - - - - - - - - - - - - - - - - ~ _ _ ~ , - * - - ",
"s K U R L k > - - - - - - - - - - - - - - * - * * - - - - - - - - - - - - - - - : < < ) < ; - - - ; ",
"6 u g g g 6 ; - - - - - - - - - - - - - - - - - - - - - - - - - - - - - - - - - < < < > ; * ; ; * ; ",
"X X o X X X + X + + + + + + + + + + + + + + + + + + + + + + + + + + + + + + + + $ $ +   X X X X X X "
};
