/* XPM */
static char *result[] = {
/* columns rows colors chars-per-pixel */
"50 50 85 1 ",
"  c #6C6D05",
". c #67670F",
"X c #67680D",
"o c #696A0D",
"O c #6E7400",
"+ c #6F720F",
"@ c #717500",
"# c #737800",
"$ c #72760E",
"% c #74790D",
"& c #676811",
"* c #6B6C11",
"= c #68671E",
"- c #6D6E1B",
"; c #737710",
": c #757915",
"> c #70711E",
", c #757A1A",
"< c #5F583E",
"1 c #635D3B",
"2 c #676522",
"3 c #686626",
"4 c #696A26",
"5 c #65622C",
"6 c #6C6B2D",
"7 c #6F7122",
"8 c #767924",
"9 c #76772B",
"0 c #787B2B",
"q c #6A6733",
"w c #6D6B33",
"e c #66623C",
"r c #6A663E",
"t c #797C31",
"y c #77793B",
"u c #7A7C3F",
"i c #635E42",
"p c #625D4A",
"a c #696441",
"s c #66624C",
"d c #777943",
"f c #7C7E41",
"g c #7F7F48",
"h c #666051",
"j c #6B6454",
"k c #6F6A54",
"l c #6D685F",
"z c #706A53",
"x c #716B5B",
"c c #7D7D54",
"v c #7D7E5A",
"b c #726C66",
"n c #787361",
"m c #7C7C66",
"M c #77716A",
"N c #7C756E",
"B c #7D7C6E",
"V c #7B7572",
"C c #7E7D75",
"Z c #7F7D79",
"A c #817F6B",
"S c #807F72",
"D c #827F78",
"F c #7F8045",
"G c #7F804E",
"H c #7F8069",
"J c #80824B",
"K c #808057",
"L c #838361",
"P c #83836B",
"I c #818072",
"U c #898575",
"Y c #85837B",
"T c #888779",
"R c #8B8A7C",
"E c #908F7F",
"W c #878480",
"Q c #8A8782",
"! c #8C8A84",
"~ c #8E8B8A",
"^ c #908E86",
"/ c #918D8A",
"( c #96938B",
") c #99978E",
"_ c #999790",
/* pixels */
"@@@@O@@@#OOOOOOOOOO@@O@O@@OO@@@@O@@OOO@@OO@@@@@O@@",
"@@@%;$$$%%;;;;%%%;;%;%@#@@#@$$$$;;;$$$;;;$$+$$$@@@",
"@@OtPLLLHGGHLHKHLLLLPGOO@#OOgmvvvvvvAcvvgAAAvAu@O@",
"O%tP~!!!~~~!!!^!!!!!~TF:@O:fSWDDZWDYDDDDDDDAYDAt$@",
"O0R!YTTT!RTTTRRRYTTTTR~J@OfQYSSISSIIIISISSISIPYYtO",
"O0^(UYTTHRTTT!H!TTTTYR(J@Of!DSIISPIISIIISSIISSQQt@",
"O0R!TTTT!RTTTTTHTTTTYR~G@OuQYASIIIIIIIIIIIIISSYRt@",
"O0R!TTTTHTTTTTTTTTTTTR(G@ fQYSIISIISIISISIISISYYt@",
"O0R!UUTTTTTTHRRTTTTTT!/J@OuQYSSIIISIISIIIISISSWUtO",
"O0R^UTTTTTTTTTRTUTTTTR/JOOfQYAIIIIIIIIISSIIISSYTtO",
"#0E!TTTTTTTTTTTTTTTTUR/J OfQYSISISSIIIPIIIIIISQTt@",
"O0R~TTUTTTTTTTTTTTTTYR^G@OuQYSIIIIIIISSSIISIISYT0O",
"O0R!TTTTTTHRRTTTTTTTTR^J@OfQISSSIIIIISIISIISISYRtO",
"O0E~TTTTTTTTTTTTTTTTYR/J@OuQYSIIISAIIIISIIIISSYYt@",
"O0R!TTTTTTTTTTTTTTTTUREfOOuQYSIIIIIIIIIISPIISSYTtO",
"O0E!TTTTTTTTTTTTTTTTUR^AOOfQYAISIISIISISSIISSSWTtO",
"O0R~UTTTTTTTTTTTTTTTUR/GOOu!YHHHISIISIISIISISAYTtO",
"O0R^TTTTTTTTTTTTTTTTYR/GOOuQYHHYIIIIIIIIIIIIISQTtO",
"O0R^UUTTTTTTTTTTTTTTRR(FOOFQWHHWSISSIIIISIISISYTtO",
"O0R^TYTTTTTTTTTTTTTTYR/GOOuQWZHZIIISAIISIIIIIDYTt@",
"O0E^YTTTUTUTUTUYHRYUYR(G@OA^HCHHSSSACHHHPSSIPSY!tO",
"O0R^YTTTTTTTRTTTTRRYTR/G@@0QWZCYSSIUIZWHISISSSYU0#",
"O>kW)((((((()(((((((_/Mw@@6bY^~^^^^^^!RQ!Y!Q!^Wx7#",
"O+5n!RYTYTTTYYQRRQRR!Ha&#@*eBYYYDUDDDSCCSDSDSDn1+#",
"##@whssssssssszzzzkkja+#@@#+rhssssssppppppppppq$O@",
"#O@O&&o&oo&ooo****o*& @##@## &o&XX&XXoXXXXX... @#@",
"O#O%,,,,,,,,,,,,,,,,,,@@@@@@:,,,,,,,,,,,::,,,,;@@@",
"#OOfHHHHHHHmmHHBAAPBSv;O#@@%cCmmmmmmmmmmmmmmmCd@O#",
"@,fAWWWZYDYYYYDYIYDYWHH8@O8cHZCCHZZCCCCCCCCCCCBf,#",
"O0Q!HHYHIICICISIIISSHY~gOOfWYBBCBBBBBBBBBBBBBBZYtO",
"O9TQHIZCIISSSIIIIISIZY!FOOyDCBBBBBBBBBBBBBBCBBDItO",
"@8UWZIIISIISPISIISIIHI!GOOuYCBBBCBBBBBBBBBBBBCDItO",
"@8UQPSIIIIIIIIIIIISICY!gOOfYHBCBBBBBBBBBBBBBBBHHtO",
"@9UYCIISSISIISIAIIIIII!fOOdYCBBBBBBBBBBCBBBBCBZWtO",
"@8UWSIIIIISIIIIIISSIHY!FOOdYCBHBBBBBBBBBBBBBBCZY0O",
"@9UQSAIIIIIIICIIIIIIIIQGOOdYZBCBBBBBBBBBBBBBBZHYtO",
"@9UQSSISIIIIIIPCIIIIII!fOOuHHZBBBBBBBBHCBBBBBBHHtO",
"@8UYSIIIICPIIIIIHISICY!FOOFYHCBBBBBBBBBBBCBBBBZW0O",
"@8UWSIIIICIICIIIIIIIIYQGOOuWZVCBBBBBBBBBBBBBBCZYtO",
"@9UQSIISIPIIIPCIIIIIHIQgOOuYHZBBBCBBBBBBBBBBBZHYtO",
"@9UQCIICCIICIIIIIIIICI!gOOfWDBBBBBBBBBBBBBBBBBHHtO",
"O8UWIIHYIIICPCIIICIIHYQFOOuYSBBBBBBBBBBBBBBBBBHW0O",
"@9UWHICHIIIPHIIIYCHHIYQFOOuYDNBBBBBBCBBBBBBBBBWZtO",
"@8TWSIYHIIIIIIIIHZYYHYQGOOuYCBBBBBBBBBBBBBHCBCZY0O",
"@8UQHHHZICHISIIIHHYHHYQGOOuYSBBBBBBBBBBBBBBBBBCItO",
"O0RQHHZYHYHHSSPCHHZCCI!GOOFWSBBBBBBBBCBBBBBBBBYYtO",
"@8AWUYYYYYYYYUYIYYUYUYWdOOyZDSSSIICHIHIICPIBSIZB9O",
"#-sD^^^!(!^^!!(!^^^!(Yl6##4hD^!RQ!Q!R!!Q!Q!!!!Zp-#",
"# =zSNNNNNNNNNNNNNNNDxw ## 5xVbMMMnMMnMMnMMnMMk2O#",
"@##4i1111ee1e1a1i1a1i1$#@##@1111111<<11<1<<1<<3##@"
};
