/* XPM */
static char *result[] = {
/* columns rows colors chars-per-pixel */
"50 50 116 2 ",
"   c #515500",
".  c #5A5C06",
"X  c #57580E",
"o  c #585810",
"O  c #5E6200",
"+  c #606400",
"@  c #646E00",
"#  c #6C6F05",
"$  c #6A6C0A",
"%  c #657000",
"&  c #6D7401",
"*  c #6E710B",
"=  c #717600",
"-  c #737901",
";  c #797E02",
":  c #73760B",
">  c #757A0A",
",  c #797D0B",
"<  c #6C6D14",
"1  c #626319",
"2  c #676819",
"3  c #6A6A1C",
"4  c #6F7111",
"5  c #757714",
"6  c #757A16",
"7  c #74771F",
"8  c #767A1B",
"9  c #7A7D1B",
"0  c #5E5938",
"q  c #605E2A",
"w  c #625F33",
"e  c #625C3F",
"r  c #646126",
"t  c #6A6A24",
"y  c #65622D",
"u  c #68662E",
"i  c #6F6C2D",
"p  c #6F7025",
"a  c #747724",
"s  c #757923",
"d  c #797D21",
"f  c #76782C",
"g  c #656231",
"h  c #686537",
"j  c #6B6836",
"k  c #6B6739",
"l  c #6E6B39",
"z  c #706F38",
"x  c #737434",
"c  c #767932",
"v  c #797B35",
"b  c #75793E",
"n  c #7B7D3B",
"m  c #625F46",
"M  c #645E48",
"N  c #67614D",
"B  c #6A654A",
"V  c #706A4B",
"C  c #7B7D42",
"Z  c #76774A",
"A  c #78754F",
"S  c #7A7B4C",
"D  c #6B645B",
"F  c #6F685C",
"G  c #726D54",
"H  c #736E5C",
"J  c #7D7D53",
"K  c #77745B",
"L  c #7B7B5D",
"P  c #6F6960",
"I  c #726C63",
"U  c #736D6B",
"Y  c #767164",
"T  c #797563",
"R  c #7D7C62",
"E  c #7A756D",
"W  c #7D7C6D",
"Q  c #7B7673",
"!  c #7E7C73",
"~  c #7E7D7A",
"^  c #807E67",
"/  c #807E69",
"(  c #807F72",
")  c #827E7A",
"_  c #7E8204",
"`  c #7D810D",
"'  c #7F8311",
"]  c #7D803E",
"[  c #7E8041",
"{  c #80820D",
"}  c #848446",
"|  c #848453",
" . c #82825C",
".. c #88885C",
"X. c #8A8866",
"o. c #86846D",
"O. c #88866F",
"+. c #8B8A6A",
"@. c #818072",
"#. c #898673",
"$. c #8C8A74",
"%. c #85847A",
"&. c #888779",
"*. c #8B897D",
"=. c #7F7D80",
"-. c #868383",
";. c #8A8682",
":. c #8C8A82",
">. c #89848E",
",. c #8C898A",
"<. c #908D86",
"1. c #908C8A",
"2. c #939287",
"3. c #94928B",
"4. c #958F90",
"5. c #979596",
/* pixels */
"  + + . o X X X X X X X X X X X X X X X X . O O O O O O o X X X X X X     %     %     %   O %   @ O ",
"O = & 6 9 9 6 9 8 ' ' 8 ' 8 ] [ 6 ' 6 8 ] ' % _ _ & & : ' s 8 ' ' ] ' ] ' ' ] ] ] ` ] ' ] j _ % % _ ",
"+ = : [ &.o.o.O.o.o.o.o.[ *.[ [ [ &.[ -.[ [ & & % & & C >.[ [ [ [ =.[ ~ [ ~ [ [ [ ~ [ [ =.[ % ` _ _ ",
"+ 8 | &.:.:.:.:.;.;.;.*.>.>.5.>.5.:.,.>.,.O.[ 4 & > ] [ =.=.>.>.=.=.>.>.=.=.>.=.>.=.=.=.>.[ [ ' % % ",
"O [ 3.:.%.&.&.&.&.&.&.&.&.&.&.&.-.-.&.&.&.3.*.' % 6 [ ,.=.=.=.[ ~ [ >.[ >.[ [ =.=.~ [ >.=.=.:.[ % % ",
"O n 3.:.&.&.&.&.&.&.&.&.#.&.&.&.&.&.&.&.&.,.&.8 % ] ,.-.[ >.=.>.=.>.=.~ =.=.>.=.>.[ =.=.[ -.-.] _ % ",
". ] :.:.%.&.&.&.&.&.&.&.&.&.&.&.&.&.&.&.[ 4.*.p & 6 -.-.=.>.[ >.=.[ =.>.=.[ [ >.=.>.=.=.>.=.:.] % & ",
"O ] :.*.&.&.&.&.&.&.&.&.&.&.&.&.&.&.&.&.>.5.&.' & 6 =.>.[ [ =.=.>.[ =.[ =.>.~ =.~ [ =.[ =.=.:.] & & ",
". n <.*.#.&.&.&.&.&.&.&.&.&.&.&.&.&.&.&.&.:.#.8 & 5 o.;.( ( ( ( >.=.[ =.[ >.[ >.>.[ [ =.[ -.[ ] & & ",
"O ] <.*.&.&.&.&.&.&.&.&.&.&.&.&.&.&.&.&.&.,.$.8 & 6 o.;.( ( @.@.[ =.>.=.[ =.=.>.=.=.>.=.>.>.>.] _ % ",
". n <.*.&.&.&.&.&.&.&.&.&.&.&.&.&.&.&.&.&.,.$.8 & 5 o.;.o.( @.( >.=.[ =.>.[ >.[ =.[ [ >.=.=.*.] & = ",
"O } <.:.&.&.&.&.&.&.&.&.&.&.&.&.&.&.&.&.&.3.$.8 & 5 o.%.! @.@.@.[ =.>.=.=.~ =.~ =.>.=.=.[ -.=.] = = ",
"O n <.*.&.*.#.&.&.&.&.&.&.&.&.#.&.&.&.&.&.<.$.8 & 5 o.;.[ ~ @.@.=.[ >.>.>.[ >.[ [ =.[ >.>.=.>.] = & ",
"O ] <.*.&.&.&.&.&.&.&.&.&.%.&.&.&.&.&.&.&.1.$.8 & 5 o.;.>.~ ( @.=.>.=.[ =.=.=.=.>.=.[ =.[ =.,.[ % _ ",
"O n <.*.&.&.&.&.&.&.&.&.&.&.&.&.&.&.#.&.&.,.$.8 & 5 #.;./ ! ! @.=.[ =.>.[ >.[ >.[ =.>.=.>.>.[ ] & = ",
". ] <.*.&.&.&.&.&.#.&.&.&.&.&.&.&.&.&.&.&.1.$.8 & 5 K ) :.*.*.&.=.=.[ [ =.=.=.=.>.>.[ =.[ >.>.] = = ",
"O ] <.*.&.&.&.&.&.&.&.&.&.&.*.$.&.&.&.&.&.:.$.8 & * g Y :.<.:.:.@.@.@.[ >.~ >.=.=.=.[ >.>.=.>.] = = ",
"O n <.:.#.&.&.&.&.&.&.&.&.&.$.*.:.-.:.;.:.@.G 5 = = * l P P D Y *.:.o.! [ ~ [ =.[ >.=.=.[ =.,.] = & ",
". n :.:.&.&.&.&.&.&.&.&.%.&.*.X.[ ..|  .@.G t * = = - 4 y u r g T -.*.@.>.[ >.>.[ =.[ >.>.>.[ ] & = ",
"+ n ;.&.&.&.&.&.&.&.%.$.%.<.$.^ ; ` _ ' V i - = = = = = = & - : g I :.&.~ ~ =.[ >.>.[ =.[ >.>.] = = ",
"O n ,.:.&.&.&.$.#.&.&.#.1.<.( G z ` _ ; a 5 = = = = = = = = - = * j I ;.:.o.W @.=.=.[ >.[ >.:.[ & & ",
"+ s  .*.2.*.*.<.<.*.<.:.;./ j k x 6 ; , _ = = = = = = = = = = = - # y T -.&.*.*.-.-.&.&.>.>.Q ] = = ",
"+ & : +.5.3.3.2.3.2.3.3.( k : - & % & ` , = = = = = = = = = = = = = : y I :.,.:.:.:.:.:.,.[ P t = = ",
"+ = = A Q E E E E E E E z # = = = & & % % & = = = = = = = = = = = = = * j I U I I I I I U H h % = = ",
"+ = = i k k k j j j k k 5 = = = = - & % % & - = = = = = = & = & & = = = * r g g u u g y g t - = = = ",
"+ = = = : = : = : - = = = = = = = = = = & = = = = = = = = - - > = * - > : * = = * & * : : = = = = = ",
"+ = = = - = = - = = = = = = = = = = - = - = = = = = = & * Z L Z Z S A Z [ ..d & = = = = = = & & = = ",
"+ = = = = = = = = = = = = = = = = = = & = = = = = = = > b =.=.[ ~ ~ ~ %.>.~ c & = & = a a f f 5 = = ",
"+ = = = = = = = = = = = = = = = = = = = = = = = = = & ] %.>.=.~ Q W W :.Q M 3 ; = & s W W W %.b = = ",
"+ = = = = = = = = = = = = = = = - ` ' ; = & & = = & & Z >.[ Q E W @.:.E B 3 & = = c ~ [ ~ %.-.n & = ",
"+ = = = = = = = = = = = = = = & = ' ' ' & = = = = = & ] %.[ [ =.@.%.( B 1 = = = = J =.~ W ! &.n - = ",
"+ = = = = = = = = = = = = = = = = - , ' ` > _ = = = * ' ' ' | ,.:.W N 3 = = = & * Z ~ ! W ~ %.] = = ",
"+ = = = = = = = = = = = = = = = = = & = , , ; = = = = ; { p B I U B 2 = - = & 5 J R ! W W [ >.S = = ",
"+ = = = = = = = = = = = = = = = = = # + > > > = = - ; { 9 h 0 w 0 t = - & = > C -.) W W W @.-.C = = ",
"+ = = = = = = = = = = = = = = = = = = & @ @ @ & - , > > > : * # # : = - = = J %.! W W W W ) -.n = = ",
"+ = = = = = = = = = = = = = = = = = - = & @ @ = , ' , = & = - - = = = & 6 S @.~ W W W W W ! %.n & = ",
"+ = = = = = = = = = = - = = = = = = = = - - - = = > > & @ & = = 5 7 8 : C -.%.W W W / W W ! %.n = = ",
"+ = = = = = = = = = = = = = = = = = = = = = = = @ @ @ @ = = = > A W R L R ~ W Q W W Q W W ~ %.n = = ",
"+ = = = = = = = = = = = = = = = = = = = = = = - & @ @ = = = 7 S W ~ ! ~ ! W W W W ( W W W ) %.n = = ",
"+ = = = = = = = = = = = = = = = = = = = = = = = - = - - = & C -.) W W W W W W W W W W W W ) %.b & = ",
"+ = = = = = = = = = = = = = = = = = = = = = = = = = = = = = ^ ) ) W W W W W ! W W W W W W @.%.n = = ",
"+ = = = = = = = = = = = = = = = = = = = = = = = = = = = = - v <.( W W W W W W Q W W W ! W ) %.n = = ",
"+ = = = = = = = = = = = = = = = = = = = = = = = = = = = = = n ) ) W W W W W W / ! W W W W ) %.n & = ",
"+ = = = = = = = = = = = = = = = = = = = = = = = = = = = = - t D &.&.W W W ! W W W W W W W ) %.b = = ",
"+ = = = = = = = = = = = = = = = = = = = = = = = = = = = = = $ w H ) %.( W W E W / E W W W ) *.n = = ",
"+ = = = = = = = = = = = = = = = = = = = = = = = = = = = = = - = q F *.@.W ( / ( ( ( / ( W ( ) b = = ",
"+ = = = = = = = = = = = = = = = = = = = = = = = = = = = = = - - & u D ) 1.<.:.<.:.;.:.:.<.) D t - = ",
"+ = = = = = = = = = = = = = = = = = = = = = = = = = = = = = = - - # y H Q E E E E Q Q E ( H q $ = = ",
"+ = = = = = = = = = = = = = = = = = = = = = = = = = = = = = = = = - = g M e e e e e e e m q : - = = ",
"+ = = = = = = = = = = = = = = = = = = = = = = = = = = = = = = = = = = * 2 < < < < < < < < 4 = = = = "
};
