/* XPM */
static char *result[] = {
/* columns rows colors chars-per-pixel */
"50 50 105 2 ",
"   c #5F6C00",
".  c #646D01",
"X  c #6D6F06",
"o  c #646C0A",
"O  c #6C6E0A",
"+  c #677100",
"@  c #6E7400",
"#  c #6D720E",
"$  c #717601",
"%  c #747A01",
"&  c #797E02",
"*  c #72770A",
"=  c #73780A",
"-  c #797D0B",
";  c #6E6F13",
":  c #65641D",
">  c #6B6B1D",
",  c #727613",
"<  c #747915",
"1  c #7B7E13",
"2  c #74761A",
"3  c #75781A",
"4  c #605C36",
"5  c #635E3A",
"6  c #666525",
"7  c #6A6A22",
"8  c #64622C",
"9  c #67682D",
"0  c #6B6A2B",
"q  c #6B742F",
"w  c #747722",
"e  c #777A24",
"r  c #787C25",
"t  c #73772C",
"y  c #767A2D",
"u  c #787C2E",
"i  c #646431",
"p  c #6C6A33",
"a  c #636038",
"s  c #6E6C3D",
"d  c #797C31",
"f  c #7B7D3B",
"g  c #666143",
"h  c #6B6741",
"j  c #6E6E46",
"k  c #67614B",
"l  c #6B664A",
"z  c #6F6C4C",
"x  c #727343",
"c  c #7C7D45",
"v  c #74784A",
"b  c #7B7C4C",
"n  c #6B6555",
"m  c #6B645A",
"M  c #746F54",
"N  c #726E5C",
"B  c #7C7D55",
"V  c #74715E",
"C  c #7D7D5C",
"Z  c #6A6664",
"A  c #736E67",
"S  c #736D69",
"D  c #7D7C64",
"F  c #767069",
"G  c #79736C",
"H  c #7D7C6E",
"J  c #797372",
"K  c #7E7D72",
"L  c #7E7D79",
"P  c #817F56",
"I  c #807E5D",
"U  c #817E6D",
"Y  c #807F71",
"T  c #817D7C",
"R  c #7C8202",
"E  c #7D810C",
"W  c #7E811B",
"Q  c #7E8122",
"!  c #7E8049",
"~  c #7F8059",
"^  c #808300",
"/  c #80830F",
"(  c #808245",
")  c #808051",
"_  c #83825A",
"`  c #828164",
"'  c #898862",
"]  c #85846C",
"[  c #818072",
"{  c #898674",
"}  c #8A8974",
"|  c #85827C",
" . c #89857B",
".. c #8B897D",
"X. c #868582",
"o. c #8A8685",
"O. c #8D8B82",
"+. c #898589",
"@. c #8D898A",
"#. c #908E85",
"$. c #918D8F",
"%. c #93918A",
"&. c #898693",
"*. c #8D8990",
"=. c #928E91",
/* pixels */
"$ @ , d d u u u u u u u u u d u u u u u d 3 @ $ $ $ $ $ r d d u d d u u u u u u u u u u u d u $ @ $ ",
"$ $ c Y | Y [ Y Y L [ [ [ [ [ [ [ [ [ [ T b * $ $ $ @ 3 D | [ [ [ Y [ [ [ [ [ U [ [ [ [ Y | U y $ $ ",
"3 B ] | | T [ | X.X.T X.T [ | [ Y | | Y X.| ) e @ $ d ` [ | | Y | Y Y | | [ | | Y | | Y [ | Y ] f $ ",
"r ..+.[ U [ Y Y T ~ L ~ [ [ U [ Y [ [ Y ~ o.@.d @ $ _ *.| Y [ [ [ Y [ L U [ Y Y Y Y [ Y [ K | *.` $ ",
"e { X.K Y [ [ [ X.L ~ L +.~ T T [ Y Y [ U X. .d @ $ ) o.| [ [ [ [ [ [ | [ [ L X.| U [ [ Y Y [ @._ $ ",
"e { X.] Y [ [ [ ~ L +.L L X.~ ~ Y | [ [ K .. .d @ $ ) +.[ U ~ [ [ [ [ ~ [ [ L ~ [ [ Y Y Y [ [ @._ $ ",
"e { X.[ K [ ] K ~ X.T T ~ X.L L Y [ [ [ K X. .u @ $ ! o.X.~ | L L L [ [ [ [ [ [ [ Y [ ] [ U H X._ $ ",
"e { X.K [ [ [ Y T X.~ ~ L L +.~ [ [ Y [ Y  . .u @ $ ~ +.| K [ [ X.~ [ L | ~ [ L [ [ Y | O.G n Z z $ ",
"e { X.~ L ~ T X.T T ~ X.~ X.L L ] [ K [ K | ..u @ $ ) o.| K [ [ [ [ [ ~ | L ~ | [ [ U | ..Y N h > $ ",
"e ] &.~ L X.T ~ ~ X.~ L T X.~ X.K [ [ [ [ X. .u @ $ ) @.[ ] K [ [ [ [ [ [ [ [ [ [ [ [ [ Y X.{ r @ $ ",
"e { &.~ T ~ X.~ ~ L X.L T ~ L X.[ ~ [ [ K  . .u @ $ b o.| L [ [ [ K [ [ ~ L [ [ Y [ Y [ Y o.} < @ $ ",
"e { &.T T ~ L L X.L X.~ T ~ L ~ L | [ [ Y X...u @ $ ) o.| ~ [ [ [ [ [ L X.L [ [ [ [ Y Y Y | ] P < $ ",
"e { X.~ T ~ X.L L ~ +.L L ~ X.L [ X.L ~ [  . .u @ @ ) @.[ ~ +.L ~ X.L L K ] [ [ [ [ [ [ [ [ [ X.) $ ",
"e [ &.X.L +.~ L L X.~ +.T T ~ L [ ~ L X.K X. .u @ $ ) o.| ~ ~ L [ [ ~ X.~ [ [ L H [ [ [ [ [ [ @.` * ",
"e { X.~ L ~ +.X.L T | ~ ~ ~ X.X.[ [ L [ [  . .d @ $ ! o.| L X.L | L ] [ X.L X.L [ L [ [ [ K | o._ $ ",
"e { X.~ ~ T L ~ ~ T ~ T X.T T ~ K [ [ [ K  . .u @ $ ~ o.[ L X.~ ~ [ K [ [ L ~ [ [ | ~ [ K ] [ o._ % ",
"e { X.Y Y [ [ [ [ [ L L [ L [ [ [ [ [ [ ~ +.X.u @ @ ) o.{ ~ X.L [ [ [ Y [ [ | L [ ~ X.L Y Y | o._ $ ",
"e { X.Y Y [ Y [ [ [ [ X.[ | ~ [ [ [ ~ [ K X...d @ $ ) o.[ [ ~ [ U | [ [ Y [ ~ [ [ [ [ L Y Y [ o._ $ ",
"e { X.Y Y [ Y Y [ ~ L ~ ~ X.[ [ +.~ X.T | o...d @ @ ) o.[ [ X.L Y Y Y Y [ [ [ [ [ [ [ [ Y Y Y o._ $ ",
"e } o.Y U Y Y Y ~ T L +.~ L [ K ~ T ~ ~ ~ ` H u @ $ ) @.| K K K Y Y Y Y U [ U [ K K ] H Y U | o.I $ ",
"e { X.K Y Y Y Y X.[ [ ~ [ | [ [ +.T ! E E q k 7 $ $ P o.[ ] ~ | Y Y Y Y Y Y Y Y [ [ [ [ [ [ Y +._ $ ",
"2 N Y @.#.O.O.O.*.@.' ! d ` @.@.| b W R @ o > # $ $ s J o.#.O.@.O.#.#.O.@.O.O.O.O.O.O.o.O.O.#.=._ = ",
"O i V X.o. . ...X.X.( E % Q } @.~ E R E + + $ $ $ $ : k Y o.X.X. . . . ... ... ... . . ..... .+.P * ",
"$ $ p m n n n n m m 9 + & E Q l l < R - $ @ $ $ $ $ $ w l m n n m n n n n n n n n n n n n n n m s $ ",
"$ % X : : : : : 6 : . . @ % % > 0 - $ @ $ $ $ $ $ $ % $ > 8 6 6 6 : : : : : : : : : : : : : : 6 > $ ",
"$ $ $ = = = = = = = , , . . - R & = @ . @ $ $ $ $ $ $ $ $ $ % $ $ * * = = $ * # = = * # = = * $ $ $ ",
"$ @ y I C B B B B B D B o + - E % + . @ $ $ $ $ $ $ $ $ $ $ $ $ * B C B B B B B B B B B B C b * $ $ ",
"= r I | X.| | | | | X.[ x # $ % % . X $ $ $ $ $ $ $ $ $ $ $ $ , v L L L L L L L L L L L L L K b 2 $ ",
"e { +.L Y Y [ [ [ [ ~ [ | v . @ - $ $ $ $ $ $ $ $ $ $ $ $ $ $ B L H H H K H H K H H K H H H H T B $ ",
"t ..+.~ Y Y Y [ [ [ | L | H v b b B B c * $ $ $ $ $ $ $ $ 2 B H L H H H H H H H H H H H H H K X.I $ ",
"e { o.K Y [ [ [ [ [ [ [ U [ X.| T | X.Y u < w * $ $ , w 2 v L K H H H H H H H H H H H H H H L X.~ $ ",
"w { o.Y Y Y [ [ [ K [ [ [ [ [ [ [ [ [ [ U | ] y @ $ P Y D D K H H H H H H H H H H H H H H H K X.P $ ",
"e { X.~ ~ X.T T ~ X.T ~ T ~ X.L [ [ U [ | +.o.d @ $ B &.L K H H H H H H H H H H H H H H H H K X.B * ",
"e { &.~ T X.~ T ~ T X.~ T L X.~ [ [ [ [ K  ...d @ $ c | K H H H H H H K H H H H H H H H H H H X.P $ ",
"e { &.~ T ~ T ~ X.T T T T X.L ~ [ Y Y [ ~ +.| f $ $ - f D K H H H H H H H H H K H H H H H H K T B * ",
"e | &.T T ~ T L T ~ ~ X.~ ~ T X.[ [ [ [ ~ &.~ x @ = % 1 C L H H H H H H H H H H H K H H H H K X.P $ ",
"e { +.~ T ~ +.L X.~ ~ T T ~ X.L [ [ [ [ Y | | u $ E ^ Q ~ L H H H H H H H H H H H H H H H H K T B * ",
"w { &.X.L X.~ L L L T L T L X.~ Y [ Y [ [ | { d & / % # C L H H H H H H H H H H H H H H H H K X.P $ ",
"w { X.~ ~ ~ X.X.T ~ ~ X.X.~ L ~ [ [ [ [ [ | [ d R E = q D L H H H H H K H H H H H H H H H H K X.B $ ",
"Q [ X.~ T T T ~ ~ X.T X.~ T L X.[ Y [ [ Y | | d % & ! [ K H H H H H H H H H H H H H H H H H H X.P $ ",
"Q X.&.~ L X.X.~ X.T T ~ X.T T L [ [ [ | L X. .u + @ B +.K H H H H H H K H H H H H H H H H H K X.B = ",
"t ~ &.T L ~ L T X.~ X.~ T ~ X.~ [ [ [ ~ K X...q   . b o.Y H H H H H H H H H H H H H H H H H L T P $ ",
"y { +.~ L ~ ~ X.T T L L L X.L ~ L [ [ L [ X.{ u @ @ b X.Y H H H H H H H H H H H H H H H L L H ~ P = ",
"e { &.T ~ T T X.~ T ~ X.~ ~ L X.L X.~ | U  ...u @ @ b X.Y G H H H H H H H H H H H H H H K ~ +.&.I % ",
"e ~ &.~ +.T ~ ~ +.~ X.T X.T T ~ [ [ [ ~ Y |  .u @ $ b X.Y K H H H H H H H H H H H H H H H ~ *.=._ = ",
"e } &.T ~ ~ T T L T ~ ~ T ~ T X.K U ] K K ..O.d @ @ _ o.Y D H H H H H H H H H H H D G ] X.L S S j $ ",
"w D X.| { | { | X.| ~ +.&.~ X.~ {  .{  . .| U y $ $ c T T [ [ Y | Y Y Y [ [ [ [ [ [ [ | | M 4 4 6 % ",
"; g H %.#.#.#.#.#.@.%.%.%.$.=.=.#.#.@.#.$.K k > $ $ 0 m ..$.O.O.....O.O.O.O.O...O.o.@.| m 0 @ @ % $ ",
"+ > j J G G G G G G G G G G G G G G G G J M > X $ $ O p A G A F A A A A A A A A S A J N 0 X $ $ $ $ ",
"$ $ 7 5 a a a a 5 a 5 5 5 5 5 5 a 4 5 a 5 7 % $ $ $ % $ i 5 5 5 4 4 4 4 4 4 4 4 4 4 5 a $ % $ $ $ $ "
};
