/* XPM */
static char *result[] = {
/* columns rows colors chars-per-pixel */
"50 50 84 1 ",
"  c #5F6200",
". c #5F6B00",
"X c #646700",
"o c #656D00",
"O c #6B6E0B",
"+ c #667100",
"@ c #6E7400",
"# c #6F7803",
"$ c #6E710B",
"% c #717600",
"& c #747902",
"* c #787D04",
"= c #72760A",
"- c #767B09",
"; c #797D0C",
": c #6C6D15",
"> c #676718",
", c #6E6F1D",
"< c #6F7112",
"1 c #747611",
"2 c #757817",
"3 c #7B7F10",
"4 c #74771B",
"5 c #76791E",
"6 c #625D3D",
"7 c #666425",
"8 c #6D6E26",
"9 c #63632A",
"0 c #6C6A2C",
"q c #6F7220",
"w c #777923",
"e c #757929",
"r c #787B2C",
"t c #6B6932",
"y c #66613D",
"u c #6C693B",
"i c #6D7230",
"p c #717631",
"a c #777A32",
"s c #797B33",
"d c #777A38",
"f c #797A38",
"g c #645F42",
"h c #655E4B",
"j c #656045",
"k c #6B6541",
"l c #6E6A49",
"z c #777741",
"x c #7C7C4B",
"c c #6E6953",
"v c #6B635E",
"b c #706B5C",
"n c #76725E",
"m c #7E7E5B",
"M c #777263",
"N c #7F7F65",
"B c #7E7C6E",
"V c #797473",
"C c #7E7B71",
"Z c #807F6F",
"A c #807F71",
"S c #827C7A",
"D c #7D8207",
"F c #7C810E",
"G c #7E8212",
"H c #818413",
"J c #818154",
"K c #83825C",
"L c #848463",
"P c #86866B",
"I c #818072",
"U c #898675",
"Y c #85827C",
"T c #89877A",
"R c #87887B",
"E c #8D8A7F",
"W c #858482",
"Q c #8A8685",
"! c #8D8C84",
"~ c #8D878D",
"^ c #8D8988",
"/ c #908E86",
"( c #918F88",
") c #93908A",
/* pixels */
"%%%%%%%%%%%%%%%%%@%%@%%%%%%%%%%%%%%%%%%%%&%%%%%%%%",
"%%%%%%%%@@@@@%@@%%%@@@%%%%%%%%%%%%%%%%%%%%%%%%%%%%",
"%%%%%@=eeeereeeeeeeer4%%%%%%%%%%%%%%%%%%%%%%%%%%%%",
"%%%%%%eAYCPIIIPCCPIIYx%@%%%%%%%%%%%%%%%%%%%%%%%%%%",
"%%%@@aNYYIYIYIYIYIYISIJ4%%%%%%%%%%%%%%%%%%%%%%%%%%",
"%%wreNWIIIAAAIIIIIIIIWQa%%%%%%%%&%%%%%%%%%%%%%%%%%",
"@=KQIICIIIIIIIIIIIIIZRRr@%%%%%%%%%%%%%%%%%%%%%%%%%",
"@=L~IIIIIIIIIIIIIIIIIRUr#%%%%%%%%%%%%%%%%%%%%%%&%%",
"@=KQIIIIIIIIIIIIIIIIIYUr@%%%%%%%%%%%%%%%%%%%%%%%%%",
"%=KQAAIIAIIIIIAIIIIIPYRr%%%%%%%%%%%%%%%%%%%%%%%%&%",
"@-KQAZAIIIPAIIIIIIIICYUr@%%%%%%%%%%&%%%%%%%%%%%%%%",
"%-KQUIIIIAAAIIIIIIIIIYRr@%%%%%%%%%%%%%%%%%%%%%%%%%",
"@=JEZZAIIIIIIIIIIIIIZYRr%%%%%%%%%%%%%%%%%%%%%%%%%%",
"@=ZQAZAAIIIIIIIIIIIICYUr%%%%%%%%%%%%%%%%%%%%%%%%%%",
"%=ZQUAAZIIIIIIIIIIIIIRTr@%%%%%%%%%%%%%%%%%%%%%%%%%",
"@=JEZAAUAIIIIIAIIIIIIYUr%%%%%%%%%%%%%%%%%%%%%%%%%%",
"%%Z^IIIIIIIIIIIIIIIIZYUr%%%%%%%%%%%%%%%%%%%%%%%%%%",
"%%Z^IIIIIIIIIIIIIZZIBQEr@%%%%%%%%%%%@%%%%%%%-&%@%%",
"%=K^IIIIBIIIIIIIIIIIZR!r@%%%%%%%%%%%%%%%%%%%G;%%%%",
"%=KQAPIIIIIIIIIBZE(!(Ybq%%%%%%%%%&-;FF%%%@&F-&%%%%",
"%=ZEIAAIIIIZAABURICSYn9$%%%%%%%%%%-HHG&@%&GG&@%%%%",
"@=ZTIAIIIIIIIIIR!bgjht%%%%%%%%%%%%%FG;;#%FHG=%%%%%",
"%%tV/(///!////)YbtO:,2DF;%%%%%%%%%@@#;;&%;F;%%%%%%",
"%%>kAASAASASASYM9@%**DHH*%%%%%%%%%@oo=;&@--@%%%%%%",
"%%&,jhjjjjjjjjht=%%;-GG%%%%%%%%%%%%&@o=#o-%X%%%%%%",
"%%%%:,::<:::>::$%@&;F#@@%%%%%%@@@@%@@+o@@oo%%%%%%%",
"%%%%%&&&%*%&**&#%@&;#+o@%%%%%edaaaaasaipai8rf4%%%%",
"%%%%%%%%%%%&FG*@%%&-+o%%%%%#1mYIIICIIIIIISZZZZ%%%%",
"%%%%%%%%%%%@=H;=%%@++;G-@#@4mIYSIIYIIIYIIIIYSUZ3@%",
"%%%%%%%%%%%+@HF-%%@@-G-%%#wmYSIIIIIIIIAIIIIIA/U5%%",
"%%%%%%%%%%%%%-;&%@=-3+o@%=PQIIIIIIIIIIIIIIAIZSS5@%",
"&%%%%%%%%%%%@o-&+@;-@+@%@=LQZIIIIIIISIIIIIIIZES5@%",
"%%%%%%%%%%%%%o@@.@G;oo%%%=LQAIIIIIIAAIIIZIIAZWU4%%",
"%%%%%%%%%%&%%%o.o=;-oo%%@-LWIIIIIIIIIIIIIIIIARUw@%",
"%%%%%%%%%%%%%%@@%-&+@@%%==LQIIIIAIIIIIIIIIIIIWU5%%",
"%%%%%%%%%%%%%%%%%&#+@%%%@=LWIIIIIIIIIIIIIIIIIYU5@%",
"%%%%%%%%%%%%%%%%%%%%%%%%@=LQIIIIIIIIIIIICPIIIWU5@%",
"%%%%%%%%%%%%%%%%%%%%%%%%@-LWIIIIIIIIIIIZCIIIZYU5%%",
"%%%%%%%%%%%%%%%%%%%%%%%%@=LQIIIIIZIIAIIIIIIIIRU5@%",
"%%%%%&%%%%%%%&%%%%%%%%%%@=LQIIIIIIIIIIIIIIIIIQU5@%",
"%%%%%%%%%%%%%&%%%%%%%&%%@=LQAAAAIIIIIIAAIIIIIYU5@%",
"%%%%%%%%%%%%%%%%%%%%%%%%@-LQAUAAIIIAIIAAIIIIBWEw@%",
"%%%%%%%%%%%%%%%%%%%%%%%%%=LQAIAUIIIIIIAAIIIIIRP4%%",
"%%%%%%%%%%%%%%%%%%%%%%%%@=LQIAAAIIAAZI!/(((()L4#%%",
"%%%%%%%%%%%%%%%%%%%%%%%%%=PQAAAZZZITQRSCCACASz@%%%",
"%%%%%%%%%%%%%%%%%%%%%%%%%=LWAAZAIIIE(Tl6g6gyh0%%%%",
"%%%%&%%%%%%%%%%%%%%%%%%%%=kV!////(/Mvc8$:::::$%%%%",
"&%%%%%%%%%%%%%%%%%%%%%%%%%>lSSAAAACu77%&%%&%&%%%%%",
"%%%%%%%%%%%%%%%%%%%%%%%%%%%>666ggg6<&%%%%%%%%%%%%%",
"%%%%@%@%@@%@%@@%%%@@@@%%OXXX  X<::<%%%%%%%@%@%@@%@"
};
