/* XPM */
static char *result[] = {
/* columns rows colors chars-per-pixel */
"50 50 241 2 ",
"   c #606B00",
".  c #626B00",
"X  c #626C00",
"o  c #636E00",
"O  c #656D00",
"+  c #646F00",
"@  c #666E00",
"#  c #676E00",
"$  c #676F00",
"%  c #686E00",
"&  c #677000",
"*  c #687100",
"=  c #697100",
"-  c #687101",
";  c #6A7100",
":  c #6B7100",
">  c #6A7200",
",  c #6B7200",
"<  c #6C7200",
"1  c #6C7300",
"2  c #6D7300",
"3  c #6E7200",
"4  c #6E7300",
"5  c #6F7300",
"6  c #6E7400",
"7  c #6F7400",
"8  c #6F7500",
"9  c #6E7401",
"0  c #6C7403",
"q  c #6E7206",
"w  c #6F7504",
"e  c #6F7704",
"r  c #6F7605",
"t  c #6E7705",
"y  c #6E710D",
"u  c #6E700F",
"i  c #707300",
"p  c #707400",
"a  c #717400",
"s  c #707500",
"d  c #707401",
"f  c #727500",
"g  c #707600",
"h  c #717600",
"j  c #717700",
"k  c #717601",
"l  c #717701",
"z  c #737600",
"x  c #727700",
"c  c #737700",
"v  c #727601",
"b  c #727701",
"n  c #717602",
"m  c #717703",
"M  c #747700",
"N  c #747701",
"B  c #717604",
"V  c #727506",
"C  c #717606",
"Z  c #717607",
"A  c #727800",
"S  c #737800",
"D  c #737900",
"F  c #737802",
"G  c #737803",
"H  c #747800",
"J  c #747900",
"K  c #747902",
"L  c #747903",
"P  c #707805",
"I  c #737805",
"U  c #747904",
"Y  c #757A05",
"T  c #747907",
"R  c #747A06",
"E  c #757A06",
"W  c #767B06",
"Q  c #777C07",
"!  c #71770D",
"~  c #71760E",
"^  c #717A0B",
"/  c #767B08",
"(  c #777C0A",
")  c #787B08",
"_  c #787D09",
"`  c #797E09",
"'  c #7A7E09",
"]  c #787D0A",
"[  c #787D0B",
"{  c #797D0B",
"}  c #787D0C",
"|  c #797D0C",
" . c #7B7D0C",
".. c #7A7E0C",
"X. c #7A7F0C",
"o. c #7B7F0C",
"O. c #7A7F0D",
"+. c #676713",
"@. c #696A13",
"#. c #6C6C12",
"$. c #6C6C13",
"%. c #6C6C1A",
"&. c #6E6E1A",
"*. c #6D6C1C",
"=. c #6E7011",
"-. c #6F7011",
";. c #6E7013",
":. c #6E7015",
">. c #727711",
",. c #737712",
"<. c #727810",
"1. c #747818",
"2. c #73781F",
"3. c #74791C",
"4. c #74781D",
"5. c #74781F",
"6. c #625F3E",
"7. c #635F3E",
"8. c #635E3F",
"9. c #6C6C21",
"0. c #717522",
"q. c #757820",
"w. c #797B24",
"e. c #797B2B",
"r. c #646138",
"t. c #63603C",
"y. c #7C7E39",
"u. c #7C7D3B",
"i. c #635E40",
"p. c #635F42",
"a. c #655E47",
"s. c #665F48",
"d. c #666142",
"f. c #696442",
"g. c #6D6842",
"h. c #6F6A47",
"j. c #7D7E47",
"k. c #7C7C56",
"l. c #777367",
"z. c #7E7D60",
"x. c #7F7F63",
"c. c #78736B",
"v. c #79736D",
"b. c #78736E",
"n. c #7A736E",
"m. c #79746D",
"M. c #7F7B6B",
"N. c #7F7F6A",
"B. c #7F7B6F",
"V. c #7D7E6E",
"C. c #7F7E6F",
"Z. c #7E7F6F",
"A. c #7F7F6F",
"S. c #7A7272",
"D. c #7F7871",
"F. c #7E7971",
"G. c #7E7973",
"H. c #807E6F",
"J. c #807F6F",
"K. c #807973",
"L. c #807F70",
"P. c #807F71",
"I. c #817F72",
"U. c #7C800C",
"Y. c #7C800E",
"T. c #7C800F",
"R. c #7C810F",
"E. c #7D810F",
"W. c #7F8310",
"Q. c #7E8211",
"!. c #7F8212",
"~. c #7F8312",
"^. c #808414",
"/. c #828615",
"(. c #808052",
"). c #808155",
"_. c #818155",
"`. c #828157",
"'. c #858556",
"]. c #818258",
"[. c #818259",
"{. c #81805B",
"}. c #84845C",
"|. c #85855C",
" X c #818063",
".X c #848361",
"XX c #848362",
"oX c #848364",
"OX c #858365",
"+X c #85846A",
"@X c #80806C",
"#X c #818071",
"$X c #808072",
"%X c #818072",
"&X c #818073",
"*X c #818173",
"=X c #878471",
"-X c #828174",
";X c #838175",
":X c #838176",
">X c #838276",
",X c #838277",
"<X c #858276",
"1X c #848376",
"2X c #858377",
"3X c #858477",
"4X c #82817A",
"5X c #86837A",
"6X c #868579",
"7X c #878679",
"8X c #87857A",
"9X c #84817C",
"0X c #85847C",
"qX c #88847A",
"wX c #88857C",
"eX c #89887C",
"rX c #8C8B7E",
"tX c #828180",
"yX c #838180",
"uX c #8A8680",
"iX c #8A8684",
"pX c #8B8785",
"aX c #8A8787",
"sX c #8C8982",
"dX c #8F8D81",
"fX c #8F8C85",
"gX c #8A8789",
"hX c #8B878A",
"jX c #8B8889",
"kX c #8D8889",
"lX c #8C888A",
"zX c #8F8C88",
"xX c #8B888E",
"cX c #8F8C8D",
"vX c #908D86",
"bX c #908E86",
"nX c #918E87",
"mX c #918E88",
"MX c #928F8E",
"NX c #929089",
"BX c #958E97",
/* pixels */
"h h k h 8 8 8 8 8 8 8 8 8 8 8 8 8 8 8 8 8 8 8 h k h h h h h h h h h h h h h h h h h h h h h h h h h ",
"p h s h 1.q.3.3.3.3.3.3.3.3.3.3.3.3.3.3.3.5.4.B s h k h h h h h h h h h h h h h h h h h h h h h h h ",
"d h 7 ~ k.@Xx.x.x.x.x.x.x.x.x.x.x.x.x.x.x.N.z.2.6 s k h h h h h h h h h h h h h h h h h h h h h h h ",
"p v w.(.;XtX9X9X9X9X9X9X9X9X9X9X9X9X9X9X9XyX4X{.e.C s h h h h h h h h h h h h h h h h h h h h h h h ",
"i C ].jX,XP.#X#X#X#X#X#X#X#X#X#X#X#X#X#X#XP.&XgXoX>.7 h h h h h h h h h h h h h h h h h h h h h h h ",
"i C [.kX,XP.%X%X%X%X%X%X%X%X%X%X%X%X%X%X%XP.&XhXOX>.7 h h h h h h h h h h h h h h h h h h h h h h h ",
"5 C ).pX>XP.%X%X%X%X%X%X%X%X%X%X%X%X%X%X%XP.%XaX.X<.7 h h h h h h h h h h h h h h h h h h h h h h h ",
"3 C ).pX>XP.%X%X%X%X%X%X%X%X%X%X%X%X%X%X%XP.%XaX.X<.7 h h h h h h h h h h h h h h h h h h h h h h h ",
"4 C ).pX>XP.%X%X%X%X%X%X%X%X%X%X%X%X%X%X%XP.%XaX.X<.7 h h h h h h h h h h h h h h h h h h h h h h h ",
"i C ).pX>XP.%X%X%X%X%X%X%X%X%X%X%X%X%X%X%XP.%XaX.X<.7 h h h h h h h h h h h h h h h h h h h h h h h ",
"i C ).pX>XP.%X%X%X%X%X%X%X%X%X%X%X%X%X%X%XP.%XaX.X<.7 h h h h h h h h h h h h h h h h h h h h h h h ",
"i C ).pX>XP.%X%X%X%X%X%X%X%X%X%X%X%X%X%X%XP.%XaX.X<.7 h h h h h h h h h h h h h h h h h h h h h h h ",
"i C ).pX>XP.%X%X%X%X%X%X%X%X%X%X%X%X%X%X%XP.%XaX.X<.7 h h h h h h h h h h h h h h h h h h h h h h h ",
"i C ).pX>XP.%X%X%X%X%X%X%X%X%X%X%X%X%X%X%XP.%XaX.X<.7 h h h h h h h h h h h h h h h h h h h h h h h ",
"i C ).pX>XP.%X%X%X%X%X%X%X%X%X%X%X%X%X%X%XP.%XaX.X<.7 h h h h h h h h h h h h h h h h h h h h h h h ",
"i C ).pX>XP.%X%X%X%X%X%X%X%X%X%X%X%X%X%X%XP.%XaX.X<.7 h h h h h h h h h h h h h h h h h h h h h h h ",
"i C _.iX-XC.L.L.L.L.P.%X%X%X%X%X%X%X%X%X%XP.%XaX.X<.7 h h h h h h h h h h h h h h h h h h h h h h h ",
"i Z `.lX0X:X<X<X1X3X*X%X%X%X%X%X%X%X%X%X%XP.%XaX.X<.7 h h h h h h h h h h h h h h h h h h h h h h h ",
"5 C }.BXcXzXvXvXnXbX6XH.P.%X%X%X%X%X%X%X%XP.%XaX.X<.7 h h h h h h h h h h h h h h h h h h h h h h h ",
"i B y.|.'. XG.K.D.F.5XeX*XL.%X%X%X%X%X%X%XP.%XaX.X<.7 h h h h h h h h h h h h h h h h h h h h h h h ",
"d h n e m 9.s.a.i.p.M.fX2X%XI.%X%X%X%X%X%XP.&XaXXX<.7 h h h h h h h h h h h h h h h h h h h h h h h ",
"p h s 8 s q %.%.#.$.g.b.sXrXA.Z.J.J.J.J.J.V.$XxX+X,.7 h h h h h h h h h h h h h h h h h h h h h h h ",
"p h h h h j D S J S +.f.B.uXqX7X8X8X8X8X8XwX6X=Xj.! 7 h h h h h h h h h h h h h h h h h h h h h h h ",
"p h h h h h h h h h x :.d.m.mXNXbXbXbXbXbXMXdXu.9 s h h h h h h h h h h h h h h h h h h h h h h h h ",
"p h h h h h h h h h A s @.h.v.n.c.c.c.c.c.S.l.0.8 h k h h h h h h h h h h h h h h h h h h h h h h h ",
"p h h h h h h h h h h x H *.7.6.t.t.t.t.t.8.r.&.S j h h h h h h h h h h h h h h h h h h h h h h h h ",
"p h h h h h h h h h h h x w -.=.u u u u u ;.y V x h h h h h h h h h h h h h h h h h h h h h h h h h ",
"p h h h h h h h h h h h h x D S S S S S S D S h h h h h h h h h h h h h h h h h h h h h h h h h h h ",
"p h h h h h h h h h h h h h h h h h h h h h h h h h h h h h h h h h h h h h h h h h h h h h h h h h ",
"p h h h h h h h h h h h h h h h h h h h h h h h h h h h h h h h h h h h h h h h h h h h h h h h h h ",
"p h h h h h h h h h h h h h h h h h h h h h h h h h h h h h h h h h h h h h h h h h h h h h h h h h ",
"p h h h h h h h h h h h h h h h h h h h h h h h h h h h h h h h h h h h h h h h h h h h h h h h h h ",
"p h h h h h h h h h h h h h h h h h h h h h h h h h h h h h h h h h h h h h h h h h h h h h h h h h ",
"p h h h h h h h h h h h h h h h h h h h h h h h h h h h h h h h h h h h h h h h h h h h h h h h h h ",
"p h h h h h h h h h h h h h h h h h h h h h h h h h h h h h h h h h h h h h h h h h h h h h h h h h ",
"p h h h h h h h h h h h h h h h h h h h h h h h h h h h h h h h h h h h h h h h h h h h h h h h h h ",
"p h h h h h h h h h h h h h h h h h h h h h h h h h h h h h h h h h h h h h h h h h h h h h h h h h ",
"p h h h h h h h h h h h h h h h h h h h s 7 s h h h h h h h h h h h h h h h h h h h h h h h h h h h ",
"p h h h h h h h h h h h h h h h h h h b L Y L x h h h h h h h h h h h h h h h h h h h h h h h h h h ",
"p h h h h h h h h h h h h h h h h h s G Y.^.E.K s s h h h h h s 7 7 s h h h h h h h h h h h h h h h ",
"p h h h h h h h h h h h h h h h h h s F W W./.' U U F s h s h Y X...Y h h h h h h h h h h h h h h h ",
"p h h h h h h h h h h h h h h h h h h s s E R.O.| [ U s h h b Y./.~.Q s h h h h h h h h h h h h h h ",
"p h h h h h h h h h h h h h h h h h h h h 1 - T U.o.U s s b E ~.Q.E x h h h h h h h h h h h h h h h ",
"p h h h h h h h h h h h h h h h h h h x x , O < t r s k b / { !. .h 7 h h h h h h h h h h h h h h h ",
"p h h h h h h h h h h h h h h h h h h h h z g %   . ; S ) } ( ] R l s h h h h h h h h h h h h h h h ",
"p h h h h h h h h h h h h h h h h h h h h z z 4 = : 2 b _ T.` 0 * g h h h h h h h h h h h h h h h h ",
"p h h h h h h h h h h h h h h h h h h h h h h x N c h k I ^ P # + s x h h h h h h h h h h h h h h h ",
"p h h h h h h h h h h h h h h h h h h h h h h h h h x s $ X o > g h h h h h h h h h h h h h h h h h ",
"p h h h h h h h h h h h h h h h h h h h h h h h h h x s = @ & 8 M h h h h h h h h h h h h h h h h h ",
"h p p p p p p p p p p p p p p p p p p p p p p p p p p p p f a p p p p p p p p p p p p p p p p p p h "
};
