/* XPM */
static char *result[] = {
/* columns rows colors chars-per-pixel */
"50 50 60 1 ",
"  c #4D1E06",
". c #622F16",
"X c #62351C",
"o c #63351C",
"O c #63361C",
"+ c #62361D",
"@ c #63361D",
"# c #533422",
"$ c #684631",
"% c #5F594E",
"& c #71695A",
"* c #7D6D5D",
"= c #7E6D5F",
"- c #7E6E5E",
"; c #7E6E5F",
": c #817061",
"> c #837262",
", c #837364",
"< c #837465",
"1 c #847465",
"2 c #847565",
"3 c #857566",
"4 c #85796B",
"5 c #878276",
"6 c #878477",
"7 c #888577",
"8 c #888578",
"9 c #898679",
"0 c #8A8779",
"q c #89867A",
"w c #89877A",
"e c #8A877A",
"r c #8A877B",
"t c #8B887B",
"y c #8B887C",
"u c #8C897C",
"i c #8D8A7E",
"p c #8D8B7F",
"a c #8E8B7F",
"s c #8F8C7F",
"d c #8B8E82",
"f c #8F8C80",
"g c #8C8E82",
"h c #8C8F83",
"j c #8C8F84",
"k c #908D81",
"l c #908E82",
"z c #918E82",
"x c #918E83",
"c c #928F83",
"v c #8F9086",
"b c #8F9287",
"n c #909287",
"m c #949187",
"M c #93948A",
"N c #92958B",
"B c #95968C",
"V c #95978D",
"C c #96988E",
"Z c None",
/* pixels */
"ZZZZZZZZZZZZZZZZZZZZZZZZZZZZZZZZZZZZZZZZZZZZZZZ #%",
"XXXXXXXXXXXo++++++++++++@OXXXXXXXXXXXXXXXXXXXXX.$&",
"*-;;;;;;;;=:1<,,,,2222223>;;;;;;;;;;;;;;;;;;;;;:45",
"vjhhhhhhhhdbVCVVVVMMMMMMMnhhhhhhhhhhhhhhhhhhhghNBm",
"fr9qqqqqqq8ukkklxfe899999wqqqqqqqqqqqqqqqqqqq9qpzk",
"fe899999999eyrizcf06888889999999999999999999999ryt",
"ie899999999986qasie8999999999999999999999999999888",
"99999999999999999999999999999999999999999999999999",
"89999999999999988899999999999999999999999999999999",
"99999999999999999999999999999999999999999999999999",
"99999999999999999999999999999999999999999999999999",
"99999999999999999999999999999999999999999999999999",
"99999999999999999999999999999999999999999999999999",
"99999999999999999999999999999999999999999999999999",
"99999999999999999999999999999999999999999999999999",
"99999999999999999999999999999999999999999999999999",
"99999999999999999999999999999999999999999999999999",
"99999999999999999999999999999999999999999999999999",
"99999999999999999999999999999999999999999999999999",
"99999999999999999999999999999999999999999999999999",
"99999999999999999999999999999999999999999999999999",
"99999999999999999999999999999999999999999999999999",
"99999999999999999999999999999999999999999999999999",
"99999999999999999999999999999999999999999999999999",
"99999999999999999999999999999999999999999999999999",
"99999999999999999999999999999999999999999999999999",
"99999999999999999999999999999999999999999999999999",
"99999999999999999999999999999999999999999999999999",
"99999999999999999999999999999999999999999999999999",
"99999999999999999999999999999999999999999999999999",
"99999999999999999999999999999999999999999999999999",
"99999999999999999999999999999999999999999999999999",
"99999999999999999999999999999999999999999999999999",
"99999999999999999999999999999999999999999999999999",
"99999999999999999999999999999999999999999999999999",
"99999999999999999999999999999999999999999999999999",
"99999999999999999999999999999999999999999999999999",
"99999999999999999999999999999999999999999999999999",
"99999999999999999999999999999999999999999999999999",
"99999999999999999999999999999999999999999999999999",
"99999999999999999999999999999999999999999999999999",
"99999999999999999999999999999999999999999999999999",
"99999999999999999999999999999999999999999999999999",
"99999999999999999999999999999999999999999999999999",
"99999999999999999999999999999999999999999999999999",
"99999999999999999999999999999999999999999999999999",
"99999999999999999999999999999999999999999999999999",
"99999999999999999999999999999999999999999999999999",
"99999999999999999999999999999999999999999999999999",
"77777777777777777777777777777777777777777777777777"
};
