/* XPM */
static char *result[] = {
/* columns rows colors chars-per-pixel */
"50 50 202 2 ",
"   c #63321A",
".  c #65321A",
"X  c #66331A",
"o  c #63351B",
"O  c #65341A",
"+  c #65341B",
"@  c #62351E",
"#  c #65351C",
"$  c #65351D",
"%  c #66351C",
"&  c #66361C",
"*  c #65361F",
"=  c #66361E",
"-  c #673720",
";  c #693721",
":  c #623922",
">  c #643822",
",  c #663822",
"<  c #673822",
"1  c #663D27",
"2  c #6A3922",
"3  c #683B22",
"4  c #693B22",
"5  c #693B23",
"6  c #6B3A23",
"7  c #6A3C23",
"8  c #6A3B24",
"9  c #6A3C24",
"0  c #6A3D24",
"q  c #6B3D25",
"w  c #6B3D27",
"e  c #6B3E27",
"r  c #6C3C25",
"t  c #6D3D25",
"y  c #6D3D27",
"u  c #6D3E26",
"i  c #6C3E27",
"p  c #6C3E28",
"a  c #6C3F29",
"s  c #6D3F29",
"d  c #6E3E28",
"f  c #6E3F28",
"g  c #6E3F29",
"h  c #6D402A",
"j  c #6F402A",
"k  c #6F402B",
"l  c #6E412B",
"z  c #644E3D",
"x  c #654F3E",
"c  c #65503F",
"v  c #78513F",
"b  c #655041",
"n  c #665041",
"m  c #675141",
"M  c #665241",
"N  c #675142",
"B  c #675242",
"V  c #675342",
"C  c #685242",
"Z  c #685342",
"A  c #685444",
"S  c #6B5545",
"D  c #645D4F",
"F  c #6C5849",
"G  c #6B5A4C",
"H  c #6E5A4D",
"J  c #795D4B",
"K  c #7A5E4C",
"L  c #7A5F4D",
"P  c #7B5F4D",
"I  c #7B5F4E",
"U  c #7C5F4D",
"Y  c #625E50",
"T  c #625E52",
"R  c #625E53",
"E  c #635F53",
"W  c #655E50",
"Q  c #665F51",
"!  c #7A604D",
"~  c #7A604E",
"^  c #7B604E",
"/  c #7B604F",
"(  c #7B614F",
")  c #7B624F",
"_  c #7C604F",
"`  c #656257",
"'  c #686155",
"]  c #6B695E",
"[  c #6E685D",
"{  c #6E695E",
"}  c #7B6150",
"|  c #7C6050",
" . c #7C6150",
".. c #7D6150",
"X. c #6D6D63",
"o. c #6F6C63",
"O. c #6F6F66",
"+. c #856A5A",
"@. c #937F71",
"#. c #868376",
"$. c #878476",
"%. c #868477",
"&. c #878477",
"*. c #888577",
"=. c #868379",
"-. c #878478",
";. c #878479",
":. c #888578",
">. c #888579",
",. c #898579",
"<. c #888679",
"1. c #898679",
"2. c #8A8779",
"3. c #88847A",
"4. c #89847B",
"5. c #8A857A",
"6. c #8A877A",
"7. c #8B867B",
"8. c #8A877B",
"9. c #8B877C",
"0. c #8C877C",
"q. c #89887A",
"w. c #8B887B",
"e. c #8B8A7B",
"r. c #8C897B",
"t. c #8C8A7B",
"y. c #89887C",
"u. c #89897C",
"i. c #8B887C",
"p. c #8A8A7D",
"a. c #8B8A7D",
"s. c #8B8A7E",
"d. c #8B8B7E",
"f. c #8C897C",
"g. c #8C887D",
"h. c #8C897D",
"j. c #8C8A7C",
"k. c #8D8A7D",
"l. c #8D8A7E",
"z. c #8D8A7F",
"x. c #8E8B7E",
"c. c #8E8B7F",
"v. c #8E8C7D",
"b. c #8C8C7F",
"n. c #8E8C7E",
"m. c #8F8C7E",
"M. c #8F8C7F",
"N. c #8D8F7F",
"B. c #8F8A80",
"V. c #8E8B80",
"C. c #8F8C80",
"Z. c #8F8C81",
"A. c #8E8D81",
"S. c #908C80",
"D. c #908D80",
"F. c #908C81",
"G. c #908D81",
"H. c #908E81",
"J. c #918E81",
"K. c #908D82",
"L. c #918E82",
"P. c #908E83",
"I. c #918E83",
"U. c #918F83",
"Y. c #928E84",
"T. c #938F85",
"R. c #948E84",
"E. c #958F85",
"W. c #8F9180",
"Q. c #8F9082",
"!. c #909183",
"~. c #919084",
"^. c #929084",
"/. c #939084",
"(. c #929185",
"). c #909086",
"_. c #929187",
"`. c #919287",
"'. c #929287",
"]. c #959086",
"[. c #959287",
"{. c #949389",
"}. c #95958B",
"|. c #9B9890",
" X c #9B9990",
".X c #9B9991",
"XX c #9C9990",
"oX c #9C9991",
"OX c #9C9A91",
"+X c #9E9A91",
"@X c #A19C92",
"#X c #A19D93",
"$X c #A09E93",
"%X c #A19D94",
"&X c #A09E94",
"*X c #A39E95",
"=X c #A5A096",
"-X c #A4A197",
";X c #A4A198",
":X c #A6A79D",
">X c #AAADA3",
",X c None",
/* pixels */
"l k k j h h g g g g d d f g g g d d d d u u u u y y y t t r 9 7 6 2 2 ; ; - = & % + O X   . ,X,X,X,X",
"} } } ( ( ( / / / / ^ ^ ^ / / / ^ ^ ^ ^ ~ ~ ~ ~ I I I P L L ! ) .. .| / / _ I I P K J U +.v ,X,X,X,X",
"a.a.a.a.a.a.a.a.a.a.s.s.s.a.a.a.s.s.s.s.a.a.a.a.a.a.a.a.p.a.N.!.(._._._.`.(._._._.'.).}.>X@.@ ,X,X,X",
"y.y.y.y.y.y.y.y.y.y.y.y.y.y.y.y.y.y.y.y.y.y.y.y.y.y.y.y.y.u.m.W.Q.~./.^.A.a.d.a.b.U.P.[.:XR.G : ,X,X",
"1.1.1.1.1.1.1.1.1.1.1.1.1.1.1.1.1.1.1.1.1.1.1.1.1.1.1.1.<.1.w.e.t.n.H.D.r.-.:.&.1.C.Z.T.-X{.o.A 1 ,X",
"1.1.1.1.1.1.1.1.1.1.1.1.1.1.1.1.1.1.1.1.1.1.1.1.1.1.1.1.1.1.1.1.1.j.v.v.r.,.1.:.6.M.c.Y.;XR.[ X.F o ",
"1.1.1.:.:.1.1.1.1.1.1.1.1.1.1.1.1.1.1.1.1.1.1.1.:.:.:.:.:.1.1.1.1.6.q.q.2.1.1.1.1.w.1.x.=XR.{ O.H # ",
"1.1.6.w.w.6.1.1.1.1.1.1.1.1.1.1.1.1.1.1.1.1.1.1.8.w.w.w.6.1.1.1.1.1.>.,.1.1.1.1.1.:.#.w.=XE.[ ] S # ",
"1.>.f.C.C.f.:.1.1.1.1.1.1.1.1.1.1.1.1.1.1.1.:.6.l.C.V.S.k.1.1.1.1.1.1.1.1.1.1.1.1.1.&.f.=X].[ ` x $ ",
"1.>.k.L.K.l.:.1.1.1.1.1.1.1.1.1.1.1.1.1.1.:.&.6.z.J.Z.L.c.1.1.1.1.1.1.1.1.1.1.1.1.1.%.f.*XB.' E z $ ",
"1.>.f.c.c.f.:.1.1.1.1.1.1.1.1.1.1.1.1.1.1.6.6.w.c.G.C.M.h.1.1.1.1.1.1.1.1.1.1.1.1.1.%.f.%X9.D R c * ",
"1.1.1.6.6.1.1.1.1.1.1.1.1.1.1.1.1.1.1.:.6.x.M.x.C.C.C.f.1.1.1.1.1.1.1.1.1.1.1.1.1.1.&.f.&Xg.W T b > ",
"1.1.1.:.:.1.1.1.1.1.1.1.1.1.1.1.1.1.1.:.6.M.J.D.D.G.Z.w.&.1.1.1.1.1.1.1.1.1.1.1.1.1.&.f.$Xg.W T b , ",
"1.1.1.1.1.1.1.1.1.1.1.1.1.1.1.1.1.1.1.:.6.c.D.M.x.c.c.w.:.1.1.1.1.1.1.1.1.1.1.1.1.1.%.f.#X0.W T n < ",
"1.1.1.1.1.1.1.1.1.1.1.1.1.1.1.1.1.1.1.,.6.n.D.M.w.1.6.1.1.1.1.1.1.1.1.1.1.1.1.1.1.1.&.f.@X7.W T m 3 ",
"1.1.1.1.1.1.1.1.1.1.1.1.1.1.1.1.1.1.1.1.1.w.j.w.1.:.:.1.1.1.1.1.1.1.1.1.1.1.1.1.1.1.&.i.+X5.W T m 4 ",
"1.1.1.1.1.1.1.1.1.1.1.1.1.1.1.1.1.1.1.1.1.>.>.:.1.1.1.1.1.1.1.1.1.1.1.1.1.1.1.1.1.1.&.i..X4.W T m 5 ",
"1.1.1.1.1.1.1.1.1.1.1.1.1.1.1.1.1.1.1.1.1.1.1.1.1.1.1.1.1.1.1.1.1.1.1.1.1.1.1.1.1.1.*.i. X3.W T N 8 ",
"1.1.1.1.1.1.1.1.1.1.1.1.1.1.1.1.1.1.1.1.1.1.1.1.1.1.1.1.1.1.1.1.1.1.1.1.1.1.1.1.1.1.*.i. X3.W T N 8 ",
"1.1.1.1.1.1.1.1.1.1.1.1.1.1.1.1.1.1.1.1.1.1.1.1.1.1.1.1.1.1.1.1.1.1.1.1.1.1.1.1.1.1.*.i. X3.W T N 8 ",
"1.1.1.1.1.1.1.1.1.1.1.1.1.1.1.1.1.1.1.1.1.1.1.1.1.1.1.1.1.1.1.1.1.1.1.1.1.1.1.1.1.1.*.i. X3.W T N 8 ",
"1.1.1.1.1.1.1.1.1.1.1.1.1.1.1.1.1.1.1.1.1.1.1.1.1.1.1.1.1.1.1.1.1.1.1.1.1.1.1.1.1.1.*.i. X3.W T N 9 ",
"1.1.1.1.1.1.1.1.1.1.1.1.1.1.1.1.1.1.1.1.1.1.1.1.1.1.1.1.1.1.1.1.1.1.1.1.1.1.1.1.1.1.*.i. X3.W T M 0 ",
"1.1.1.1.1.1.1.1.1.1.1.1.1.1.1.1.1.1.1.1.1.1.1.1.1.1.1.1.1.1.1.1.1.1.1.1.1.1.1.1.1.1.*.i. X3.W Y B q ",
"1.1.1.1.1.1.1.1.1.1.1.1.1.1.1.1.1.1.1.1.1.1.1.1.1.1.1.1.1.1.1.1.1.1.1.1.1.1.1.1.1.1.*.i. X3.W Y B q ",
"1.1.1.1.1.1.1.1.1.1.1.1.1.1.1.1.1.1.1.1.1.1.1.1.1.1.1.1.1.1.1.1.1.1.1.1.1.1.1.1.1.1.*.i. X3.W Y B q ",
"1.1.1.1.1.1.1.1.1.1.1.1.1.1.1.1.1.1.1.1.1.1.1.1.1.1.1.1.1.1.1.1.1.1.1.1.1.1.1.1.1.1.*.i. X3.W Y B q ",
"1.1.1.1.1.1.1.1.1.1.1.1.1.1.1.1.1.1.1.1.1.1.1.1.1.1.1.1.1.1.1.1.1.1.1.1.1.1.1.1.1.1.*.i. X3.W Y B q ",
"1.1.1.1.1.1.1.1.1.1.1.1.1.1.1.1.1.1.1.1.1.1.1.1.1.1.1.1.1.1.1.1.1.1.1.1.1.1.1.1.1.1.*.i. X3.W Y B w ",
"1.1.1.1.1.1.1.1.1.1.1.1.1.1.1.1.1.1.1.1.1.1.1.1.1.1.1.1.1.1.1.1.1.1.1.1.1.1.1.1.1.1.*.i. X3.W Y C e ",
"1.1.1.1.1.1.1.1.1.1.1.1.1.1.1.1.1.1.1.1.1.1.1.1.1.1.1.1.1.1.1.1.1.1.1.1.1.1.1.1.1.1.*.i. X3.W Y C i ",
"1.1.1.1.1.1.1.1.1.1.1.1.1.1.1.1.1.1.1.1.1.1.1.1.1.1.1.1.1.1.1.1.1.1.1.1.1.1.1.1.1.1.*.i. X3.W Y C d ",
"1.1.1.1.1.1.1.1.1.1.1.1.1.1.1.1.1.1.1.1.1.1.1.1.1.1.1.1.1.1.1.1.1.1.1.1.1.1.1.1.1.1.*.i. X3.W Y C d ",
"1.1.1.1.1.1.1.1.1.1.1.1.1.1.1.1.1.1.1.1.1.1.1.1.1.1.1.1.1.1.1.1.1.1.1.1.1.1.1.1.1.1.*.i. X3.W Y C p ",
"1.1.1.1.1.1.1.1.1.1.1.1.1.1.1.1.1.1.1.1.1.1.1.1.1.1.1.1.1.1.1.1.1.1.1.1.1.1.1.1.1.1.*.i. X3.W Y C p ",
"1.1.1.1.1.1.1.1.1.1.1.1.1.1.1.1.1.1.1.1.1.1.1.1.1.1.1.1.1.1.1.1.1.1.1.1.1.1.1.1.1.1.*.i. X3.W Y C p ",
"1.1.1.1.1.1.1.1.1.1.1.1.1.1.1.1.1.1.1.1.1.1.1.1.1.1.1.1.1.1.1.1.1.1.1.1.1.1.1.1.1.1.*.i. X3.W Y V a ",
"1.1.1.1.1.1.1.1.1.1.1.1.1.1.1.1.1.1.1.1.1.1.1.1.1.1.1.1.1.1.1.1.1.1.1.1.1.1.1.1.1.:.$.8. X3.W Y V a ",
"1.1.1.1.1.1.1.1.1.1.1.1.1.1.1.1.1.1.1.1.1.1.1.1.1.1.1.1.1.1.1.1.1.1.1.1.1.1.1.1.1.w.1.h.XX3.W Y V a ",
"1.1.1.1.1.1.1.1.1.1.1.1.1.1.1.1.1.1.1.1.1.1.1.1.1.1.1.1.1.1.1.1.1.1.1.1.1.1.1.:.6.c.c.G.OX=.W Y Z s ",
"1.1.1.1.1.1.1.1.1.1.1.1.1.1.1.1.1.1.1.1.1.1.1.1.1.1.1.1.1.1.1.1.1.1.1.1.1.1.1.:.6.c.Z.L.OX;.Q Y C s ",
"1.1.1.1.1.1.1.1.1.1.1.1.1.1.1.1.1.1.1.1.1.1.1.1.1.1.1.1.1.1.1.1.1.1.1.1.1.1.1.:.6.c.C.L.oX;.Q Y C s ",
"1.1.1.1.1.1.1.1.1.1.1.1.1.1.1.1.1.1.1.1.1.1.1.1.1.1.1.1.1.1.1.1.1.1.1.1.1.1.:.&.1.c.C.L.oX;.Q Y C s ",
"1.1.1.1.1.1.1.1.1.1.1.1.1.1.1.1.1.1.1.1.1.1.1.1.1.1.1.1.1.1.1.1.1.1.1.1.1.1.f.f.h.C.C.L.oX;.Q Y C s ",
"1.1.1.1.1.1.1.1.1.1.1.1.1.1.1.1.1.1.1.1.1.1.1.1.1.1.1.1.1.1.1.1.1.1.1.1.:.6.c.L.C.C.c.L.oX;.Q Y C s ",
"1.1.1.1.1.1.1.1.1.1.1.1.1.1.1.1.1.1.1.1.1.1.1.1.1.1.1.1.1.1.1.1.1.1.1.1.:.6.c.G.C.F.C.I.oX;.Q Y C s ",
"1.1.1.1.1.1.1.1.1.1.1.1.1.1.1.1.1.1.1.1.1.1.1.1.1.1.1.1.1.1.1.1.1.1.1.1.:.6.M.L.C.k.w.V.oX;.Q Y C s ",
"1.1.1.1.1.1.1.1.1.1.1.1.1.1.1.1.1.1.1.1.1.1.1.1.1.1.1.1.1.1.1.1.1.1.1.1.:.6.x.C.l.1.$.w.|.3.Q Y C s ",
"1.1.1.1.1.1.1.1.1.1.1.1.1.1.1.1.1.1.1.1.1.1.1.1.1.1.1.1.1.1.1.1.1.1.1.1.1.1.8.w.8.1.$.i.|.3.Q Y Z s ",
"1.1.1.1.1.1.1.1.1.1.1.1.1.1.1.1.1.1.1.1.1.1.1.1.1.1.1.1.1.1.1.1.1.1.1.1.1.1.:.:.:.1.*.i.|.3.Q Y Z s "
};
