/* XPM */
static char *result[] = {
/* columns rows colors chars-per-pixel */
"50 50 76 1 ",
"  c #461E0A",
". c #50230C",
"X c #53240C",
"o c #52240E",
"O c #5E2A0E",
"+ c #5F3827",
"@ c #5E4538",
"# c #6F432E",
"$ c #70452F",
"% c #6F5241",
"& c #6E6356",
"* c #69635C",
"= c #6D675F",
"- c #6B6760",
"; c #6D6960",
": c #747166",
"> c #747267",
", c #767267",
"< c #7C756C",
"1 c #77786E",
"2 c #7E7970",
"3 c #7F7970",
"4 c #7D7B74",
"5 c #827464",
"6 c #837465",
"7 c #80786F",
"8 c #80796F",
"9 c #807870",
"0 c #807970",
"q c #807B73",
"w c #807E76",
"e c #888578",
"r c #898679",
"t c #89867A",
"y c #8C8D81",
"u c #918984",
"i c #918A84",
"p c #918B84",
"a c #928B85",
"s c #918D85",
"d c #928C85",
"f c #938D85",
"g c #918D86",
"h c #938D86",
"j c #928E86",
"k c #938E86",
"l c #938F86",
"z c #928F87",
"x c #938F87",
"c c #939087",
"v c #949087",
"b c #949187",
"n c #959187",
"m c #939088",
"M c #949088",
"N c #949188",
"B c #959188",
"V c #959189",
"C c #969089",
"Z c #969189",
"A c #979189",
"S c #969289",
"D c #969389",
"F c #95918A",
"G c #97918A",
"H c #97928A",
"J c #97928B",
"K c #96948A",
"L c #97948A",
"P c #99948B",
"I c #98958B",
"U c #9A958B",
"Y c #98958C",
"T c #9A958C",
"R c #99968C",
"E c #99968D",
/* pixels */
" XXXXXXXXXXXXXXXXXXXoooooooooooooooooooooooooooooo",
"+###################$$$$$$$$$$$$$$$$$$$$$$$$$$$$$$",
"&5555555555555555555666666666666666666666666666666",
"1yyyyyyyyyyyyyyyyyyyyyyyyyyyyyyyyyyyyyyyyyyyyyyyyy",
">rrrrrrrrrrrrrrrrrrrrrrrrrrrrrrrrrrrrrrrrrrrrrrrrr",
",rrrrrrrrrrrrrrrrrrrrrrrrrrrrrrrrrrrrrrrrrrrrrrrrr",
",rrrrrrrrrrrrrrrrrrrrrrrrrrrrrrrrrrrrrrrrrrrrrrrrr",
",rrrrrrrrrrrrrrrrrrrrrrrrrrrrrrrrrrrrrrrrrrrrrrrrr",
",rrrrrrrrrrrrrrrrrrrrrrrrrrrrrrrrrrrrrrrrrrrrrrrrr",
",rrrrrrrrrrrrrrrrrrrrrrrrrrrrrrrrrrrrrrrrrrrrrrrrr",
",rrrrrrrrrrrrrrrrrrrrrrrrrrrrrrrrrrrrrrrrrrrrrrrrr",
",rrrrrrrrrrrrrrrrrrrrrrrrrrrrrrrrrrrrrrrrrrrrrrrrr",
",rrrrrrrrrrrrrrrrrrrrrrrrrrrrrrrrrrrrrrrrrrrrrrrrr",
",rrrrrrrrrrrrrrrrrrrrrrrrrrrrrrrrrrrrrrrrrrrrrrrrr",
",rrrrrrrrrrrrrrrrrrrrrrrrrrrrrrrrrrrrrrrrrrrrrrrrr",
",rrrrrrrrrrrrrrrrrrrrrrrrrrrrrrrrrrrrrrrrrrrrrrrrr",
",rrrrrrrrrrrrrrrrrrrrrrrrrrrrrrrrrrrrrrrrrrrrrrrrr",
",rrrrrrrrrrrrrrrrrrrrrrrrrrrrrrrrrrrrrrrrrrrrrrrrr",
",rrrrrrrrrrrrrrrrrrrrrrrrrrrrrrrrrrrrrrrrrrrrrrrrr",
",rrrrrrrrrrrrrrrrrrrrrrrrrrrrrrrrrrrrrrrrrrrrrrrrr",
",rrrrrrrrrrrrrrrrrrrrrrrrrrrrrrrrrrrrrrrrrrrrrrrrr",
",rrrrrrrrrrrrrrrrrrrrrrrrrrrrrrrrrrrrrrrrrrrrrrrrr",
",rrrrrrrrrrrrrrrrrrrrrrrrrrrrrrrrrrrrrrrrrrrrrrrrr",
",rrrrrrrrrrrrrrrrrrrrrrrrrrrrrrrrrrrrrrrrrrrrrrrrr",
",rrrrrrrrrrrrrrrrrrrrrrrrrrrrrrrrrrrrrrrrrrrrrrrrr",
",rrrrrrrrrrrrrrrrrrrrrrrrrrrrrrrrrrrrrrrrrrrrrrrrr",
",rrrrrrrrrrrrrrrrrrrrrrrrrrrrrrrrrrrrrrrrrrrrrrrrr",
",rrrrrrrrrrrrrrrrrrrrrrrrrrrrrrrrrrrrrrrrrrrrrrrrr",
",rrrrrrrrrrrrrrrrrrrrrrrrrrrrrrrrrrrrrrrrrrrrrrrrr",
",rrrrrrrrrrrrrrrrrrrrrrrrrrrrrrrrrrrrrrrrrrrrrrrrr",
",rrrrrrrrrrrrrrrrrrrrrrrrrrrrrrrrrrrrrrrrrrrrrrrrr",
",rrrrrrrrrrrrrrrrrrrrrrrrrrrrrrrrrrrrrrrrrrrrrrrrr",
",rrrrrrrrrrrrrrrrrrrrrrrrrrrrrrrrrrrrrrrrrrrrrrrrr",
",rrrrrrrrrrrrrrrrrrrrrrrrrrrrrrrrrrrrrrrrrrrrrrrrr",
",rrrrrrrrrrrrrrrrrrrrrrrrrrrrrrrrrrrrrrrrrrrrrrrrr",
",rrrrrrrrrrrrrrrrrrrrrrrrrrrrrrrrrrrrrrrrrrrrrrrrr",
",rrrrrrrrrrrrrrrrrrrrrrrrrrrrrrrrrrrrrrrrrrrrrrrrr",
",rrrrrrrrrrrrrrrrrrrrrrrrrrrrrrrrrrrrrrrrrrrrrrrrr",
",rrrrrrrrrrrrrrrrrrrrrrrrrrrrrrrrrrrrrrrrrrrrrrrrr",
",rrrrrrrrrrrrrrrrrrrrrrrrrrrrrrrrrrrrrrrrrrrrrrrrr",
":eeeeeeeeeeeeeeeeeeeeeeeeeeeeeeeeeeeeeeeeeeeeeeeee",
",rrrrrrrrrrrrrrrrrrrrrrrrrrrrrrrrrrrrrrrtttttrrtrr",
"wKKSSSBBSSBbbvklxxcbbbbbnBNNBSDKLLPPIIIIYYYYYIUTER",
"4mmjjjhhjjhddauiiipddddsfhgghjzmMMCZVVVVFFFFFVAGJH",
"=0000022002339888873333332332000000000000000000000",
"*<<<<<<<<<<<<<<<<<<<<<<<<<<<<<<<<<<<<<<<<<<<<<<<<<",
"-2222222222222222222222222222222222222222222222222",
";qqqqqqqqqqqqqqqqqqqqqqqqqqqqqqqqqqqqqqqqqqqqqqqqq",
"@%%%%%%%%%%%%%%%%%%%%%%%%%%%%%%%%%%%%%%%%%%%%%%%%%",
".OOOOOOOOOOOOOOOOOOOOOOOOOOOOOOOOOOOOOOOOOOOOOOOOO"
};
