/* XPM */
static char *result[] = {
/* columns rows colors chars-per-pixel */
"50 50 211 2 ",
"   c #64361E",
".  c #693721",
"X  c #673820",
"o  c #663B22",
"O  c #6A3822",
"+  c #693A23",
"@  c #6A3C24",
"#  c #6C3C24",
"$  c #6D3D25",
"%  c #6E3E26",
"&  c #6E3F28",
"*  c #6E4029",
"=  c #6F4029",
"-  c #6C412E",
";  c #70402A",
":  c #70412B",
">  c #70422C",
",  c #70432D",
"<  c #764F39",
"1  c #715948",
"2  c #725A48",
"3  c #725A49",
"4  c #735B49",
"5  c #735B4A",
"6  c #765D4C",
"7  c #775F4F",
"8  c #7A5F4D",
"9  c #7B604E",
"0  c #7B614F",
"q  c #7C614F",
"w  c #776150",
"e  c #766152",
"r  c #796152",
"t  c #786252",
"y  c #7C6050",
"u  c #7C6150",
"i  c #7D6150",
"p  c #7C6250",
"a  c #7C6251",
"s  c #7D6251",
"d  c #7E6251",
"f  c #7D6452",
"g  c #7E6552",
"h  c #7F6553",
"j  c #7E6653",
"k  c #746E61",
"l  c #746E62",
"z  c #746F62",
"x  c #746E63",
"c  c #746F63",
"v  c #767166",
"b  c #747368",
"n  c #757469",
"m  c #767469",
"M  c #767569",
"N  c #76756A",
"B  c #75766A",
"V  c #7A796E",
"C  c #7D796E",
"Z  c #7F7B71",
"A  c #7F7C71",
"S  c #7F7F75",
"D  c #806353",
"F  c #806653",
"G  c #866C5B",
"H  c #8D7766",
"J  c #807C71",
"K  c #817D72",
"L  c #818177",
"P  c #868375",
"I  c #868376",
"U  c #878476",
"Y  c #878477",
"T  c #888577",
"R  c #828278",
"E  c #878379",
"W  c #82847A",
"Q  c #878478",
"!  c #888578",
"~  c #888479",
"^  c #888579",
"/  c #898579",
"(  c #898678",
")  c #898679",
"_  c #88847A",
"`  c #89857B",
"'  c #88867A",
"]  c #89867A",
"[  c #89877A",
"{  c #88877B",
"}  c #8A867A",
"|  c #8A877A",
" . c #8A867B",
".. c #8A877B",
"X. c #89887A",
"o. c #89887B",
"O. c #8A887A",
"+. c #8B887A",
"@. c #8A887B",
"#. c #8B887B",
"$. c #8A897B",
"%. c #8B897B",
"&. c #8C897B",
"*. c #8C8B7B",
"=. c #89887C",
"-. c #89897C",
";. c #89897D",
":. c #8A887C",
">. c #8B887C",
",. c #898A7D",
"<. c #8A8A7D",
"1. c #8B8A7D",
"2. c #8B8B7D",
"3. c #8B8A7E",
"4. c #8C897C",
"5. c #8C897D",
"6. c #8C8A7C",
"7. c #8D8A7C",
"8. c #8C8B7C",
"9. c #8D8B7C",
"0. c #8C8A7D",
"q. c #8D8A7D",
"w. c #8D8B7D",
"e. c #8E8B7C",
"r. c #8E8B7D",
"t. c #8D8A7E",
"y. c #8D8A7F",
"u. c #8D8B7F",
"i. c #8E8A7E",
"p. c #8E8B7E",
"a. c #8E8B7F",
"s. c #8B8C7F",
"d. c #8D8C7D",
"f. c #8E8C7D",
"g. c #8E8D7D",
"h. c #8F8D7D",
"j. c #8E8C7E",
"k. c #8E8D7E",
"l. c #8F8D7E",
"z. c #8F8C7F",
"x. c #8F8D7F",
"c. c #8F8E7E",
"v. c #908E7D",
"b. c #8F8B81",
"n. c #8E8C80",
"m. c #8F8C80",
"M. c #8E8D80",
"N. c #8E8E80",
"B. c #8E8F80",
"V. c #8F8F80",
"C. c #908D80",
"Z. c #918D80",
"A. c #908C81",
"S. c #908D81",
"D. c #918D81",
"F. c #908E80",
"G. c #908F80",
"H. c #918D82",
"J. c #928D83",
"K. c #918E82",
"L. c #928E83",
"P. c #928F83",
"I. c #928D84",
"U. c #928F84",
"Y. c #928F85",
"T. c #928E86",
"R. c #8F9080",
"E. c #8F9081",
"W. c #8F9082",
"Q. c #909181",
"!. c #939084",
"~. c #939085",
"^. c #939086",
"/. c #929087",
"(. c #929187",
"). c #949086",
"_. c #949186",
"`. c #949087",
"'. c #949187",
"]. c #969186",
"[. c #959286",
"{. c #939188",
"}. c #949089",
"|. c #959288",
" X c #949289",
".X c #979389",
"XX c #989389",
"oX c #99958C",
"OX c #99958D",
"+X c #99968C",
"@X c #99968D",
"#X c #9A978D",
"$X c #99968E",
"%X c #9A978E",
"&X c #98988F",
"*X c #9B988F",
"=X c #9B998F",
"-X c #9B9A91",
";X c #9C9990",
":X c #9D9A91",
">X c #9E9A91",
",X c #9D9A92",
"<X c #9E9B92",
"1X c #A09D93",
"2X c #A09D95",
"3X c #A29F96",
"4X c #A6A197",
"5X c #A4A19A",
"6X c #A8A59C",
"7X c #AAABA2",
"8X c None",
/* pixels */
"8X8X8X8XX . O + @ # $ % % & * = ; : : : > > > > > > > > > > > > > > > > > , , , , , , , , , , , , , ",
"8X8X8X< G D y a a p d q 8 9 0 0 q u u i s s s s s s s s s a s g F h h h h j j j j j j j j j j j f a ",
"8X8X  H 7X-X/. X{.(.(.n.-.3.1.<.,.,.,.,.<.<.<.<.<.<.<.<.<.,.<.M.Q.W.W.W.W.W.E.E.E.E.E.E.E.E.E.E.s.;.",
"8Xo e ).6X+XU.'.^.^.(.u.{ =.=.=.=.=.=.=.o.o.o.o.o.o.o.o.o.o.o.:.0.N.G.V.V.V.V.N.N.N.N.N.N.N.B.R.2.{ ",
"- 6 Z &X4XXXA.L.J.A.p...! ) ) ) ) ) ) ) ) ) ) ) ) ) ) ) ) ^ / ] 4.f.9.&.&.&.6.d.f.f.f.f.f.g.r.6.[ ^ ",
"7 R A ).4X.XA.H.D.p.) ! ) ) ) ) ) ) ) ) ) ) ) ) ) ) ) ) ) ) ) 7.l.f.$.^ ) / ) 9.g.f.f.f.f.f.7.) ) ) ",
"t W J I.1X].z.S.K.p.) ^ ) ) ) ) ) ) ) ) ) ) ) ) ) ) / ' &.e.9.r.h.h.@./ ) ! ) p.F.x.F.q.[ O.| ) ) ) ",
"7 L J T.2X_.z.C.m.4.) ^ ) ) ) ) ) ) ) ) ) ) ) ) ) ) / ' 9.c.k.h.f.7.X./ ) ! ) q.p.i.i.#.! ^ ) ) ) ) ",
"7 L A }.5X|.z.m.#.! ) ) ) ) ) ) ) ) ) ) ) ) ) ) ) ) / ' 8.h.f.g.*.} ) ) ) ) ) | ) ) ) ) ) ) ) ) ) ) ",
"7 L K `.3X[.m.m.#.T ) ) ) ) ) ) ) ) ) ) ) ) ) ) ) ) ) ) | %.#.%.+.) ) ) ) ) ) ) ! ) ! ) ) ) ) ) ) ) ",
"w L C b.<X_.m.m.#.! ) ) ) ) ) ) ) ) ) ) ) ) ) ) ) ) ) ) ) ^ ^ ^ ) ) ) ) ) ) ) ) ) ) ) ) ) ) ) ) ) ) ",
"r S v ` :X_.m.m.#.Y ! ) ) ) ) ) ) ) ) ) ) ) ) ) ) ) ) ) ) ) ) ) ) ) ) ) ) ) ) ) ) ) ) ) ) ) ) ) ) ) ",
"6 V k _ >X'.S.S.y.5.q.| ! ) ) ) ) ) ) ) ) ) ) ) ) ) ) ) ) ) ) ) ) ) ) ) ) ) ) ) ) ) ) ) ) ) ) ) ) ) ",
"1 b l ` ,X~.y.m.S.K.K.>.! ) ) ) ) ) ) ) ) ) ) ) ) ) ) ) ) ) ) ) ) ) ) ) ) ) ) ) ) ) ) ) ) ) ) ) ) ) ",
"2 n l  .;Xz.T ..a.K.S.>.! ) ) ) ) ) ) ) ) ) ) ) ) ) ) ) ) ) ) ) ) ) ) ) ) ) ) ) ) ) ) ) ) ) ) ) ) ) ",
"2 n z  .=Xt.P ^ a.P.K.>.! ) ) ) ) ) ) ) ) ) ) ) ) ) ) ) ) ) ) ) ) ) ) ) ) ) ) ) ) ) ) ) ) ) ) ) ) ) ",
"2 n z ` *Xp.U ) t.Z.m.>.! ) ) ) ) ) ) ) ) ) ) ) ) ) ) ) ) ) ) ) ) ) ) ) ) ) ) ) ) ) ) ) ) ) ) ) ) ) ",
"2 m c _ %Xt.Y ) | ..| | ) ) ) ) ) ) ) ) ) ) ) ) ) ) ) ) ) ) ) ) ) ) ) ) ) ) ) ) ) ) ) ) ) ) ) ) ) ) ",
"2 m c _ %Xt.Y ) / ! ! ) ) ) ) ) ) ) ) ) ) ) ) ) ) ) ) ) ) ) ) ) ) ) ) ) ) ) ) ) ) ) ) ) ) ) ) ) ) ) ",
"2 m c _ %Xt.Y ) ) ) ) ) ) ) ) ) ) ) ) ) ) ) ) ) ) ) ) ) ) ) ) ) ) ) ) ) ) ) ) ) ) ) ) ) ) ) ) ) ) ) ",
"2 m c _ %Xt.Y ) ) ) ) ) ) ) ) ) ) ) ) ) ) ) ) ) ) ) ) ) ) ) ) ) ) ) ) ) ) ) ) ) ) ) ) ) ) ) ) ) ) ) ",
"2 m c _ %Xt.Y ) ) ) ) ) ) ) ) ) ) ) ) ) ) ) ) ) ) ) ) ) ) ) ) ) ) ) ) ) ) ) ) ) ) ) ) ) ) ) ) ) ) ) ",
"2 m c _ %Xt.Y ) ) ) ) ) ) ) ) ) ) ) ) ) ) ) ) ) ) ) ) ) ) ) ) ) ) ) ) ) ) ) ) ) ) ) ) ) ) ) ) ) ) ) ",
"2 m c _ %Xt.Y ) ) ) ) ) ) ) ) ) ) ) ) ) ) ) ) ) ) ) ) ) ) ) ) ) ) ) ) ) ) ) ) ) ) ) ) ) ) ) ) ) ) ) ",
"2 m c _ %Xt.Y ) ) ) ) ) ) ) ) ) ) ) ) ) ) ) ) ) ) ) ) ) ) ) ) ) ) ) ) ) ) ) ) ) ) ) ) ) ) ) ) ) ) ) ",
"3 m c _ %Xt.Y ) ) ) ) ) ) ) ) ) ) ) ) ) ) ) ) ) ) ) ) ) ) ) ) ) ) ) ) ) ) ) ) ) ) ) ) ) ) ) ) ) ) ) ",
"3 m c _ %Xt.Y ) ) ) ) ) ) ) ) ) ) ) ) ) ) ) ) ) ) ) ) ) ) ) ) ) ) ) ) ) ) ) ) ) ) ) ) ) ) ) ) ) ) ) ",
"5 M c _ %Xt.Y ) ) ) ) ) ) ) ) ) ) ) ) ) ) ) ) ) ) ) ) ) ) ) ) ) ) ) ) ) ) ) ) ) ) ) ) ) ) ) ) ) ) ) ",
"5 M c _ %Xt.Y ) ) ) ) ) ) ) ) ) ) ) ) ) ) ) ) ) ) ) ) ) ) ) ) ) ) ) ) ) ) ) ) ) ) ) ) ) ) ) ) ) ) ) ",
"5 M c _ #Xt.Y ) ) ) ) ) ) ) ) ) ) ) ) ) ) ) ) ) ) ) ) ) ) ) ) ) ) ) ) ) ) ) ) ) ) ) ) ) ) ) ) ) ) ) ",
"5 N c ~ #Xt.Y ) ) ) ) ) ) ) ) ) ) ) ) ) ) ) ) ) ) ) ) ) ) ) ) ) ) ) ) ) ) ) ) ) ) ) ) ) ) ) ) ) ) ) ",
"5 N c ~ #Xq.I ( ) ) ) ) ) ) ) ) ) ) ) ) ) ) ) ) ) ) ) ) ) ) ) ) ) ) ) ) ) ) ) ) ) ) ) ) ) ) ) ) ) ) ",
"5 N c ~ #Xm.+.#.) ! ! ) ) ) ) ) ) ) ) ) ) ) ) ) ) ) ) ) ) ) ) ) ) ) ) ) ) ) ) ) ) ) ) ) ) ) ) ) ) ) ",
"5 N c ~ %X!.z.a...! ) ) ) ) ) ) ) ) ) ) ) ) ) ) ) ) ) ) ) ) ) ) ) ) ) ) ) ) ) ) ) ) ) ) ) ) ) ) ) ) ",
"5 N c ~ %X!.m.m.p.q.q.#.! ) ) ) ) ) ) ) ) ) ) ) ) ) ) ) ) ) ) ) ) ) ) ) ) ) ) ) ) ) ) ) ) ) ) ) ) ) ",
"5 N c ~ %X!.a.m.C.C.C.4.! ) ) ) ) ) ) ) ) ) ) ) ) ) ) ) ) ) ) ) ) ) ) ) ) ) ) ) ) ) ) ) ) ) ) ) ) ) ",
"5 N c ~ %X!.p.z.z.z.z.#.! ) ) ) ) ) ) ) ) ) ) ) ) ) ) ) ) ) ) ) ) ) ) ) ) ) ) ) ) ) ) ) ) ) ) ) ) ) ",
"5 N c ~ %X!.z.p.4.#.#.| ) ) ) ) ) ) ) ) ) ) ) ) ) ) ) ) ) ) ) ) ) ) ) ) ) ) ) ) ) ) ) ) ) ) ) ) ) ) ",
"5 N c ~ %X!.z.p.| Y ! ) ) ) ) ) ) ) ) ) ) ) ) ) ) ) ) ) ) ) ) ) ) ) ) ) ) ) ) ) ) ) ) ) ) ) ) ) ) ) ",
"5 N c E $XU.z.p.| ! ) ) ) ) ) ) ) ) ) ) ) ) ) ) ) ) ) ) ) ) ) ) ) ) ) ) ) ) ) ) ) ) ) ) ) ) ) ) ) ) ",
"5 N c E $XU.z.p.| ! ) ) ) ) ) ) ) ) ) ) ) ) ) ) ) ) ) ) ) ) ) ) ) ) ) ) ) ) ) ) ) ) ) ) ) ) ) ) ) ) ",
"5 N c E $XU.z.p.| ! ) ) ) ) ) ) ) ) ) ) ) ) ) ) ) ) ) ) ) ) ) ) ) ) ) ) ) ) ) ) ) ) ) ) ) ) ) ) ) ) ",
"5 N c E $XU.z.p.| Q ^ ^ / ) ) ) ) ) ) ) ) ) ) ) ) ) ) ) ) ) ) ) ) ) ) ) ) ) ) ) ) ) ) ) ) ) ) ) ) ) ",
"5 N c E $XY.m.z.6.+.%.&.+.) ) ) ) ) ) ) ) ) ) ) ) ) ) ) ) ) ) ) ) ) ) ) ) ) ) ) ) ) ) ) ) ) ) ) ) ) ",
"5 B x E $XP.t.z.j.h.f.h.7.) ) ) ) ) ) ) ) ) ) ) ) ) ) ) ) ) ) ) ) ) ) ) ) ) ) ) ) ) ) ) ) ) ) ) ) ) ",
"5 B c ~ OXa./ #.9.h.f.h.7.) ) ) ) ) ) ) ) ) ) ) ) ) ) ) ) ) ) ) ) ) ) ) ) ) ) ) ) ) ) ) ) ) ) ) ) ) ",
"5 B c ~ @Xq.I ) 9.v.f.h.9.) ) ) ) ) ) ) ) ) ) ) ) ) ) ) ) ) ) ) ) ) ) ) ) ) ) ) ) ) ) ) ) ) ) ) ) ) ",
"4 B c ~ @Xt.Y ) 6.f.w.f.7.) ) ) ) ) ) ) ) ) ) ) ) ) ) ) ) ) ) ) ) ) ) ) ) ) ) ) ) ) ) ) ) ) ) ) ) ) ",
"5 N c ~ @Xt.T ) | O.| O.[ ) ) ) ) ) ) ) ) ) ) ) ) ) ) ) ) ) ) ) ) ) ) ) ) ) ) ) ) ) ) ) ) ) ) ) ) ) ",
"5 N c ~ oXt.T ) ) ^ ^ ^ / ) ) ) ) ) ) ) ) ) ) ) ) ) ) ) ) ) ) ) ) ) ) ) ) ) ) ) ) ) ) ) ) ) ) ) ) ) "
};
