/* XPM */
static char *result[] = {
/* columns rows colors chars-per-pixel */
"50 50 72 1 ",
"  c #592204",
". c #5B2408",
"X c #5F2A0F",
"o c #542A15",
"O c #562C19",
"+ c #582E1A",
"@ c #5B331E",
"# c #612A0E",
"$ c #632C11",
"% c #633016",
"& c #65341B",
"* c #6A351D",
"= c #66381F",
"- c #5C3420",
"; c #5E3822",
": c #6D3720",
"> c #663B23",
", c #6A3B23",
"< c #623E2A",
"1 c #6C3F29",
"2 c #63422D",
"3 c #6E432C",
"4 c #71452F",
"5 c #654531",
"6 c #6F4732",
"7 c #664833",
"8 c #6E4934",
"9 c #6B4D3A",
"0 c #724732",
"q c #704A35",
"w c #734D39",
"e c #6C503D",
"r c #615243",
"t c #61574A",
"y c #61584B",
"u c #705744",
"i c #795645",
"p c #705847",
"a c #655F52",
"s c #656051",
"d c #656358",
"f c #736253",
"g c #736E62",
"h c #777266",
"j c #787367",
"k c #76766B",
"l c #7B766B",
"z c #777A6F",
"x c #7F786D",
"c c #7F7E74",
"v c #807366",
"b c #8B7365",
"n c #867E71",
"m c #878477",
"M c #898476",
"N c #898679",
"B c #8C897D",
"V c #918B7F",
"C c #8E8C80",
"Z c #908D82",
"A c #988F85",
"S c #8F9084",
"D c #939085",
"F c #989186",
"G c #959489",
"H c #99968D",
"J c #9B998F",
"K c #9C9990",
"L c #A29E94",
"P c #A3A59D",
"I c #A8AAA2",
"U c None",
/* pixels */
"UUUUUOOOO++@@-@@@>--@;@@@>;@-;-->@@@@++++OoooUUUUU",
"UUUUU3w8888ww9wwwwww98wwwqw9wwwwwwwqwqqq00600=UUUU",
"UUUU%bJNmNNBMBMMBmnnmnnmnnncMNBMMNNNNNMNMNMVFi UUU",
"UUU&pAIHGGGGGDDSSSBBBBBBCCCBZZZADDZSGGGGGGGKPl;XUU",
"UU&9kHLZBSBBBNmNmNNNNNNNNNNNNNNNNNmNCZCCZCVGLmr<.U",
"$>pgjFLZVSBBBNmNNNNNNNNNNNNNNNNNNNmNZZZCZZVGKlyy>=",
"X&fzjDLZVBNmmNNNNNNNNNNNNNNNNNNNNNNNBBCCZCBGKxyd<>",
"$&fkjFLZVVNmNNNNNNNNNNNNNNNNNNNNNNNNNNmCZVCGLxyd<>",
"$&fkjDLDVBBNNNNNNNNNNNNNNNNNNNNNNNNNNmNCZCCGKxya<=",
"$=fkjAKZBBBmNNNNNNNNNNNNNNNNNNNNNNNNNNmCCCCGKnya<,",
"$=akjDKBNmNNNNNNNNNNNNNNNNNNNNNNNNNNNNNNnCCGKnya<,",
"%,fklZLNmNNNNNNNNNNNNNNNNNNNNNNNNNNNNNNNCnCHKxya2,",
"%>fjjZKNmNNNNNNNNNNNNNNNNNNNNNNNNNNNCmCmnCCCKlya<>",
"%>fkkZKNmNNNNNNNNNNNNNNNNNNNNNNNNNNNmmmmCnnCKlya21",
"%>fklZHNmNNNNNNNNNNNNNNNNNNNNNNNNNNNmmCmCnCCKlya<,",
"*,fklZHBmNNNNNNNNNNNNNNNNNNNNNNNNNNmmCcCnCmCKlya21",
"%3fkkCGBmNNNNNNNNNNNNNNNNNNNNNNNNNNNNNNNNCCGKlya23",
"*,fklDHNmNNNNNNNNNNNNNNNNNNNNNNNNNNNNNNNBCCGKvya23",
"%1fklDHBmNNNNNNNNNNNNNNNNNNNNNNNNNNNNNNNCCCFKlta23",
"*1fklZHNmNNNNNNNNNNNNNNNNNNNNNNNNNNNNBCCCCCGKlta23",
"*,fklDHBmNNNNNNNNNNNNNNNNNNNNNNNNNNNNBCGCZCGJkya23",
"*,flkDHNmNNNNNNNNNNNNmNNNNNNNNNNNNNNmBCCZZCHKlya53",
"&3fkkSJNmNNNNNNNNNNNNNNNNNNNNNNNNNNNNNCZZZZGKlya23",
"*3fkkSHNmNNNNNNNNNNNNNNNNNNNNNNNNNNNNNNBBNBFKlya76",
"*,fkkZHNmNNNNNNNNNNNNNNNNNNNNNNNNNNNNNNmNmNGKxya53",
"*3fklZHNmNNNNNNNNNNNNmNNNNNNNNNNNNNNNNNNmNBHKvys56",
"*3fkkZHNmNNNNNNNNNNNNNNNNNNNNNNNNNNNNNNNNBCFKlys53",
"*1fklZHBNNNNNNNNNNNNNNNNNNNNNNNNNNNNNNNNBCCFKlys56",
":1fklZHZBBNNNNNNNNNNNNNNNNNNNNNNNNNNNNNNNZZFKlys53",
">1fklZHZVSNNNNNNNNNNNNNNNNNNNNNNNNNNNNNmNCBGJlys53",
"*1fllZHZSBNmNNNNNNNNNNNNNNNNNNNNNNNNNNNNNNmCJlys56",
":1fklZJZSCCCCNmNNNNNNNNNNNNNNNNNNNNNNNNNNNmCJkys53",
":1fllZKZCZZZCNnCNNNNNNNNNNNNNNNNNNNNNNNNNNmCKkya56",
":1fljZKCCZZZCNMNNNNNNNNNNNNNNNNNNNNNNNNNNNNCKzya53",
":1fklZKCCZZZZNNNNNNNNNNNNNNNNNNNNNNNNNNNNNcCKlya53",
":1fkjCKCCZZCCNNNNNNNNNNNNNNNNNNNNNNNNNNNNNNSJlya54",
":1fklZKCCCZCMNNNNNNNNNNNNNNNNNNNNNNNNNNNNNmCKlya53",
":6fkkZKZZCCNMNNNNNNNNNNNNNNNNNNNNNNNNNNNNNnZJxya56",
":1fklZKZZCNmNNNNNNNNNNNNNNNNNNNNNNNNNNNNNCMZKlya53",
":6fklZKCZCNmNNNNNNNNNNNNNNNNNNNNNNNNNNNNNCCGKlya53",
":0fklZHCBBBCBNMNNNNNNNNNNNNNNNNNNNNNNNCmCCCGKlta53",
",1fkjZGNmMZZZNNNNNNNNNNNNNNNNNNNNNNNNmmNNCCGKlta56",
":1fklZHNmNZZZZBNNNNNNNNNNNNNNNNNNNNNNNNmNCCGLlta56",
"11fklZHNmNZZZZBNNNNNNNNNNNNNNNNNNNNNNNNNCCZGKlta60",
":1fxkZHBNNBZZZBNNNNNNNNNNNNNNNNNNNmNNNNmNCCDKlta51",
":1fzlZHNNNBNNBNNNNNNNNNNNNNNNNNNNNNNNNNNNCmDHlta91",
":0fzlZHNmNmNNNNNNNNNNNNNNNNNNNNNNNNNNNNNNmnDKxta61",
":1flkZGNNNNNNNNNNNNNNNNNNNNNNNNNNNNNNNNNNNmCKvya51",
":1fllZHCmmCmCmmmCmNNNNNNNNNNNNNNNNNNNNNNNNmDKlya9:",
"11fllCHnnCmmmmmCmmNNNNNNNNNNNNNNNNNNNNNNNNmCKlyar&"
};
